<svg xmlns="http://www.w3.org/2000/svg" xmlns:xlink="http://www.w3.org/1999/xlink" width="500" zoomAndPan="magnify" viewBox="0 0 375 374.999991" height="500" preserveAspectRatio="xMidYMid meet" version="1.0"><defs><g/><clipPath id="60161a56af"><path d="M 231.597656 113 L 280.84375 113 L 280.84375 126.75 L 231.597656 126.75 Z M 231.597656 113 " clip-rule="nonzero"/></clipPath><clipPath id="5222a21802"><path d="M 212.5 129.269531 L 279.714844 129.269531 L 279.714844 163.867188 L 212.5 163.867188 Z M 212.5 129.269531 " clip-rule="nonzero"/></clipPath><clipPath id="81b7ab03a9"><path d="M 167.617188 149 L 193 149 L 193 161 L 167.617188 161 Z M 167.617188 149 " clip-rule="nonzero"/></clipPath></defs><rect x="-37.5" width="450" fill="#ffffff" y="-37.499999" height="449.999989" fill-opacity="1"/><rect x="-37.5" width="450" fill="#ffffff" y="-37.499999" height="449.999989" fill-opacity="1"/><rect x="-37.5" width="450" fill="#efefef" y="-37.499999" height="449.999989" fill-opacity="1"/><path fill="#1c5d72" d="M 190.863281 146.675781 C 190.136719 146.910156 189.378906 147.03125 188.597656 146.976562 C 187.988281 146.9375 187.398438 146.792969 186.847656 146.542969 C 185.757812 146.042969 184.929688 145.191406 184.332031 144.203125 C 184.121094 144.117188 183.914062 144.03125 183.714844 143.949219 C 184.324219 145.675781 185.445312 147.347656 187.214844 148.15625 C 187.804688 148.425781 188.4375 148.582031 189.097656 148.625 C 190.578125 148.722656 191.996094 148.25 193.25 147.5 C 192.429688 147.222656 191.632812 146.945312 190.863281 146.675781 " fill-opacity="1" fill-rule="evenodd"/><path fill="#1c5d72" d="M 237.238281 128.535156 C 244.417969 127.597656 246.324219 135.566406 244.695312 141.714844 C 249.738281 138.140625 258.023438 132.644531 266.464844 130.464844 C 266.609375 128.972656 266.914062 126.503906 267.765625 124.183594 C 269.003906 120.820312 271.609375 118.257812 275.292969 120.683594 C 271.648438 118.96875 269.683594 121.082031 268.472656 124.628906 C 267.683594 126.945312 267.398438 129.371094 267.496094 130.886719 C 257.652344 134.976562 247.988281 140.988281 240.964844 147.578125 C 244.675781 139.0625 244.953125 130.507812 237.238281 128.535156 " fill-opacity="1" fill-rule="evenodd"/><path fill="#1c5d72" d="M 237.238281 128.535156 C 244.417969 127.597656 246.324219 135.566406 244.695312 141.714844 C 250.285156 137.753906 257.4375 132.746094 267.496094 130.886719 C 256.539062 135.113281 248.503906 140.503906 240.964844 147.578125 C 244.675781 139.0625 244.953125 130.507812 237.238281 128.535156 " fill-opacity="1" fill-rule="evenodd"/><path fill="#1c5d72" d="M 227.253906 124.613281 C 215.675781 133.667969 212.597656 132.453125 198.355469 130.160156 L 181.914062 127.121094 L 198.59375 128.84375 C 212.234375 130.898438 214.949219 132.183594 227.253906 124.613281 " fill-opacity="1" fill-rule="evenodd"/><path fill="#1c5d72" d="M 220.253906 124.976562 C 219.746094 126.070312 218.820312 126.851562 217.703125 127.546875 C 216.875 128.058594 215.796875 128.480469 214.152344 128.65625 C 207.976562 129.320312 204.914062 127.65625 201.007812 127.191406 C 204.890625 126.867188 209.734375 128.570312 213.425781 127.882812 C 214.214844 127.738281 214.871094 127.527344 215.332031 127.242188 C 216.324219 126.628906 217.144531 125.933594 217.59375 124.960938 L 217.636719 124.875 C 217.480469 124.84375 217.316406 124.816406 217.144531 124.789062 C 212.371094 124.019531 208.703125 123.921875 206.144531 124.425781 C 208.765625 123.695312 212.671875 123.644531 217.855469 124.367188 C 217.949219 124.140625 218.023438 123.933594 218.078125 123.75 C 217.65625 123.5 216.910156 123.359375 215.785156 123.222656 C 211.027344 122.636719 207.394531 122.683594 204.886719 123.28125 C 207.710938 122.371094 212.117188 122.222656 218.097656 122.957031 L 218.164062 122.964844 C 218.039062 122.269531 217.179688 122.074219 215.300781 121.925781 C 210.375 121.539062 206.636719 121.742188 204.085938 122.457031 C 206.949219 121.40625 211.476562 121.066406 217.671875 121.554688 C 221.113281 121.828125 221.523438 122.238281 220.253906 124.976562 " fill-opacity="1" fill-rule="evenodd"/><path fill="#1c5d72" d="M 270.925781 115.777344 C 260.132812 113.347656 241.175781 113.671875 231.6875 115.308594 L 231.796875 113.824219 C 241.261719 112.542969 260.164062 112.933594 270.925781 115.777344 " fill-opacity="1" fill-rule="evenodd"/><path fill="#1c5d72" d="M 233.636719 115.007812 C 232.941406 115.058594 232.382812 115.257812 231.6875 115.308594 C 226.933594 109.707031 230.882812 102.691406 241.03125 102.246094 C 251.6875 101.777344 261.632812 108.511719 267.449219 114.808594 C 260.085938 109.117188 253.691406 103.332031 242.46875 103.910156 C 234.660156 104.3125 228.851562 108.761719 233.636719 115.007812 " fill-opacity="1" fill-rule="evenodd"/><path fill="#1c5d72" d="M 237.789062 129.433594 C 237.5625 129.421875 237.335938 129.433594 237.113281 129.453125 C 237.609375 129.484375 238.082031 129.605469 238.523438 129.824219 C 239.894531 130.503906 240.746094 131.972656 241.195312 133.507812 C 241.503906 134.550781 241.644531 135.675781 241.65625 136.8125 C 241.671875 137.957031 241.554688 139.117188 241.339844 140.234375 C 241.074219 141.621094 240.636719 143.027344 240.046875 144.355469 C 239.453125 145.691406 238.691406 146.945312 237.785156 148.03125 C 237.097656 148.851562 236.277344 149.617188 235.375 150.160156 C 234.46875 150.707031 233.480469 151.035156 232.46875 150.96875 C 231.941406 150.933594 231.433594 150.792969 230.964844 150.539062 C 229.5625 149.777344 228.726562 148.179688 228.316406 146.542969 C 228.121094 145.769531 228.011719 144.960938 227.972656 144.144531 C 227.945312 145.417969 228.058594 146.683594 228.355469 147.875 C 228.804688 149.652344 229.703125 151.390625 231.21875 152.210938 C 231.726562 152.484375 232.273438 152.636719 232.847656 152.675781 C 233.9375 152.75 235.003906 152.398438 235.980469 151.808594 C 236.957031 151.21875 237.847656 150.386719 238.585938 149.5 C 239.5625 148.328125 240.378906 146.964844 241.019531 145.519531 C 241.65625 144.082031 242.121094 142.558594 242.40625 141.0625 C 242.636719 139.855469 242.757812 138.601562 242.738281 137.363281 C 242.722656 136.140625 242.566406 134.929688 242.234375 133.804688 C 241.742188 132.148438 240.820312 130.5625 239.347656 129.835938 C 238.859375 129.59375 238.332031 129.457031 237.789062 129.433594 " fill-opacity="1" fill-rule="evenodd"/><path fill="#1c5d72" d="M 238.894531 129.855469 C 239.253906 130.027344 239.589844 130.242188 239.898438 130.492188 C 239.582031 131.558594 239.277344 132.601562 238.976562 133.617188 C 238.429688 135.476562 237.90625 137.261719 237.398438 138.984375 C 238.429688 138.96875 239.457031 138.953125 240.488281 138.9375 C 241.179688 138.925781 241.871094 138.914062 242.5625 138.902344 C 242.503906 139.941406 242.355469 141.003906 242.113281 142.066406 C 241.339844 142.242188 240.570312 142.414062 239.800781 142.582031 C 239.359375 142.679688 238.917969 142.777344 238.476562 142.875 C 238.195312 143.882812 237.585938 144.800781 236.839844 145.113281 C 236.851562 145.753906 236.867188 146.382812 236.882812 147 C 236.914062 148.179688 236.945312 149.328125 236.96875 150.445312 C 236.375 150.828125 235.769531 151.121094 235.160156 151.308594 C 234.992188 150.289062 234.816406 149.242188 234.636719 148.171875 C 234.480469 147.207031 234.3125 146.21875 234.144531 145.210938 C 234.019531 145.175781 233.898438 145.121094 233.785156 145.058594 C 233.058594 145.738281 232.347656 146.402344 231.648438 147.0625 C 230.867188 147.796875 230.097656 148.507812 229.34375 149.214844 C 228.953125 148.660156 228.621094 148.015625 228.351562 147.300781 C 229.054688 146.414062 229.78125 145.511719 230.515625 144.585938 C 231.140625 143.800781 231.785156 142.996094 232.441406 142.175781 C 232.402344 143.269531 232.730469 144.175781 233.3125 144.601562 C 232.578125 143.441406 232.710938 141.835938 233.269531 140.546875 C 233.828125 139.261719 234.8125 138.277344 235.804688 138.332031 C 236.207031 138.355469 236.503906 138.5625 236.792969 138.824219 C 237.085938 139.089844 237.386719 139.351562 237.683594 139.617188 C 237.28125 139.183594 236.640625 138.65625 236.308594 138.347656 C 236.066406 138.117188 235.773438 137.976562 235.433594 137.957031 C 234.230469 137.890625 232.945312 139.363281 232.550781 141.257812 C 232.546875 141.273438 232.542969 141.289062 232.542969 141.304688 C 231.960938 140.535156 231.371094 139.757812 230.773438 138.960938 C 230.207031 138.210938 229.632812 137.449219 229.050781 136.675781 C 229.496094 135.640625 230.019531 134.675781 230.601562 133.8125 C 231.199219 134.398438 231.804688 134.980469 232.410156 135.566406 C 233.238281 136.367188 234.050781 137.15625 234.851562 137.933594 C 235.457031 136.234375 236.082031 134.472656 236.734375 132.644531 C 237.097656 131.621094 237.46875 130.582031 237.84375 129.515625 C 238.199219 129.585938 238.550781 129.695312 238.894531 129.855469 Z M 237.746094 143.035156 C 238.054688 142.265625 238.183594 140.863281 237.472656 140.496094 C 237.886719 141.144531 237.339844 142.625 236.957031 143.210938 C 236.683594 143.625 236.269531 144 235.785156 143.925781 C 235.980469 144.371094 236.367188 144.507812 236.75 144.308594 C 237.226562 144.0625 237.546875 143.550781 237.746094 143.035156 " fill-opacity="1" fill-rule="evenodd"/><path fill="#1c5d72" d="M 272.953125 120.5625 C 272.84375 120.570312 272.734375 120.585938 272.625 120.609375 C 272.867188 120.601562 273.109375 120.640625 273.335938 120.738281 C 274.039062 121.03125 274.535156 121.777344 274.839844 122.574219 C 275.246094 123.648438 275.351562 124.914062 275.265625 126.09375 C 275.160156 127.550781 274.746094 129.0625 274.015625 130.25 C 273.46875 131.140625 272.65625 131.957031 271.707031 132.007812 C 271.460938 132.023438 271.214844 131.980469 270.980469 131.882812 C 270.277344 131.589844 269.78125 130.84375 269.476562 130.046875 C 269.335938 129.667969 269.230469 129.265625 269.15625 128.851562 C 269.226562 129.5 269.367188 130.132812 269.585938 130.714844 C 269.910156 131.570312 270.445312 132.375 271.203125 132.691406 C 271.453125 132.796875 271.71875 132.839844 271.984375 132.824219 C 273.003906 132.769531 273.878906 131.890625 274.46875 130.933594 C 275.253906 129.65625 275.699219 128.027344 275.8125 126.460938 C 275.90625 125.195312 275.789062 123.832031 275.351562 122.675781 C 275.027344 121.816406 274.492188 121.015625 273.738281 120.699219 C 273.484375 120.59375 273.222656 120.550781 272.953125 120.5625 " fill-opacity="1" fill-rule="evenodd"/><path fill="#1c5d72" d="M 273.46875 120.738281 C 273.652344 120.808594 273.824219 120.90625 273.988281 121.027344 C 273.898438 121.621094 273.8125 122.195312 273.726562 122.757812 C 273.570312 123.773438 273.421875 124.742188 273.28125 125.667969 C 273.765625 125.601562 274.25 125.539062 274.734375 125.472656 C 275.058594 125.429688 275.382812 125.386719 275.707031 125.339844 C 275.734375 125.882812 275.714844 126.4375 275.65625 126.996094 L 274.605469 127.390625 L 274.003906 127.613281 C 273.929688 128.140625 273.695312 128.640625 273.367188 128.839844 L 273.492188 129.789062 C 273.570312 130.375 273.648438 130.945312 273.722656 131.492188 C 273.46875 131.71875 273.207031 131.894531 272.941406 132.019531 C 272.804688 131.527344 272.664062 131.019531 272.519531 130.5 C 272.390625 130.027344 272.257812 129.542969 272.117188 129.042969 C 272.058594 129.03125 272 129.011719 271.941406 128.984375 L 271.0625 130.117188 C 270.746094 130.527344 270.433594 130.929688 270.128906 131.324219 C 269.910156 131.070312 269.714844 130.769531 269.542969 130.425781 C 269.8125 129.9375 270.09375 129.441406 270.382812 128.933594 C 270.625 128.496094 270.875 128.050781 271.132812 127.59375 C 271.183594 128.15625 271.394531 128.597656 271.691406 128.78125 L 271.667969 128.75 C 270.929688 127.8125 271.449219 125.476562 272.492188 125.417969 C 272.75 125.402344 272.9375 125.582031 273.125 125.726562 L 273.453125 125.980469 C 273.238281 125.777344 272.902344 125.539062 272.730469 125.394531 C 272.601562 125.289062 272.453125 125.234375 272.292969 125.242188 C 271.71875 125.273438 271.199219 126.113281 271.128906 127.117188 L 271.128906 127.140625 C 270.804688 126.777344 270.476562 126.40625 270.140625 126.023438 C 269.824219 125.664062 269.5 125.296875 269.167969 124.921875 C 269.308594 124.347656 269.496094 123.808594 269.71875 123.316406 L 270.703125 124.148438 C 271.148438 124.527344 271.585938 124.898438 272.015625 125.261719 C 272.199219 124.335938 272.394531 123.367188 272.59375 122.355469 C 272.707031 121.789062 272.824219 121.207031 272.945312 120.609375 C 273.121094 120.625 273.296875 120.667969 273.46875 120.738281 Z M 273.671875 127.734375 C 273.75 127.351562 273.78125 126.605469 273.402344 126.449219 C 273.667969 126.839844 273.414062 128.324219 272.808594 128.296875 C 273.085938 128.808594 273.539062 128.316406 273.671875 127.734375 " fill-opacity="1" fill-rule="evenodd"/><path fill="#1c5d72" d="M 244.550781 131.730469 C 246.597656 133.519531 247.152344 136.042969 247.199219 137.28125 C 249.070312 135.957031 252.113281 134.855469 255.480469 134.234375 C 251.8125 135.648438 248.378906 137.644531 245.855469 140.011719 C 246.273438 137.722656 245.910156 133.382812 244.550781 131.730469 " fill-opacity="1" fill-rule="evenodd"/><g clip-path="url(#60161a56af)"><path fill="#1c5d72" d="M 277.851562 126.664062 C 279.191406 124.9375 280.480469 122.957031 280.035156 121.246094 C 279.019531 117.355469 268.039062 115.621094 264.453125 115.261719 C 253.800781 114.183594 239.367188 114.035156 231.6875 115.308594 L 231.796875 113.824219 C 239.464844 112.796875 253.691406 112.808594 264.46875 114.328125 C 268.367188 114.878906 280.191406 116.773438 280.816406 121.300781 C 281.082031 123.242188 279.367188 125.285156 277.851562 126.664062 " fill-opacity="1" fill-rule="evenodd"/></g><path fill="#1c5d72" d="M 263.980469 111.414062 C 264.03125 111.070312 264.164062 110.121094 264.28125 109.835938 C 264.40625 109.527344 264.726562 109.339844 265.078125 109.375 C 267.03125 109.566406 268.726562 110.15625 270.1875 111.101562 C 270.484375 111.296875 270.597656 111.648438 270.464844 111.96875 C 270.171875 112.65625 269.820312 113.203125 269.40625 113.585938 C 269.269531 113.710938 269.109375 113.78125 268.917969 113.792969 C 268.304688 113.832031 267.667969 113.828125 267.011719 113.792969 C 267.390625 113.800781 267.808594 113.753906 268.167969 113.730469 C 268.332031 113.71875 268.46875 113.660156 268.585938 113.554688 C 268.941406 113.226562 269.195312 112.800781 269.445312 112.214844 C 269.558594 111.941406 269.464844 111.640625 269.207031 111.472656 C 267.960938 110.664062 266.511719 110.160156 264.84375 109.996094 C 264.613281 109.972656 264.390625 110.003906 264.273438 110.398438 C 264.234375 110.523438 264.15625 111.320312 264.140625 111.527344 C 264.132812 111.65625 264.023438 111.558594 263.980469 111.414062 " fill-opacity="1" fill-rule="evenodd"/><path fill="#1c5d72" d="M 262.980469 113.390625 C 263.515625 113.457031 264.050781 113.527344 264.582031 113.601562 C 264.609375 113.605469 264.636719 113.609375 264.664062 113.613281 C 257.996094 108.429688 252.148438 104.148438 242.511719 104.644531 C 240.410156 104.75 238.175781 105.179688 236.292969 106.085938 C 235.628906 106.402344 234.980469 106.800781 234.414062 107.28125 C 234.789062 107.027344 235.1875 106.808594 235.585938 106.617188 C 237.46875 105.710938 239.703125 105.28125 241.800781 105.175781 C 250.96875 104.707031 256.707031 108.550781 262.980469 113.390625 Z M 261.652344 113.214844 C 257.320312 109.636719 252.835938 106.863281 246.996094 105.878906 C 251.894531 107.152344 255.84375 109.742188 259.691406 112.953125 L 261.652344 113.214844 " fill-opacity="1" fill-rule="evenodd"/><path fill="#1c5d72" d="M 180.214844 142.667969 C 184.722656 144.199219 215.441406 151.992188 222.019531 150.808594 C 220.257812 145.519531 220.421875 137.3125 224.457031 131.8125 C 228.71875 126.007812 235.476562 124.9375 241.859375 125.234375 C 250.453125 125.632812 259.054688 128.300781 266.554688 123.269531 C 259.507812 129.34375 250.585938 126.792969 242.316406 126.417969 C 236.378906 126.148438 230.773438 127 226.445312 132.976562 C 222.222656 138.800781 224.128906 149.957031 225.398438 153.085938 C 212.414062 155.300781 186.886719 145.8125 180.214844 142.667969 " fill-opacity="1" fill-rule="evenodd"/><path fill="#1c5d72" d="M 199.695312 146.59375 L 198.761719 146.375 C 198.808594 145.753906 198.855469 145.136719 198.902344 144.515625 C 198.910156 144.417969 198.914062 144.324219 198.921875 144.226562 L 197.90625 143.949219 L 189.582031 141.664062 L 198.078125 143.417969 C 198.6875 143.542969 199.296875 143.667969 199.90625 143.796875 C 199.882812 144.066406 199.863281 144.339844 199.84375 144.613281 L 199.695312 146.59375 " fill-opacity="1" fill-rule="evenodd"/><path fill="#1c5d72" d="M 243.644531 102.273438 C 230.433594 101.398438 207.382812 100.324219 193.449219 110.332031 C 206.84375 98.621094 228.265625 100.589844 243.644531 102.273438 " fill-opacity="1" fill-rule="evenodd"/><g clip-path="url(#5222a21802)"><path fill="#1c5d72" d="M 228.917969 158.128906 L 235.3125 153.566406 L 224.695312 158.949219 C 227.472656 157.214844 230.265625 155.507812 233.078125 153.824219 C 234.355469 153.835938 235.5625 153.414062 236.636719 152.765625 C 237.746094 152.09375 238.726562 151.175781 239.539062 150.203125 C 240.089844 149.542969 240.585938 148.835938 241.027344 148.101562 C 251.160156 142.796875 261.636719 137.589844 270.964844 133.269531 C 271.210938 133.371094 271.472656 133.429688 271.738281 133.445312 C 257.277344 141.058594 243.050781 149.371094 228.917969 158.128906 Z M 274.890625 131.472656 C 276.507812 130.742188 278.082031 130.046875 279.605469 129.386719 L 279.601562 129.386719 L 279.605469 129.386719 C 277.898438 130.246094 276.195312 131.121094 274.5 132.003906 C 274.640625 131.832031 274.773438 131.652344 274.890625 131.472656 Z M 233.007812 153.820312 C 227.148438 157.078125 221.625 160.222656 216.835938 163.046875 L 229.214844 155.097656 L 212.542969 163.867188 C 217.988281 160.636719 224.324219 157.0625 231.0625 153.410156 C 231.597656 153.636719 232.167969 153.773438 232.761719 153.8125 C 232.84375 153.816406 232.925781 153.820312 233.007812 153.820312 " fill-opacity="1" fill-rule="evenodd"/></g><g clip-path="url(#81b7ab03a9)"><path fill="#1c5d72" d="M 184.019531 154.371094 L 190.414062 149.808594 L 179.796875 155.191406 C 182.753906 153.34375 185.734375 151.523438 188.730469 149.734375 C 188.824219 149.746094 188.917969 149.753906 189.011719 149.757812 C 190.257812 149.839844 191.464844 149.59375 192.582031 149.128906 C 189.726562 150.855469 186.871094 152.601562 184.019531 154.371094 Z M 188.703125 149.730469 C 182.625 153.105469 176.890625 156.371094 171.9375 159.289062 L 184.316406 151.339844 L 167.644531 160.109375 C 173.28125 156.765625 179.875 153.050781 186.878906 149.265625 C 187.460938 149.507812 188.074219 149.664062 188.703125 149.730469 " fill-opacity="1" fill-rule="evenodd"/></g><g fill="#ff914d" fill-opacity="1"><g transform="translate(107.903728, 228.028981)"><g><path d="M 20.03125 -13.492188 C 19.480469 -14.15625 19.035156 -15.023438 18.65625 -16.144531 C 18.28125 -17.265625 17.988281 -18.515625 17.761719 -19.875 C 17.535156 -21.234375 17.382812 -22.679688 17.289062 -24.195312 C 17.195312 -25.714844 17.164062 -27.242188 17.171875 -28.761719 C 17.167969 -30.199219 17.207031 -31.566406 17.320312 -32.882812 C 17.410156 -34.179688 17.578125 -35.359375 17.761719 -36.410156 C 17.960938 -37.441406 18.21875 -38.335938 18.507812 -39.078125 C 18.796875 -39.824219 19.140625 -40.332031 19.542969 -40.601562 C 19.851562 -40.808594 20.191406 -40.867188 20.523438 -40.78125 C 20.871094 -40.671875 21.253906 -40.414062 21.683594 -39.980469 C 21.820312 -40.796875 21.808594 -41.476562 21.648438 -42.019531 C 21.488281 -42.566406 21.242188 -42.984375 20.929688 -43.289062 C 20.265625 -43.871094 19.636719 -44.035156 19.101562 -43.8125 C 18.542969 -43.570312 18.039062 -42.992188 17.574219 -42.097656 C 17.074219 -41.105469 16.675781 -39.804688 16.320312 -38.191406 C 15.980469 -36.550781 15.707031 -34.714844 15.523438 -32.738281 C 15.359375 -30.734375 15.277344 -28.617188 15.277344 -26.417969 C 15.296875 -24.195312 15.449219 -22.027344 15.699219 -19.925781 C 15.324219 -20.226562 14.964844 -20.707031 14.597656 -21.351562 C 14.230469 -22 13.898438 -22.703125 13.5625 -23.507812 C 13.226562 -24.3125 12.914062 -25.132812 12.632812 -26.007812 C 12.34375 -26.847656 12.09375 -27.675781 11.867188 -28.417969 C 11.5 -29.679688 11.175781 -30.875 10.871094 -32.042969 C 10.578125 -33.1875 10.335938 -34.261719 10.09375 -35.234375 L 9.546875 -37.476562 C 9.027344 -37.023438 8.617188 -36.507812 8.367188 -35.960938 C 8.117188 -35.414062 7.851562 -34.789062 7.585938 -34.058594 C 7.195312 -32.902344 6.863281 -31.613281 6.585938 -30.1875 C 6.324219 -28.738281 6.09375 -27.242188 5.855469 -25.707031 C 5.609375 -24.132812 5.371094 -22.597656 5.15625 -21.078125 C 4.917969 -19.542969 4.625 -18.140625 4.292969 -16.851562 C 3.949219 -15.519531 3.527344 -14.410156 3.058594 -13.476562 C 2.589844 -12.539062 2.007812 -11.871094 1.28125 -11.519531 C 0.730469 -11.21875 0.207031 -11.175781 -0.300781 -11.316406 C -0.804688 -11.457031 -1.289062 -11.714844 -1.726562 -12.109375 C -2.171875 -12.460938 -2.578125 -12.910156 -2.929688 -13.429688 C -3.277344 -13.949219 -3.574219 -14.441406 -3.796875 -14.976562 C -4.1875 -14.230469 -4.519531 -13.496094 -4.75 -12.71875 C -4.984375 -11.941406 -5.15625 -11.175781 -5.230469 -10.367188 C -5.328125 -9.542969 -5.324219 -8.722656 -5.195312 -7.914062 C -5.089844 -7.09375 -4.886719 -6.335938 -4.535156 -5.609375 C -4.167969 -4.757812 -3.648438 -4.039062 -3.03125 -3.425781 C -2.410156 -2.8125 -1.671875 -2.378906 -0.894531 -2.148438 C -0.128906 -1.875 0.703125 -1.816406 1.589844 -1.929688 C 2.472656 -2.042969 3.375 -2.445312 4.320312 -3.082031 C 5.074219 -3.589844 5.671875 -4.441406 6.078125 -5.675781 C 6.5 -6.886719 6.800781 -8.328125 7.03125 -10.03125 C 7.25 -11.691406 7.394531 -13.472656 7.445312 -15.433594 C 7.5 -17.394531 7.539062 -19.382812 7.566406 -21.429688 C 7.589844 -23.4375 7.636719 -25.359375 7.699219 -27.257812 C 7.738281 -29.140625 7.886719 -30.859375 8.101562 -32.378906 C 8.21875 -30.464844 8.460938 -28.527344 8.824219 -26.609375 C 9.207031 -24.664062 9.746094 -22.792969 10.433594 -20.953125 C 10.65625 -20.3125 10.945312 -19.683594 11.265625 -19.003906 C 11.585938 -18.324219 11.976562 -17.695312 12.390625 -17.078125 C 12.804688 -16.464844 13.289062 -15.898438 13.820312 -15.363281 C 14.355469 -14.828125 14.925781 -14.386719 15.558594 -14.058594 C 16.210938 -13.703125 16.882812 -13.472656 17.644531 -13.363281 C 18.378906 -13.242188 19.1875 -13.269531 20.03125 -13.492188 Z M 20.03125 -13.492188 "/></g></g></g><g fill="#ff914d" fill-opacity="1"><g transform="translate(130.201695, 213.007708)"><g><path d="M 12.90625 -8.761719 C 14.058594 -9.195312 15.019531 -9.910156 15.820312 -10.863281 C 16.621094 -11.816406 17.234375 -12.949219 17.710938 -14.234375 C 18.164062 -15.5 18.449219 -16.863281 18.617188 -18.351562 C 18.757812 -19.824219 18.742188 -21.324219 18.570312 -22.859375 C 18.390625 -24.351562 18.058594 -25.8125 17.59375 -27.21875 C 17.125 -28.625 16.519531 -29.933594 15.761719 -31.109375 C 14.996094 -32.246094 14.113281 -33.199219 13.097656 -33.992188 C 12.074219 -34.746094 10.902344 -35.261719 9.589844 -35.476562 C 8.273438 -35.691406 6.851562 -35.558594 5.328125 -35.117188 C 3.796875 -34.636719 2.144531 -33.765625 0.347656 -32.453125 L 0.445312 -32.515625 C -0.660156 -31.703125 -1.675781 -30.710938 -2.554688 -29.566406 C -3.457031 -28.40625 -4.148438 -27.1875 -4.617188 -25.839844 C -5.085938 -24.492188 -5.292969 -23.117188 -5.238281 -21.707031 C -5.183594 -20.300781 -4.742188 -18.980469 -3.882812 -17.703125 C -3.324219 -16.878906 -2.679688 -16.382812 -1.945312 -16.257812 C -1.214844 -16.097656 -0.496094 -16.203125 0.171875 -16.585938 C 0.835938 -16.929688 1.378906 -17.5 1.816406 -18.277344 C 2.257812 -19.054688 2.433594 -19.964844 2.375 -21.023438 C 1.917969 -20.785156 1.539062 -20.632812 1.183594 -20.601562 C 0.816406 -20.527344 0.492188 -20.550781 0.226562 -20.644531 C -0.0703125 -20.71875 -0.328125 -20.855469 -0.535156 -21.058594 C -0.765625 -21.246094 -0.964844 -21.492188 -1.15625 -21.773438 C -1.316406 -22.011719 -1.46875 -22.289062 -1.613281 -22.601562 C -1.753906 -22.917969 -1.859375 -23.226562 -1.941406 -23.550781 C -2.019531 -23.875 -2.101562 -24.199219 -2.167969 -24.5 C -2.230469 -24.800781 -2.257812 -25.089844 -2.289062 -25.34375 C -2.410156 -26.085938 -2.34375 -26.855469 -2.109375 -27.628906 C -1.878906 -28.40625 -1.539062 -29.183594 -1.070312 -29.914062 C -0.582031 -30.621094 -0.0078125 -31.246094 0.683594 -31.851562 C 1.378906 -32.457031 2.148438 -32.941406 3.003906 -33.308594 C 4.390625 -33.902344 5.742188 -34.089844 6.992188 -33.867188 C 8.246094 -33.644531 9.378906 -33.136719 10.402344 -32.382812 C 11.417969 -31.585938 12.316406 -30.609375 13.089844 -29.414062 C 13.863281 -28.214844 14.476562 -26.945312 14.933594 -25.601562 C 15.304688 -24.441406 15.53125 -23.285156 15.574219 -22.148438 C 15.636719 -20.984375 15.53125 -19.917969 15.25 -18.90625 C 14.988281 -17.867188 14.542969 -16.949219 13.960938 -16.175781 C 13.394531 -15.382812 12.644531 -14.8125 11.777344 -14.464844 C 11.144531 -14.179688 10.417969 -14.03125 9.597656 -14.027344 C 8.789062 -14 7.917969 -14.171875 6.976562 -14.5 L 6.972656 -15.011719 C 6.972656 -15.734375 6.976562 -16.492188 6.980469 -17.25 C 6.960938 -17.996094 6.949219 -18.777344 6.9375 -19.558594 C 6.917969 -20.304688 6.921875 -21.0625 6.964844 -21.8125 C 7.007812 -22.566406 7.054688 -23.316406 7.160156 -24.078125 C 7.296875 -25.199219 7.511719 -26.308594 7.808594 -27.402344 C 8.121094 -28.472656 8.589844 -29.613281 9.175781 -30.832031 C 8.546875 -30.238281 8.019531 -29.539062 7.605469 -28.777344 C 7.1875 -28.015625 6.835938 -27.160156 6.492188 -26.242188 C 6.164062 -25.296875 5.871094 -24.308594 5.636719 -23.328125 C 5.40625 -22.34375 5.1875 -21.339844 4.972656 -20.332031 C 4.769531 -19.304688 4.539062 -18.324219 4.273438 -17.386719 C 4.007812 -16.453125 3.714844 -15.566406 3.367188 -14.75 C 3.015625 -13.894531 2.609375 -13.171875 2.121094 -12.570312 C 1.652344 -11.941406 1.058594 -11.441406 0.335938 -11.089844 C -0.21875 -10.785156 -0.714844 -10.65625 -1.160156 -10.703125 C -1.625 -10.730469 -2.054688 -10.855469 -2.457031 -11.101562 C -3.234375 -11.539062 -3.871094 -12.28125 -4.335938 -13.375 C -4.65625 -12.78125 -4.882812 -12.148438 -5 -11.453125 C -5.136719 -10.738281 -5.15625 -10.003906 -5.097656 -9.253906 C -5.046875 -8.460938 -4.902344 -7.734375 -4.675781 -6.992188 C -4.449219 -6.25 -4.148438 -5.59375 -3.796875 -4.972656 C -3.414062 -4.300781 -2.992188 -3.726562 -2.46875 -3.253906 C -1.96875 -2.765625 -1.378906 -2.40625 -0.722656 -2.195312 C -0.0742188 -1.945312 0.59375 -1.878906 1.351562 -1.976562 C 2.109375 -2.074219 2.90625 -2.371094 3.726562 -2.890625 C 4.359375 -3.28125 4.851562 -3.820312 5.277344 -4.519531 C 5.675781 -5.199219 6.011719 -5.976562 6.253906 -6.894531 C 6.488281 -7.773438 6.632812 -8.730469 6.738281 -9.800781 C 6.835938 -10.828125 6.886719 -11.929688 6.921875 -13.050781 C 7.164062 -11.976562 7.507812 -11.109375 7.9375 -10.46875 C 8.359375 -9.792969 8.820312 -9.3125 9.375 -8.996094 C 9.921875 -8.644531 10.5 -8.449219 11.09375 -8.4375 C 11.679688 -8.382812 12.296875 -8.488281 12.90625 -8.761719 Z M 12.90625 -8.761719 "/></g></g></g><g fill="#ff914d" fill-opacity="1"><g transform="translate(152.759771, 197.81121)"><g><path d="M 7.402344 -5.296875 L 7.355469 -5.160156 C 8.015625 -5.605469 8.550781 -6.242188 8.964844 -7.105469 C 9.375 -7.929688 9.699219 -8.871094 9.917969 -9.878906 C 10.125 -10.84375 10.238281 -11.847656 10.3125 -12.863281 C 10.386719 -13.875 10.382812 -14.800781 10.332031 -15.589844 C 10.316406 -15.511719 10.285156 -15.457031 10.246094 -15.359375 C 10.207031 -15.265625 10.183594 -15.148438 10.136719 -15.011719 C 10.050781 -14.679688 9.941406 -14.332031 9.8125 -13.964844 C 9.695312 -13.578125 9.554688 -13.175781 9.390625 -12.753906 C 9.0625 -11.8125 8.757812 -11.089844 8.410156 -10.582031 C 8.253906 -10.304688 8.082031 -10.152344 7.929688 -10.121094 C 7.78125 -10.089844 7.660156 -10.214844 7.574219 -10.5 C 7.460938 -10.769531 7.417969 -11.289062 7.433594 -11.984375 L 7.511719 -23.144531 L 4.179688 -20.898438 L 4.128906 -17.703125 C 3.8125 -18.175781 3.484375 -18.507812 3.097656 -18.726562 C 2.722656 -18.921875 2.351562 -19.015625 1.941406 -19.015625 C 1.523438 -18.972656 1.101562 -18.828125 0.691406 -18.621094 C 0.296875 -18.390625 -0.09375 -18.054688 -0.457031 -17.671875 C -0.722656 -17.355469 -1.007812 -16.960938 -1.25 -16.453125 C -1.492188 -15.945312 -1.71875 -15.414062 -1.921875 -14.796875 C -2.125 -14.179688 -2.320312 -13.496094 -2.480469 -12.769531 C -2.644531 -12.039062 -2.78125 -11.328125 -2.890625 -10.566406 C -3.027344 -9.648438 -3.117188 -8.761719 -3.144531 -7.886719 C -3.179688 -6.96875 -3.160156 -6.121094 -3.09375 -5.308594 C -3.042969 -4.722656 -2.921875 -4.082031 -2.683594 -3.417969 C -2.441406 -2.757812 -2.160156 -2.1875 -1.78125 -1.722656 C -1.40625 -1.21875 -0.976562 -0.890625 -0.5 -0.695312 C -0.0273438 -0.5 0.503906 -0.578125 1.09375 -0.976562 C 1.898438 -1.519531 2.636719 -2.257812 3.234375 -3.210938 C 3.527344 -3.648438 3.761719 -4.113281 3.957031 -4.589844 C 4.152344 -5.066406 4.269531 -5.558594 4.296875 -6.023438 C 4.617188 -5.449219 5.0625 -5.09375 5.648438 -4.9375 C 6.210938 -4.765625 6.785156 -4.878906 7.402344 -5.296875 Z M 1.429688 -5.636719 C 1.136719 -5.613281 0.867188 -5.707031 0.605469 -5.941406 C 0.34375 -6.179688 0.148438 -6.566406 -0.0117188 -7.109375 C -0.179688 -7.617188 -0.277344 -8.269531 -0.3125 -9.140625 C -0.332031 -9.988281 -0.273438 -11.023438 -0.136719 -12.25 C -0.078125 -12.773438 -0.015625 -13.292969 0.0898438 -13.847656 C 0.175781 -14.386719 0.316406 -14.894531 0.457031 -15.402344 C 0.585938 -15.867188 0.777344 -16.304688 1.035156 -16.683594 C 1.269531 -17.050781 1.59375 -17.335938 1.972656 -17.589844 C 2.199219 -17.710938 2.414062 -17.75 2.613281 -17.710938 C 2.800781 -17.632812 2.984375 -17.515625 3.175781 -17.335938 C 3.339844 -17.136719 3.5 -16.902344 3.644531 -16.585938 C 3.789062 -16.269531 3.933594 -15.953125 4.046875 -15.582031 L 4.070312 -15.601562 L 3.902344 -10.539062 C 3.90625 -10.125 3.851562 -9.644531 3.792969 -9.121094 C 3.707031 -8.582031 3.582031 -8.050781 3.402344 -7.554688 C 3.214844 -7.015625 2.964844 -6.570312 2.652344 -6.222656 C 2.328125 -5.832031 1.917969 -5.625 1.429688 -5.636719 Z M 1.429688 -5.636719 "/></g></g></g><g fill="#ff914d" fill-opacity="1"><g transform="translate(164.984302, 189.57602)"><g><path d="M 4.367188 -16.382812 L 4.257812 -2.96875 L 7.265625 -5.136719 C 7.257812 -5.300781 7.257812 -5.507812 7.273438 -5.792969 C 7.277344 -6.039062 7.292969 -6.324219 7.300781 -6.671875 L 7.289062 -8.726562 C 7.285156 -9.445312 7.273438 -10.125 7.285156 -10.824219 C 7.300781 -11.519531 7.304688 -12.074219 7.316406 -12.5625 L 7.359375 -14.035156 C 7.347656 -14.304688 7.347656 -14.609375 7.347656 -14.917969 C 7.359375 -15.203125 7.382812 -15.527344 7.390625 -15.875 C 7.410156 -16.507812 7.429688 -17.140625 7.476562 -17.792969 C 7.519531 -18.441406 7.5625 -19.089844 7.640625 -19.691406 C 7.679688 -19.992188 7.753906 -20.285156 7.832031 -20.578125 C 7.933594 -20.886719 8.050781 -21.171875 8.167969 -21.457031 C 8.300781 -21.71875 8.453125 -21.957031 8.617188 -22.171875 C 8.773438 -22.34375 8.945312 -22.496094 9.128906 -22.582031 C 9.308594 -22.671875 9.492188 -22.554688 9.652344 -22.214844 C 9.78125 -21.820312 9.863281 -21.085938 9.867188 -20.058594 L 9.664062 -16.378906 C 9.636719 -15.601562 9.585938 -14.8125 9.511719 -14.003906 C 9.417969 -13.117188 9.421875 -12.296875 9.539062 -11.617188 C 9.570312 -11.15625 9.675781 -10.746094 9.804688 -10.351562 C 9.933594 -9.957031 10.15625 -9.625 10.394531 -9.375 C 10.648438 -9.097656 10.941406 -8.917969 11.3125 -8.824219 C 11.664062 -8.714844 12.105469 -8.773438 12.609375 -8.941406 C 13.046875 -9.0625 13.441406 -9.292969 13.808594 -9.613281 C 14.15625 -9.914062 14.453125 -10.289062 14.625 -10.746094 C 14.832031 -11.160156 14.984375 -11.644531 15.109375 -12.171875 C 15.234375 -12.703125 15.320312 -13.242188 15.394531 -13.84375 C 15.464844 -14.40625 15.53125 -14.96875 15.578125 -15.511719 C 15.621094 -16.058594 15.660156 -16.566406 15.671875 -17.054688 L 15.335938 -16.277344 C 15.179688 -15.898438 15.03125 -15.558594 14.890625 -15.257812 C 14.742188 -14.914062 14.585938 -14.636719 14.417969 -14.425781 C 14.246094 -14.171875 14.097656 -14.035156 13.929688 -14.027344 C 13.765625 -14.015625 13.628906 -14.167969 13.542969 -14.453125 C 13.429688 -14.71875 13.355469 -15.082031 13.304688 -15.566406 C 13.273438 -16.023438 13.230469 -16.546875 13.226562 -17.164062 L 13.203125 -18.933594 C 13.191406 -19.511719 13.183594 -20.089844 13.1875 -20.640625 C 13.199219 -21.132812 13.207031 -21.582031 13.171875 -22.042969 C 13.144531 -22.746094 13.039062 -23.363281 12.832031 -23.875 C 12.625 -24.386719 12.328125 -24.773438 11.925781 -25.015625 C 11.328125 -25.339844 10.726562 -25.414062 10.144531 -25.261719 C 9.574219 -25.085938 9.023438 -24.78125 8.542969 -24.320312 C 8.039062 -23.84375 7.636719 -23.265625 7.324219 -22.605469 C 7.011719 -21.949219 6.824219 -21.308594 6.765625 -20.683594 C 6.75 -20.5 6.742188 -20.359375 6.734375 -20.214844 C 6.703125 -20.058594 6.699219 -19.914062 6.675781 -19.796875 C 6.644531 -19.636719 6.636719 -19.496094 6.628906 -19.351562 C 6.613281 -19.171875 6.621094 -19.003906 6.632812 -18.839844 C 6.382812 -19.460938 6.074219 -19.976562 5.714844 -20.351562 C 5.332031 -20.714844 4.859375 -20.910156 4.304688 -20.914062 C 3.71875 -20.867188 3.222656 -20.632812 2.78125 -20.164062 C 2.355469 -19.671875 2.019531 -19.101562 1.738281 -18.394531 C 1.449219 -17.652344 1.214844 -16.875 1.039062 -16.066406 C 0.835938 -15.246094 0.6875 -14.492188 0.550781 -13.78125 C 0.453125 -14.332031 0.300781 -14.816406 0.140625 -15.257812 C -0.0195312 -15.699219 -0.210938 -16.085938 -0.433594 -16.417969 C -0.914062 -17.023438 -1.417969 -17.265625 -2.019531 -17.136719 C -2.351562 -17.015625 -2.691406 -16.753906 -3.035156 -16.347656 C -3.40625 -15.925781 -3.773438 -15.300781 -4.136719 -14.507812 L -4.152344 -14.429688 C -3.390625 -14.117188 -2.875 -13.707031 -2.570312 -13.257812 C -2.433594 -13.007812 -2.332031 -12.699219 -2.265625 -12.398438 C -2.210938 -12.058594 -2.160156 -11.679688 -2.132812 -11.285156 L -2.097656 1.277344 L 1.167969 -0.921875 L 0.808594 -10.792969 C 0.871094 -11.003906 0.957031 -11.335938 1.019531 -11.757812 C 1.082031 -12.175781 1.132812 -12.660156 1.195312 -13.183594 L 1.445312 -14.796875 C 1.554688 -15.351562 1.679688 -15.882812 1.8125 -16.449219 C 1.957031 -16.996094 2.152344 -17.472656 2.421875 -17.894531 C 2.960938 -18.671875 3.453125 -18.761719 3.882812 -18.121094 C 4.105469 -17.789062 4.257812 -17.207031 4.367188 -16.382812 Z M 4.367188 -16.382812 "/></g></g></g><g fill="#ff914d" fill-opacity="1"><g transform="translate(181.607095, 178.377891)"><g><path d="M 7.402344 -5.296875 L 7.355469 -5.160156 C 8.015625 -5.605469 8.550781 -6.242188 8.964844 -7.105469 C 9.375 -7.929688 9.699219 -8.871094 9.917969 -9.878906 C 10.125 -10.84375 10.238281 -11.847656 10.3125 -12.863281 C 10.386719 -13.875 10.382812 -14.800781 10.332031 -15.589844 C 10.316406 -15.511719 10.285156 -15.457031 10.246094 -15.359375 C 10.207031 -15.265625 10.183594 -15.148438 10.136719 -15.011719 C 10.050781 -14.679688 9.941406 -14.332031 9.8125 -13.964844 C 9.695312 -13.578125 9.554688 -13.175781 9.390625 -12.753906 C 9.0625 -11.8125 8.757812 -11.089844 8.410156 -10.582031 C 8.253906 -10.304688 8.082031 -10.152344 7.929688 -10.121094 C 7.78125 -10.089844 7.660156 -10.214844 7.574219 -10.5 C 7.460938 -10.769531 7.417969 -11.289062 7.433594 -11.984375 L 7.511719 -23.144531 L 4.179688 -20.898438 L 4.128906 -17.703125 C 3.8125 -18.175781 3.484375 -18.507812 3.097656 -18.726562 C 2.722656 -18.921875 2.351562 -19.015625 1.941406 -19.015625 C 1.523438 -18.972656 1.101562 -18.828125 0.691406 -18.621094 C 0.296875 -18.390625 -0.09375 -18.054688 -0.457031 -17.671875 C -0.722656 -17.355469 -1.007812 -16.960938 -1.25 -16.453125 C -1.492188 -15.945312 -1.71875 -15.414062 -1.921875 -14.796875 C -2.125 -14.179688 -2.320312 -13.496094 -2.480469 -12.769531 C -2.644531 -12.039062 -2.78125 -11.328125 -2.890625 -10.566406 C -3.027344 -9.648438 -3.117188 -8.761719 -3.144531 -7.886719 C -3.179688 -6.96875 -3.160156 -6.121094 -3.09375 -5.308594 C -3.042969 -4.722656 -2.921875 -4.082031 -2.683594 -3.417969 C -2.441406 -2.757812 -2.160156 -2.1875 -1.78125 -1.722656 C -1.40625 -1.21875 -0.976562 -0.890625 -0.5 -0.695312 C -0.0273438 -0.5 0.503906 -0.578125 1.09375 -0.976562 C 1.898438 -1.519531 2.636719 -2.257812 3.234375 -3.210938 C 3.527344 -3.648438 3.761719 -4.113281 3.957031 -4.589844 C 4.152344 -5.066406 4.269531 -5.558594 4.296875 -6.023438 C 4.617188 -5.449219 5.0625 -5.09375 5.648438 -4.9375 C 6.210938 -4.765625 6.785156 -4.878906 7.402344 -5.296875 Z M 1.429688 -5.636719 C 1.136719 -5.613281 0.867188 -5.707031 0.605469 -5.941406 C 0.34375 -6.179688 0.148438 -6.566406 -0.0117188 -7.109375 C -0.179688 -7.617188 -0.277344 -8.269531 -0.3125 -9.140625 C -0.332031 -9.988281 -0.273438 -11.023438 -0.136719 -12.25 C -0.078125 -12.773438 -0.015625 -13.292969 0.0898438 -13.847656 C 0.175781 -14.386719 0.316406 -14.894531 0.457031 -15.402344 C 0.585938 -15.867188 0.777344 -16.304688 1.035156 -16.683594 C 1.269531 -17.050781 1.59375 -17.335938 1.972656 -17.589844 C 2.199219 -17.710938 2.414062 -17.75 2.613281 -17.710938 C 2.800781 -17.632812 2.984375 -17.515625 3.175781 -17.335938 C 3.339844 -17.136719 3.5 -16.902344 3.644531 -16.585938 C 3.789062 -16.269531 3.933594 -15.953125 4.046875 -15.582031 L 4.070312 -15.601562 L 3.902344 -10.539062 C 3.90625 -10.125 3.851562 -9.644531 3.792969 -9.121094 C 3.707031 -8.582031 3.582031 -8.050781 3.402344 -7.554688 C 3.214844 -7.015625 2.964844 -6.570312 2.652344 -6.222656 C 2.328125 -5.832031 1.917969 -5.625 1.429688 -5.636719 Z M 1.429688 -5.636719 "/></g></g></g><g fill="#ff914d" fill-opacity="1"><g transform="translate(193.83162, 170.142704)"><g><path d="M -2.0625 -11.125 L -2.058594 1.285156 L 1.207031 -0.914062 L 0.84375 -11.710938 C 0.824219 -12.453125 0.941406 -13.25 1.148438 -14.113281 C 1.210938 -14.328125 1.289062 -14.621094 1.40625 -15.007812 C 1.539062 -15.375 1.679688 -15.777344 1.882812 -16.191406 C 2.0625 -16.585938 2.273438 -16.9375 2.488281 -17.285156 C 2.699219 -17.632812 2.933594 -17.894531 3.21875 -18.085938 C 3.496094 -18.238281 3.789062 -18.265625 4.054688 -18.171875 C 4.339844 -18.054688 4.636719 -17.769531 4.953125 -17.296875 C 5.113281 -17.058594 5.148438 -16.808594 5.109375 -16.507812 C 5.070312 -16.207031 4.960938 -15.960938 4.789062 -15.707031 C 4.617188 -15.453125 4.402344 -15.207031 4.121094 -15.015625 C 3.835938 -14.824219 3.527344 -14.71875 3.195312 -14.703125 C 3.308594 -14.226562 3.445312 -13.871094 3.605469 -13.636719 C 3.761719 -13.398438 3.976562 -13.234375 4.191406 -13.171875 C 4.398438 -13.070312 4.617188 -13.046875 4.832031 -13.089844 C 5.046875 -13.128906 5.242188 -13.191406 5.433594 -13.320312 C 5.890625 -13.558594 6.21875 -13.886719 6.441406 -14.378906 C 6.636719 -14.851562 6.734375 -15.367188 6.75 -15.960938 C 6.753906 -16.515625 6.679688 -17.082031 6.503906 -17.652344 C 6.324219 -18.21875 6.09375 -18.71875 5.792969 -19.167969 C 5.480469 -19.578125 5.117188 -19.914062 4.710938 -20.160156 C 4.28125 -20.386719 3.824219 -20.453125 3.351562 -20.339844 C 2.890625 -20.203125 2.464844 -19.917969 2.121094 -19.511719 C 1.789062 -19.085938 1.476562 -18.632812 1.234375 -18.125 C 0.984375 -17.578125 0.773438 -17.023438 0.585938 -16.484375 C 0.414062 -15.921875 0.28125 -15.453125 0.164062 -15.066406 C -0.0820312 -15.691406 -0.402344 -16.164062 -0.769531 -16.5 C -1.117188 -16.816406 -1.527344 -16.917969 -1.964844 -16.796875 C -2.296875 -16.675781 -2.632812 -16.414062 -2.980469 -16.007812 C -3.324219 -15.605469 -3.6875 -15.015625 -4.039062 -14.261719 C -3.644531 -14.082031 -3.347656 -13.902344 -3.09375 -13.730469 C -2.839844 -13.558594 -2.660156 -13.335938 -2.5 -13.101562 C -2.363281 -12.847656 -2.257812 -12.539062 -2.195312 -12.238281 C -2.136719 -11.898438 -2.089844 -11.519531 -2.0625 -11.125 Z M -4.078125 -14.269531 L -4.078125 -14.167969 L -4.039062 -14.261719 Z M -4.078125 -14.269531 "/></g></g></g><g fill="#000000" fill-opacity="1"><g transform="translate(108.260229, 227.330308)"><g><path d="M 20.03125 -13.492188 C 19.480469 -14.15625 19.035156 -15.023438 18.65625 -16.144531 C 18.28125 -17.265625 17.988281 -18.515625 17.761719 -19.875 C 17.535156 -21.234375 17.382812 -22.679688 17.289062 -24.195312 C 17.195312 -25.714844 17.164062 -27.242188 17.171875 -28.761719 C 17.167969 -30.199219 17.207031 -31.566406 17.320312 -32.882812 C 17.410156 -34.179688 17.578125 -35.359375 17.761719 -36.410156 C 17.960938 -37.441406 18.21875 -38.335938 18.507812 -39.078125 C 18.796875 -39.824219 19.140625 -40.332031 19.542969 -40.601562 C 19.851562 -40.808594 20.191406 -40.867188 20.523438 -40.78125 C 20.871094 -40.671875 21.253906 -40.414062 21.683594 -39.980469 C 21.820312 -40.796875 21.808594 -41.476562 21.648438 -42.019531 C 21.488281 -42.566406 21.242188 -42.984375 20.929688 -43.289062 C 20.265625 -43.871094 19.636719 -44.035156 19.101562 -43.8125 C 18.542969 -43.570312 18.039062 -42.992188 17.574219 -42.097656 C 17.074219 -41.105469 16.675781 -39.804688 16.320312 -38.191406 C 15.980469 -36.550781 15.707031 -34.714844 15.523438 -32.738281 C 15.359375 -30.734375 15.277344 -28.617188 15.277344 -26.417969 C 15.296875 -24.195312 15.449219 -22.027344 15.699219 -19.925781 C 15.324219 -20.226562 14.964844 -20.707031 14.597656 -21.351562 C 14.230469 -22 13.898438 -22.703125 13.5625 -23.507812 C 13.226562 -24.3125 12.914062 -25.132812 12.632812 -26.007812 C 12.34375 -26.847656 12.09375 -27.675781 11.867188 -28.417969 C 11.5 -29.679688 11.175781 -30.875 10.871094 -32.042969 C 10.578125 -33.1875 10.335938 -34.261719 10.09375 -35.234375 L 9.546875 -37.476562 C 9.027344 -37.023438 8.617188 -36.507812 8.367188 -35.960938 C 8.117188 -35.414062 7.851562 -34.789062 7.585938 -34.058594 C 7.195312 -32.902344 6.863281 -31.613281 6.585938 -30.1875 C 6.324219 -28.738281 6.09375 -27.242188 5.855469 -25.707031 C 5.609375 -24.132812 5.371094 -22.597656 5.15625 -21.078125 C 4.917969 -19.542969 4.625 -18.140625 4.292969 -16.851562 C 3.949219 -15.519531 3.527344 -14.410156 3.058594 -13.476562 C 2.589844 -12.539062 2.007812 -11.871094 1.28125 -11.519531 C 0.730469 -11.21875 0.207031 -11.175781 -0.300781 -11.316406 C -0.804688 -11.457031 -1.289062 -11.714844 -1.726562 -12.109375 C -2.171875 -12.460938 -2.578125 -12.910156 -2.929688 -13.429688 C -3.277344 -13.949219 -3.574219 -14.441406 -3.796875 -14.976562 C -4.1875 -14.230469 -4.519531 -13.496094 -4.75 -12.71875 C -4.984375 -11.941406 -5.15625 -11.175781 -5.230469 -10.367188 C -5.328125 -9.542969 -5.324219 -8.722656 -5.195312 -7.914062 C -5.089844 -7.09375 -4.886719 -6.335938 -4.535156 -5.609375 C -4.167969 -4.757812 -3.648438 -4.039062 -3.03125 -3.425781 C -2.410156 -2.8125 -1.671875 -2.378906 -0.894531 -2.148438 C -0.128906 -1.875 0.703125 -1.816406 1.589844 -1.929688 C 2.472656 -2.042969 3.375 -2.445312 4.320312 -3.082031 C 5.074219 -3.589844 5.671875 -4.441406 6.078125 -5.675781 C 6.5 -6.886719 6.800781 -8.328125 7.03125 -10.03125 C 7.25 -11.691406 7.394531 -13.472656 7.445312 -15.433594 C 7.5 -17.394531 7.539062 -19.382812 7.566406 -21.429688 C 7.589844 -23.4375 7.636719 -25.359375 7.699219 -27.257812 C 7.738281 -29.140625 7.886719 -30.859375 8.101562 -32.378906 C 8.21875 -30.464844 8.460938 -28.527344 8.824219 -26.609375 C 9.207031 -24.664062 9.746094 -22.792969 10.433594 -20.953125 C 10.65625 -20.3125 10.945312 -19.683594 11.265625 -19.003906 C 11.585938 -18.324219 11.976562 -17.695312 12.390625 -17.078125 C 12.804688 -16.464844 13.289062 -15.898438 13.820312 -15.363281 C 14.355469 -14.828125 14.925781 -14.386719 15.558594 -14.058594 C 16.210938 -13.703125 16.882812 -13.472656 17.644531 -13.363281 C 18.378906 -13.242188 19.1875 -13.269531 20.03125 -13.492188 Z M 20.03125 -13.492188 "/></g></g></g><g fill="#000000" fill-opacity="1"><g transform="translate(130.558196, 212.309035)"><g><path d="M 12.90625 -8.761719 C 14.058594 -9.195312 15.019531 -9.910156 15.820312 -10.863281 C 16.621094 -11.816406 17.234375 -12.949219 17.710938 -14.234375 C 18.164062 -15.5 18.449219 -16.863281 18.617188 -18.351562 C 18.757812 -19.824219 18.742188 -21.324219 18.570312 -22.859375 C 18.390625 -24.351562 18.058594 -25.8125 17.59375 -27.21875 C 17.125 -28.625 16.519531 -29.933594 15.761719 -31.109375 C 14.996094 -32.246094 14.113281 -33.199219 13.097656 -33.992188 C 12.074219 -34.746094 10.902344 -35.261719 9.589844 -35.476562 C 8.273438 -35.691406 6.851562 -35.558594 5.328125 -35.117188 C 3.796875 -34.636719 2.144531 -33.765625 0.347656 -32.453125 L 0.445312 -32.515625 C -0.660156 -31.703125 -1.675781 -30.710938 -2.554688 -29.566406 C -3.457031 -28.40625 -4.148438 -27.1875 -4.617188 -25.839844 C -5.085938 -24.492188 -5.292969 -23.117188 -5.238281 -21.707031 C -5.183594 -20.300781 -4.742188 -18.980469 -3.882812 -17.703125 C -3.324219 -16.878906 -2.679688 -16.382812 -1.945312 -16.257812 C -1.214844 -16.097656 -0.496094 -16.203125 0.171875 -16.585938 C 0.835938 -16.929688 1.378906 -17.5 1.816406 -18.277344 C 2.257812 -19.054688 2.433594 -19.964844 2.375 -21.023438 C 1.917969 -20.785156 1.539062 -20.632812 1.183594 -20.601562 C 0.816406 -20.527344 0.492188 -20.550781 0.226562 -20.644531 C -0.0703125 -20.71875 -0.328125 -20.855469 -0.535156 -21.058594 C -0.765625 -21.246094 -0.964844 -21.492188 -1.15625 -21.773438 C -1.316406 -22.011719 -1.46875 -22.289062 -1.613281 -22.601562 C -1.753906 -22.917969 -1.859375 -23.226562 -1.941406 -23.550781 C -2.019531 -23.875 -2.101562 -24.199219 -2.167969 -24.5 C -2.230469 -24.800781 -2.257812 -25.089844 -2.289062 -25.34375 C -2.410156 -26.085938 -2.34375 -26.855469 -2.109375 -27.628906 C -1.878906 -28.40625 -1.539062 -29.183594 -1.070312 -29.914062 C -0.582031 -30.621094 -0.0078125 -31.246094 0.683594 -31.851562 C 1.378906 -32.457031 2.148438 -32.941406 3.003906 -33.308594 C 4.390625 -33.902344 5.742188 -34.089844 6.992188 -33.867188 C 8.246094 -33.644531 9.378906 -33.136719 10.402344 -32.382812 C 11.417969 -31.585938 12.316406 -30.609375 13.089844 -29.414062 C 13.863281 -28.214844 14.476562 -26.945312 14.933594 -25.601562 C 15.304688 -24.441406 15.53125 -23.285156 15.574219 -22.148438 C 15.636719 -20.984375 15.53125 -19.917969 15.25 -18.90625 C 14.988281 -17.867188 14.542969 -16.949219 13.960938 -16.175781 C 13.394531 -15.382812 12.644531 -14.8125 11.777344 -14.464844 C 11.144531 -14.179688 10.417969 -14.03125 9.597656 -14.027344 C 8.789062 -14 7.917969 -14.171875 6.976562 -14.5 L 6.972656 -15.011719 C 6.972656 -15.734375 6.976562 -16.492188 6.980469 -17.25 C 6.960938 -17.996094 6.949219 -18.777344 6.9375 -19.558594 C 6.917969 -20.304688 6.921875 -21.0625 6.964844 -21.8125 C 7.007812 -22.566406 7.054688 -23.316406 7.160156 -24.078125 C 7.296875 -25.199219 7.511719 -26.308594 7.808594 -27.402344 C 8.121094 -28.472656 8.589844 -29.613281 9.175781 -30.832031 C 8.546875 -30.238281 8.019531 -29.539062 7.605469 -28.777344 C 7.1875 -28.015625 6.835938 -27.160156 6.492188 -26.242188 C 6.164062 -25.296875 5.871094 -24.308594 5.636719 -23.328125 C 5.40625 -22.34375 5.1875 -21.339844 4.972656 -20.332031 C 4.769531 -19.304688 4.539062 -18.324219 4.273438 -17.386719 C 4.007812 -16.453125 3.714844 -15.566406 3.367188 -14.75 C 3.015625 -13.894531 2.609375 -13.171875 2.121094 -12.570312 C 1.652344 -11.941406 1.058594 -11.441406 0.335938 -11.089844 C -0.21875 -10.785156 -0.714844 -10.65625 -1.160156 -10.703125 C -1.625 -10.730469 -2.054688 -10.855469 -2.457031 -11.101562 C -3.234375 -11.539062 -3.871094 -12.28125 -4.335938 -13.375 C -4.65625 -12.78125 -4.882812 -12.148438 -5 -11.453125 C -5.136719 -10.738281 -5.15625 -10.003906 -5.097656 -9.253906 C -5.046875 -8.460938 -4.902344 -7.734375 -4.675781 -6.992188 C -4.449219 -6.25 -4.148438 -5.59375 -3.796875 -4.972656 C -3.414062 -4.300781 -2.992188 -3.726562 -2.46875 -3.253906 C -1.96875 -2.765625 -1.378906 -2.40625 -0.722656 -2.195312 C -0.0742188 -1.945312 0.59375 -1.878906 1.351562 -1.976562 C 2.109375 -2.074219 2.90625 -2.371094 3.726562 -2.890625 C 4.359375 -3.28125 4.851562 -3.820312 5.277344 -4.519531 C 5.675781 -5.199219 6.011719 -5.976562 6.253906 -6.894531 C 6.488281 -7.773438 6.632812 -8.730469 6.738281 -9.800781 C 6.835938 -10.828125 6.886719 -11.929688 6.921875 -13.050781 C 7.164062 -11.976562 7.507812 -11.109375 7.9375 -10.46875 C 8.359375 -9.792969 8.820312 -9.3125 9.375 -8.996094 C 9.921875 -8.644531 10.5 -8.449219 11.09375 -8.4375 C 11.679688 -8.382812 12.296875 -8.488281 12.90625 -8.761719 Z M 12.90625 -8.761719 "/></g></g></g><g fill="#000000" fill-opacity="1"><g transform="translate(153.116272, 197.112537)"><g><path d="M 7.402344 -5.296875 L 7.355469 -5.160156 C 8.015625 -5.605469 8.550781 -6.242188 8.964844 -7.105469 C 9.375 -7.929688 9.699219 -8.871094 9.917969 -9.878906 C 10.125 -10.84375 10.238281 -11.847656 10.3125 -12.863281 C 10.386719 -13.875 10.382812 -14.800781 10.332031 -15.589844 C 10.316406 -15.511719 10.285156 -15.457031 10.246094 -15.359375 C 10.207031 -15.265625 10.183594 -15.148438 10.136719 -15.011719 C 10.050781 -14.679688 9.941406 -14.332031 9.8125 -13.964844 C 9.695312 -13.578125 9.554688 -13.175781 9.390625 -12.753906 C 9.0625 -11.8125 8.757812 -11.089844 8.410156 -10.582031 C 8.253906 -10.304688 8.082031 -10.152344 7.929688 -10.121094 C 7.78125 -10.089844 7.660156 -10.214844 7.574219 -10.5 C 7.460938 -10.769531 7.417969 -11.289062 7.433594 -11.984375 L 7.511719 -23.144531 L 4.179688 -20.898438 L 4.128906 -17.703125 C 3.8125 -18.175781 3.484375 -18.507812 3.097656 -18.726562 C 2.722656 -18.921875 2.351562 -19.015625 1.941406 -19.015625 C 1.523438 -18.972656 1.101562 -18.828125 0.691406 -18.621094 C 0.296875 -18.390625 -0.09375 -18.054688 -0.457031 -17.671875 C -0.722656 -17.355469 -1.007812 -16.960938 -1.25 -16.453125 C -1.492188 -15.945312 -1.71875 -15.414062 -1.921875 -14.796875 C -2.125 -14.179688 -2.320312 -13.496094 -2.480469 -12.769531 C -2.644531 -12.039062 -2.78125 -11.328125 -2.890625 -10.566406 C -3.027344 -9.648438 -3.117188 -8.761719 -3.144531 -7.886719 C -3.179688 -6.96875 -3.160156 -6.121094 -3.09375 -5.308594 C -3.042969 -4.722656 -2.921875 -4.082031 -2.683594 -3.417969 C -2.441406 -2.757812 -2.160156 -2.1875 -1.78125 -1.722656 C -1.40625 -1.21875 -0.976562 -0.890625 -0.5 -0.695312 C -0.0273438 -0.5 0.503906 -0.578125 1.09375 -0.976562 C 1.898438 -1.519531 2.636719 -2.257812 3.234375 -3.210938 C 3.527344 -3.648438 3.761719 -4.113281 3.957031 -4.589844 C 4.152344 -5.066406 4.269531 -5.558594 4.296875 -6.023438 C 4.617188 -5.449219 5.0625 -5.09375 5.648438 -4.9375 C 6.210938 -4.765625 6.785156 -4.878906 7.402344 -5.296875 Z M 1.429688 -5.636719 C 1.136719 -5.613281 0.867188 -5.707031 0.605469 -5.941406 C 0.34375 -6.179688 0.148438 -6.566406 -0.0117188 -7.109375 C -0.179688 -7.617188 -0.277344 -8.269531 -0.3125 -9.140625 C -0.332031 -9.988281 -0.273438 -11.023438 -0.136719 -12.25 C -0.078125 -12.773438 -0.015625 -13.292969 0.0898438 -13.847656 C 0.175781 -14.386719 0.316406 -14.894531 0.457031 -15.402344 C 0.585938 -15.867188 0.777344 -16.304688 1.035156 -16.683594 C 1.269531 -17.050781 1.59375 -17.335938 1.972656 -17.589844 C 2.199219 -17.710938 2.414062 -17.75 2.613281 -17.710938 C 2.800781 -17.632812 2.984375 -17.515625 3.175781 -17.335938 C 3.339844 -17.136719 3.5 -16.902344 3.644531 -16.585938 C 3.789062 -16.269531 3.933594 -15.953125 4.046875 -15.582031 L 4.070312 -15.601562 L 3.902344 -10.539062 C 3.90625 -10.125 3.851562 -9.644531 3.792969 -9.121094 C 3.707031 -8.582031 3.582031 -8.050781 3.402344 -7.554688 C 3.214844 -7.015625 2.964844 -6.570312 2.652344 -6.222656 C 2.328125 -5.832031 1.917969 -5.625 1.429688 -5.636719 Z M 1.429688 -5.636719 "/></g></g></g><g fill="#000000" fill-opacity="1"><g transform="translate(165.340803, 188.877346)"><g><path d="M 4.367188 -16.382812 L 4.257812 -2.96875 L 7.265625 -5.136719 C 7.257812 -5.300781 7.257812 -5.507812 7.273438 -5.792969 C 7.277344 -6.039062 7.292969 -6.324219 7.300781 -6.671875 L 7.289062 -8.726562 C 7.285156 -9.445312 7.273438 -10.125 7.285156 -10.824219 C 7.300781 -11.519531 7.304688 -12.074219 7.316406 -12.5625 L 7.359375 -14.035156 C 7.347656 -14.304688 7.347656 -14.609375 7.347656 -14.917969 C 7.359375 -15.203125 7.382812 -15.527344 7.390625 -15.875 C 7.410156 -16.507812 7.429688 -17.140625 7.476562 -17.792969 C 7.519531 -18.441406 7.5625 -19.089844 7.640625 -19.691406 C 7.679688 -19.992188 7.753906 -20.285156 7.832031 -20.578125 C 7.933594 -20.886719 8.050781 -21.171875 8.167969 -21.457031 C 8.300781 -21.71875 8.453125 -21.957031 8.617188 -22.171875 C 8.773438 -22.34375 8.945312 -22.496094 9.128906 -22.582031 C 9.308594 -22.671875 9.492188 -22.554688 9.652344 -22.214844 C 9.78125 -21.820312 9.863281 -21.085938 9.867188 -20.058594 L 9.664062 -16.378906 C 9.636719 -15.601562 9.585938 -14.8125 9.511719 -14.003906 C 9.417969 -13.117188 9.421875 -12.296875 9.539062 -11.617188 C 9.570312 -11.15625 9.675781 -10.746094 9.804688 -10.351562 C 9.933594 -9.957031 10.15625 -9.625 10.394531 -9.375 C 10.648438 -9.097656 10.941406 -8.917969 11.3125 -8.824219 C 11.664062 -8.714844 12.105469 -8.773438 12.609375 -8.941406 C 13.046875 -9.0625 13.441406 -9.292969 13.808594 -9.613281 C 14.15625 -9.914062 14.453125 -10.289062 14.625 -10.746094 C 14.832031 -11.160156 14.984375 -11.644531 15.109375 -12.171875 C 15.234375 -12.703125 15.320312 -13.242188 15.394531 -13.84375 C 15.464844 -14.40625 15.53125 -14.96875 15.578125 -15.511719 C 15.621094 -16.058594 15.660156 -16.566406 15.671875 -17.054688 L 15.335938 -16.277344 C 15.179688 -15.898438 15.03125 -15.558594 14.890625 -15.257812 C 14.742188 -14.914062 14.585938 -14.636719 14.417969 -14.425781 C 14.246094 -14.171875 14.097656 -14.035156 13.929688 -14.027344 C 13.765625 -14.015625 13.628906 -14.167969 13.542969 -14.453125 C 13.429688 -14.71875 13.355469 -15.082031 13.304688 -15.566406 C 13.273438 -16.023438 13.230469 -16.546875 13.226562 -17.164062 L 13.203125 -18.933594 C 13.191406 -19.511719 13.183594 -20.089844 13.1875 -20.640625 C 13.199219 -21.132812 13.207031 -21.582031 13.171875 -22.042969 C 13.144531 -22.746094 13.039062 -23.363281 12.832031 -23.875 C 12.625 -24.386719 12.328125 -24.773438 11.925781 -25.015625 C 11.328125 -25.339844 10.726562 -25.414062 10.144531 -25.261719 C 9.574219 -25.085938 9.023438 -24.78125 8.542969 -24.320312 C 8.039062 -23.84375 7.636719 -23.265625 7.324219 -22.605469 C 7.011719 -21.949219 6.824219 -21.308594 6.765625 -20.683594 C 6.75 -20.5 6.742188 -20.359375 6.734375 -20.214844 C 6.703125 -20.058594 6.699219 -19.914062 6.675781 -19.796875 C 6.644531 -19.636719 6.636719 -19.496094 6.628906 -19.351562 C 6.613281 -19.171875 6.621094 -19.003906 6.632812 -18.839844 C 6.382812 -19.460938 6.074219 -19.976562 5.714844 -20.351562 C 5.332031 -20.714844 4.859375 -20.910156 4.304688 -20.914062 C 3.71875 -20.867188 3.222656 -20.632812 2.78125 -20.164062 C 2.355469 -19.671875 2.019531 -19.101562 1.738281 -18.394531 C 1.449219 -17.652344 1.214844 -16.875 1.039062 -16.066406 C 0.835938 -15.246094 0.6875 -14.492188 0.550781 -13.78125 C 0.453125 -14.332031 0.300781 -14.816406 0.140625 -15.257812 C -0.0195312 -15.699219 -0.210938 -16.085938 -0.433594 -16.417969 C -0.914062 -17.023438 -1.417969 -17.265625 -2.019531 -17.136719 C -2.351562 -17.015625 -2.691406 -16.753906 -3.035156 -16.347656 C -3.40625 -15.925781 -3.773438 -15.300781 -4.136719 -14.507812 L -4.152344 -14.429688 C -3.390625 -14.117188 -2.875 -13.707031 -2.570312 -13.257812 C -2.433594 -13.007812 -2.332031 -12.699219 -2.265625 -12.398438 C -2.210938 -12.058594 -2.160156 -11.679688 -2.132812 -11.285156 L -2.097656 1.277344 L 1.167969 -0.921875 L 0.808594 -10.792969 C 0.871094 -11.003906 0.957031 -11.335938 1.019531 -11.757812 C 1.082031 -12.175781 1.132812 -12.660156 1.195312 -13.183594 L 1.445312 -14.796875 C 1.554688 -15.351562 1.679688 -15.882812 1.8125 -16.449219 C 1.957031 -16.996094 2.152344 -17.472656 2.421875 -17.894531 C 2.960938 -18.671875 3.453125 -18.761719 3.882812 -18.121094 C 4.105469 -17.789062 4.257812 -17.207031 4.367188 -16.382812 Z M 4.367188 -16.382812 "/></g></g></g><g fill="#000000" fill-opacity="1"><g transform="translate(181.963596, 177.679217)"><g><path d="M 7.402344 -5.296875 L 7.355469 -5.160156 C 8.015625 -5.605469 8.550781 -6.242188 8.964844 -7.105469 C 9.375 -7.929688 9.699219 -8.871094 9.917969 -9.878906 C 10.125 -10.84375 10.238281 -11.847656 10.3125 -12.863281 C 10.386719 -13.875 10.382812 -14.800781 10.332031 -15.589844 C 10.316406 -15.511719 10.285156 -15.457031 10.246094 -15.359375 C 10.207031 -15.265625 10.183594 -15.148438 10.136719 -15.011719 C 10.050781 -14.679688 9.941406 -14.332031 9.8125 -13.964844 C 9.695312 -13.578125 9.554688 -13.175781 9.390625 -12.753906 C 9.0625 -11.8125 8.757812 -11.089844 8.410156 -10.582031 C 8.253906 -10.304688 8.082031 -10.152344 7.929688 -10.121094 C 7.78125 -10.089844 7.660156 -10.214844 7.574219 -10.5 C 7.460938 -10.769531 7.417969 -11.289062 7.433594 -11.984375 L 7.511719 -23.144531 L 4.179688 -20.898438 L 4.128906 -17.703125 C 3.8125 -18.175781 3.484375 -18.507812 3.097656 -18.726562 C 2.722656 -18.921875 2.351562 -19.015625 1.941406 -19.015625 C 1.523438 -18.972656 1.101562 -18.828125 0.691406 -18.621094 C 0.296875 -18.390625 -0.09375 -18.054688 -0.457031 -17.671875 C -0.722656 -17.355469 -1.007812 -16.960938 -1.25 -16.453125 C -1.492188 -15.945312 -1.71875 -15.414062 -1.921875 -14.796875 C -2.125 -14.179688 -2.320312 -13.496094 -2.480469 -12.769531 C -2.644531 -12.039062 -2.78125 -11.328125 -2.890625 -10.566406 C -3.027344 -9.648438 -3.117188 -8.761719 -3.144531 -7.886719 C -3.179688 -6.96875 -3.160156 -6.121094 -3.09375 -5.308594 C -3.042969 -4.722656 -2.921875 -4.082031 -2.683594 -3.417969 C -2.441406 -2.757812 -2.160156 -2.1875 -1.78125 -1.722656 C -1.40625 -1.21875 -0.976562 -0.890625 -0.5 -0.695312 C -0.0273438 -0.5 0.503906 -0.578125 1.09375 -0.976562 C 1.898438 -1.519531 2.636719 -2.257812 3.234375 -3.210938 C 3.527344 -3.648438 3.761719 -4.113281 3.957031 -4.589844 C 4.152344 -5.066406 4.269531 -5.558594 4.296875 -6.023438 C 4.617188 -5.449219 5.0625 -5.09375 5.648438 -4.9375 C 6.210938 -4.765625 6.785156 -4.878906 7.402344 -5.296875 Z M 1.429688 -5.636719 C 1.136719 -5.613281 0.867188 -5.707031 0.605469 -5.941406 C 0.34375 -6.179688 0.148438 -6.566406 -0.0117188 -7.109375 C -0.179688 -7.617188 -0.277344 -8.269531 -0.3125 -9.140625 C -0.332031 -9.988281 -0.273438 -11.023438 -0.136719 -12.25 C -0.078125 -12.773438 -0.015625 -13.292969 0.0898438 -13.847656 C 0.175781 -14.386719 0.316406 -14.894531 0.457031 -15.402344 C 0.585938 -15.867188 0.777344 -16.304688 1.035156 -16.683594 C 1.269531 -17.050781 1.59375 -17.335938 1.972656 -17.589844 C 2.199219 -17.710938 2.414062 -17.75 2.613281 -17.710938 C 2.800781 -17.632812 2.984375 -17.515625 3.175781 -17.335938 C 3.339844 -17.136719 3.5 -16.902344 3.644531 -16.585938 C 3.789062 -16.269531 3.933594 -15.953125 4.046875 -15.582031 L 4.070312 -15.601562 L 3.902344 -10.539062 C 3.90625 -10.125 3.851562 -9.644531 3.792969 -9.121094 C 3.707031 -8.582031 3.582031 -8.050781 3.402344 -7.554688 C 3.214844 -7.015625 2.964844 -6.570312 2.652344 -6.222656 C 2.328125 -5.832031 1.917969 -5.625 1.429688 -5.636719 Z M 1.429688 -5.636719 "/></g></g></g><g fill="#000000" fill-opacity="1"><g transform="translate(194.188121, 169.44403)"><g><path d="M -2.0625 -11.125 L -2.058594 1.285156 L 1.207031 -0.914062 L 0.84375 -11.710938 C 0.824219 -12.453125 0.941406 -13.25 1.148438 -14.113281 C 1.210938 -14.328125 1.289062 -14.621094 1.40625 -15.007812 C 1.539062 -15.375 1.679688 -15.777344 1.882812 -16.191406 C 2.0625 -16.585938 2.273438 -16.9375 2.488281 -17.285156 C 2.699219 -17.632812 2.933594 -17.894531 3.21875 -18.085938 C 3.496094 -18.238281 3.789062 -18.265625 4.054688 -18.171875 C 4.339844 -18.054688 4.636719 -17.769531 4.953125 -17.296875 C 5.113281 -17.058594 5.148438 -16.808594 5.109375 -16.507812 C 5.070312 -16.207031 4.960938 -15.960938 4.789062 -15.707031 C 4.617188 -15.453125 4.402344 -15.207031 4.121094 -15.015625 C 3.835938 -14.824219 3.527344 -14.71875 3.195312 -14.703125 C 3.308594 -14.226562 3.445312 -13.871094 3.605469 -13.636719 C 3.761719 -13.398438 3.976562 -13.234375 4.191406 -13.171875 C 4.398438 -13.070312 4.617188 -13.046875 4.832031 -13.089844 C 5.046875 -13.128906 5.242188 -13.191406 5.433594 -13.320312 C 5.890625 -13.558594 6.21875 -13.886719 6.441406 -14.378906 C 6.636719 -14.851562 6.734375 -15.367188 6.75 -15.960938 C 6.753906 -16.515625 6.679688 -17.082031 6.503906 -17.652344 C 6.324219 -18.21875 6.09375 -18.71875 5.792969 -19.167969 C 5.480469 -19.578125 5.117188 -19.914062 4.710938 -20.160156 C 4.28125 -20.386719 3.824219 -20.453125 3.351562 -20.339844 C 2.890625 -20.203125 2.464844 -19.917969 2.121094 -19.511719 C 1.789062 -19.085938 1.476562 -18.632812 1.234375 -18.125 C 0.984375 -17.578125 0.773438 -17.023438 0.585938 -16.484375 C 0.414062 -15.921875 0.28125 -15.453125 0.164062 -15.066406 C -0.0820312 -15.691406 -0.402344 -16.164062 -0.769531 -16.5 C -1.117188 -16.816406 -1.527344 -16.917969 -1.964844 -16.796875 C -2.296875 -16.675781 -2.632812 -16.414062 -2.980469 -16.007812 C -3.324219 -15.605469 -3.6875 -15.015625 -4.039062 -14.261719 C -3.644531 -14.082031 -3.347656 -13.902344 -3.09375 -13.730469 C -2.839844 -13.558594 -2.660156 -13.335938 -2.5 -13.101562 C -2.363281 -12.847656 -2.257812 -12.539062 -2.195312 -12.238281 C -2.136719 -11.898438 -2.089844 -11.519531 -2.0625 -11.125 Z M -4.078125 -14.269531 L -4.078125 -14.167969 L -4.039062 -14.261719 Z M -4.078125 -14.269531 "/></g></g></g></svg>