<svg xmlns="http://www.w3.org/2000/svg" xmlns:xlink="http://www.w3.org/1999/xlink" width="500" zoomAndPan="magnify" viewBox="0 0 375 374.999991" height="500" preserveAspectRatio="xMidYMid meet" version="1.0"><defs><g/><clipPath id="a37e142611"><path d="M 250 186 L 271.949219 186 L 271.949219 202 L 250 202 Z M 250 186 " clip-rule="nonzero"/></clipPath><clipPath id="d5f34838e0"><path d="M 103.199219 179 L 114 179 L 114 200 L 103.199219 200 Z M 103.199219 179 " clip-rule="nonzero"/></clipPath><clipPath id="34dca164d9"><path d="M 114 110.644531 L 260 110.644531 L 260 175 L 114 175 Z M 114 110.644531 " clip-rule="nonzero"/></clipPath><clipPath id="d6db8773a9"><path d="M 125 229 L 248 229 L 248 259.894531 L 125 259.894531 Z M 125 229 " clip-rule="nonzero"/></clipPath></defs><rect x="-37.5" width="450" fill="#ffffff" y="-37.499999" height="449.999989" fill-opacity="1"/><rect x="-37.5" width="450" fill="#efefef" y="-37.499999" height="449.999989" fill-opacity="1"/><g fill="#ff914d" fill-opacity="1"><g transform="translate(135.769222, 230.095397)"><g><path d="M 17.519531 12.652344 C 17.90625 11.988281 18.496094 11.34375 19.320312 10.679688 C 20.148438 10.015625 21.105469 9.386719 22.175781 8.777344 C 23.246094 8.164062 24.417969 7.59375 25.660156 7.042969 C 26.90625 6.496094 28.179688 6 29.457031 5.535156 C 30.664062 5.085938 31.824219 4.695312 32.964844 4.386719 C 34.082031 4.058594 35.121094 3.835938 36.0625 3.667969 C 36.988281 3.515625 37.820312 3.457031 38.535156 3.46875 C 39.25 3.480469 39.785156 3.613281 40.136719 3.867188 C 40.402344 4.0625 40.558594 4.328125 40.585938 4.636719 C 40.605469 4.960938 40.503906 5.363281 40.273438 5.855469 C 41 5.71875 41.566406 5.5 41.976562 5.199219 C 42.382812 4.894531 42.660156 4.558594 42.820312 4.203125 C 43.101562 3.460938 43.046875 2.886719 42.691406 2.503906 C 42.316406 2.109375 41.675781 1.863281 40.78125 1.753906 C 39.792969 1.640625 38.582031 1.707031 37.113281 1.90625 C 35.632812 2.128906 34.003906 2.464844 32.289062 2.921875 C 30.558594 3.402344 28.75 3.988281 26.90625 4.667969 C 25.042969 5.371094 23.273438 6.167969 21.582031 7.027344 C 21.71875 6.621094 22.011719 6.171875 22.441406 5.664062 C 22.871094 5.15625 23.359375 4.65625 23.929688 4.125 C 24.503906 3.59375 25.09375 3.078125 25.746094 2.570312 C 26.359375 2.070312 26.976562 1.605469 27.53125 1.1875 C 28.476562 0.484375 29.378906 -0.152344 30.265625 -0.773438 C 31.140625 -1.371094 31.964844 -1.90625 32.707031 -2.40625 L 34.421875 -3.5625 C 33.882812 -3.859375 33.320312 -4.042969 32.785156 -4.082031 C 32.246094 -4.125 31.640625 -4.15625 30.945312 -4.152344 C 29.855469 -4.121094 28.667969 -4.003906 27.386719 -3.796875 C 26.085938 -3.570312 24.761719 -3.300781 23.398438 -3.027344 C 22 -2.746094 20.636719 -2.46875 19.292969 -2.179688 C 17.929688 -1.90625 16.664062 -1.71875 15.476562 -1.601562 C 14.253906 -1.476562 13.191406 -1.488281 12.261719 -1.59375 C 11.332031 -1.699219 10.589844 -1.984375 10.070312 -2.484375 C 9.644531 -2.855469 9.449219 -3.277344 9.410156 -3.746094 C 9.371094 -4.214844 9.4375 -4.703125 9.632812 -5.191406 C 9.792969 -5.671875 10.046875 -6.152344 10.375 -6.609375 C 10.703125 -7.0625 11.023438 -7.460938 11.402344 -7.816406 C 10.65625 -7.914062 9.9375 -7.964844 9.210938 -7.917969 C 8.488281 -7.875 7.789062 -7.78125 7.089844 -7.59375 C 6.367188 -7.421875 5.679688 -7.167969 5.042969 -6.808594 C 4.382812 -6.464844 3.808594 -6.0625 3.308594 -5.542969 C 2.707031 -4.96875 2.265625 -4.3125 1.941406 -3.601562 C 1.617188 -2.890625 1.480469 -2.140625 1.527344 -1.414062 C 1.535156 -0.6875 1.742188 0.03125 2.109375 0.738281 C 2.480469 1.445312 3.09375 2.078125 3.921875 2.675781 C 4.585938 3.152344 5.480469 3.390625 6.644531 3.351562 C 7.792969 3.328125 9.09375 3.136719 10.59375 2.804688 C 12.058594 2.476562 13.597656 2.046875 15.261719 1.484375 C 16.925781 0.925781 18.605469 0.34375 20.332031 -0.265625 C 22.027344 -0.867188 23.65625 -1.421875 25.269531 -1.957031 C 26.863281 -2.507812 28.351562 -2.910156 29.691406 -3.199219 C 28.121094 -2.507812 26.570312 -1.710938 25.070312 -0.808594 C 23.554688 0.109375 22.152344 1.140625 20.820312 2.289062 C 20.351562 2.675781 19.910156 3.109375 19.4375 3.589844 C 18.96875 4.066406 18.558594 4.589844 18.171875 5.128906 C 17.78125 5.664062 17.457031 6.25 17.171875 6.859375 C 16.886719 7.472656 16.691406 8.089844 16.613281 8.722656 C 16.515625 9.378906 16.527344 10.015625 16.671875 10.6875 C 16.796875 11.34375 17.070312 12.011719 17.519531 12.652344 Z M 17.519531 12.652344 "/></g></g></g><g fill="#ff914d" fill-opacity="1"><g transform="translate(157.040764, 245.483176)"><g><path d="M 13.546875 3.351562 C 14.527344 3.859375 15.578125 4.070312 16.691406 4.035156 C 17.804688 4 18.925781 3.726562 20.066406 3.277344 C 21.179688 2.820312 22.257812 2.199219 23.347656 1.417969 C 24.414062 0.632812 25.402344 -0.273438 26.320312 -1.304688 C 27.207031 -2.320312 27.980469 -3.414062 28.636719 -4.566406 C 29.296875 -5.714844 29.804688 -6.902344 30.132812 -8.109375 C 30.433594 -9.296875 30.539062 -10.453125 30.460938 -11.605469 C 30.351562 -12.738281 29.992188 -13.828125 29.347656 -14.832031 C 28.707031 -15.832031 27.765625 -16.703125 26.5625 -17.453125 C 25.324219 -18.183594 23.761719 -18.761719 21.8125 -19.171875 L 21.910156 -19.144531 C 20.710938 -19.394531 19.441406 -19.476562 18.152344 -19.378906 C 16.84375 -19.289062 15.617188 -19.015625 14.441406 -18.523438 C 13.261719 -18.03125 12.222656 -17.34375 11.320312 -16.464844 C 10.414062 -15.589844 9.800781 -14.507812 9.464844 -13.171875 C 9.246094 -12.304688 9.300781 -11.578125 9.660156 -11.015625 C 9.988281 -10.433594 10.488281 -10.019531 11.144531 -9.800781 C 11.769531 -9.566406 12.472656 -9.546875 13.253906 -9.71875 C 14.035156 -9.890625 14.746094 -10.316406 15.414062 -10.992188 C 14.980469 -11.152344 14.65625 -11.3125 14.417969 -11.53125 C 14.152344 -11.730469 13.972656 -11.957031 13.875 -12.195312 C 13.753906 -12.433594 13.683594 -12.6875 13.695312 -12.949219 C 13.683594 -13.214844 13.730469 -13.492188 13.804688 -13.789062 C 13.867188 -14.039062 13.957031 -14.304688 14.082031 -14.589844 C 14.207031 -14.871094 14.347656 -15.125 14.515625 -15.375 C 14.683594 -15.621094 14.851562 -15.867188 15.011719 -16.089844 C 15.175781 -16.3125 15.355469 -16.503906 15.503906 -16.679688 C 15.921875 -17.203125 16.476562 -17.617188 17.132812 -17.925781 C 17.789062 -18.234375 18.503906 -18.476562 19.273438 -18.597656 C 20.035156 -18.695312 20.796875 -18.691406 21.613281 -18.589844 C 22.429688 -18.488281 23.214844 -18.265625 23.96875 -17.917969 C 25.195312 -17.347656 26.128906 -16.5625 26.726562 -15.59375 C 27.324219 -14.628906 27.664062 -13.570312 27.773438 -12.4375 C 27.855469 -11.285156 27.742188 -10.105469 27.40625 -8.875 C 27.070312 -7.640625 26.59375 -6.472656 25.972656 -5.367188 C 25.421875 -4.425781 24.789062 -3.585938 24.058594 -2.875 C 23.320312 -2.140625 22.546875 -1.570312 21.703125 -1.152344 C 20.855469 -0.707031 19.976562 -0.453125 19.117188 -0.378906 C 18.25 -0.28125 17.421875 -0.4375 16.671875 -0.808594 C 16.101562 -1.058594 15.570312 -1.453125 15.078125 -2 C 14.578125 -2.519531 14.167969 -3.203125 13.824219 -4.023438 L 14.164062 -4.335938 C 14.640625 -4.765625 15.148438 -5.21875 15.65625 -5.667969 C 16.140625 -6.125 16.652344 -6.601562 17.167969 -7.078125 C 17.652344 -7.535156 18.160156 -7.988281 18.6875 -8.40625 C 19.210938 -8.828125 19.738281 -9.246094 20.308594 -9.628906 C 21.136719 -10.210938 22.003906 -10.730469 22.910156 -11.1875 C 23.808594 -11.617188 24.847656 -11.988281 26.011719 -12.328125 C 25.238281 -12.390625 24.457031 -12.324219 23.703125 -12.144531 C 22.949219 -11.964844 22.167969 -11.6875 21.351562 -11.367188 C 20.527344 -11.023438 19.691406 -10.628906 18.898438 -10.195312 C 18.105469 -9.761719 17.308594 -9.304688 16.507812 -8.847656 C 15.703125 -8.367188 14.910156 -7.933594 14.128906 -7.550781 C 13.351562 -7.167969 12.582031 -6.835938 11.832031 -6.578125 C 11.054688 -6.300781 10.328125 -6.140625 9.636719 -6.101562 C 8.9375 -6.042969 8.25 -6.136719 7.582031 -6.410156 C 7.050781 -6.59375 6.667969 -6.847656 6.433594 -7.171875 C 6.171875 -7.5 6 -7.859375 5.917969 -8.273438 C 5.746094 -9.054688 5.859375 -9.917969 6.3125 -10.882812 C 5.722656 -10.742188 5.167969 -10.515625 4.632812 -10.175781 C 4.078125 -9.839844 3.574219 -9.414062 3.109375 -8.925781 C 2.613281 -8.417969 2.21875 -7.886719 1.859375 -7.292969 C 1.5 -6.699219 1.246094 -6.105469 1.039062 -5.5 C 0.824219 -4.84375 0.691406 -4.21875 0.691406 -3.589844 C 0.664062 -2.964844 0.777344 -2.355469 1.03125 -1.792969 C 1.25 -1.210938 1.605469 -0.726562 2.121094 -0.28125 C 2.640625 0.164062 3.316406 0.515625 4.152344 0.753906 C 4.789062 0.941406 5.445312 0.945312 6.164062 0.8125 C 6.855469 0.671875 7.574219 0.429688 8.328125 0.0390625 C 9.054688 -0.328125 9.777344 -0.804688 10.550781 -1.375 C 11.296875 -1.925781 12.058594 -2.546875 12.824219 -3.195312 C 12.253906 -2.394531 11.882812 -1.644531 11.714844 -0.976562 C 11.515625 -0.289062 11.472656 0.304688 11.597656 0.859375 C 11.6875 1.4375 11.902344 1.9375 12.25 2.339844 C 12.566406 2.761719 13.003906 3.109375 13.546875 3.351562 Z M 13.546875 3.351562 "/></g></g></g><g fill="#ff914d" fill-opacity="1"><g transform="translate(182.270444, 251.073382)"><g><path d="M 8.117188 -0.621094 L 8.019531 -0.539062 C 8.734375 -0.574219 9.4375 -0.8125 10.15625 -1.28125 C 10.851562 -1.722656 11.539062 -2.292969 12.171875 -2.960938 C 12.777344 -3.601562 13.332031 -4.320312 13.859375 -5.058594 C 14.382812 -5.800781 14.808594 -6.511719 15.136719 -7.140625 C 15.089844 -7.085938 15.039062 -7.058594 14.964844 -7.003906 C 14.890625 -6.949219 14.816406 -6.867188 14.71875 -6.785156 C 14.5 -6.570312 14.253906 -6.355469 13.984375 -6.136719 C 13.714844 -5.894531 13.421875 -5.652344 13.101562 -5.40625 C 12.414062 -4.835938 11.84375 -4.425781 11.34375 -4.199219 C 11.097656 -4.058594 10.894531 -4.023438 10.761719 -4.066406 C 10.632812 -4.113281 10.601562 -4.265625 10.664062 -4.523438 C 10.703125 -4.78125 10.914062 -5.199219 11.246094 -5.726562 L 16.484375 -14.226562 L 12.890625 -14.054688 L 11.371094 -11.632812 C 11.347656 -12.140625 11.25 -12.546875 11.054688 -12.894531 C 10.859375 -13.21875 10.617188 -13.460938 10.304688 -13.648438 C 9.964844 -13.8125 9.574219 -13.894531 9.164062 -13.925781 C 8.757812 -13.933594 8.300781 -13.859375 7.847656 -13.738281 C 7.496094 -13.617188 7.09375 -13.445312 6.671875 -13.167969 C 6.253906 -12.894531 5.832031 -12.59375 5.390625 -12.214844 C 4.949219 -11.835938 4.484375 -11.402344 4.023438 -10.921875 C 3.558594 -10.441406 3.125 -9.960938 2.6875 -9.425781 C 2.15625 -8.789062 1.675781 -8.152344 1.25 -7.492188 C 0.796875 -6.808594 0.417969 -6.152344 0.09375 -5.496094 C -0.140625 -5.027344 -0.34375 -4.480469 -0.464844 -3.859375 C -0.589844 -3.242188 -0.640625 -2.675781 -0.5625 -2.144531 C -0.511719 -1.585938 -0.335938 -1.132812 -0.0625 -0.761719 C 0.210938 -0.394531 0.652344 -0.210938 1.292969 -0.242188 C 2.15625 -0.28125 3.066406 -0.503906 3.964844 -0.957031 C 4.390625 -1.15625 4.785156 -1.40625 5.15625 -1.679688 C 5.527344 -1.953125 5.84375 -2.273438 6.082031 -2.617188 C 6.058594 -2.027344 6.234375 -1.550781 6.613281 -1.160156 C 6.960938 -0.769531 7.457031 -0.589844 8.117188 -0.621094 Z M 3.707031 -3.652344 C 3.472656 -3.769531 3.308594 -3.964844 3.21875 -4.265625 C 3.125 -4.570312 3.160156 -4.953125 3.289062 -5.445312 C 3.394531 -5.910156 3.625 -6.457031 4 -7.140625 C 4.375 -7.796875 4.902344 -8.5625 5.574219 -9.4375 C 5.863281 -9.808594 6.152344 -10.179688 6.492188 -10.554688 C 6.804688 -10.929688 7.148438 -11.25 7.492188 -11.574219 C 7.808594 -11.871094 8.152344 -12.117188 8.527344 -12.289062 C 8.878906 -12.457031 9.257812 -12.527344 9.667969 -12.546875 C 9.898438 -12.53125 10.078125 -12.464844 10.210938 -12.34375 C 10.320312 -12.195312 10.40625 -12.019531 10.46875 -11.792969 C 10.503906 -11.566406 10.515625 -11.308594 10.480469 -11.003906 C 10.445312 -10.695312 10.410156 -10.386719 10.324219 -10.050781 L 10.347656 -10.050781 L 7.875 -6.253906 C 7.683594 -5.9375 7.421875 -5.59375 7.132812 -5.222656 C 6.816406 -4.847656 6.476562 -4.5 6.109375 -4.203125 C 5.714844 -3.875 5.316406 -3.652344 4.914062 -3.53125 C 4.488281 -3.382812 4.078125 -3.414062 3.707031 -3.652344 Z M 3.707031 -3.652344 "/></g></g></g><g fill="#ff914d" fill-opacity="1"><g transform="translate(196.799474, 250.76944)"><g><path d="M 8.074219 -12.84375 L 4.425781 -1.410156 L 7.574219 -2.460938 C 7.609375 -2.605469 7.664062 -2.78125 7.75 -3.023438 C 7.820312 -3.230469 7.910156 -3.46875 8.007812 -3.765625 L 8.542969 -5.523438 C 8.730469 -6.140625 8.902344 -6.726562 9.097656 -7.316406 C 9.292969 -7.90625 9.445312 -8.378906 9.585938 -8.796875 L 10.011719 -10.042969 C 10.074219 -10.273438 10.152344 -10.539062 10.234375 -10.800781 C 10.324219 -11.042969 10.425781 -11.3125 10.523438 -11.609375 C 10.710938 -12.144531 10.894531 -12.679688 11.105469 -13.222656 C 11.316406 -13.765625 11.527344 -14.308594 11.75 -14.800781 C 11.863281 -15.046875 12.007812 -15.277344 12.152344 -15.507812 C 12.320312 -15.746094 12.496094 -15.957031 12.671875 -16.167969 C 12.855469 -16.359375 13.046875 -16.523438 13.242188 -16.660156 C 13.421875 -16.769531 13.613281 -16.851562 13.789062 -16.878906 C 13.96875 -16.90625 14.09375 -16.757812 14.140625 -16.425781 C 14.144531 -16.054688 14.019531 -15.402344 13.753906 -14.523438 L 12.601562 -11.433594 C 12.375 -10.777344 12.121094 -10.117188 11.839844 -9.445312 C 11.527344 -8.714844 11.3125 -8.007812 11.230469 -7.398438 C 11.136719 -6.996094 11.117188 -6.617188 11.125 -6.246094 C 11.128906 -5.875 11.230469 -5.535156 11.367188 -5.253906 C 11.511719 -4.953125 11.714844 -4.71875 12.007812 -4.542969 C 12.277344 -4.355469 12.671875 -4.289062 13.148438 -4.296875 C 13.550781 -4.285156 13.949219 -4.378906 14.351562 -4.550781 C 14.726562 -4.71875 15.082031 -4.957031 15.351562 -5.304688 C 15.632812 -5.605469 15.894531 -5.976562 16.140625 -6.394531 C 16.386719 -6.816406 16.601562 -7.253906 16.828125 -7.746094 C 17.035156 -8.210938 17.242188 -8.671875 17.425781 -9.125 C 17.609375 -9.582031 17.773438 -10.003906 17.917969 -10.417969 L 17.421875 -9.84375 C 17.1875 -9.5625 16.972656 -9.308594 16.769531 -9.089844 C 16.554688 -8.835938 16.34375 -8.640625 16.148438 -8.503906 C 15.933594 -8.332031 15.769531 -8.253906 15.625 -8.292969 C 15.480469 -8.328125 15.40625 -8.492188 15.40625 -8.757812 C 15.378906 -9.019531 15.414062 -9.347656 15.5 -9.773438 C 15.59375 -10.175781 15.695312 -10.632812 15.855469 -11.160156 L 16.304688 -12.679688 C 16.449219 -13.175781 16.59375 -13.671875 16.742188 -14.144531 C 16.886719 -14.558594 17.007812 -14.941406 17.101562 -15.34375 C 17.265625 -15.953125 17.339844 -16.507812 17.296875 -17 C 17.253906 -17.496094 17.105469 -17.902344 16.824219 -18.21875 C 16.402344 -18.648438 15.90625 -18.875 15.367188 -18.898438 C 14.835938 -18.898438 14.28125 -18.785156 13.75 -18.519531 C 13.191406 -18.246094 12.699219 -17.855469 12.253906 -17.378906 C 11.8125 -16.898438 11.484375 -16.398438 11.265625 -15.882812 C 11.207031 -15.730469 11.160156 -15.609375 11.117188 -15.488281 C 11.050781 -15.363281 11.003906 -15.242188 10.953125 -15.148438 C 10.886719 -15.019531 10.839844 -14.902344 10.796875 -14.78125 C 10.738281 -14.628906 10.699219 -14.484375 10.664062 -14.339844 C 10.617188 -14.941406 10.488281 -15.460938 10.28125 -15.878906 C 10.050781 -16.289062 9.695312 -16.582031 9.226562 -16.734375 C 8.710938 -16.84375 8.226562 -16.777344 7.726562 -16.496094 C 7.230469 -16.1875 6.792969 -15.789062 6.363281 -15.261719 C 5.917969 -14.699219 5.515625 -14.097656 5.148438 -13.457031 C 4.757812 -12.804688 4.433594 -12.203125 4.125 -11.628906 C 4.1875 -12.128906 4.183594 -12.582031 4.164062 -13 C 4.144531 -13.421875 4.085938 -13.800781 3.980469 -14.144531 C 3.734375 -14.789062 3.367188 -15.132812 2.816406 -15.179688 C 2.503906 -15.164062 2.144531 -15.03125 1.742188 -14.777344 C 1.3125 -14.515625 0.832031 -14.078125 0.3125 -13.496094 L 0.28125 -13.433594 C 0.847656 -12.960938 1.179688 -12.476562 1.320312 -12.011719 C 1.367188 -11.761719 1.375 -11.46875 1.351562 -11.195312 C 1.308594 -10.890625 1.25 -10.554688 1.167969 -10.207031 L -2.128906 0.535156 L 1.242188 -0.480469 L 3.554688 -9.007812 C 3.664062 -9.171875 3.824219 -9.433594 3.988281 -9.777344 C 4.152344 -10.121094 4.324219 -10.519531 4.515625 -10.949219 L 5.160156 -12.261719 C 5.398438 -12.707031 5.648438 -13.125 5.910156 -13.578125 C 6.179688 -14.007812 6.472656 -14.359375 6.8125 -14.648438 C 7.484375 -15.171875 7.925781 -15.117188 8.125 -14.457031 C 8.226562 -14.113281 8.203125 -13.574219 8.074219 -12.84375 Z M 8.074219 -12.84375 "/></g></g></g><g fill="#ff914d" fill-opacity="1"><g transform="translate(215.137103, 245.070949)"><g><path d="M 6.882812 -4.351562 L 6.832031 -4.234375 C 7.445312 -4.601562 7.957031 -5.140625 8.371094 -5.890625 C 8.777344 -6.605469 9.117188 -7.433594 9.363281 -8.320312 C 9.597656 -9.171875 9.75 -10.0625 9.871094 -10.964844 C 9.988281 -11.867188 10.03125 -12.691406 10.023438 -13.402344 C 10.007812 -13.332031 9.976562 -13.285156 9.9375 -13.199219 C 9.898438 -13.117188 9.871094 -13.011719 9.820312 -12.894531 C 9.726562 -12.601562 9.613281 -12.296875 9.476562 -11.976562 C 9.351562 -11.636719 9.207031 -11.28125 9.039062 -10.914062 C 8.695312 -10.089844 8.386719 -9.460938 8.054688 -9.027344 C 7.898438 -8.785156 7.738281 -8.660156 7.601562 -8.636719 C 7.464844 -8.617188 7.363281 -8.734375 7.300781 -8.992188 C 7.214844 -9.238281 7.203125 -9.707031 7.25 -10.328125 L 7.890625 -20.292969 L 4.796875 -18.457031 L 4.589844 -15.605469 C 4.332031 -16.042969 4.054688 -16.355469 3.71875 -16.570312 C 3.398438 -16.765625 3.070312 -16.867188 2.703125 -16.886719 C 2.324219 -16.871094 1.945312 -16.765625 1.566406 -16.597656 C 1.203125 -16.414062 0.835938 -16.132812 0.492188 -15.8125 C 0.238281 -15.542969 -0.0351562 -15.203125 -0.277344 -14.761719 C -0.519531 -14.320312 -0.75 -13.855469 -0.964844 -13.316406 C -1.175781 -12.773438 -1.382812 -12.175781 -1.566406 -11.53125 C -1.75 -10.890625 -1.910156 -10.261719 -2.042969 -9.589844 C -2.214844 -8.773438 -2.339844 -7.988281 -2.410156 -7.203125 C -2.488281 -6.386719 -2.511719 -5.628906 -2.492188 -4.898438 C -2.480469 -4.375 -2.402344 -3.796875 -2.222656 -3.191406 C -2.039062 -2.585938 -1.820312 -2.066406 -1.503906 -1.628906 C -1.195312 -1.160156 -0.828125 -0.84375 -0.414062 -0.644531 C 0.00390625 -0.445312 0.480469 -0.492188 1.027344 -0.816406 C 1.773438 -1.261719 2.472656 -1.882812 3.054688 -2.703125 C 3.335938 -3.078125 3.570312 -3.484375 3.769531 -3.898438 C 3.964844 -4.3125 4.09375 -4.746094 4.144531 -5.160156 C 4.402344 -4.632812 4.78125 -4.292969 5.296875 -4.125 C 5.789062 -3.941406 6.3125 -4.015625 6.882812 -4.351562 Z M 1.5625 -4.964844 C 1.300781 -4.957031 1.066406 -5.054688 0.84375 -5.277344 C 0.621094 -5.503906 0.46875 -5.855469 0.351562 -6.351562 C 0.226562 -6.8125 0.171875 -7.402344 0.1875 -8.183594 C 0.210938 -8.9375 0.316406 -9.863281 0.5 -10.949219 C 0.582031 -11.414062 0.664062 -11.878906 0.785156 -12.367188 C 0.890625 -12.84375 1.039062 -13.289062 1.191406 -13.734375 C 1.332031 -14.144531 1.523438 -14.523438 1.773438 -14.851562 C 2.003906 -15.167969 2.304688 -15.40625 2.65625 -15.613281 C 2.867188 -15.710938 3.058594 -15.734375 3.234375 -15.691406 C 3.402344 -15.609375 3.558594 -15.496094 3.71875 -15.324219 C 3.859375 -15.140625 3.988281 -14.921875 4.101562 -14.632812 C 4.214844 -14.34375 4.324219 -14.054688 4.40625 -13.714844 L 4.429688 -13.730469 L 4.023438 -9.214844 C 4.003906 -8.847656 3.933594 -8.417969 3.851562 -7.957031 C 3.75 -7.480469 3.613281 -7.011719 3.425781 -6.574219 C 3.230469 -6.101562 2.984375 -5.71875 2.683594 -5.421875 C 2.378906 -5.089844 2 -4.925781 1.5625 -4.964844 Z M 1.5625 -4.964844 "/></g></g></g><g fill="#ff914d" fill-opacity="1"><g transform="translate(227.332333, 237.84873)"><g><path d="M -3.15625 -9.621094 L -1.671875 1.382812 L 0.960938 -0.957031 L -0.648438 -10.484375 C -0.753906 -11.140625 -0.746094 -11.863281 -0.664062 -12.652344 C -0.636719 -12.851562 -0.601562 -13.121094 -0.542969 -13.476562 C -0.46875 -13.816406 -0.394531 -14.191406 -0.261719 -14.582031 C -0.148438 -14.957031 -0.00390625 -15.289062 0.140625 -15.625 C 0.289062 -15.960938 0.464844 -16.21875 0.695312 -16.421875 C 0.921875 -16.589844 1.179688 -16.648438 1.429688 -16.597656 C 1.695312 -16.527344 1.988281 -16.3125 2.328125 -15.929688 C 2.5 -15.738281 2.558594 -15.519531 2.558594 -15.246094 C 2.5625 -14.976562 2.496094 -14.746094 2.371094 -14.5 C 2.25 -14.253906 2.089844 -14.011719 1.859375 -13.808594 C 1.632812 -13.601562 1.371094 -13.472656 1.078125 -13.417969 C 1.234375 -13.011719 1.398438 -12.714844 1.570312 -12.523438 C 1.738281 -12.332031 1.949219 -12.210938 2.144531 -12.179688 C 2.339844 -12.117188 2.539062 -12.121094 2.722656 -12.183594 C 2.90625 -12.246094 3.074219 -12.324219 3.226562 -12.460938 C 3.605469 -12.726562 3.859375 -13.054688 3.996094 -13.519531 C 4.109375 -13.964844 4.140625 -14.433594 4.078125 -14.960938 C 4.019531 -15.449219 3.882812 -15.945312 3.660156 -16.429688 C 3.433594 -16.914062 3.171875 -17.328125 2.847656 -17.6875 C 2.523438 -18.015625 2.160156 -18.269531 1.773438 -18.4375 C 1.363281 -18.589844 0.949219 -18.59375 0.542969 -18.4375 C 0.152344 -18.261719 -0.191406 -17.957031 -0.449219 -17.558594 C -0.691406 -17.136719 -0.914062 -16.699219 -1.070312 -16.21875 C -1.226562 -15.707031 -1.347656 -15.1875 -1.449219 -14.6875 C -1.535156 -14.167969 -1.59375 -13.738281 -1.652344 -13.382812 C -1.945312 -13.90625 -2.285156 -14.285156 -2.648438 -14.542969 C -2.996094 -14.78125 -3.375 -14.820312 -3.746094 -14.660156 C -4.027344 -14.515625 -4.292969 -14.242188 -4.554688 -13.839844 C -4.8125 -13.441406 -5.0625 -12.875 -5.285156 -12.167969 C -4.910156 -12.054688 -4.628906 -11.929688 -4.382812 -11.808594 C -4.136719 -11.683594 -3.949219 -11.511719 -3.78125 -11.320312 C -3.628906 -11.113281 -3.5 -10.851562 -3.40625 -10.59375 C -3.316406 -10.296875 -3.226562 -9.96875 -3.15625 -9.621094 Z M -5.320312 -12.167969 L -5.308594 -12.078125 L -5.285156 -12.167969 Z M -5.320312 -12.167969 "/></g></g></g><g fill="#000000" fill-opacity="1"><g transform="translate(136.383094, 229.755142)"><g><path d="M 17.519531 12.652344 C 17.90625 11.988281 18.496094 11.34375 19.320312 10.679688 C 20.148438 10.015625 21.105469 9.386719 22.175781 8.777344 C 23.246094 8.164062 24.417969 7.59375 25.660156 7.042969 C 26.90625 6.496094 28.179688 6 29.457031 5.535156 C 30.664062 5.085938 31.824219 4.695312 32.964844 4.386719 C 34.082031 4.058594 35.121094 3.835938 36.0625 3.667969 C 36.988281 3.515625 37.820312 3.457031 38.535156 3.46875 C 39.25 3.480469 39.785156 3.613281 40.136719 3.867188 C 40.402344 4.0625 40.558594 4.328125 40.585938 4.636719 C 40.605469 4.960938 40.503906 5.363281 40.273438 5.855469 C 41 5.71875 41.566406 5.5 41.976562 5.199219 C 42.382812 4.894531 42.660156 4.558594 42.820312 4.203125 C 43.101562 3.460938 43.046875 2.886719 42.691406 2.503906 C 42.316406 2.109375 41.675781 1.863281 40.78125 1.753906 C 39.792969 1.640625 38.582031 1.707031 37.113281 1.90625 C 35.632812 2.128906 34.003906 2.464844 32.289062 2.921875 C 30.558594 3.402344 28.75 3.988281 26.90625 4.667969 C 25.042969 5.371094 23.273438 6.167969 21.582031 7.027344 C 21.71875 6.621094 22.011719 6.171875 22.441406 5.664062 C 22.871094 5.15625 23.359375 4.65625 23.929688 4.125 C 24.503906 3.59375 25.09375 3.078125 25.746094 2.570312 C 26.359375 2.070312 26.976562 1.605469 27.53125 1.1875 C 28.476562 0.484375 29.378906 -0.152344 30.265625 -0.773438 C 31.140625 -1.371094 31.964844 -1.90625 32.707031 -2.40625 L 34.421875 -3.5625 C 33.882812 -3.859375 33.320312 -4.042969 32.785156 -4.082031 C 32.246094 -4.125 31.640625 -4.15625 30.945312 -4.152344 C 29.855469 -4.121094 28.667969 -4.003906 27.386719 -3.796875 C 26.085938 -3.570312 24.761719 -3.300781 23.398438 -3.027344 C 22 -2.746094 20.636719 -2.46875 19.292969 -2.179688 C 17.929688 -1.90625 16.664062 -1.71875 15.476562 -1.601562 C 14.253906 -1.476562 13.191406 -1.488281 12.261719 -1.59375 C 11.332031 -1.699219 10.589844 -1.984375 10.070312 -2.484375 C 9.644531 -2.855469 9.449219 -3.277344 9.410156 -3.746094 C 9.371094 -4.214844 9.4375 -4.703125 9.632812 -5.191406 C 9.792969 -5.671875 10.046875 -6.152344 10.375 -6.609375 C 10.703125 -7.0625 11.023438 -7.460938 11.402344 -7.816406 C 10.65625 -7.914062 9.9375 -7.964844 9.210938 -7.917969 C 8.488281 -7.875 7.789062 -7.78125 7.089844 -7.59375 C 6.367188 -7.421875 5.679688 -7.167969 5.042969 -6.808594 C 4.382812 -6.464844 3.808594 -6.0625 3.308594 -5.542969 C 2.707031 -4.96875 2.265625 -4.3125 1.941406 -3.601562 C 1.617188 -2.890625 1.480469 -2.140625 1.527344 -1.414062 C 1.535156 -0.6875 1.742188 0.03125 2.109375 0.738281 C 2.480469 1.445312 3.09375 2.078125 3.921875 2.675781 C 4.585938 3.152344 5.480469 3.390625 6.644531 3.351562 C 7.792969 3.328125 9.09375 3.136719 10.59375 2.804688 C 12.058594 2.476562 13.597656 2.046875 15.261719 1.484375 C 16.925781 0.925781 18.605469 0.34375 20.332031 -0.265625 C 22.027344 -0.867188 23.65625 -1.421875 25.269531 -1.957031 C 26.863281 -2.507812 28.351562 -2.910156 29.691406 -3.199219 C 28.121094 -2.507812 26.570312 -1.710938 25.070312 -0.808594 C 23.554688 0.109375 22.152344 1.140625 20.820312 2.289062 C 20.351562 2.675781 19.910156 3.109375 19.4375 3.589844 C 18.96875 4.066406 18.558594 4.589844 18.171875 5.128906 C 17.78125 5.664062 17.457031 6.25 17.171875 6.859375 C 16.886719 7.472656 16.691406 8.089844 16.613281 8.722656 C 16.515625 9.378906 16.527344 10.015625 16.671875 10.6875 C 16.796875 11.34375 17.070312 12.011719 17.519531 12.652344 Z M 17.519531 12.652344 "/></g></g></g><g fill="#000000" fill-opacity="1"><g transform="translate(157.654621, 245.142923)"><g><path d="M 13.546875 3.351562 C 14.527344 3.859375 15.578125 4.070312 16.691406 4.035156 C 17.804688 4 18.925781 3.726562 20.066406 3.277344 C 21.179688 2.820312 22.257812 2.199219 23.347656 1.417969 C 24.414062 0.632812 25.402344 -0.273438 26.320312 -1.304688 C 27.207031 -2.320312 27.980469 -3.414062 28.636719 -4.566406 C 29.296875 -5.714844 29.804688 -6.902344 30.132812 -8.109375 C 30.433594 -9.296875 30.539062 -10.453125 30.460938 -11.605469 C 30.351562 -12.738281 29.992188 -13.828125 29.347656 -14.832031 C 28.707031 -15.832031 27.765625 -16.703125 26.5625 -17.453125 C 25.324219 -18.183594 23.761719 -18.761719 21.8125 -19.171875 L 21.910156 -19.144531 C 20.710938 -19.394531 19.441406 -19.476562 18.152344 -19.378906 C 16.84375 -19.289062 15.617188 -19.015625 14.441406 -18.523438 C 13.261719 -18.03125 12.222656 -17.34375 11.320312 -16.464844 C 10.414062 -15.589844 9.800781 -14.507812 9.464844 -13.171875 C 9.246094 -12.304688 9.300781 -11.578125 9.660156 -11.015625 C 9.988281 -10.433594 10.488281 -10.019531 11.144531 -9.800781 C 11.769531 -9.566406 12.472656 -9.546875 13.253906 -9.71875 C 14.035156 -9.890625 14.746094 -10.316406 15.414062 -10.992188 C 14.980469 -11.152344 14.65625 -11.3125 14.417969 -11.53125 C 14.152344 -11.730469 13.972656 -11.957031 13.875 -12.195312 C 13.753906 -12.433594 13.683594 -12.6875 13.695312 -12.949219 C 13.683594 -13.214844 13.730469 -13.492188 13.804688 -13.789062 C 13.867188 -14.039062 13.957031 -14.304688 14.082031 -14.589844 C 14.207031 -14.871094 14.347656 -15.125 14.515625 -15.375 C 14.683594 -15.621094 14.851562 -15.867188 15.011719 -16.089844 C 15.175781 -16.3125 15.355469 -16.503906 15.503906 -16.679688 C 15.921875 -17.203125 16.476562 -17.617188 17.132812 -17.925781 C 17.789062 -18.234375 18.503906 -18.476562 19.273438 -18.597656 C 20.035156 -18.695312 20.796875 -18.691406 21.613281 -18.589844 C 22.429688 -18.488281 23.214844 -18.265625 23.96875 -17.917969 C 25.195312 -17.347656 26.128906 -16.5625 26.726562 -15.59375 C 27.324219 -14.628906 27.664062 -13.570312 27.773438 -12.4375 C 27.855469 -11.285156 27.742188 -10.105469 27.40625 -8.875 C 27.070312 -7.640625 26.59375 -6.472656 25.972656 -5.367188 C 25.421875 -4.425781 24.789062 -3.585938 24.058594 -2.875 C 23.320312 -2.140625 22.546875 -1.570312 21.703125 -1.152344 C 20.855469 -0.707031 19.976562 -0.453125 19.117188 -0.378906 C 18.25 -0.28125 17.421875 -0.4375 16.671875 -0.808594 C 16.101562 -1.058594 15.570312 -1.453125 15.078125 -2 C 14.578125 -2.519531 14.167969 -3.203125 13.824219 -4.023438 L 14.164062 -4.335938 C 14.640625 -4.765625 15.148438 -5.21875 15.65625 -5.667969 C 16.140625 -6.125 16.652344 -6.601562 17.167969 -7.078125 C 17.652344 -7.535156 18.160156 -7.988281 18.6875 -8.40625 C 19.210938 -8.828125 19.738281 -9.246094 20.308594 -9.628906 C 21.136719 -10.210938 22.003906 -10.730469 22.910156 -11.1875 C 23.808594 -11.617188 24.847656 -11.988281 26.011719 -12.328125 C 25.238281 -12.390625 24.457031 -12.324219 23.703125 -12.144531 C 22.949219 -11.964844 22.167969 -11.6875 21.351562 -11.367188 C 20.527344 -11.023438 19.691406 -10.628906 18.898438 -10.195312 C 18.105469 -9.761719 17.308594 -9.304688 16.507812 -8.847656 C 15.703125 -8.367188 14.910156 -7.933594 14.128906 -7.550781 C 13.351562 -7.167969 12.582031 -6.835938 11.832031 -6.578125 C 11.054688 -6.300781 10.328125 -6.140625 9.636719 -6.101562 C 8.9375 -6.042969 8.25 -6.136719 7.582031 -6.410156 C 7.050781 -6.59375 6.667969 -6.847656 6.433594 -7.171875 C 6.171875 -7.5 6 -7.859375 5.917969 -8.273438 C 5.746094 -9.054688 5.859375 -9.917969 6.3125 -10.882812 C 5.722656 -10.742188 5.167969 -10.515625 4.632812 -10.175781 C 4.078125 -9.839844 3.574219 -9.414062 3.109375 -8.925781 C 2.613281 -8.417969 2.21875 -7.886719 1.859375 -7.292969 C 1.5 -6.699219 1.246094 -6.105469 1.039062 -5.5 C 0.824219 -4.84375 0.691406 -4.21875 0.691406 -3.589844 C 0.664062 -2.964844 0.777344 -2.355469 1.03125 -1.792969 C 1.25 -1.210938 1.605469 -0.726562 2.121094 -0.28125 C 2.640625 0.164062 3.316406 0.515625 4.152344 0.753906 C 4.789062 0.941406 5.445312 0.945312 6.164062 0.8125 C 6.855469 0.671875 7.574219 0.429688 8.328125 0.0390625 C 9.054688 -0.328125 9.777344 -0.804688 10.550781 -1.375 C 11.296875 -1.925781 12.058594 -2.546875 12.824219 -3.195312 C 12.253906 -2.394531 11.882812 -1.644531 11.714844 -0.976562 C 11.515625 -0.289062 11.472656 0.304688 11.597656 0.859375 C 11.6875 1.4375 11.902344 1.9375 12.25 2.339844 C 12.566406 2.761719 13.003906 3.109375 13.546875 3.351562 Z M 13.546875 3.351562 "/></g></g></g><g fill="#000000" fill-opacity="1"><g transform="translate(182.884301, 250.733127)"><g><path d="M 8.117188 -0.621094 L 8.019531 -0.539062 C 8.734375 -0.574219 9.4375 -0.8125 10.15625 -1.28125 C 10.851562 -1.722656 11.539062 -2.292969 12.171875 -2.960938 C 12.777344 -3.601562 13.332031 -4.320312 13.859375 -5.058594 C 14.382812 -5.800781 14.808594 -6.511719 15.136719 -7.140625 C 15.089844 -7.085938 15.039062 -7.058594 14.964844 -7.003906 C 14.890625 -6.949219 14.816406 -6.867188 14.71875 -6.785156 C 14.5 -6.570312 14.253906 -6.355469 13.984375 -6.136719 C 13.714844 -5.894531 13.421875 -5.652344 13.101562 -5.40625 C 12.414062 -4.835938 11.84375 -4.425781 11.34375 -4.199219 C 11.097656 -4.058594 10.894531 -4.023438 10.761719 -4.066406 C 10.632812 -4.113281 10.601562 -4.265625 10.664062 -4.523438 C 10.703125 -4.78125 10.914062 -5.199219 11.246094 -5.726562 L 16.484375 -14.226562 L 12.890625 -14.054688 L 11.371094 -11.632812 C 11.347656 -12.140625 11.25 -12.546875 11.054688 -12.894531 C 10.859375 -13.21875 10.617188 -13.460938 10.304688 -13.648438 C 9.964844 -13.8125 9.574219 -13.894531 9.164062 -13.925781 C 8.757812 -13.933594 8.300781 -13.859375 7.847656 -13.738281 C 7.496094 -13.617188 7.09375 -13.445312 6.671875 -13.167969 C 6.253906 -12.894531 5.832031 -12.59375 5.390625 -12.214844 C 4.949219 -11.835938 4.484375 -11.402344 4.023438 -10.921875 C 3.558594 -10.441406 3.125 -9.960938 2.6875 -9.425781 C 2.15625 -8.789062 1.675781 -8.152344 1.25 -7.492188 C 0.796875 -6.808594 0.417969 -6.152344 0.09375 -5.496094 C -0.140625 -5.027344 -0.34375 -4.480469 -0.464844 -3.859375 C -0.589844 -3.242188 -0.640625 -2.675781 -0.5625 -2.144531 C -0.511719 -1.585938 -0.335938 -1.132812 -0.0625 -0.761719 C 0.210938 -0.394531 0.652344 -0.210938 1.292969 -0.242188 C 2.15625 -0.28125 3.066406 -0.503906 3.964844 -0.957031 C 4.390625 -1.15625 4.785156 -1.40625 5.15625 -1.679688 C 5.527344 -1.953125 5.84375 -2.273438 6.082031 -2.617188 C 6.058594 -2.027344 6.234375 -1.550781 6.613281 -1.160156 C 6.960938 -0.769531 7.457031 -0.589844 8.117188 -0.621094 Z M 3.707031 -3.652344 C 3.472656 -3.769531 3.308594 -3.964844 3.21875 -4.265625 C 3.125 -4.570312 3.160156 -4.953125 3.289062 -5.445312 C 3.394531 -5.910156 3.625 -6.457031 4 -7.140625 C 4.375 -7.796875 4.902344 -8.5625 5.574219 -9.4375 C 5.863281 -9.808594 6.152344 -10.179688 6.492188 -10.554688 C 6.804688 -10.929688 7.148438 -11.25 7.492188 -11.574219 C 7.808594 -11.871094 8.152344 -12.117188 8.527344 -12.289062 C 8.878906 -12.457031 9.257812 -12.527344 9.667969 -12.546875 C 9.898438 -12.53125 10.078125 -12.464844 10.210938 -12.34375 C 10.320312 -12.195312 10.40625 -12.019531 10.46875 -11.792969 C 10.503906 -11.566406 10.515625 -11.308594 10.480469 -11.003906 C 10.445312 -10.695312 10.410156 -10.386719 10.324219 -10.050781 L 10.347656 -10.050781 L 7.875 -6.253906 C 7.683594 -5.9375 7.421875 -5.59375 7.132812 -5.222656 C 6.816406 -4.847656 6.476562 -4.5 6.109375 -4.203125 C 5.714844 -3.875 5.316406 -3.652344 4.914062 -3.53125 C 4.488281 -3.382812 4.078125 -3.414062 3.707031 -3.652344 Z M 3.707031 -3.652344 "/></g></g></g><g fill="#000000" fill-opacity="1"><g transform="translate(197.413332, 250.429127)"><g><path d="M 8.074219 -12.84375 L 4.425781 -1.410156 L 7.574219 -2.460938 C 7.609375 -2.605469 7.664062 -2.78125 7.75 -3.023438 C 7.820312 -3.230469 7.910156 -3.46875 8.007812 -3.765625 L 8.542969 -5.523438 C 8.730469 -6.140625 8.902344 -6.726562 9.097656 -7.316406 C 9.292969 -7.90625 9.445312 -8.378906 9.585938 -8.796875 L 10.011719 -10.042969 C 10.074219 -10.273438 10.152344 -10.539062 10.234375 -10.800781 C 10.324219 -11.042969 10.425781 -11.3125 10.523438 -11.609375 C 10.710938 -12.144531 10.894531 -12.679688 11.105469 -13.222656 C 11.316406 -13.765625 11.527344 -14.308594 11.75 -14.800781 C 11.863281 -15.046875 12.007812 -15.277344 12.152344 -15.507812 C 12.320312 -15.746094 12.496094 -15.957031 12.671875 -16.167969 C 12.855469 -16.359375 13.046875 -16.523438 13.242188 -16.660156 C 13.421875 -16.769531 13.613281 -16.851562 13.789062 -16.878906 C 13.96875 -16.90625 14.09375 -16.757812 14.140625 -16.425781 C 14.144531 -16.054688 14.019531 -15.402344 13.753906 -14.523438 L 12.601562 -11.433594 C 12.375 -10.777344 12.121094 -10.117188 11.839844 -9.445312 C 11.527344 -8.714844 11.3125 -8.007812 11.230469 -7.398438 C 11.136719 -6.996094 11.117188 -6.617188 11.125 -6.246094 C 11.128906 -5.875 11.230469 -5.535156 11.367188 -5.253906 C 11.511719 -4.953125 11.714844 -4.71875 12.007812 -4.542969 C 12.277344 -4.355469 12.671875 -4.289062 13.148438 -4.296875 C 13.550781 -4.285156 13.949219 -4.378906 14.351562 -4.550781 C 14.726562 -4.71875 15.082031 -4.957031 15.351562 -5.304688 C 15.632812 -5.605469 15.894531 -5.976562 16.140625 -6.394531 C 16.386719 -6.816406 16.601562 -7.253906 16.828125 -7.746094 C 17.035156 -8.210938 17.242188 -8.671875 17.425781 -9.125 C 17.609375 -9.582031 17.773438 -10.003906 17.917969 -10.417969 L 17.421875 -9.84375 C 17.1875 -9.5625 16.972656 -9.308594 16.769531 -9.089844 C 16.554688 -8.835938 16.34375 -8.640625 16.148438 -8.503906 C 15.933594 -8.332031 15.769531 -8.253906 15.625 -8.292969 C 15.480469 -8.328125 15.40625 -8.492188 15.40625 -8.757812 C 15.378906 -9.019531 15.414062 -9.347656 15.5 -9.773438 C 15.59375 -10.175781 15.695312 -10.632812 15.855469 -11.160156 L 16.304688 -12.679688 C 16.449219 -13.175781 16.59375 -13.671875 16.742188 -14.144531 C 16.886719 -14.558594 17.007812 -14.941406 17.101562 -15.34375 C 17.265625 -15.953125 17.339844 -16.507812 17.296875 -17 C 17.253906 -17.496094 17.105469 -17.902344 16.824219 -18.21875 C 16.402344 -18.648438 15.90625 -18.875 15.367188 -18.898438 C 14.835938 -18.898438 14.28125 -18.785156 13.75 -18.519531 C 13.191406 -18.246094 12.699219 -17.855469 12.253906 -17.378906 C 11.8125 -16.898438 11.484375 -16.398438 11.265625 -15.882812 C 11.207031 -15.730469 11.160156 -15.609375 11.117188 -15.488281 C 11.050781 -15.363281 11.003906 -15.242188 10.953125 -15.148438 C 10.886719 -15.019531 10.839844 -14.902344 10.796875 -14.78125 C 10.738281 -14.628906 10.699219 -14.484375 10.664062 -14.339844 C 10.617188 -14.941406 10.488281 -15.460938 10.28125 -15.878906 C 10.050781 -16.289062 9.695312 -16.582031 9.226562 -16.734375 C 8.710938 -16.84375 8.226562 -16.777344 7.726562 -16.496094 C 7.230469 -16.1875 6.792969 -15.789062 6.363281 -15.261719 C 5.917969 -14.699219 5.515625 -14.097656 5.148438 -13.457031 C 4.757812 -12.804688 4.433594 -12.203125 4.125 -11.628906 C 4.1875 -12.128906 4.183594 -12.582031 4.164062 -13 C 4.144531 -13.421875 4.085938 -13.800781 3.980469 -14.144531 C 3.734375 -14.789062 3.367188 -15.132812 2.816406 -15.179688 C 2.503906 -15.164062 2.144531 -15.03125 1.742188 -14.777344 C 1.3125 -14.515625 0.832031 -14.078125 0.3125 -13.496094 L 0.28125 -13.433594 C 0.847656 -12.960938 1.179688 -12.476562 1.320312 -12.011719 C 1.367188 -11.761719 1.375 -11.46875 1.351562 -11.195312 C 1.308594 -10.890625 1.25 -10.554688 1.167969 -10.207031 L -2.128906 0.535156 L 1.242188 -0.480469 L 3.554688 -9.007812 C 3.664062 -9.171875 3.824219 -9.433594 3.988281 -9.777344 C 4.152344 -10.121094 4.324219 -10.519531 4.515625 -10.949219 L 5.160156 -12.261719 C 5.398438 -12.707031 5.648438 -13.125 5.910156 -13.578125 C 6.179688 -14.007812 6.472656 -14.359375 6.8125 -14.648438 C 7.484375 -15.171875 7.925781 -15.117188 8.125 -14.457031 C 8.226562 -14.113281 8.203125 -13.574219 8.074219 -12.84375 Z M 8.074219 -12.84375 "/></g></g></g><g fill="#000000" fill-opacity="1"><g transform="translate(215.750974, 244.730639)"><g><path d="M 6.882812 -4.351562 L 6.832031 -4.234375 C 7.445312 -4.601562 7.957031 -5.140625 8.371094 -5.890625 C 8.777344 -6.605469 9.117188 -7.433594 9.363281 -8.320312 C 9.597656 -9.171875 9.75 -10.0625 9.871094 -10.964844 C 9.988281 -11.867188 10.03125 -12.691406 10.023438 -13.402344 C 10.007812 -13.332031 9.976562 -13.285156 9.9375 -13.199219 C 9.898438 -13.117188 9.871094 -13.011719 9.820312 -12.894531 C 9.726562 -12.601562 9.613281 -12.296875 9.476562 -11.976562 C 9.351562 -11.636719 9.207031 -11.28125 9.039062 -10.914062 C 8.695312 -10.089844 8.386719 -9.460938 8.054688 -9.027344 C 7.898438 -8.785156 7.738281 -8.660156 7.601562 -8.636719 C 7.464844 -8.617188 7.363281 -8.734375 7.300781 -8.992188 C 7.214844 -9.238281 7.203125 -9.707031 7.25 -10.328125 L 7.890625 -20.292969 L 4.796875 -18.457031 L 4.589844 -15.605469 C 4.332031 -16.042969 4.054688 -16.355469 3.71875 -16.570312 C 3.398438 -16.765625 3.070312 -16.867188 2.703125 -16.886719 C 2.324219 -16.871094 1.945312 -16.765625 1.566406 -16.597656 C 1.203125 -16.414062 0.835938 -16.132812 0.492188 -15.8125 C 0.238281 -15.542969 -0.0351562 -15.203125 -0.277344 -14.761719 C -0.519531 -14.320312 -0.75 -13.855469 -0.964844 -13.316406 C -1.175781 -12.773438 -1.382812 -12.175781 -1.566406 -11.53125 C -1.75 -10.890625 -1.910156 -10.261719 -2.042969 -9.589844 C -2.214844 -8.773438 -2.339844 -7.988281 -2.410156 -7.203125 C -2.488281 -6.386719 -2.511719 -5.628906 -2.492188 -4.898438 C -2.480469 -4.375 -2.402344 -3.796875 -2.222656 -3.191406 C -2.039062 -2.585938 -1.820312 -2.066406 -1.503906 -1.628906 C -1.195312 -1.160156 -0.828125 -0.84375 -0.414062 -0.644531 C 0.00390625 -0.445312 0.480469 -0.492188 1.027344 -0.816406 C 1.773438 -1.261719 2.472656 -1.882812 3.054688 -2.703125 C 3.335938 -3.078125 3.570312 -3.484375 3.769531 -3.898438 C 3.964844 -4.3125 4.09375 -4.746094 4.144531 -5.160156 C 4.402344 -4.632812 4.78125 -4.292969 5.296875 -4.125 C 5.789062 -3.941406 6.3125 -4.015625 6.882812 -4.351562 Z M 1.5625 -4.964844 C 1.300781 -4.957031 1.066406 -5.054688 0.84375 -5.277344 C 0.621094 -5.503906 0.46875 -5.855469 0.351562 -6.351562 C 0.226562 -6.8125 0.171875 -7.402344 0.1875 -8.183594 C 0.210938 -8.9375 0.316406 -9.863281 0.5 -10.949219 C 0.582031 -11.414062 0.664062 -11.878906 0.785156 -12.367188 C 0.890625 -12.84375 1.039062 -13.289062 1.191406 -13.734375 C 1.332031 -14.144531 1.523438 -14.523438 1.773438 -14.851562 C 2.003906 -15.167969 2.304688 -15.40625 2.65625 -15.613281 C 2.867188 -15.710938 3.058594 -15.734375 3.234375 -15.691406 C 3.402344 -15.609375 3.558594 -15.496094 3.71875 -15.324219 C 3.859375 -15.140625 3.988281 -14.921875 4.101562 -14.632812 C 4.214844 -14.34375 4.324219 -14.054688 4.40625 -13.714844 L 4.429688 -13.730469 L 4.023438 -9.214844 C 4.003906 -8.847656 3.933594 -8.417969 3.851562 -7.957031 C 3.75 -7.480469 3.613281 -7.011719 3.425781 -6.574219 C 3.230469 -6.101562 2.984375 -5.71875 2.683594 -5.421875 C 2.378906 -5.089844 2 -4.925781 1.5625 -4.964844 Z M 1.5625 -4.964844 "/></g></g></g><g fill="#000000" fill-opacity="1"><g transform="translate(227.946191, 237.508477)"><g><path d="M -3.15625 -9.621094 L -1.671875 1.382812 L 0.960938 -0.957031 L -0.648438 -10.484375 C -0.753906 -11.140625 -0.746094 -11.863281 -0.664062 -12.652344 C -0.636719 -12.851562 -0.601562 -13.121094 -0.542969 -13.476562 C -0.46875 -13.816406 -0.394531 -14.191406 -0.261719 -14.582031 C -0.148438 -14.957031 -0.00390625 -15.289062 0.140625 -15.625 C 0.289062 -15.960938 0.464844 -16.21875 0.695312 -16.421875 C 0.921875 -16.589844 1.179688 -16.648438 1.429688 -16.597656 C 1.695312 -16.527344 1.988281 -16.3125 2.328125 -15.929688 C 2.5 -15.738281 2.558594 -15.519531 2.558594 -15.246094 C 2.5625 -14.976562 2.496094 -14.746094 2.371094 -14.5 C 2.25 -14.253906 2.089844 -14.011719 1.859375 -13.808594 C 1.632812 -13.601562 1.371094 -13.472656 1.078125 -13.417969 C 1.234375 -13.011719 1.398438 -12.714844 1.570312 -12.523438 C 1.738281 -12.332031 1.949219 -12.210938 2.144531 -12.179688 C 2.339844 -12.117188 2.539062 -12.121094 2.722656 -12.183594 C 2.90625 -12.246094 3.074219 -12.324219 3.226562 -12.460938 C 3.605469 -12.726562 3.859375 -13.054688 3.996094 -13.519531 C 4.109375 -13.964844 4.140625 -14.433594 4.078125 -14.960938 C 4.019531 -15.449219 3.882812 -15.945312 3.660156 -16.429688 C 3.433594 -16.914062 3.171875 -17.328125 2.847656 -17.6875 C 2.523438 -18.015625 2.160156 -18.269531 1.773438 -18.4375 C 1.363281 -18.589844 0.949219 -18.59375 0.542969 -18.4375 C 0.152344 -18.261719 -0.191406 -17.957031 -0.449219 -17.558594 C -0.691406 -17.136719 -0.914062 -16.699219 -1.070312 -16.21875 C -1.226562 -15.707031 -1.347656 -15.1875 -1.449219 -14.6875 C -1.535156 -14.167969 -1.59375 -13.738281 -1.652344 -13.382812 C -1.945312 -13.90625 -2.285156 -14.285156 -2.648438 -14.542969 C -2.996094 -14.78125 -3.375 -14.820312 -3.746094 -14.660156 C -4.027344 -14.515625 -4.292969 -14.242188 -4.554688 -13.839844 C -4.8125 -13.441406 -5.0625 -12.875 -5.285156 -12.167969 C -4.910156 -12.054688 -4.628906 -11.929688 -4.382812 -11.808594 C -4.136719 -11.683594 -3.949219 -11.511719 -3.78125 -11.320312 C -3.628906 -11.113281 -3.5 -10.851562 -3.40625 -10.59375 C -3.316406 -10.296875 -3.226562 -9.96875 -3.15625 -9.621094 Z M -5.320312 -12.167969 L -5.308594 -12.078125 L -5.285156 -12.167969 Z M -5.320312 -12.167969 "/></g></g></g><path fill="#1d1d1b" d="M 157.582031 162.964844 L 149.472656 164.730469 L 143.046875 166.109375 L 138.175781 166.714844 L 126.316406 168.179688 L 140.503906 165.636719 Z M 157.582031 162.964844 " fill-opacity="1" fill-rule="nonzero"/><path fill="#1c5d72" d="M 149.472656 164.730469 L 143.046875 166.109375 L 138.175781 166.714844 L 146.5 165.035156 Z M 149.472656 164.730469 " fill-opacity="1" fill-rule="nonzero"/><path fill="#1c5d72" d="M 143.609375 193.996094 L 151.15625 192.660156 L 164.4375 190.589844 L 167.886719 190.589844 L 160.601562 192.875 L 157.324219 194.816406 L 169.742188 197.917969 L 180.609375 198.347656 L 217.738281 199.296875 L 222.136719 199.554688 L 222.136719 200.503906 L 168.191406 200.847656 C 168.191406 200.847656 157.582031 201.148438 157.191406 200.933594 L 150.078125 197.269531 L 143.609375 195.546875 Z M 143.609375 193.996094 " fill-opacity="1" fill-rule="nonzero"/><g clip-path="url(#a37e142611)"><path fill="#1c5d72" d="M 271.472656 197.359375 C 270.195312 197.148438 268.941406 196.832031 267.71875 196.410156 C 266.816406 196.078125 265.941406 195.691406 265.089844 195.246094 C 266.28125 193.65625 267 191.875 267.246094 189.902344 C 267.28125 189.628906 267.292969 189.355469 267.289062 189.082031 L 259.179688 187.53125 L 255.386719 186.796875 L 252.238281 186.195312 C 252.605469 188.765625 252.621094 191.335938 252.28125 193.910156 C 251.953125 196.351562 251.308594 198.710938 250.339844 200.976562 L 259.914062 200.976562 C 261.421875 201.019531 271.039062 201.367188 271.730469 198.695312 C 271.835938 198.210938 271.75 197.765625 271.472656 197.359375 Z M 251.589844 200.117188 C 252.9375 197.414062 253.65625 194.554688 253.746094 191.539062 C 253.777344 190.210938 253.691406 188.886719 253.488281 187.574219 L 264.742188 189.425781 C 264.121094 191.207031 263.199219 192.816406 261.984375 194.253906 C 258.40625 198.519531 253.402344 199.769531 251.589844 200.117188 Z M 267.761719 199.683594 C 265.304688 200.417969 263.363281 200.203125 261.335938 200.160156 C 259.019531 200.058594 256.707031 200.101562 254.394531 200.289062 C 257.628906 199.8125 261.078125 199.425781 264.742188 199.167969 L 269.703125 198.910156 C 269.074219 199.21875 268.429688 199.476562 267.761719 199.683594 Z M 267.761719 199.683594 " fill-opacity="1" fill-rule="nonzero"/></g><g clip-path="url(#d5f34838e0)"><path fill="#1c5d72" d="M 104.925781 179.386719 C 104.796875 179.386719 104.410156 180.03125 103.375 183.652344 C 103.351562 187.71875 104.257812 191.570312 106.089844 195.203125 L 107.816406 198.695312 L 113.898438 199.296875 C 112.792969 198.023438 111.972656 196.585938 111.4375 194.988281 C 111.015625 193.683594 110.832031 192.347656 110.878906 190.980469 C 109.527344 190.710938 108.347656 190.109375 107.339844 189.167969 C 105.402344 187.316406 105.140625 184.773438 104.96875 183.265625 C 104.753906 181.023438 105.140625 179.429688 104.925781 179.386719 Z M 104.925781 179.386719 " fill-opacity="1" fill-rule="nonzero"/></g><path fill="#1c5d72" d="M 259.007812 181.109375 C 257.714844 180.21875 256.378906 179.402344 254.996094 178.652344 L 253.058594 177.660156 C 245.683594 174.214844 242.535156 174.601562 229.769531 171.585938 C 221.449219 169.601562 222.179688 168.480469 212.648438 165.507812 C 205.953125 163.363281 199.109375 161.882812 192.125 161.070312 C 181.988281 159.90625 174.484375 160.765625 165.34375 161.585938 C 158.355469 162.1875 150.636719 163.613281 138.347656 165.207031 L 118.164062 168.914062 L 114.070312 169.644531 L 111.914062 170.03125 L 113.984375 169.945312 L 117.90625 169.773438 L 139.339844 168.914062 L 147.402344 171.542969 L 163.445312 175.550781 L 168.878906 173.265625 L 189.363281 174.730469 L 193.675781 175.894531 L 176.769531 175.292969 L 169.570312 174.945312 L 167.023438 176.152344 L 199.929688 181.929688 L 222.222656 185.417969 C 222.953125 183.945312 223.886719 182.617188 225.027344 181.433594 C 226.167969 180.25 227.460938 179.265625 228.90625 178.480469 C 236.496094 174.429688 244.347656 178.308594 244.992188 178.652344 C 247.988281 180.214844 250.332031 182.453125 252.023438 185.375 L 255.386719 185.9375 L 259.179688 186.582031 L 266.855469 187.917969 C 264.496094 185.355469 261.878906 183.085938 259.007812 181.109375 Z M 137.097656 168.222656 L 128 168.78125 L 138.175781 166.714844 L 143.046875 166.109375 L 149.472656 164.730469 L 155.296875 164.042969 L 144.253906 167.101562 Z M 219.203125 175.378906 L 216.015625 175.722656 L 195.140625 173.867188 L 167.886719 172.058594 L 149.949219 171.152344 L 145.074219 169.6875 L 145.550781 168.652344 L 155.296875 165.507812 L 162.972656 163.523438 L 182.722656 162.058594 L 201.871094 164.171875 L 213.859375 167.359375 L 228.820312 172.53125 Z M 259.179688 185.894531 L 255.386719 185.074219 L 252.886719 184.558594 C 251.984375 183 250.875 181.609375 249.5625 180.375 C 247.679688 178.5625 245.507812 177.195312 243.050781 176.28125 C 244.664062 176.28125 246.257812 176.441406 247.839844 176.757812 C 250.394531 177.285156 252.8125 178.1875 255.085938 179.472656 C 255.519531 179.6875 255.933594 179.933594 256.335938 180.203125 C 257.152344 180.679688 258.058594 181.238281 259.09375 181.972656 C 261.152344 183.457031 263.019531 185.152344 264.699219 187.058594 Z M 259.179688 185.894531 " fill-opacity="1" fill-rule="nonzero"/><path fill="#1c5d72" d="M 117.085938 168.828125 L 114.15625 169.171875 L 110.1875 169.730469 L 109.109375 170.335938 L 104.710938 167.75 L 114.328125 168.566406 Z M 117.085938 168.828125 " fill-opacity="1" fill-rule="nonzero"/><path fill="#1d1d1b" d="M 139.167969 187.445312 C 138.582031 186.417969 137.871094 185.484375 137.035156 184.648438 C 136.195312 183.808594 135.265625 183.097656 134.238281 182.507812 C 133.210938 181.921875 132.121094 181.480469 130.976562 181.183594 C 129.828125 180.886719 128.664062 180.75 127.480469 180.765625 C 120.234375 180.808594 114.371094 186.582031 114.414062 193.609375 C 114.425781 195.289062 114.769531 196.898438 115.449219 198.433594 C 114.390625 196.578125 113.859375 194.582031 113.851562 192.445312 C 113.808594 185.417969 119.675781 179.6875 126.921875 179.644531 C 128.210938 179.617188 129.480469 179.777344 130.726562 180.125 C 131.96875 180.472656 133.136719 180.992188 134.226562 181.6875 C 135.316406 182.382812 136.285156 183.21875 137.125 184.199219 C 137.964844 185.179688 138.648438 186.261719 139.167969 187.445312 Z M 139.167969 187.445312 " fill-opacity="1" fill-rule="nonzero"/><path fill="#1d1d1b" d="M 140.203125 192.273438 C 140.195312 190.589844 139.851562 188.980469 139.167969 187.445312 C 138.890625 186.929688 138.574219 186.441406 138.21875 185.980469 L 137.917969 185.589844 C 137.875 185.503906 137.789062 185.460938 137.742188 185.417969 C 137.699219 185.375 137.699219 185.332031 137.65625 185.289062 L 137.398438 185.03125 L 137.140625 184.730469 L 136.796875 184.429688 C 136.71875 184.304688 136.617188 184.203125 136.492188 184.125 L 136.191406 183.824219 L 135.5 183.308594 L 135.242188 183.136719 L 134.984375 182.960938 L 134.597656 182.703125 L 134.554688 182.703125 L 134.335938 182.617188 C 134.25 182.53125 134.164062 182.53125 134.078125 182.488281 L 133.863281 182.359375 C 133.820312 182.300781 133.761719 182.273438 133.691406 182.273438 L 133.605469 182.273438 L 133.257812 182.101562 L 133 181.972656 L 132.957031 181.972656 C 132.914062 181.914062 132.855469 181.886719 132.785156 181.886719 L 132.484375 181.753906 L 132.007812 181.582031 L 131.621094 181.453125 L 131.1875 181.324219 L 130.929688 181.324219 L 130.328125 181.152344 L 129.894531 181.066406 L 125.84375 181.066406 L 124.460938 181.28125 L 124.074219 181.410156 L 123.644531 181.496094 L 123.253906 181.625 L 122.824219 181.796875 L 122.78125 181.796875 L 122.476562 181.929688 L 122.390625 181.929688 L 122.089844 182.058594 L 121.488281 182.359375 L 121.269531 182.445312 L 120.96875 182.617188 L 120.453125 182.917969 L 120.0625 183.179688 L 119.675781 183.480469 C 119.164062 183.820312 118.6875 184.207031 118.253906 184.644531 L 117.992188 184.902344 C 117.8125 185.070312 117.652344 185.253906 117.519531 185.460938 C 117.433594 185.546875 117.347656 185.589844 117.304688 185.675781 L 117 186.066406 C 116.875 186.214844 116.761719 186.375 116.65625 186.539062 L 116.398438 186.925781 L 116.226562 187.230469 L 116.007812 187.53125 C 115.96875 187.65625 115.910156 187.769531 115.835938 187.875 C 115.78125 188.015625 115.710938 188.144531 115.621094 188.261719 C 115.570312 188.410156 115.515625 188.554688 115.449219 188.695312 L 115.320312 188.996094 C 115.269531 189.074219 115.242188 189.160156 115.234375 189.253906 C 115.234375 189.296875 115.234375 189.296875 115.191406 189.296875 L 115.0625 189.730469 C 114.976562 189.921875 114.921875 190.125 114.886719 190.332031 C 114.839844 190.425781 114.8125 190.527344 114.800781 190.632812 L 114.714844 190.847656 C 114.71875 190.910156 114.703125 190.96875 114.671875 191.023438 C 114.671875 191.109375 114.628906 191.195312 114.628906 191.324219 C 114.628906 191.453125 114.585938 191.539062 114.542969 191.667969 C 114.550781 191.800781 114.535156 191.929688 114.5 192.054688 C 114.507812 192.175781 114.492188 192.289062 114.457031 192.402344 L 114.457031 192.789062 C 114.421875 192.914062 114.40625 193.046875 114.414062 193.175781 L 114.414062 193.652344 C 114.421875 195.332031 114.765625 196.941406 115.449219 198.476562 C 116.035156 199.507812 116.746094 200.4375 117.582031 201.277344 C 118.417969 202.113281 119.351562 202.824219 120.378906 203.414062 C 121.40625 204 122.492188 204.441406 123.640625 204.738281 C 124.785156 205.035156 125.953125 205.175781 127.136719 205.160156 L 127.480469 205.160156 C 126.410156 205.144531 125.363281 204.992188 124.332031 204.707031 C 123.304688 204.417969 122.332031 204 121.410156 203.457031 C 120.492188 202.910156 119.65625 202.257812 118.910156 201.492188 C 118.164062 200.730469 117.527344 199.882812 117 198.953125 C 116.402344 197.53125 116.101562 196.054688 116.097656 194.511719 C 116.078125 193.242188 116.273438 192.003906 116.679688 190.796875 C 117.089844 189.59375 117.683594 188.488281 118.46875 187.488281 C 118.910156 186.761719 119.4375 186.101562 120.054688 185.507812 C 120.667969 184.917969 121.347656 184.414062 122.089844 184 C 122.835938 183.582031 123.621094 183.269531 124.445312 183.058594 C 125.269531 182.84375 126.109375 182.742188 126.964844 182.746094 L 128.085938 182.746094 C 129.171875 182.726562 130.242188 182.851562 131.296875 183.117188 C 132.351562 183.386719 133.351562 183.792969 134.296875 184.328125 C 135.242188 184.867188 136.097656 185.523438 136.867188 186.292969 C 137.632812 187.0625 138.285156 187.921875 138.820312 188.867188 C 139.449219 190.28125 139.765625 191.761719 139.769531 193.304688 C 139.785156 195.1875 139.371094 196.96875 138.519531 198.652344 C 139.648438 196.671875 140.207031 194.546875 140.203125 192.273438 Z M 140.203125 192.273438 " fill-opacity="1" fill-rule="nonzero"/><path fill="#1d1d1b" d="M 249.132812 188.089844 C 248.546875 187.066406 247.832031 186.136719 246.996094 185.300781 C 246.160156 184.46875 245.226562 183.757812 244.199219 183.175781 C 243.171875 182.589844 242.082031 182.152344 240.9375 181.859375 C 239.792969 181.570312 238.628906 181.433594 237.445312 181.453125 C 230.160156 181.496094 224.335938 187.230469 224.378906 194.253906 C 224.390625 195.929688 224.722656 197.539062 225.371094 199.082031 C 224.332031 197.234375 223.816406 195.253906 223.820312 193.132812 C 223.777344 186.109375 229.597656 180.332031 236.886719 180.289062 C 238.175781 180.269531 239.441406 180.4375 240.683594 180.789062 C 241.925781 181.140625 243.089844 181.664062 244.179688 182.355469 C 245.269531 183.050781 246.234375 183.882812 247.078125 184.859375 C 247.921875 185.835938 248.605469 186.914062 249.132812 188.089844 Z M 249.132812 188.089844 " fill-opacity="1" fill-rule="nonzero"/><path fill="#1d1d1b" d="M 250.167969 192.960938 C 250.171875 192.558594 250.15625 192.15625 250.117188 191.753906 C 250.078125 191.351562 250.015625 190.953125 249.9375 190.554688 C 249.855469 190.160156 249.753906 189.769531 249.632812 189.382812 C 249.507812 189 249.367188 188.621094 249.207031 188.25 C 249.042969 187.882812 248.863281 187.519531 248.660156 187.171875 C 248.460938 186.820312 248.242188 186.480469 248.007812 186.152344 C 247.769531 185.824219 247.519531 185.507812 247.25 185.207031 C 246.980469 184.90625 246.695312 184.621094 246.394531 184.351562 C 246.09375 184.078125 245.78125 183.824219 245.457031 183.585938 C 245.128906 183.347656 244.789062 183.128906 244.441406 182.925781 C 244.089844 182.722656 243.730469 182.539062 243.363281 182.375 C 242.992188 182.210938 242.617188 182.066406 242.230469 181.941406 C 241.847656 181.820312 241.457031 181.714844 241.0625 181.632812 C 240.664062 181.546875 240.265625 181.488281 239.863281 181.445312 C 239.460938 181.402344 239.058594 181.382812 238.65625 181.386719 C 238.25 181.386719 237.847656 181.410156 237.445312 181.453125 L 235.550781 181.453125 L 235.117188 181.539062 L 235.074219 181.539062 L 234.601562 181.625 L 234.167969 181.710938 L 233.695312 181.84375 L 233.261719 182.015625 L 232.960938 182.101562 L 232.832031 182.101562 L 232.402344 182.273438 L 232.359375 182.273438 L 231.925781 182.488281 L 231.882812 182.488281 L 231.496094 182.703125 L 231.453125 182.703125 L 231.195312 182.832031 L 230.375 183.308594 L 229.640625 183.824219 C 229.136719 184.191406 228.664062 184.59375 228.21875 185.03125 L 227.960938 185.289062 C 227.835938 185.367188 227.734375 185.46875 227.65625 185.589844 L 227.441406 185.808594 L 227.226562 186.066406 L 226.535156 186.972656 L 226.363281 187.273438 L 226.148438 187.617188 C 226.121094 187.640625 226.109375 187.667969 226.105469 187.703125 L 225.804688 188.21875 C 225.550781 188.679688 225.335938 189.152344 225.15625 189.644531 C 225.113281 189.730469 225.113281 189.859375 225.070312 189.945312 C 225.027344 190.03125 225.027344 190.074219 224.984375 190.117188 L 224.984375 190.203125 C 224.941406 190.246094 224.941406 190.332031 224.898438 190.375 C 224.894531 190.484375 224.867188 190.585938 224.8125 190.675781 L 224.683594 191.238281 C 224.640625 191.324219 224.640625 191.410156 224.59375 191.496094 C 224.550781 191.582031 224.550781 191.710938 224.550781 191.796875 C 224.550781 191.882812 224.507812 192.011719 224.507812 192.097656 C 224.507812 192.1875 224.464844 192.316406 224.464844 192.402344 C 224.464844 192.488281 224.421875 192.917969 224.378906 193.132812 L 224.378906 194.726562 C 224.382812 194.761719 224.398438 194.792969 224.421875 194.816406 L 224.421875 195.375 C 224.421875 195.503906 224.464844 195.632812 224.464844 195.761719 C 224.5 195.859375 224.515625 195.960938 224.507812 196.066406 C 224.542969 196.148438 224.558594 196.234375 224.550781 196.324219 L 224.683594 196.753906 C 224.683594 196.796875 224.726562 196.882812 224.726562 196.925781 C 224.769531 197.054688 224.769531 197.183594 224.8125 197.3125 C 224.855469 197.445312 225.070312 198.089844 225.242188 198.476562 C 225.414062 198.867188 225.285156 198.652344 225.328125 198.738281 C 225.894531 199.800781 226.59375 200.769531 227.421875 201.644531 C 228.25 202.519531 229.183594 203.269531 230.214844 203.890625 C 231.25 204.515625 232.34375 204.988281 233.507812 205.3125 C 234.667969 205.636719 235.851562 205.800781 237.058594 205.804688 L 237.402344 205.804688 C 236.339844 205.796875 235.292969 205.648438 234.269531 205.367188 C 233.242188 205.082031 232.273438 204.667969 231.355469 204.125 C 230.4375 203.585938 229.609375 202.933594 228.863281 202.175781 C 228.121094 201.414062 227.488281 200.570312 226.96875 199.640625 C 226.363281 198.222656 226.046875 196.742188 226.019531 195.203125 C 226.015625 193.925781 226.21875 192.683594 226.621094 191.472656 C 227.027344 190.261719 227.617188 189.152344 228.390625 188.132812 C 228.847656 187.414062 229.382812 186.757812 230.003906 186.171875 C 230.625 185.585938 231.308594 185.085938 232.054688 184.671875 C 232.800781 184.257812 233.585938 183.945312 234.410156 183.726562 C 235.234375 183.511719 236.074219 183.398438 236.929688 183.394531 L 238.050781 183.394531 C 239.136719 183.378906 240.207031 183.507812 241.257812 183.78125 C 242.308594 184.050781 243.308594 184.457031 244.25 184.996094 C 245.195312 185.53125 246.050781 186.183594 246.820312 186.953125 C 247.589844 187.71875 248.246094 188.570312 248.789062 189.511719 C 249.417969 190.941406 249.734375 192.433594 249.738281 193.996094 C 249.734375 195.867188 249.300781 197.632812 248.441406 199.296875 C 249.605469 197.34375 250.179688 195.234375 250.167969 192.960938 Z M 250.167969 192.960938 " fill-opacity="1" fill-rule="nonzero"/><path fill="#1c5d72" d="M 163.746094 187.746094 C 159.171875 183.730469 154.167969 180.339844 148.742188 177.574219 C 144.773438 175.550781 140.375 173.351562 134.121094 172.488281 C 131.585938 172.128906 129.042969 172.042969 126.488281 172.230469 C 122.847656 172.519531 119.355469 173.394531 116.007812 174.859375 C 114.375 175.628906 112.824219 176.53125 111.351562 177.574219 L 111.179688 178.222656 C 112.324219 177.394531 113.53125 176.675781 114.800781 176.066406 C 119.332031 173.824219 123.46875 173.480469 126.316406 173.222656 C 129.113281 173.007812 131.902344 173.082031 134.683594 173.4375 C 138.261719 174 141.496094 175.074219 148.394531 178.695312 C 153.671875 181.445312 158.789062 184.464844 163.746094 187.746094 Z M 163.746094 187.746094 " fill-opacity="1" fill-rule="nonzero"/><path fill="#1c5d72" d="M 144.300781 191.753906 C 144.480469 190.703125 144.464844 189.65625 144.253906 188.609375 C 144.089844 187.546875 143.730469 186.554688 143.175781 185.632812 C 146.929688 186.96875 150.769531 187.972656 154.691406 188.652344 C 157.546875 189.125 160.421875 189.414062 163.316406 189.511719 Z M 144.300781 191.753906 " fill-opacity="1" fill-rule="nonzero"/><g clip-path="url(#34dca164d9)"><path fill="#1d1d1b" d="M 114.328125 162.492188 C 122.304688 132.753906 151.242188 110.644531 185.65625 110.644531 C 224.550781 110.644531 256.507812 138.914062 259.007812 174.558594 C 257.757812 173.738281 256.421875 172.964844 254.996094 172.1875 C 251.289062 139.648438 221.621094 114.175781 185.65625 114.175781 C 153.269531 114.175781 125.929688 134.863281 118.164062 162.835938 L 114.070312 163.523438 C 114.082031 163.378906 114.109375 163.234375 114.15625 163.09375 Z M 114.328125 162.492188 " fill-opacity="1" fill-rule="nonzero"/></g><path fill="#1c5d72" d="M 188.933594 119.046875 L 192.082031 125.253906 L 199.152344 126.246094 L 194.019531 131.070312 L 195.226562 137.882812 L 188.933594 134.648438 L 182.59375 137.882812 L 183.800781 131.070312 L 178.667969 126.246094 L 185.742188 125.253906 Z M 188.933594 119.046875 " fill-opacity="1" fill-rule="nonzero"/><path fill="#1c5d72" d="M 159.523438 127.28125 L 162.109375 132.320312 L 167.84375 133.140625 L 163.703125 137.0625 L 164.652344 142.621094 L 159.523438 139.992188 L 154.390625 142.621094 L 155.382812 137.0625 L 151.199219 133.140625 L 156.933594 132.320312 Z M 159.523438 127.28125 " fill-opacity="1" fill-rule="nonzero"/><path fill="#1c5d72" d="M 140.203125 142.621094 L 142.316406 146.671875 L 146.929688 147.363281 L 143.566406 150.507812 L 144.386719 154.992188 L 140.203125 152.878906 L 136.0625 154.992188 L 136.839844 150.507812 L 133.476562 147.363281 L 138.132812 146.671875 Z M 140.203125 142.621094 " fill-opacity="1" fill-rule="nonzero"/><path fill="#1c5d72" d="M 231.105469 142.621094 L 233.21875 146.671875 L 237.878906 147.363281 L 234.472656 150.507812 L 235.289062 154.992188 L 231.105469 152.878906 L 226.96875 154.992188 L 227.742188 150.507812 L 224.378906 147.363281 L 229.039062 146.671875 Z M 231.105469 142.621094 " fill-opacity="1" fill-rule="nonzero"/><path fill="#1c5d72" d="M 213.382812 127.28125 L 215.925781 132.320312 L 221.707031 133.140625 L 217.523438 137.0625 L 218.515625 142.621094 L 213.382812 139.992188 L 208.207031 142.621094 L 209.199219 137.0625 L 205.015625 133.140625 L 210.796875 132.320312 Z M 213.382812 127.28125 " fill-opacity="1" fill-rule="nonzero"/><g clip-path="url(#d6db8773a9)"><path fill="#1d1d1b" d="M 242.792969 229.464844 L 247.453125 229.464844 C 234.210938 247.78125 211.832031 259.894531 186.558594 259.894531 C 161.289062 259.894531 138.867188 247.78125 125.667969 229.464844 L 130.285156 229.464844 C 143.003906 245.714844 163.488281 256.316406 186.558594 256.316406 C 209.632812 256.316406 230.074219 245.714844 242.792969 229.464844 Z M 242.792969 229.464844 " fill-opacity="1" fill-rule="nonzero"/></g><g fill="#1c5d72" fill-opacity="1"><g transform="translate(104.163806, 218.677164)"><g><path d="M 5.355469 -2.15625 L 1.453125 -0.296875 C 1.34375 -0.246094 1.269531 -0.15625 1.230469 -0.046875 L 0.789062 1.324219 C 0.757812 1.457031 0.746094 1.566406 0.8125 1.707031 L 2.277344 4.785156 C 2.34375 4.925781 2.445312 4.996094 2.5625 5.046875 L 3.902344 5.566406 C 4.015625 5.617188 4.128906 5.601562 4.238281 5.550781 L 8.140625 3.691406 C 8.226562 3.652344 8.265625 3.539062 8.226562 3.453125 L 7.882812 2.734375 C 7.84375 2.648438 7.730469 2.609375 7.648438 2.652344 L 4.09375 4.34375 C 4.019531 4.378906 3.960938 4.394531 3.875 4.355469 L 3.308594 4.125 C 3.269531 4.101562 3.246094 4.074219 3.222656 4.03125 L 1.992188 1.445312 C 1.964844 1.394531 1.960938 1.355469 1.972656 1.324219 L 2.15625 0.738281 C 2.183594 0.660156 2.226562 0.613281 2.300781 0.574219 L 5.851562 -1.117188 C 5.9375 -1.15625 5.976562 -1.265625 5.9375 -1.351562 L 5.59375 -2.070312 C 5.554688 -2.15625 5.441406 -2.195312 5.355469 -2.15625 Z M 5.355469 -2.15625 "/></g></g></g><g fill="#1c5d72" fill-opacity="1"><g transform="translate(108.624918, 227.673343)"><g><path d="M 0.339844 0.207031 C 0.257812 0.257812 0.230469 0.375 0.28125 0.453125 L 0.703125 1.128906 C 0.753906 1.210938 0.867188 1.238281 0.949219 1.1875 L 4.84375 -1.234375 L 6.53125 1.480469 C 6.558594 1.519531 6.566406 1.554688 6.566406 1.597656 L 6.347656 2.644531 C 6.328125 2.726562 6.289062 2.777344 6.21875 2.820312 L 3.152344 4.730469 C 3.070312 4.78125 3.042969 4.894531 3.09375 4.976562 L 3.515625 5.652344 C 3.566406 5.730469 3.679688 5.757812 3.761719 5.707031 L 7.109375 3.625 C 7.210938 3.5625 7.277344 3.464844 7.304688 3.351562 L 7.753906 1.488281 C 7.785156 1.359375 7.769531 1.242188 7.6875 1.109375 L 5.429688 -2.523438 C 5.320312 -2.695312 5.101562 -2.753906 4.929688 -2.648438 Z M 0.339844 0.207031 "/></g></g></g><g fill="#1c5d72" fill-opacity="1"><g transform="translate(114.040266, 235.968428)"><g><path d="M 0.320312 0.429688 L 0.847656 1.144531 C 0.90625 1.222656 1.023438 1.238281 1.097656 1.183594 L 5.585938 -2.140625 C 5.664062 -2.199219 5.679688 -2.316406 5.625 -2.390625 L 5.09375 -3.109375 C 5.035156 -3.183594 4.917969 -3.203125 4.84375 -3.144531 L 0.355469 0.179688 C 0.277344 0.238281 0.261719 0.351562 0.320312 0.429688 Z M 0.320312 0.429688 "/></g></g></g><g fill="#1c5d72" fill-opacity="1"><g transform="translate(116.834869, 239.733561)"><g><path d="M 8.972656 1.21875 L 8.449219 0.621094 C 8.386719 0.546875 8.269531 0.539062 8.195312 0.601562 L 6.042969 2.492188 C 5.980469 2.546875 5.929688 2.5625 5.835938 2.5625 L 3.964844 2.59375 L 3.875 2.578125 C 3.832031 2.566406 3.800781 2.546875 3.769531 2.511719 L 2.859375 1.476562 C 2.820312 1.429688 2.804688 1.394531 2.808594 1.363281 L 2.804688 1.269531 L 3.078125 -0.582031 C 3.09375 -0.671875 3.113281 -0.722656 3.175781 -0.777344 L 5.328125 -2.667969 C 5.398438 -2.730469 5.40625 -2.847656 5.34375 -2.917969 L 4.820312 -3.515625 C 4.757812 -3.589844 4.640625 -3.597656 4.566406 -3.53125 L 2.136719 -1.402344 C 2.046875 -1.324219 2.007812 -1.222656 1.992188 -1.097656 L 1.628906 1.640625 C 1.617188 1.773438 1.652344 1.886719 1.753906 2 L 3.105469 3.539062 C 3.207031 3.652344 3.320312 3.710938 3.445312 3.710938 L 6.207031 3.707031 C 6.335938 3.707031 6.4375 3.679688 6.527344 3.601562 L 8.957031 1.46875 C 9.027344 1.40625 9.035156 1.289062 8.972656 1.21875 Z M 8.972656 1.21875 "/></g></g></g><g fill="#1c5d72" fill-opacity="1"><g transform="translate(123.700256, 247.306095)"><g><path d="M 4.152344 -2.054688 L 4.671875 -2.0625 C 4.773438 -2.066406 4.824219 -2.050781 4.867188 -2.011719 L 8.042969 0.875 C 8.113281 0.941406 8.230469 0.933594 8.292969 0.863281 L 8.84375 0.257812 C 8.910156 0.1875 8.902344 0.0703125 8.832031 0.00390625 L 5.371094 -3.148438 C 5.265625 -3.242188 5.171875 -3.28125 5.019531 -3.273438 L 3.59375 -3.207031 C 3.492188 -3.203125 3.359375 -3.160156 3.28125 -3.074219 L 1.253906 -0.851562 C 1.152344 -0.734375 1.113281 -0.625 1.121094 -0.488281 L 1.203125 0.917969 C 1.210938 1.035156 1.257812 1.144531 1.34375 1.222656 L 4.832031 4.398438 C 4.902344 4.464844 5.023438 4.457031 5.085938 4.386719 L 5.621094 3.800781 C 5.6875 3.730469 5.679688 3.613281 5.609375 3.546875 L 2.445312 0.667969 C 2.382812 0.613281 2.355469 0.554688 2.351562 0.46875 L 2.347656 -0.144531 C 2.355469 -0.1875 2.371094 -0.222656 2.402344 -0.257812 L 2.820312 -0.714844 L 6.035156 2.214844 C 6.105469 2.277344 6.222656 2.273438 6.285156 2.203125 L 6.839844 1.597656 C 6.902344 1.527344 6.898438 1.410156 6.828125 1.34375 L 3.609375 -1.582031 L 3.953125 -1.960938 C 4.011719 -2.023438 4.066406 -2.050781 4.152344 -2.054688 Z M 4.152344 -2.054688 "/></g></g></g><g fill="#1c5d72" fill-opacity="1"><g transform="translate(131.14122, 253.873087)"><g><path d="M 8.359375 0.164062 L 8.105469 -1.308594 C 8.085938 -1.425781 8.027344 -1.527344 7.929688 -1.597656 L 3.914062 -4.5 C 3.839844 -4.558594 3.722656 -4.539062 3.667969 -4.460938 L 0.394531 0.0664062 C 0.335938 0.140625 0.355469 0.257812 0.433594 0.3125 L 1.097656 0.792969 C 1.175781 0.851562 1.289062 0.832031 1.347656 0.753906 L 2.007812 -0.160156 L 4.617188 1.726562 L 4.511719 3.132812 C 4.507812 3.214844 4.535156 3.28125 4.59375 3.320312 L 5.316406 3.84375 C 5.429688 3.929688 5.566406 3.863281 5.578125 3.726562 L 5.683594 2.203125 L 7.042969 1.984375 C 7.140625 1.96875 7.269531 1.914062 7.339844 1.816406 L 8.265625 0.535156 C 8.355469 0.410156 8.378906 0.296875 8.359375 0.164062 Z M 4.050781 -2.980469 L 6.949219 -0.886719 C 7.015625 -0.835938 7.050781 -0.78125 7.0625 -0.699219 L 7.128906 -0.183594 L 7.136719 -0.0898438 C 7.132812 -0.046875 7.121094 -0.0117188 7.09375 0.0273438 L 6.507812 0.835938 C 6.460938 0.902344 6.40625 0.9375 6.324219 0.949219 L 5.804688 1.015625 C 5.707031 1.03125 5.652344 1.023438 5.605469 0.988281 L 2.699219 -1.113281 Z M 4.050781 -2.980469 "/></g></g></g><g fill="#1c5d72" fill-opacity="1"><g transform="translate(139.521161, 259.732043)"><g><path d="M 2.132812 -3.054688 C 2.054688 -2.921875 2.042969 -2.804688 2.082031 -2.675781 L 2.410156 -1.5625 C 2.445312 -1.460938 2.507812 -1.355469 2.613281 -1.296875 L 5.6875 0.4375 C 5.761719 0.476562 5.800781 0.527344 5.824219 0.609375 L 5.875 0.882812 C 5.875 0.925781 5.871094 0.960938 5.847656 1.003906 L 5.707031 1.25 C 5.664062 1.324219 5.617188 1.363281 5.535156 1.386719 L 5.191406 1.464844 C 5.097656 1.480469 5.039062 1.488281 4.988281 1.460938 L 1.21875 -0.664062 C 1.136719 -0.710938 1.023438 -0.679688 0.976562 -0.59375 L 0.574219 0.117188 C 0.527344 0.203125 0.558594 0.316406 0.640625 0.363281 L 4.699219 2.648438 C 4.824219 2.71875 4.925781 2.734375 5.070312 2.695312 L 6.367188 2.332031 C 6.464844 2.304688 6.582031 2.238281 6.640625 2.132812 L 7.125 1.273438 C 7.203125 1.140625 7.21875 1.011719 7.175781 0.894531 L 6.894531 -0.0585938 C 6.855469 -0.160156 6.792969 -0.265625 6.6875 -0.324219 L 3.511719 -2.113281 C 3.4375 -2.15625 3.398438 -2.203125 3.375 -2.285156 L 3.324219 -2.558594 C 3.320312 -2.601562 3.328125 -2.640625 3.351562 -2.679688 L 3.476562 -2.898438 C 3.515625 -2.96875 3.566406 -3.011719 3.648438 -3.035156 L 3.992188 -3.113281 C 4.082031 -3.128906 4.140625 -3.136719 4.191406 -3.105469 L 7.859375 -1.042969 C 7.941406 -0.996094 8.054688 -1.027344 8.101562 -1.109375 L 8.503906 -1.824219 C 8.550781 -1.90625 8.519531 -2.019531 8.4375 -2.066406 L 4.480469 -4.296875 C 4.355469 -4.367188 4.257812 -4.382812 4.109375 -4.339844 L 2.816406 -3.980469 C 2.71875 -3.953125 2.597656 -3.882812 2.539062 -3.78125 Z M 2.132812 -3.054688 "/></g></g></g><g fill="#1c5d72" fill-opacity="1"><g transform="translate(148.278503, 264.423939)"><g/></g></g><g fill="#1c5d72" fill-opacity="1"><g transform="translate(153.61291, 266.807065)"><g><path d="M 7.890625 -2.28125 L 7.226562 -3.625 C 7.175781 -3.730469 7.089844 -3.808594 6.980469 -3.847656 L 2.472656 -5.429688 C 2.382812 -5.460938 2.277344 -5.410156 2.242188 -5.320312 L 0.394531 -0.0507812 C 0.363281 0.0390625 0.414062 0.144531 0.503906 0.175781 L 4.980469 1.746094 C 5.113281 1.792969 5.214844 1.792969 5.351562 1.726562 L 6.714844 1.070312 C 6.804688 1.027344 6.914062 0.9375 6.953125 0.824219 L 7.90625 -1.898438 C 7.957031 -2.046875 7.949219 -2.160156 7.890625 -2.28125 Z M 5.875 0.121094 C 5.847656 0.199219 5.808594 0.25 5.730469 0.285156 L 5.253906 0.496094 C 5.164062 0.539062 5.109375 0.546875 5.054688 0.527344 L 1.824219 -0.605469 L 3.019531 -4.015625 L 6.238281 -2.886719 C 6.316406 -2.859375 6.367188 -2.816406 6.402344 -2.742188 L 6.613281 -2.265625 L 6.644531 -2.179688 C 6.65625 -2.136719 6.65625 -2.097656 6.640625 -2.054688 Z M 5.875 0.121094 "/></g></g></g><g fill="#1c5d72" fill-opacity="1"><g transform="translate(163.138107, 269.975116)"><g><path d="M 2.613281 -3.824219 L 3.0625 -4.089844 C 3.148438 -4.140625 3.199219 -4.152344 3.257812 -4.140625 L 7.4375 -3.179688 C 7.53125 -3.15625 7.628906 -3.21875 7.652344 -3.3125 L 7.835938 -4.113281 C 7.855469 -4.203125 7.792969 -4.304688 7.703125 -4.324219 L 3.140625 -5.375 C 3 -5.40625 2.898438 -5.394531 2.769531 -5.3125 L 1.558594 -4.554688 C 1.472656 -4.503906 1.378906 -4.402344 1.351562 -4.285156 L 0.679688 -1.355469 C 0.644531 -1.207031 0.664062 -1.089844 0.738281 -0.976562 L 1.5 0.210938 C 1.5625 0.3125 1.65625 0.382812 1.773438 0.40625 L 6.371094 1.464844 C 6.460938 1.488281 6.5625 1.425781 6.582031 1.332031 L 6.761719 0.554688 C 6.785156 0.460938 6.722656 0.363281 6.628906 0.339844 L 2.460938 -0.617188 C 2.378906 -0.636719 2.324219 -0.671875 2.28125 -0.742188 L 1.976562 -1.277344 C 1.960938 -1.316406 1.957031 -1.355469 1.96875 -1.402344 L 2.105469 -2.003906 L 6.347656 -1.027344 C 6.4375 -1.007812 6.539062 -1.070312 6.558594 -1.160156 L 6.742188 -1.960938 C 6.765625 -2.054688 6.703125 -2.152344 6.609375 -2.175781 L 2.371094 -3.148438 L 2.484375 -3.648438 C 2.503906 -3.730469 2.539062 -3.78125 2.613281 -3.824219 Z M 2.613281 -3.824219 "/></g></g></g><g fill="#1c5d72" fill-opacity="1"><g transform="translate(172.746159, 271.973571)"><g/></g></g><g fill="#1c5d72" fill-opacity="1"><g transform="translate(178.528006, 272.743977)"><g><path d="M 0.660156 -5.738281 L 0.4375 -1.5 C 0.429688 -1.382812 0.496094 -1.257812 0.5625 -1.183594 L 1.574219 -0.0585938 C 1.675781 0.0546875 1.769531 0.09375 1.910156 0.101562 L 6.289062 0.332031 C 6.386719 0.339844 6.472656 0.261719 6.476562 0.164062 L 6.519531 -0.652344 C 6.527344 -0.75 6.445312 -0.835938 6.351562 -0.839844 L 2.363281 -1.054688 C 2.304688 -1.054688 2.257812 -1.082031 2.191406 -1.15625 L 1.773438 -1.597656 C 1.71875 -1.660156 1.699219 -1.71875 1.703125 -1.800781 L 1.90625 -5.671875 C 1.914062 -5.765625 1.832031 -5.851562 1.738281 -5.859375 L 0.847656 -5.90625 C 0.753906 -5.910156 0.667969 -5.832031 0.660156 -5.738281 Z M 0.660156 -5.738281 "/></g></g></g><g fill="#1c5d72" fill-opacity="1"><g transform="translate(188.065156, 273.045435)"><g><path d="M 0.394531 -5.359375 L 1.285156 -5.382812 C 1.378906 -5.386719 1.460938 -5.472656 1.457031 -5.566406 L 1.421875 -6.992188 C 1.417969 -7.085938 1.332031 -7.167969 1.238281 -7.164062 L 0.347656 -7.140625 C 0.253906 -7.140625 0.171875 -7.054688 0.171875 -6.960938 L 0.210938 -5.535156 C 0.214844 -5.4375 0.300781 -5.359375 0.394531 -5.359375 Z M 0.394531 -5.359375 "/></g></g></g><g fill="#1c5d72" fill-opacity="1"><g transform="translate(192.749146, 272.917711)"><g><path d="M 6.15625 -5.421875 L 5 -6.375 C 4.898438 -6.457031 4.785156 -6.492188 4.632812 -6.476562 L 1.242188 -6.109375 C 1.085938 -6.09375 0.984375 -6.035156 0.902344 -5.929688 L -0.0234375 -4.753906 C -0.0976562 -4.664062 -0.132812 -4.550781 -0.121094 -4.433594 L 0.335938 -0.214844 C 0.34375 -0.121094 0.4375 -0.046875 0.53125 -0.0585938 L 1.324219 -0.144531 C 1.417969 -0.152344 1.492188 -0.246094 1.480469 -0.339844 L 1.292969 -2.101562 L 5.4375 -2.546875 L 5.628906 -0.789062 C 5.640625 -0.691406 5.730469 -0.621094 5.824219 -0.628906 L 6.617188 -0.714844 C 6.710938 -0.726562 6.785156 -0.816406 6.773438 -0.910156 L 6.320312 -5.128906 C 6.304688 -5.246094 6.246094 -5.347656 6.15625 -5.421875 Z M 1.179688 -3.128906 L 1.058594 -4.25 C 1.050781 -4.332031 1.066406 -4.394531 1.121094 -4.460938 L 1.460938 -4.855469 L 1.523438 -4.921875 C 1.546875 -4.949219 1.578125 -4.964844 1.636719 -4.96875 L 4.484375 -5.277344 C 4.535156 -5.285156 4.570312 -5.273438 4.609375 -5.253906 L 4.683594 -5.203125 L 5.101562 -4.890625 C 5.167969 -4.835938 5.199219 -4.78125 5.207031 -4.699219 L 5.328125 -3.574219 Z M 1.179688 -3.128906 "/></g></g></g><g fill="#1c5d72" fill-opacity="1"><g transform="translate(202.714174, 271.680329)"><g><path d="M -0.90625 -5.703125 L 0.0351562 -1.480469 C 0.0625 -1.363281 0.128906 -1.269531 0.230469 -1.207031 L 1.464844 -0.472656 C 1.585938 -0.414062 1.695312 -0.378906 1.84375 -0.410156 L 5.171875 -1.15625 C 5.324219 -1.1875 5.414062 -1.269531 5.488281 -1.371094 L 6.296875 -2.5625 C 6.371094 -2.664062 6.382812 -2.777344 6.355469 -2.890625 L 5.414062 -7.113281 C 5.394531 -7.207031 5.292969 -7.269531 5.203125 -7.25 L 4.425781 -7.074219 C 4.332031 -7.054688 4.269531 -6.957031 4.289062 -6.863281 L 5.144531 -3.023438 C 5.164062 -2.941406 5.164062 -2.882812 5.109375 -2.808594 L 4.757812 -2.304688 C 4.730469 -2.273438 4.695312 -2.253906 4.648438 -2.242188 L 1.855469 -1.621094 C 1.796875 -1.605469 1.757812 -1.609375 1.730469 -1.628906 L 1.199219 -1.9375 C 1.128906 -1.980469 1.09375 -2.035156 1.074219 -2.113281 L 0.21875 -5.953125 C 0.195312 -6.046875 0.0976562 -6.109375 0.00390625 -6.089844 L -0.773438 -5.917969 C -0.863281 -5.894531 -0.929688 -5.796875 -0.90625 -5.703125 Z M -0.90625 -5.703125 "/></g></g></g><g fill="#1c5d72" fill-opacity="1"><g transform="translate(212.517399, 269.355436)"><g><path d="M 5.480469 -8.230469 L -1.46875 -5.78125 C -1.558594 -5.75 -1.609375 -5.644531 -1.578125 -5.554688 L -1.28125 -4.714844 C -1.25 -4.625 -1.144531 -4.574219 -1.054688 -4.605469 L 1.835938 -5.625 L 3.335938 -1.363281 C 3.367188 -1.273438 3.476562 -1.222656 3.566406 -1.257812 L 4.40625 -1.550781 C 4.496094 -1.582031 4.546875 -1.691406 4.515625 -1.78125 L 3.011719 -6.039062 L 5.894531 -7.054688 C 5.984375 -7.085938 6.035156 -7.191406 6.003906 -7.28125 L 5.707031 -8.121094 C 5.675781 -8.210938 5.570312 -8.261719 5.480469 -8.230469 Z M 5.480469 -8.230469 "/></g></g></g><g fill="#1c5d72" fill-opacity="1"><g transform="translate(223.121747, 265.395959)"><g><path d="M -0.351562 -1.523438 C -0.300781 -1.414062 -0.210938 -1.339844 -0.0976562 -1.304688 L 1.3125 -0.804688 C 1.4375 -0.761719 1.554688 -0.765625 1.695312 -0.835938 L 4.753906 -2.34375 C 4.894531 -2.410156 4.96875 -2.5 5.011719 -2.628906 L 5.476562 -4.050781 C 5.515625 -4.164062 5.507812 -4.28125 5.457031 -4.386719 L 4.175781 -6.988281 C 4.121094 -7.09375 4.03125 -7.167969 3.921875 -7.207031 L 2.507812 -7.703125 C 2.382812 -7.746094 2.265625 -7.742188 2.125 -7.671875 L -0.933594 -6.164062 C -1.070312 -6.097656 -1.144531 -6.007812 -1.1875 -5.878906 L -1.65625 -4.457031 C -1.691406 -4.347656 -1.6875 -4.230469 -1.636719 -4.125 Z M 0.542969 -2.308594 L -0.464844 -4.355469 C -0.5 -4.429688 -0.507812 -4.492188 -0.480469 -4.574219 L -0.296875 -5.0625 L -0.257812 -5.144531 C -0.246094 -5.179688 -0.21875 -5.203125 -0.167969 -5.230469 L 2.402344 -6.496094 C 2.445312 -6.519531 2.480469 -6.523438 2.523438 -6.519531 L 2.613281 -6.496094 L 3.113281 -6.34375 C 3.191406 -6.316406 3.242188 -6.273438 3.277344 -6.199219 L 4.285156 -4.152344 C 4.324219 -4.078125 4.328125 -4.015625 4.300781 -3.933594 L 4.117188 -3.449219 L 4.078125 -3.363281 C 4.058594 -3.324219 4.03125 -3.300781 3.988281 -3.277344 L 1.417969 -2.011719 C 1.367188 -1.984375 1.328125 -1.980469 1.296875 -1.992188 L 1.207031 -2.011719 L 0.707031 -2.164062 C 0.628906 -2.191406 0.582031 -2.234375 0.542969 -2.308594 Z M 0.542969 -2.308594 "/></g></g></g><g fill="#1c5d72" fill-opacity="1"><g transform="translate(232.25632, 260.87155)"><g><path d="M 7.394531 -10.667969 L 5.761719 -10.992188 C 5.628906 -11.015625 5.511719 -10.992188 5.386719 -10.90625 L 2.847656 -9.164062 C 2.71875 -9.078125 2.648438 -8.96875 2.636719 -8.84375 L 2.464844 -7.832031 L 1.449219 -8.03125 C 1.328125 -8.0625 1.203125 -8.035156 1.074219 -7.945312 L -1.707031 -6.035156 C -1.835938 -5.949219 -1.894531 -5.847656 -1.921875 -5.714844 L -2.207031 -4.078125 C -2.21875 -3.96875 -2.207031 -3.847656 -2.140625 -3.75 L 0.191406 -0.347656 C 0.246094 -0.269531 0.363281 -0.25 0.441406 -0.300781 L 1.097656 -0.753906 C 1.175781 -0.808594 1.195312 -0.921875 1.144531 -1 L -0.980469 -4.097656 C -1.03125 -4.164062 -1.042969 -4.226562 -1.027344 -4.3125 L -0.863281 -5.144531 C -0.847656 -5.183594 -0.828125 -5.214844 -0.785156 -5.242188 L 1.515625 -6.820312 C 1.554688 -6.847656 1.589844 -6.859375 1.632812 -6.859375 L 2.40625 -6.742188 C 2.480469 -6.734375 2.542969 -6.691406 2.589844 -6.621094 L 4.75 -3.476562 C 4.800781 -3.398438 4.917969 -3.378906 4.996094 -3.429688 L 5.652344 -3.882812 C 5.730469 -3.933594 5.753906 -4.050781 5.699219 -4.128906 L 3.539062 -7.273438 C 3.492188 -7.34375 3.472656 -7.414062 3.492188 -7.488281 L 3.660156 -8.25 C 3.675781 -8.292969 3.699219 -8.320312 3.738281 -8.347656 L 5.804688 -9.769531 C 5.847656 -9.792969 5.882812 -9.804688 5.925781 -9.804688 L 6.746094 -9.660156 C 6.820312 -9.65625 6.878906 -9.609375 6.925781 -9.542969 L 9.058594 -6.4375 C 9.113281 -6.359375 9.230469 -6.335938 9.308594 -6.390625 L 9.964844 -6.839844 C 10.042969 -6.894531 10.0625 -7.011719 10.011719 -7.089844 L 7.675781 -10.488281 C 7.609375 -10.585938 7.5 -10.640625 7.394531 -10.667969 Z M 7.394531 -10.667969 "/></g></g></g><g fill="#1c5d72" fill-opacity="1"><g transform="translate(244.880366, 251.70458)"><g><path d="M -0.769531 -1.359375 C -0.6875 -1.273438 -0.582031 -1.226562 -0.464844 -1.222656 L 1.03125 -1.144531 C 1.164062 -1.140625 1.273438 -1.175781 1.386719 -1.28125 L 3.894531 -3.59375 C 4.007812 -3.699219 4.054688 -3.808594 4.058594 -3.941406 L 4.101562 -5.4375 C 4.109375 -5.554688 4.070312 -5.664062 3.988281 -5.753906 L 2.023438 -7.882812 C 1.941406 -7.972656 1.835938 -8.015625 1.71875 -8.023438 L 0.222656 -8.097656 C 0.0898438 -8.105469 -0.0234375 -8.066406 -0.136719 -7.960938 L -2.640625 -5.648438 C -2.753906 -5.542969 -2.800781 -5.4375 -2.808594 -5.300781 L -2.851562 -3.804688 C -2.855469 -3.6875 -2.816406 -3.578125 -2.738281 -3.492188 Z M -0.132812 -2.367188 L -1.679688 -4.046875 C -1.738281 -4.105469 -1.757812 -4.167969 -1.753906 -4.25 L -1.71875 -4.769531 L -1.707031 -4.863281 C -1.703125 -4.894531 -1.6875 -4.929688 -1.644531 -4.96875 L 0.460938 -6.910156 C 0.496094 -6.945312 0.53125 -6.960938 0.574219 -6.964844 L 0.664062 -6.972656 L 1.1875 -6.964844 C 1.269531 -6.964844 1.328125 -6.9375 1.386719 -6.875 L 2.933594 -5.199219 C 2.988281 -5.136719 3.011719 -5.078125 3.007812 -4.992188 L 2.972656 -4.472656 L 2.960938 -4.382812 C 2.949219 -4.339844 2.929688 -4.304688 2.894531 -4.273438 L 0.792969 -2.332031 C 0.746094 -2.292969 0.714844 -2.277344 0.679688 -2.277344 L 0.585938 -2.273438 L 0.0664062 -2.277344 C -0.0195312 -2.28125 -0.0742188 -2.308594 -0.132812 -2.367188 Z M -0.132812 -2.367188 "/></g></g></g><g fill="#1c5d72" fill-opacity="1"><g transform="translate(252.149898, 244.777245)"><g><path d="M 2.421875 -6.753906 L 1.609375 -6.6875 L 1.589844 -6.921875 C 1.582031 -7.054688 1.53125 -7.164062 1.414062 -7.261719 L 0.6875 -7.894531 C 0.570312 -7.996094 0.457031 -8.027344 0.324219 -8.019531 L -0.832031 -7.917969 C -0.941406 -7.902344 -1.054688 -7.859375 -1.132812 -7.769531 L -4.144531 -4.292969 C -4.203125 -4.222656 -4.195312 -4.105469 -4.125 -4.042969 L 0.0976562 -0.386719 C 0.171875 -0.324219 0.289062 -0.332031 0.351562 -0.40625 L 3.632812 -4.195312 C 3.710938 -4.285156 3.734375 -4.40625 3.734375 -4.515625 L 3.667969 -5.671875 C 3.660156 -5.808594 3.609375 -5.914062 3.492188 -6.015625 L 2.78125 -6.628906 C 2.667969 -6.730469 2.554688 -6.765625 2.421875 -6.753906 Z M -0.464844 -6.78125 C -0.410156 -6.84375 -0.34375 -6.882812 -0.269531 -6.882812 L 0.0117188 -6.875 C 0.0546875 -6.871094 0.0859375 -6.855469 0.125 -6.824219 L 0.4375 -6.554688 C 0.472656 -6.523438 0.492188 -6.488281 0.503906 -6.449219 L 0.550781 -6.171875 C 0.5625 -6.097656 0.535156 -6.027344 0.480469 -5.964844 L -1.683594 -3.46875 L -2.625 -4.285156 Z M 2.515625 -5.304688 C 2.550781 -5.273438 2.570312 -5.242188 2.582031 -5.199219 L 2.628906 -4.925781 C 2.640625 -4.847656 2.613281 -4.78125 2.558594 -4.71875 L 0.125 -1.90625 L -0.800781 -2.707031 L 1.632812 -5.519531 C 1.6875 -5.582031 1.753906 -5.621094 1.828125 -5.617188 L 2.105469 -5.613281 C 2.148438 -5.605469 2.183594 -5.589844 2.21875 -5.5625 Z M 2.515625 -5.304688 "/></g></g></g><g fill="#1c5d72" fill-opacity="1"><g transform="translate(258.468716, 237.14769)"><g><path d="M 0.316406 -0.429688 L 0.84375 -1.152344 C 0.898438 -1.226562 0.882812 -1.34375 0.804688 -1.398438 L -3.703125 -4.699219 C -3.777344 -4.757812 -3.894531 -4.738281 -3.953125 -4.660156 L -4.476562 -3.941406 C -4.535156 -3.867188 -4.515625 -3.75 -4.441406 -3.695312 L 0.0664062 -0.394531 C 0.144531 -0.335938 0.261719 -0.355469 0.316406 -0.429688 Z M 0.316406 -0.429688 "/></g></g></g><g fill="#1c5d72" fill-opacity="1"><g transform="translate(261.222725, 233.367965)"><g><path d="M -4.71875 -3.332031 L -1.105469 -1.101562 C -1.007812 -1.039062 -0.867188 -1.039062 -0.769531 -1.0625 L 0.703125 -1.410156 C 0.851562 -1.445312 0.929688 -1.507812 1.003906 -1.628906 L 3.308594 -5.359375 C 3.359375 -5.441406 3.332031 -5.554688 3.25 -5.605469 L 2.550781 -6.035156 C 2.472656 -6.085938 2.355469 -6.058594 2.304688 -5.976562 L 0.210938 -2.578125 C 0.179688 -2.53125 0.132812 -2.5 0.0351562 -2.476562 L -0.550781 -2.324219 C -0.632812 -2.304688 -0.695312 -2.3125 -0.765625 -2.359375 L -4.0625 -4.390625 C -4.144531 -4.441406 -4.257812 -4.414062 -4.308594 -4.335938 L -4.777344 -3.574219 C -4.824219 -3.496094 -4.800781 -3.378906 -4.71875 -3.332031 Z M -4.71875 -3.332031 "/></g></g></g><g fill="#1c5d72" fill-opacity="1"><g transform="translate(266.177442, 225.061733)"><g><path d="M -3.171875 -3.375 L -3.332031 -3.871094 C -3.363281 -3.96875 -3.367188 -4.019531 -3.339844 -4.074219 L -1.496094 -7.949219 C -1.457031 -8.035156 -1.496094 -8.144531 -1.582031 -8.1875 L -2.324219 -8.539062 C -2.410156 -8.578125 -2.519531 -8.539062 -2.558594 -8.453125 L -4.570312 -4.226562 C -4.632812 -4.097656 -4.640625 -3.996094 -4.589844 -3.851562 L -4.109375 -2.507812 C -4.078125 -2.410156 -4 -2.296875 -3.894531 -2.246094 L -1.179688 -0.953125 C -1.039062 -0.886719 -0.921875 -0.886719 -0.792969 -0.929688 L 0.53125 -1.417969 C 0.640625 -1.457031 0.730469 -1.535156 0.78125 -1.640625 L 2.804688 -5.902344 C 2.847656 -5.988281 2.808594 -6.101562 2.722656 -6.140625 L 2.003906 -6.484375 C 1.917969 -6.523438 1.804688 -6.484375 1.765625 -6.398438 L -0.0703125 -2.535156 C -0.105469 -2.460938 -0.15625 -2.414062 -0.234375 -2.386719 L -0.820312 -2.207031 C -0.863281 -2.199219 -0.898438 -2.203125 -0.941406 -2.222656 L -1.5 -2.488281 L 0.367188 -6.417969 C 0.40625 -6.503906 0.367188 -6.613281 0.28125 -6.65625 L -0.457031 -7.007812 C -0.542969 -7.046875 -0.65625 -7.007812 -0.695312 -6.921875 L -2.5625 -2.996094 L -3.023438 -3.214844 C -3.101562 -3.25 -3.144531 -3.296875 -3.171875 -3.375 Z M -3.171875 -3.375 "/></g></g></g></svg>