<svg xmlns="http://www.w3.org/2000/svg" xmlns:xlink="http://www.w3.org/1999/xlink" width="500" zoomAndPan="magnify" viewBox="0 0 375 374.999991" height="500" preserveAspectRatio="xMidYMid meet" version="1.0"><defs><g/><clipPath id="f75d399a1d"><path d="M 110.453125 93.824219 L 285 93.824219 L 285 279.824219 L 110.453125 279.824219 Z M 110.453125 93.824219 " clip-rule="nonzero"/></clipPath><clipPath id="131df04012"><path d="M 276 227 L 286.703125 227 L 286.703125 238 L 276 238 Z M 276 227 " clip-rule="nonzero"/></clipPath><clipPath id="0e860d376b"><path d="M 161.441406 186.953125 L 286 186.953125 L 286 205 L 161.441406 205 Z M 161.441406 186.953125 " clip-rule="nonzero"/></clipPath><clipPath id="88e8c26fb4"><path d="M 245 202 L 286.585938 202 L 286.585938 212.453125 L 245 212.453125 Z M 245 202 " clip-rule="nonzero"/></clipPath></defs><rect x="-37.5" width="450" fill="#ffffff" y="-37.499999" height="449.999989" fill-opacity="1"/><rect x="-37.5" width="450" fill="#efefef" y="-37.499999" height="449.999989" fill-opacity="1"/><g clip-path="url(#f75d399a1d)"><path fill="#000000" d="M 276.171875 135.199219 L 271.1875 128.84375 L 271.304688 128.980469 L 265.777344 123.089844 L 265.90625 123.214844 L 259.875 117.835938 L 260.015625 117.949219 L 253.53125 113.125 L 253.679688 113.226562 L 246.792969 108.992188 L 246.949219 109.082031 L 239.714844 105.476562 L 239.878906 105.550781 L 232.351562 102.597656 L 232.523438 102.65625 L 224.765625 100.382812 L 224.9375 100.425781 L 217.007812 98.847656 L 217.1875 98.875 L 209.148438 98.007812 L 209.328125 98.019531 L 201.242188 97.863281 L 201.421875 97.859375 L 193.355469 98.421875 L 193.535156 98.402344 L 185.550781 99.675781 L 185.726562 99.640625 L 177.886719 101.613281 L 178.058594 101.5625 L 170.425781 104.222656 L 170.59375 104.15625 L 163.226562 107.484375 L 163.386719 107.402344 L 156.34375 111.367188 L 156.496094 111.273438 L 149.832031 115.847656 L 149.972656 115.738281 L 143.742188 120.882812 L 143.875 120.761719 L 138.125 126.4375 L 138.25 126.308594 L 133.023438 132.46875 L 133.132812 132.328125 L 128.476562 138.929688 L 128.574219 138.777344 L 124.523438 145.765625 L 124.605469 145.605469 L 121.191406 152.921875 L 121.257812 152.757812 L 118.507812 160.347656 L 118.558594 160.179688 L 116.492188 167.984375 L 116.53125 167.808594 L 115.164062 175.765625 L 115.1875 175.585938 L 114.53125 183.632812 L 114.535156 183.457031 L 114.597656 191.527344 L 114.589844 191.351562 L 115.363281 199.347656 L 115.335938 199.171875 L 116.8125 207.070312 L 116.773438 206.894531 L 118.941406 214.632812 L 118.882812 214.464844 L 121.726562 221.980469 L 121.65625 221.816406 L 125.152344 229.054688 L 125.066406 228.898438 L 129.191406 235.796875 L 129.089844 235.648438 L 133.808594 242.160156 L 133.695312 242.019531 L 138.96875 248.089844 L 138.84375 247.960938 L 144.632812 253.542969 L 144.5 253.425781 L 150.757812 258.476562 L 150.613281 258.371094 L 157.292969 262.847656 L 157.140625 262.757812 L 164.191406 266.628906 L 164.03125 266.550781 L 171.394531 269.789062 L 171.226562 269.726562 L 178.847656 272.300781 L 178.675781 272.25 L 186.496094 274.148438 L 186.320312 274.113281 L 194.277344 275.3125 L 194.101562 275.292969 L 202.132812 275.785156 L 201.953125 275.785156 L 209.996094 275.566406 L 209.820312 275.582031 L 217.8125 274.65625 L 217.636719 274.683594 L 225.515625 273.0625 L 225.34375 273.105469 L 233.050781 270.792969 L 232.882812 270.851562 L 240.351562 267.871094 L 240.191406 267.945312 L 247.371094 264.316406 L 247.214844 264.402344 L 254.046875 260.15625 L 253.898438 260.257812 L 260.328125 255.425781 L 260.191406 255.539062 L 266.167969 250.160156 L 266.039062 250.285156 L 271.519531 244.402344 L 271.402344 244.539062 L 276.339844 238.195312 L 276.238281 238.339844 L 280.597656 231.585938 C 281.203125 230.648438 282.453125 230.375 283.394531 230.980469 C 284.332031 231.585938 284.601562 232.835938 283.996094 233.773438 L 279.640625 240.527344 C 279.605469 240.578125 279.574219 240.625 279.535156 240.671875 L 274.597656 247.015625 C 274.5625 247.066406 274.523438 247.109375 274.484375 247.152344 L 269.003906 253.039062 C 268.964844 253.082031 268.921875 253.125 268.875 253.164062 L 262.898438 258.542969 C 262.855469 258.582031 262.808594 258.621094 262.761719 258.65625 L 256.332031 263.488281 C 256.285156 263.523438 256.234375 263.554688 256.183594 263.585938 L 249.351562 267.832031 C 249.300781 267.867188 249.25 267.894531 249.195312 267.921875 L 242.015625 271.550781 C 241.964844 271.578125 241.910156 271.601562 241.855469 271.621094 L 234.382812 274.605469 C 234.328125 274.625 234.269531 274.644531 234.214844 274.664062 L 226.507812 276.976562 C 226.449219 276.992188 226.394531 277.007812 226.335938 277.019531 L 218.453125 278.640625 C 218.394531 278.65625 218.335938 278.664062 218.277344 278.671875 L 210.285156 279.59375 C 210.226562 279.601562 210.164062 279.605469 210.105469 279.605469 L 202.0625 279.824219 C 202.003906 279.824219 201.941406 279.824219 201.882812 279.820312 L 193.851562 279.324219 C 193.792969 279.324219 193.734375 279.316406 193.675781 279.308594 L 185.71875 278.109375 C 185.660156 278.097656 185.601562 278.085938 185.542969 278.074219 L 177.722656 276.179688 C 177.664062 276.164062 177.609375 276.148438 177.550781 276.128906 L 169.929688 273.550781 C 169.875 273.535156 169.816406 273.511719 169.761719 273.488281 L 162.398438 270.25 C 162.34375 270.226562 162.289062 270.199219 162.238281 270.171875 L 155.1875 266.296875 C 155.136719 266.269531 155.085938 266.238281 155.035156 266.203125 L 148.355469 261.722656 C 148.308594 261.691406 148.257812 261.65625 148.210938 261.617188 L 141.953125 256.566406 C 141.910156 256.53125 141.863281 256.492188 141.820312 256.449219 L 136.035156 250.867188 C 135.992188 250.824219 135.949219 250.78125 135.910156 250.738281 L 130.636719 244.667969 C 130.597656 244.621094 130.5625 244.578125 130.527344 244.527344 L 125.8125 238.015625 C 125.777344 237.96875 125.746094 237.917969 125.714844 237.867188 L 121.59375 230.96875 C 121.5625 230.917969 121.535156 230.863281 121.507812 230.808594 L 118.011719 223.574219 C 117.984375 223.519531 117.960938 223.464844 117.941406 223.410156 L 115.097656 215.890625 C 115.078125 215.835938 115.058594 215.78125 115.042969 215.722656 L 112.875 207.984375 C 112.859375 207.929688 112.84375 207.871094 112.835938 207.8125 L 111.359375 199.914062 C 111.347656 199.855469 111.339844 199.796875 111.332031 199.734375 L 110.5625 191.738281 C 110.554688 191.679688 110.550781 191.621094 110.550781 191.558594 L 110.488281 183.484375 C 110.488281 183.425781 110.492188 183.367188 110.496094 183.308594 L 111.152344 175.261719 C 111.15625 175.199219 111.164062 175.140625 111.175781 175.082031 L 112.542969 167.125 C 112.550781 167.066406 112.566406 167.007812 112.578125 166.949219 L 114.648438 159.144531 C 114.664062 159.085938 114.679688 159.03125 114.703125 158.972656 L 117.453125 151.382812 C 117.472656 151.324219 117.496094 151.269531 117.523438 151.214844 L 120.9375 143.898438 C 120.964844 143.84375 120.992188 143.792969 121.019531 143.738281 L 125.074219 136.753906 C 125.101562 136.699219 125.136719 136.652344 125.167969 136.601562 L 129.824219 130 C 129.859375 129.953125 129.898438 129.90625 129.9375 129.859375 L 135.160156 123.695312 C 135.199219 123.652344 135.238281 123.605469 135.28125 123.566406 L 141.03125 117.890625 C 141.074219 117.847656 141.117188 117.808594 141.164062 117.769531 L 147.394531 112.625 C 147.441406 112.585938 147.488281 112.550781 147.539062 112.515625 L 154.203125 107.941406 C 154.25 107.910156 154.300781 107.878906 154.355469 107.847656 L 161.398438 103.882812 C 161.449219 103.851562 161.503906 103.828125 161.558594 103.800781 L 168.925781 100.476562 C 168.980469 100.449219 169.035156 100.429688 169.089844 100.410156 L 176.726562 97.746094 C 176.78125 97.726562 176.839844 97.710938 176.898438 97.695312 L 184.738281 95.722656 C 184.796875 95.707031 184.855469 95.695312 184.914062 95.683594 L 192.898438 94.410156 C 192.957031 94.402344 193.015625 94.394531 193.074219 94.390625 L 201.140625 93.828125 C 201.199219 93.824219 201.261719 93.824219 201.320312 93.824219 L 209.40625 93.980469 C 209.464844 93.980469 209.523438 93.984375 209.582031 93.988281 L 217.621094 94.859375 C 217.679688 94.867188 217.742188 94.875 217.800781 94.886719 L 225.730469 96.464844 C 225.789062 96.476562 225.847656 96.488281 225.902344 96.507812 L 233.660156 98.777344 C 233.71875 98.796875 233.777344 98.816406 233.832031 98.835938 L 241.359375 101.789062 C 241.414062 101.808594 241.46875 101.832031 241.523438 101.859375 L 248.757812 105.464844 C 248.808594 105.492188 248.863281 105.519531 248.914062 105.550781 L 255.800781 109.785156 C 255.851562 109.816406 255.898438 109.847656 255.949219 109.882812 L 262.433594 114.707031 C 262.480469 114.742188 262.527344 114.78125 262.570312 114.820312 L 268.601562 120.199219 C 268.644531 120.238281 268.6875 120.28125 268.730469 120.324219 L 274.257812 126.214844 C 274.300781 126.261719 274.335938 126.304688 274.375 126.351562 L 279.359375 132.710938 C 280.046875 133.589844 279.894531 134.859375 279.011719 135.546875 C 278.132812 136.234375 276.859375 136.078125 276.171875 135.199219 Z M 276.171875 135.199219 " fill-opacity="1" fill-rule="nonzero"/></g><path fill="#000000" d="M 282.609375 133.472656 L 282.652344 134.191406 C 282.617188 135.65625 282.125 136.890625 281.183594 137.882812 C 280.230469 138.878906 279.027344 139.386719 277.570312 139.402344 C 276.171875 139.347656 274.992188 138.816406 274.03125 137.816406 C 273.722656 137.492188 273.457031 137.128906 273.234375 136.730469 L 272.9375 136.105469 C 272.765625 135.671875 272.644531 135.214844 272.582031 134.730469 C 272.433594 133.234375 272.765625 131.929688 273.582031 130.820312 C 274.402344 129.714844 275.519531 129.050781 276.933594 128.835938 C 278.359375 128.695312 279.605469 129.0625 280.671875 129.933594 C 281.738281 130.804688 282.382812 131.984375 282.609375 133.472656 " fill-opacity="1" fill-rule="nonzero"/><g clip-path="url(#131df04012)"><path fill="#000000" d="M 286.625 231.871094 L 286.667969 232.589844 C 286.652344 233.242188 286.546875 233.847656 286.351562 234.40625 C 286.332031 234.558594 286.132812 234.953125 285.761719 235.585938 C 285.59375 235.828125 285.40625 236.0625 285.199219 236.28125 C 284.988281 236.503906 284.761719 236.699219 284.527344 236.875 C 283.914062 237.261719 283.53125 237.46875 283.378906 237.488281 C 282.832031 237.6875 282.234375 237.792969 281.585938 237.800781 C 280.964844 237.777344 280.386719 237.65625 279.851562 237.445312 C 279.203125 237.140625 278.824219 236.929688 278.722656 236.8125 C 278.484375 236.636719 278.261719 236.4375 278.046875 236.214844 C 277.082031 235.128906 276.589844 233.933594 276.566406 232.636719 C 276.546875 231.992188 276.621094 231.382812 276.796875 230.8125 C 276.882812 230.527344 276.992188 230.253906 277.125 229.988281 C 277.164062 229.839844 277.417969 229.46875 277.882812 228.867188 C 278.667969 227.96875 279.691406 227.425781 280.949219 227.234375 C 281.582031 227.171875 282.179688 227.210938 282.742188 227.347656 C 283.023438 227.414062 283.296875 227.507812 283.558594 227.628906 C 284.203125 227.96875 284.578125 228.203125 284.6875 228.332031 C 284.832031 228.410156 285.140625 228.734375 285.613281 229.304688 C 285.789062 229.546875 285.941406 229.800781 286.074219 230.070312 C 286.339844 230.609375 286.523438 231.210938 286.625 231.871094 " fill-opacity="1" fill-rule="nonzero"/></g><g clip-path="url(#0e860d376b)"><path fill="#000000" d="M 275.175781 199.761719 C 273.632812 199.464844 272.105469 199.078125 270.601562 198.605469 C 269.101562 198.125 267.617188 197.578125 266.148438 196.972656 C 264.683594 196.367188 263.226562 195.71875 261.765625 195.046875 L 257.347656 193 C 255.855469 192.3125 254.339844 191.636719 252.777344 190.996094 C 252.382812 190.839844 251.996094 190.675781 251.59375 190.527344 L 251 190.296875 L 250.394531 190.074219 C 249.996094 189.921875 249.582031 189.785156 249.175781 189.640625 C 248.972656 189.570312 248.761719 189.503906 248.558594 189.433594 C 248.351562 189.367188 248.144531 189.296875 247.933594 189.234375 C 247.515625 189.105469 247.097656 188.972656 246.671875 188.855469 C 246.457031 188.796875 246.246094 188.734375 246.035156 188.675781 L 245.386719 188.515625 C 244.957031 188.40625 244.53125 188.292969 244.09375 188.203125 L 243.441406 188.058594 C 243.222656 188.011719 243.003906 187.960938 242.785156 187.925781 L 241.464844 187.683594 L 240.136719 187.484375 C 240.027344 187.46875 239.917969 187.449219 239.804688 187.4375 L 239.472656 187.398438 L 238.804688 187.316406 C 238.582031 187.292969 238.359375 187.261719 238.136719 187.242188 L 237.46875 187.183594 C 235.679688 187.023438 233.886719 186.953125 232.101562 186.96875 C 230.316406 186.988281 228.539062 187.074219 226.78125 187.238281 C 223.257812 187.558594 219.816406 188.164062 216.464844 188.945312 C 213.121094 189.734375 209.867188 190.710938 206.71875 191.828125 C 205.144531 192.390625 203.589844 192.976562 202.066406 193.605469 C 200.542969 194.230469 199.039062 194.886719 197.566406 195.574219 C 200.722656 194.503906 203.90625 193.492188 207.148438 192.621094 C 210.382812 191.742188 213.667969 191 216.988281 190.421875 C 218.648438 190.132812 220.320312 189.898438 221.992188 189.707031 C 222.828125 189.609375 223.667969 189.535156 224.507812 189.460938 L 225.765625 189.375 C 226.1875 189.347656 226.605469 189.332031 227.027344 189.308594 C 228.703125 189.238281 230.382812 189.222656 232.046875 189.28125 L 233.296875 189.339844 C 233.710938 189.367188 234.125 189.398438 234.539062 189.429688 L 234.847656 189.453125 L 235.15625 189.484375 L 235.773438 189.542969 C 235.980469 189.566406 236.183594 189.582031 236.390625 189.605469 L 237.003906 189.683594 L 237.613281 189.761719 C 237.820312 189.785156 238.019531 189.824219 238.222656 189.855469 L 238.828125 189.949219 L 239.132812 189.996094 C 239.234375 190.011719 239.332031 190.035156 239.433594 190.050781 L 240.632812 190.28125 L 241.816406 190.542969 C 242.015625 190.582031 242.207031 190.636719 242.402344 190.6875 L 242.988281 190.835938 C 243.378906 190.929688 243.757812 191.046875 244.144531 191.15625 L 244.71875 191.320312 C 244.90625 191.378906 245.097656 191.441406 245.285156 191.503906 C 245.664062 191.621094 246.035156 191.753906 246.414062 191.878906 C 249.40625 192.929688 252.265625 194.273438 255.136719 195.679688 C 258.007812 197.089844 260.898438 198.578125 264 199.917969 C 264.59375 200.171875 265.191406 200.421875 265.804688 200.664062 C 263.964844 200.808594 262.125 200.917969 260.277344 200.996094 L 258.523438 201.0625 L 256.765625 201.105469 C 256.183594 201.121094 255.59375 201.121094 255.007812 201.128906 L 254.128906 201.140625 C 253.835938 201.140625 253.542969 201.140625 253.25 201.140625 C 250.902344 201.148438 248.550781 201.101562 246.195312 201.027344 C 243.84375 200.960938 241.484375 200.847656 239.128906 200.714844 C 236.769531 200.582031 234.410156 200.429688 232.050781 200.253906 C 227.324219 199.910156 222.597656 199.496094 217.855469 199.089844 C 213.113281 198.6875 208.355469 198.28125 203.578125 197.953125 L 201.789062 197.832031 C 201.191406 197.792969 200.59375 197.753906 199.996094 197.71875 C 198.796875 197.648438 197.597656 197.585938 196.394531 197.53125 C 195.792969 197.5 195.191406 197.480469 194.589844 197.457031 L 192.78125 197.398438 C 192.175781 197.386719 191.570312 197.375 190.96875 197.367188 L 190.058594 197.359375 C 189.757812 197.359375 189.457031 197.355469 189.152344 197.359375 C 188.546875 197.363281 187.941406 197.363281 187.335938 197.378906 L 186.425781 197.394531 C 186.125 197.402344 185.820312 197.414062 185.519531 197.425781 L 184.613281 197.460938 L 183.703125 197.507812 C 183.097656 197.535156 182.496094 197.585938 181.890625 197.625 C 179.476562 197.804688 177.074219 198.101562 174.710938 198.519531 C 172.351562 198.949219 170.039062 199.511719 167.816406 200.230469 C 165.59375 200.945312 163.460938 201.808594 161.492188 202.84375 C 165.75 201.179688 170.339844 200.144531 174.992188 199.628906 C 179.652344 199.101562 184.375 199.089844 189.078125 199.308594 C 189.371094 199.320312 189.664062 199.335938 189.957031 199.351562 L 190.839844 199.402344 C 191.429688 199.4375 192.015625 199.484375 192.601562 199.523438 L 194.367188 199.65625 C 194.953125 199.703125 195.542969 199.75 196.128906 199.804688 C 197.304688 199.910156 198.480469 200.023438 199.65625 200.144531 C 200.832031 200.261719 202.011719 200.386719 203.191406 200.511719 C 207.898438 201.019531 212.609375 201.566406 217.335938 202.101562 C 226.785156 203.167969 236.316406 204.164062 245.980469 204.542969 C 250.8125 204.738281 255.671875 204.761719 260.535156 204.558594 C 262.964844 204.449219 265.398438 204.300781 267.820312 204.066406 C 270.246094 203.835938 272.660156 203.535156 275.058594 203.171875 L 285.078125 201.648438 Z M 275.175781 199.761719 " fill-opacity="1" fill-rule="nonzero"/></g><g clip-path="url(#88e8c26fb4)"><path fill="#ff1616" d="M 248.59375 210.152344 C 252.324219 210.980469 256.113281 211.589844 259.917969 211.945312 C 264.691406 212.386719 269.550781 212.449219 274.296875 211.671875 C 276.601562 211.296875 278.886719 210.710938 281.050781 209.804688 C 282.824219 209.058594 286.179688 207.851562 286.5 205.613281 C 286.613281 204.824219 286.644531 203.625 285.660156 203.003906 C 284.394531 202.210938 282.695312 203.011719 281.511719 203.46875 C 280.09375 204.015625 278.699219 204.59375 277.171875 205.019531 C 275.261719 205.546875 273.289062 205.988281 271.292969 206.382812 C 269.042969 206.824219 266.753906 207.21875 264.441406 207.515625 C 265.585938 207.707031 267.480469 207.96875 268.503906 208.097656 C 269.730469 208.25 270.964844 208.386719 272.203125 208.496094 C 273.507812 208.609375 274.851562 208.695312 276.199219 208.742188 C 270.203125 209.960938 259.988281 211.03125 245.132812 209.300781 C 246.300781 209.605469 247.464844 209.902344 248.59375 210.152344 Z M 248.59375 210.152344 " fill-opacity="1" fill-rule="nonzero"/></g><g fill="#ffaa04" fill-opacity="0.502"><g transform="translate(159.136169, 146.05263)"><g><path d="M 3.671875 -22.75 C 4.128906 -23.144531 4.484375 -23.195312 4.734375 -22.90625 C 4.796875 -22.820312 4.84375 -22.757812 4.875 -22.71875 C 4.9375 -22.570312 4.957031 -22.4375 4.9375 -22.3125 C 4.925781 -22.195312 4.890625 -22.039062 4.828125 -21.84375 C 4.753906 -21.601562 4.710938 -21.375 4.703125 -21.15625 C 4.691406 -20.9375 4.753906 -20.660156 4.890625 -20.328125 L 9.234375 -10.90625 C 9.617188 -10.050781 9.78125 -9.359375 9.71875 -8.828125 C 9.664062 -8.304688 9.382812 -7.832031 8.875 -7.40625 C 8.414062 -7.007812 7.921875 -6.816406 7.390625 -6.828125 C 6.859375 -6.847656 6.226562 -7.03125 5.5 -7.375 L -1.734375 -10.625 L 1.078125 -4.40625 C 1.160156 -4.21875 1.25 -4.066406 1.34375 -3.953125 C 1.476562 -3.804688 1.609375 -3.707031 1.734375 -3.65625 C 1.867188 -3.601562 2.03125 -3.566406 2.21875 -3.546875 C 2.476562 -3.492188 2.648438 -3.414062 2.734375 -3.3125 C 2.796875 -3.238281 2.832031 -3.179688 2.84375 -3.140625 C 2.925781 -2.941406 2.914062 -2.742188 2.8125 -2.546875 C 2.707031 -2.347656 2.492188 -2.113281 2.171875 -1.84375 L 0.3125 -0.265625 C -0.15625 0.128906 -0.515625 0.179688 -0.765625 -0.109375 C -0.828125 -0.191406 -0.875 -0.253906 -0.90625 -0.296875 C -0.96875 -0.441406 -0.988281 -0.578125 -0.96875 -0.703125 C -0.957031 -0.828125 -0.921875 -0.976562 -0.859375 -1.15625 C -0.773438 -1.394531 -0.726562 -1.625 -0.71875 -1.84375 C -0.71875 -2.070312 -0.789062 -2.359375 -0.9375 -2.703125 L -5.28125 -12.234375 L -6.046875 -12.5625 C -6.335938 -12.695312 -6.5625 -12.851562 -6.71875 -13.03125 C -7.007812 -13.375 -6.929688 -13.738281 -6.484375 -14.125 L -3.953125 -16.28125 C -3.585938 -16.59375 -3.238281 -16.75 -2.90625 -16.75 C -2.582031 -16.75 -2.128906 -16.625 -1.546875 -16.375 L 5.21875 -13.484375 L 2.875 -18.609375 C 2.78125 -18.816406 2.691406 -18.972656 2.609375 -19.078125 C 2.484375 -19.210938 2.351562 -19.304688 2.21875 -19.359375 C 2.082031 -19.410156 1.925781 -19.445312 1.75 -19.46875 C 1.5 -19.507812 1.332031 -19.582031 1.25 -19.6875 C 1.1875 -19.757812 1.144531 -19.816406 1.125 -19.859375 C 1.039062 -20.066406 1.050781 -20.265625 1.15625 -20.453125 C 1.257812 -20.648438 1.472656 -20.882812 1.796875 -21.15625 Z M 3.671875 -22.75 "/></g></g></g><g fill="#ffaa04" fill-opacity="0.502"><g transform="translate(170.402153, 136.207745)"><g><path d="M 2.59375 -18.25 C 4.59375 -19.300781 6.296875 -19.707031 7.703125 -19.46875 C 9.109375 -19.238281 10.195312 -18.382812 10.96875 -16.90625 C 11.351562 -16.175781 11.660156 -15.265625 11.890625 -14.171875 C 12.273438 -12.398438 12.328125 -10.867188 12.046875 -9.578125 C 11.765625 -8.285156 11.125 -7.113281 10.125 -6.0625 C 9.125 -5.019531 7.671875 -4.003906 5.765625 -3.015625 L 0.359375 -0.203125 C 0.078125 -0.0546875 -0.160156 0.0078125 -0.359375 0 C -0.566406 -0.0195312 -0.710938 -0.113281 -0.796875 -0.28125 C -0.835938 -0.351562 -0.863281 -0.445312 -0.875 -0.5625 C -0.90625 -0.707031 -0.894531 -0.820312 -0.84375 -0.90625 C -0.800781 -1 -0.726562 -1.128906 -0.625 -1.296875 C -0.476562 -1.523438 -0.378906 -1.742188 -0.328125 -1.953125 C -0.285156 -2.171875 -0.296875 -2.460938 -0.359375 -2.828125 L -2.40625 -12.671875 C -2.445312 -12.878906 -2.507812 -13.0625 -2.59375 -13.21875 C -2.664062 -13.363281 -2.75 -13.472656 -2.84375 -13.546875 C -2.945312 -13.617188 -3.078125 -13.703125 -3.234375 -13.796875 C -3.429688 -13.898438 -3.5625 -14.003906 -3.625 -14.109375 C -3.644531 -14.148438 -3.671875 -14.234375 -3.703125 -14.359375 C -3.734375 -14.554688 -3.679688 -14.738281 -3.546875 -14.90625 C -3.410156 -15.070312 -3.148438 -15.253906 -2.765625 -15.453125 Z M 6.578125 -11.9375 C 6.265625 -13.363281 5.921875 -14.4375 5.546875 -15.15625 C 5.171875 -15.851562 4.769531 -16.257812 4.34375 -16.375 C 3.914062 -16.488281 3.429688 -16.40625 2.890625 -16.125 L 2.4375 -15.890625 L 4.828125 -4.8125 L 5.296875 -5.0625 C 5.910156 -5.382812 6.359375 -5.78125 6.640625 -6.25 C 6.921875 -6.726562 7.054688 -7.410156 7.046875 -8.296875 C 7.046875 -9.191406 6.890625 -10.40625 6.578125 -11.9375 Z M 6.578125 -11.9375 "/></g></g></g><g fill="#ffaa04" fill-opacity="0.502"><g transform="translate(184.586621, 128.781991)"><g><path d="M 4.546875 -13.609375 C 6.203125 -14.066406 7.613281 -14.128906 8.78125 -13.796875 C 9.957031 -13.460938 10.71875 -12.664062 11.0625 -11.40625 C 11.195312 -10.925781 11.265625 -10.363281 11.265625 -9.71875 L 11.21875 -6.46875 C 11.207031 -6.40625 11.210938 -6.332031 11.234375 -6.25 C 11.296875 -6.019531 11.421875 -5.929688 11.609375 -5.984375 C 11.773438 -6.035156 11.898438 -6.15625 11.984375 -6.34375 C 12.078125 -6.53125 12.140625 -6.628906 12.171875 -6.640625 C 12.242188 -6.660156 12.320312 -6.625 12.40625 -6.53125 C 12.488281 -6.4375 12.546875 -6.328125 12.578125 -6.203125 C 12.710938 -5.816406 12.675781 -5.375 12.46875 -4.875 C 12.269531 -4.382812 11.945312 -3.9375 11.5 -3.53125 C 11.050781 -3.132812 10.515625 -2.851562 9.890625 -2.6875 C 9.140625 -2.476562 8.460938 -2.429688 7.859375 -2.546875 C 7.253906 -2.671875 6.769531 -2.976562 6.40625 -3.46875 C 6.125 -2.820312 5.722656 -2.273438 5.203125 -1.828125 C 4.691406 -1.390625 4.097656 -1.078125 3.421875 -0.890625 C 2.660156 -0.671875 1.972656 -0.632812 1.359375 -0.78125 C 0.753906 -0.9375 0.265625 -1.210938 -0.109375 -1.609375 C -0.492188 -2.015625 -0.757812 -2.476562 -0.90625 -3 C -0.96875 -3.226562 -1.007812 -3.457031 -1.03125 -3.6875 C -1.070312 -4.738281 -0.773438 -5.625 -0.140625 -6.34375 C 0.492188 -7.070312 1.34375 -7.585938 2.40625 -7.890625 C 3.601562 -8.222656 4.832031 -8.359375 6.09375 -8.296875 L 6.25 -9.875 C 6.257812 -10.53125 6.21875 -11.023438 6.125 -11.359375 C 6.007812 -11.703125 5.820312 -11.929688 5.5625 -12.046875 C 5.300781 -12.160156 4.945312 -12.160156 4.5 -12.046875 C 4.644531 -11.835938 4.753906 -11.601562 4.828125 -11.34375 C 4.972656 -10.8125 4.898438 -10.289062 4.609375 -9.78125 C 4.316406 -9.28125 3.796875 -8.925781 3.046875 -8.71875 C 2.328125 -8.519531 1.722656 -8.519531 1.234375 -8.71875 C 0.753906 -8.925781 0.453125 -9.257812 0.328125 -9.71875 C 0.128906 -10.445312 0.363281 -11.160156 1.03125 -11.859375 C 1.707031 -12.554688 2.878906 -13.140625 4.546875 -13.609375 Z M 5.15625 -6.703125 C 4.757812 -6.585938 4.476562 -6.335938 4.3125 -5.953125 C 4.144531 -5.578125 4.109375 -5.210938 4.203125 -4.859375 C 4.265625 -4.628906 4.367188 -4.457031 4.515625 -4.34375 C 4.671875 -4.226562 4.847656 -4.203125 5.046875 -4.265625 C 5.234375 -4.316406 5.421875 -4.445312 5.609375 -4.65625 C 5.796875 -4.863281 5.894531 -5.132812 5.90625 -5.46875 L 6 -6.875 C 5.738281 -6.84375 5.457031 -6.785156 5.15625 -6.703125 Z M 5.15625 -6.703125 "/></g></g></g><g fill="#ffaa04" fill-opacity="0.502"><g transform="translate(197.122381, 124.519225)"><g><path d="M 21.3125 -3.515625 C 21.289062 -3.453125 21.285156 -3.359375 21.296875 -3.234375 C 21.296875 -3.128906 21.320312 -3.050781 21.375 -3 C 21.425781 -2.945312 21.492188 -2.921875 21.578125 -2.921875 C 21.765625 -2.921875 21.914062 -3 22.03125 -3.15625 C 22.15625 -3.320312 22.238281 -3.40625 22.28125 -3.40625 C 22.363281 -3.40625 22.425781 -3.351562 22.46875 -3.25 C 22.519531 -3.15625 22.546875 -3.039062 22.546875 -2.90625 C 22.578125 -2.476562 22.441406 -2.050781 22.140625 -1.625 C 21.847656 -1.207031 21.414062 -0.863281 20.84375 -0.59375 C 20.269531 -0.320312 19.582031 -0.175781 18.78125 -0.15625 C 17.789062 -0.132812 17 -0.347656 16.40625 -0.796875 C 15.8125 -1.242188 15.5 -1.847656 15.46875 -2.609375 C 15.457031 -3.160156 15.582031 -3.789062 15.84375 -4.5 L 17.015625 -7.75 C 17.078125 -7.945312 17.109375 -8.101562 17.109375 -8.21875 C 17.109375 -8.414062 17.039062 -8.566406 16.90625 -8.671875 C 16.78125 -8.785156 16.625 -8.84375 16.4375 -8.84375 C 16.1875 -8.832031 15.925781 -8.710938 15.65625 -8.484375 C 15.394531 -8.253906 15.164062 -7.898438 14.96875 -7.421875 L 13.8125 -3.375 C 13.78125 -3.3125 13.769531 -3.21875 13.78125 -3.09375 C 13.78125 -2.988281 13.804688 -2.90625 13.859375 -2.84375 C 13.910156 -2.789062 13.984375 -2.765625 14.078125 -2.765625 C 14.253906 -2.773438 14.398438 -2.859375 14.515625 -3.015625 C 14.640625 -3.171875 14.726562 -3.25 14.78125 -3.25 C 14.851562 -3.25 14.914062 -3.203125 14.96875 -3.109375 C 15.019531 -3.015625 15.046875 -2.898438 15.046875 -2.765625 C 15.066406 -2.335938 14.925781 -1.910156 14.625 -1.484375 C 14.332031 -1.066406 13.898438 -0.71875 13.328125 -0.4375 C 12.765625 -0.164062 12.078125 -0.0234375 11.265625 -0.015625 C 10.273438 0.00390625 9.484375 -0.207031 8.890625 -0.65625 C 8.304688 -1.101562 7.992188 -1.707031 7.953125 -2.46875 C 7.941406 -3.019531 8.066406 -3.644531 8.328125 -4.34375 L 9.5 -7.609375 C 9.570312 -7.804688 9.609375 -7.960938 9.609375 -8.078125 C 9.609375 -8.273438 9.539062 -8.425781 9.40625 -8.53125 C 9.269531 -8.644531 9.113281 -8.695312 8.9375 -8.6875 C 8.675781 -8.6875 8.414062 -8.578125 8.15625 -8.359375 C 7.894531 -8.140625 7.675781 -7.785156 7.5 -7.296875 L 6.109375 -2.46875 C 6.054688 -2.300781 6.035156 -2.140625 6.046875 -1.984375 C 6.046875 -1.804688 6.082031 -1.660156 6.15625 -1.546875 C 6.226562 -1.441406 6.335938 -1.328125 6.484375 -1.203125 C 6.585938 -1.109375 6.660156 -1.023438 6.703125 -0.953125 C 6.753906 -0.878906 6.765625 -0.789062 6.734375 -0.6875 C 6.679688 -0.488281 6.539062 -0.34375 6.3125 -0.25 C 6.09375 -0.15625 5.742188 -0.109375 5.265625 -0.109375 L 0.140625 0 C -0.253906 0.0078125 -0.535156 -0.046875 -0.703125 -0.171875 C -0.878906 -0.296875 -0.953125 -0.46875 -0.921875 -0.6875 C -0.859375 -0.863281 -0.695312 -1.019531 -0.4375 -1.15625 C -0.226562 -1.28125 -0.0507812 -1.425781 0.09375 -1.59375 C 0.25 -1.757812 0.375 -2.03125 0.46875 -2.40625 L 2.34375 -8.921875 C 2.375 -9.003906 2.390625 -9.113281 2.390625 -9.25 C 2.378906 -9.40625 2.335938 -9.53125 2.265625 -9.625 C 2.203125 -9.71875 2.097656 -9.832031 1.953125 -9.96875 C 1.796875 -10.070312 1.6875 -10.164062 1.625 -10.25 C 1.5625 -10.34375 1.550781 -10.46875 1.59375 -10.625 C 1.675781 -10.96875 2.140625 -11.28125 2.984375 -11.5625 C 3.835938 -11.84375 4.726562 -11.988281 5.65625 -12 C 6.394531 -12.019531 6.984375 -11.832031 7.421875 -11.4375 C 7.859375 -11.039062 8.070312 -10.488281 8.0625 -9.78125 C 8.664062 -10.644531 9.300781 -11.25 9.96875 -11.59375 C 10.644531 -11.9375 11.378906 -12.113281 12.171875 -12.125 C 13.046875 -12.144531 13.757812 -11.910156 14.3125 -11.421875 C 14.875 -10.929688 15.195312 -10.28125 15.28125 -9.46875 C 15.894531 -10.5 16.5625 -11.21875 17.28125 -11.625 C 18.007812 -12.039062 18.8125 -12.257812 19.6875 -12.28125 C 20.601562 -12.289062 21.347656 -12.023438 21.921875 -11.484375 C 22.492188 -10.941406 22.789062 -10.226562 22.8125 -9.34375 C 22.820312 -8.875 22.753906 -8.414062 22.609375 -7.96875 Z M 21.3125 -3.515625 "/></g></g></g><g fill="#ffaa04" fill-opacity="0.502"><g transform="translate(219.063374, 124.449519)"><g><path d="M 10.546875 -9.734375 C 12.222656 -9.335938 13.488281 -8.707031 14.34375 -7.84375 C 15.207031 -6.988281 15.488281 -5.925781 15.1875 -4.65625 C 15.070312 -4.164062 14.863281 -3.640625 14.5625 -3.078125 L 12.9375 -0.25 C 12.894531 -0.207031 12.863281 -0.144531 12.84375 -0.0625 C 12.789062 0.175781 12.863281 0.320312 13.0625 0.375 C 13.226562 0.414062 13.394531 0.367188 13.5625 0.234375 C 13.726562 0.109375 13.832031 0.0507812 13.875 0.0625 C 13.945312 0.0820312 13.992188 0.148438 14.015625 0.265625 C 14.035156 0.378906 14.03125 0.5 14 0.625 C 13.925781 1.03125 13.6875 1.398438 13.28125 1.734375 C 12.875 2.066406 12.375 2.300781 11.78125 2.4375 C 11.195312 2.570312 10.585938 2.566406 9.953125 2.421875 C 9.191406 2.242188 8.578125 1.953125 8.109375 1.546875 C 7.640625 1.140625 7.367188 0.644531 7.296875 0.0625 C 6.734375 0.476562 6.117188 0.757812 5.453125 0.90625 C 4.785156 1.050781 4.109375 1.039062 3.421875 0.875 C 2.648438 0.695312 2.035156 0.394531 1.578125 -0.03125 C 1.128906 -0.457031 0.832031 -0.9375 0.6875 -1.46875 C 0.539062 -2 0.53125 -2.53125 0.65625 -3.0625 C 0.707031 -3.289062 0.78125 -3.507812 0.875 -3.71875 C 1.34375 -4.675781 2.03125 -5.316406 2.9375 -5.640625 C 3.84375 -5.960938 4.832031 -6 5.90625 -5.75 C 7.125 -5.457031 8.269531 -4.984375 9.34375 -4.328125 L 10.234375 -5.625 C 10.578125 -6.207031 10.785156 -6.664062 10.859375 -7 C 10.921875 -7.34375 10.863281 -7.628906 10.6875 -7.859375 C 10.507812 -8.085938 10.195312 -8.253906 9.75 -8.359375 C 9.78125 -8.117188 9.765625 -7.867188 9.703125 -7.609375 C 9.578125 -7.078125 9.265625 -6.660156 8.765625 -6.359375 C 8.265625 -6.054688 7.632812 -5.992188 6.875 -6.171875 C 6.15625 -6.347656 5.628906 -6.640625 5.296875 -7.046875 C 4.972656 -7.453125 4.867188 -7.890625 4.984375 -8.359375 C 5.148438 -9.085938 5.695312 -9.597656 6.625 -9.890625 C 7.5625 -10.179688 8.867188 -10.128906 10.546875 -9.734375 Z M 7.75 -3.375 C 7.34375 -3.46875 6.972656 -3.390625 6.640625 -3.140625 C 6.316406 -2.890625 6.109375 -2.582031 6.015625 -2.21875 C 5.960938 -1.988281 5.972656 -1.785156 6.046875 -1.609375 C 6.128906 -1.441406 6.273438 -1.335938 6.484375 -1.296875 C 6.671875 -1.242188 6.894531 -1.265625 7.15625 -1.359375 C 7.414062 -1.460938 7.632812 -1.65625 7.8125 -1.9375 L 8.578125 -3.125 C 8.335938 -3.21875 8.0625 -3.300781 7.75 -3.375 Z M 7.75 -3.375 "/></g></g></g><g fill="#ffaa04" fill-opacity="0.502"><g transform="translate(232.237013, 127.536861)"><g><path d="M 14.90625 -6.421875 C 15.664062 -6.085938 16.171875 -5.585938 16.421875 -4.921875 C 16.679688 -4.253906 16.660156 -3.578125 16.359375 -2.890625 C 16.242188 -2.628906 16.109375 -2.398438 15.953125 -2.203125 C 15.566406 -1.703125 15.117188 -1.382812 14.609375 -1.25 C 14.097656 -1.113281 13.570312 -1.164062 13.03125 -1.40625 C 12.507812 -1.632812 12.171875 -1.929688 12.015625 -2.296875 C 11.859375 -2.671875 11.765625 -3.109375 11.734375 -3.609375 C 11.734375 -3.878906 11.707031 -4.085938 11.65625 -4.234375 C 11.601562 -4.390625 11.515625 -4.492188 11.390625 -4.546875 C 11.253906 -4.609375 11.109375 -4.609375 10.953125 -4.546875 C 10.804688 -4.484375 10.628906 -4.332031 10.421875 -4.09375 L 6.578125 0.34375 C 6.515625 0.40625 6.457031 0.503906 6.40625 0.640625 C 6.320312 0.816406 6.304688 0.984375 6.359375 1.140625 C 6.410156 1.304688 6.5 1.484375 6.625 1.671875 C 6.75 1.847656 6.820312 1.984375 6.84375 2.078125 C 6.863281 2.171875 6.847656 2.269531 6.796875 2.375 C 6.679688 2.539062 6.519531 2.625 6.3125 2.625 C 6.101562 2.632812 5.796875 2.550781 5.390625 2.375 L 0.125 0.0625 C -0.238281 -0.101562 -0.472656 -0.273438 -0.578125 -0.453125 C -0.679688 -0.640625 -0.671875 -0.820312 -0.546875 -1 C -0.421875 -1.144531 -0.210938 -1.226562 0.078125 -1.25 C 0.335938 -1.257812 0.566406 -1.3125 0.765625 -1.40625 C 0.972656 -1.5 1.195312 -1.691406 1.4375 -1.984375 L 5.875 -7.109375 C 5.9375 -7.171875 5.992188 -7.265625 6.046875 -7.390625 C 6.117188 -7.535156 6.140625 -7.660156 6.109375 -7.765625 C 6.085938 -7.878906 6.035156 -8.03125 5.953125 -8.21875 C 5.859375 -8.382812 5.800781 -8.519531 5.78125 -8.625 C 5.769531 -8.726562 5.8125 -8.84375 5.90625 -8.96875 C 6.132812 -9.25 6.691406 -9.332031 7.578125 -9.21875 C 8.472656 -9.113281 9.34375 -8.875 10.1875 -8.5 C 10.75 -8.25 11.15625 -7.914062 11.40625 -7.5 C 11.664062 -7.09375 11.75 -6.628906 11.65625 -6.109375 C 12.75 -6.796875 13.832031 -6.898438 14.90625 -6.421875 Z M 14.90625 -6.421875 "/></g></g></g><g fill="#ffaa04" fill-opacity="0.302"><g transform="translate(159.957273, 146.419838)"><g><path d="M 3.671875 -22.75 C 4.128906 -23.144531 4.484375 -23.195312 4.734375 -22.90625 C 4.796875 -22.820312 4.84375 -22.757812 4.875 -22.71875 C 4.9375 -22.570312 4.957031 -22.4375 4.9375 -22.3125 C 4.925781 -22.195312 4.890625 -22.039062 4.828125 -21.84375 C 4.753906 -21.601562 4.710938 -21.375 4.703125 -21.15625 C 4.691406 -20.9375 4.753906 -20.660156 4.890625 -20.328125 L 9.234375 -10.90625 C 9.617188 -10.050781 9.78125 -9.359375 9.71875 -8.828125 C 9.664062 -8.304688 9.382812 -7.832031 8.875 -7.40625 C 8.414062 -7.007812 7.921875 -6.816406 7.390625 -6.828125 C 6.859375 -6.847656 6.226562 -7.03125 5.5 -7.375 L -1.734375 -10.625 L 1.078125 -4.40625 C 1.160156 -4.21875 1.25 -4.066406 1.34375 -3.953125 C 1.476562 -3.804688 1.609375 -3.707031 1.734375 -3.65625 C 1.867188 -3.601562 2.03125 -3.566406 2.21875 -3.546875 C 2.476562 -3.492188 2.648438 -3.414062 2.734375 -3.3125 C 2.796875 -3.238281 2.832031 -3.179688 2.84375 -3.140625 C 2.925781 -2.941406 2.914062 -2.742188 2.8125 -2.546875 C 2.707031 -2.347656 2.492188 -2.113281 2.171875 -1.84375 L 0.3125 -0.265625 C -0.15625 0.128906 -0.515625 0.179688 -0.765625 -0.109375 C -0.828125 -0.191406 -0.875 -0.253906 -0.90625 -0.296875 C -0.96875 -0.441406 -0.988281 -0.578125 -0.96875 -0.703125 C -0.957031 -0.828125 -0.921875 -0.976562 -0.859375 -1.15625 C -0.773438 -1.394531 -0.726562 -1.625 -0.71875 -1.84375 C -0.71875 -2.070312 -0.789062 -2.359375 -0.9375 -2.703125 L -5.28125 -12.234375 L -6.046875 -12.5625 C -6.335938 -12.695312 -6.5625 -12.851562 -6.71875 -13.03125 C -7.007812 -13.375 -6.929688 -13.738281 -6.484375 -14.125 L -3.953125 -16.28125 C -3.585938 -16.59375 -3.238281 -16.75 -2.90625 -16.75 C -2.582031 -16.75 -2.128906 -16.625 -1.546875 -16.375 L 5.21875 -13.484375 L 2.875 -18.609375 C 2.78125 -18.816406 2.691406 -18.972656 2.609375 -19.078125 C 2.484375 -19.210938 2.351562 -19.304688 2.21875 -19.359375 C 2.082031 -19.410156 1.925781 -19.445312 1.75 -19.46875 C 1.5 -19.507812 1.332031 -19.582031 1.25 -19.6875 C 1.1875 -19.757812 1.144531 -19.816406 1.125 -19.859375 C 1.039062 -20.066406 1.050781 -20.265625 1.15625 -20.453125 C 1.257812 -20.648438 1.472656 -20.882812 1.796875 -21.15625 Z M 3.671875 -22.75 "/></g></g></g><g fill="#ffaa04" fill-opacity="0.302"><g transform="translate(171.223255, 136.57501)"><g><path d="M 2.59375 -18.25 C 4.59375 -19.300781 6.296875 -19.707031 7.703125 -19.46875 C 9.109375 -19.238281 10.195312 -18.382812 10.96875 -16.90625 C 11.351562 -16.175781 11.660156 -15.265625 11.890625 -14.171875 C 12.273438 -12.398438 12.328125 -10.867188 12.046875 -9.578125 C 11.765625 -8.285156 11.125 -7.113281 10.125 -6.0625 C 9.125 -5.019531 7.671875 -4.003906 5.765625 -3.015625 L 0.359375 -0.203125 C 0.078125 -0.0546875 -0.160156 0.0078125 -0.359375 0 C -0.566406 -0.0195312 -0.710938 -0.113281 -0.796875 -0.28125 C -0.835938 -0.351562 -0.863281 -0.445312 -0.875 -0.5625 C -0.90625 -0.707031 -0.894531 -0.820312 -0.84375 -0.90625 C -0.800781 -1 -0.726562 -1.128906 -0.625 -1.296875 C -0.476562 -1.523438 -0.378906 -1.742188 -0.328125 -1.953125 C -0.285156 -2.171875 -0.296875 -2.460938 -0.359375 -2.828125 L -2.40625 -12.671875 C -2.445312 -12.878906 -2.507812 -13.0625 -2.59375 -13.21875 C -2.664062 -13.363281 -2.75 -13.472656 -2.84375 -13.546875 C -2.945312 -13.617188 -3.078125 -13.703125 -3.234375 -13.796875 C -3.429688 -13.898438 -3.5625 -14.003906 -3.625 -14.109375 C -3.644531 -14.148438 -3.671875 -14.234375 -3.703125 -14.359375 C -3.734375 -14.554688 -3.679688 -14.738281 -3.546875 -14.90625 C -3.410156 -15.070312 -3.148438 -15.253906 -2.765625 -15.453125 Z M 6.578125 -11.9375 C 6.265625 -13.363281 5.921875 -14.4375 5.546875 -15.15625 C 5.171875 -15.851562 4.769531 -16.257812 4.34375 -16.375 C 3.914062 -16.488281 3.429688 -16.40625 2.890625 -16.125 L 2.4375 -15.890625 L 4.828125 -4.8125 L 5.296875 -5.0625 C 5.910156 -5.382812 6.359375 -5.78125 6.640625 -6.25 C 6.921875 -6.726562 7.054688 -7.410156 7.046875 -8.296875 C 7.046875 -9.191406 6.890625 -10.40625 6.578125 -11.9375 Z M 6.578125 -11.9375 "/></g></g></g><g fill="#ffaa04" fill-opacity="0.302"><g transform="translate(185.407726, 129.149198)"><g><path d="M 4.546875 -13.609375 C 6.203125 -14.066406 7.613281 -14.128906 8.78125 -13.796875 C 9.957031 -13.460938 10.71875 -12.664062 11.0625 -11.40625 C 11.195312 -10.925781 11.265625 -10.363281 11.265625 -9.71875 L 11.21875 -6.46875 C 11.207031 -6.40625 11.210938 -6.332031 11.234375 -6.25 C 11.296875 -6.019531 11.421875 -5.929688 11.609375 -5.984375 C 11.773438 -6.035156 11.898438 -6.15625 11.984375 -6.34375 C 12.078125 -6.53125 12.140625 -6.628906 12.171875 -6.640625 C 12.242188 -6.660156 12.320312 -6.625 12.40625 -6.53125 C 12.488281 -6.4375 12.546875 -6.328125 12.578125 -6.203125 C 12.710938 -5.816406 12.675781 -5.375 12.46875 -4.875 C 12.269531 -4.382812 11.945312 -3.9375 11.5 -3.53125 C 11.050781 -3.132812 10.515625 -2.851562 9.890625 -2.6875 C 9.140625 -2.476562 8.460938 -2.429688 7.859375 -2.546875 C 7.253906 -2.671875 6.769531 -2.976562 6.40625 -3.46875 C 6.125 -2.820312 5.722656 -2.273438 5.203125 -1.828125 C 4.691406 -1.390625 4.097656 -1.078125 3.421875 -0.890625 C 2.660156 -0.671875 1.972656 -0.632812 1.359375 -0.78125 C 0.753906 -0.9375 0.265625 -1.210938 -0.109375 -1.609375 C -0.492188 -2.015625 -0.757812 -2.476562 -0.90625 -3 C -0.96875 -3.226562 -1.007812 -3.457031 -1.03125 -3.6875 C -1.070312 -4.738281 -0.773438 -5.625 -0.140625 -6.34375 C 0.492188 -7.070312 1.34375 -7.585938 2.40625 -7.890625 C 3.601562 -8.222656 4.832031 -8.359375 6.09375 -8.296875 L 6.25 -9.875 C 6.257812 -10.53125 6.21875 -11.023438 6.125 -11.359375 C 6.007812 -11.703125 5.820312 -11.929688 5.5625 -12.046875 C 5.300781 -12.160156 4.945312 -12.160156 4.5 -12.046875 C 4.644531 -11.835938 4.753906 -11.601562 4.828125 -11.34375 C 4.972656 -10.8125 4.898438 -10.289062 4.609375 -9.78125 C 4.316406 -9.28125 3.796875 -8.925781 3.046875 -8.71875 C 2.328125 -8.519531 1.722656 -8.519531 1.234375 -8.71875 C 0.753906 -8.925781 0.453125 -9.257812 0.328125 -9.71875 C 0.128906 -10.445312 0.363281 -11.160156 1.03125 -11.859375 C 1.707031 -12.554688 2.878906 -13.140625 4.546875 -13.609375 Z M 5.15625 -6.703125 C 4.757812 -6.585938 4.476562 -6.335938 4.3125 -5.953125 C 4.144531 -5.578125 4.109375 -5.210938 4.203125 -4.859375 C 4.265625 -4.628906 4.367188 -4.457031 4.515625 -4.34375 C 4.671875 -4.226562 4.847656 -4.203125 5.046875 -4.265625 C 5.234375 -4.316406 5.421875 -4.445312 5.609375 -4.65625 C 5.796875 -4.863281 5.894531 -5.132812 5.90625 -5.46875 L 6 -6.875 C 5.738281 -6.84375 5.457031 -6.785156 5.15625 -6.703125 Z M 5.15625 -6.703125 "/></g></g></g><g fill="#ffaa04" fill-opacity="0.302"><g transform="translate(197.9435, 124.886375)"><g><path d="M 21.3125 -3.515625 C 21.289062 -3.453125 21.285156 -3.359375 21.296875 -3.234375 C 21.296875 -3.128906 21.320312 -3.050781 21.375 -3 C 21.425781 -2.945312 21.492188 -2.921875 21.578125 -2.921875 C 21.765625 -2.921875 21.914062 -3 22.03125 -3.15625 C 22.15625 -3.320312 22.238281 -3.40625 22.28125 -3.40625 C 22.363281 -3.40625 22.425781 -3.351562 22.46875 -3.25 C 22.519531 -3.15625 22.546875 -3.039062 22.546875 -2.90625 C 22.578125 -2.476562 22.441406 -2.050781 22.140625 -1.625 C 21.847656 -1.207031 21.414062 -0.863281 20.84375 -0.59375 C 20.269531 -0.320312 19.582031 -0.175781 18.78125 -0.15625 C 17.789062 -0.132812 17 -0.347656 16.40625 -0.796875 C 15.8125 -1.242188 15.5 -1.847656 15.46875 -2.609375 C 15.457031 -3.160156 15.582031 -3.789062 15.84375 -4.5 L 17.015625 -7.75 C 17.078125 -7.945312 17.109375 -8.101562 17.109375 -8.21875 C 17.109375 -8.414062 17.039062 -8.566406 16.90625 -8.671875 C 16.78125 -8.785156 16.625 -8.84375 16.4375 -8.84375 C 16.1875 -8.832031 15.925781 -8.710938 15.65625 -8.484375 C 15.394531 -8.253906 15.164062 -7.898438 14.96875 -7.421875 L 13.8125 -3.375 C 13.78125 -3.3125 13.769531 -3.21875 13.78125 -3.09375 C 13.78125 -2.988281 13.804688 -2.90625 13.859375 -2.84375 C 13.910156 -2.789062 13.984375 -2.765625 14.078125 -2.765625 C 14.253906 -2.773438 14.398438 -2.859375 14.515625 -3.015625 C 14.640625 -3.171875 14.726562 -3.25 14.78125 -3.25 C 14.851562 -3.25 14.914062 -3.203125 14.96875 -3.109375 C 15.019531 -3.015625 15.046875 -2.898438 15.046875 -2.765625 C 15.066406 -2.335938 14.925781 -1.910156 14.625 -1.484375 C 14.332031 -1.066406 13.898438 -0.71875 13.328125 -0.4375 C 12.765625 -0.164062 12.078125 -0.0234375 11.265625 -0.015625 C 10.273438 0.00390625 9.484375 -0.207031 8.890625 -0.65625 C 8.304688 -1.101562 7.992188 -1.707031 7.953125 -2.46875 C 7.941406 -3.019531 8.066406 -3.644531 8.328125 -4.34375 L 9.5 -7.609375 C 9.570312 -7.804688 9.609375 -7.960938 9.609375 -8.078125 C 9.609375 -8.273438 9.539062 -8.425781 9.40625 -8.53125 C 9.269531 -8.644531 9.113281 -8.695312 8.9375 -8.6875 C 8.675781 -8.6875 8.414062 -8.578125 8.15625 -8.359375 C 7.894531 -8.140625 7.675781 -7.785156 7.5 -7.296875 L 6.109375 -2.46875 C 6.054688 -2.300781 6.035156 -2.140625 6.046875 -1.984375 C 6.046875 -1.804688 6.082031 -1.660156 6.15625 -1.546875 C 6.226562 -1.441406 6.335938 -1.328125 6.484375 -1.203125 C 6.585938 -1.109375 6.660156 -1.023438 6.703125 -0.953125 C 6.753906 -0.878906 6.765625 -0.789062 6.734375 -0.6875 C 6.679688 -0.488281 6.539062 -0.34375 6.3125 -0.25 C 6.09375 -0.15625 5.742188 -0.109375 5.265625 -0.109375 L 0.140625 0 C -0.253906 0.0078125 -0.535156 -0.046875 -0.703125 -0.171875 C -0.878906 -0.296875 -0.953125 -0.46875 -0.921875 -0.6875 C -0.859375 -0.863281 -0.695312 -1.019531 -0.4375 -1.15625 C -0.226562 -1.28125 -0.0507812 -1.425781 0.09375 -1.59375 C 0.25 -1.757812 0.375 -2.03125 0.46875 -2.40625 L 2.34375 -8.921875 C 2.375 -9.003906 2.390625 -9.113281 2.390625 -9.25 C 2.378906 -9.40625 2.335938 -9.53125 2.265625 -9.625 C 2.203125 -9.71875 2.097656 -9.832031 1.953125 -9.96875 C 1.796875 -10.070312 1.6875 -10.164062 1.625 -10.25 C 1.5625 -10.34375 1.550781 -10.46875 1.59375 -10.625 C 1.675781 -10.96875 2.140625 -11.28125 2.984375 -11.5625 C 3.835938 -11.84375 4.726562 -11.988281 5.65625 -12 C 6.394531 -12.019531 6.984375 -11.832031 7.421875 -11.4375 C 7.859375 -11.039062 8.070312 -10.488281 8.0625 -9.78125 C 8.664062 -10.644531 9.300781 -11.25 9.96875 -11.59375 C 10.644531 -11.9375 11.378906 -12.113281 12.171875 -12.125 C 13.046875 -12.144531 13.757812 -11.910156 14.3125 -11.421875 C 14.875 -10.929688 15.195312 -10.28125 15.28125 -9.46875 C 15.894531 -10.5 16.5625 -11.21875 17.28125 -11.625 C 18.007812 -12.039062 18.8125 -12.257812 19.6875 -12.28125 C 20.601562 -12.289062 21.347656 -12.023438 21.921875 -11.484375 C 22.492188 -10.941406 22.789062 -10.226562 22.8125 -9.34375 C 22.820312 -8.875 22.753906 -8.414062 22.609375 -7.96875 Z M 21.3125 -3.515625 "/></g></g></g><g fill="#ffaa04" fill-opacity="0.302"><g transform="translate(219.884464, 124.816726)"><g><path d="M 10.546875 -9.734375 C 12.222656 -9.335938 13.488281 -8.707031 14.34375 -7.84375 C 15.207031 -6.988281 15.488281 -5.925781 15.1875 -4.65625 C 15.070312 -4.164062 14.863281 -3.640625 14.5625 -3.078125 L 12.9375 -0.25 C 12.894531 -0.207031 12.863281 -0.144531 12.84375 -0.0625 C 12.789062 0.175781 12.863281 0.320312 13.0625 0.375 C 13.226562 0.414062 13.394531 0.367188 13.5625 0.234375 C 13.726562 0.109375 13.832031 0.0507812 13.875 0.0625 C 13.945312 0.0820312 13.992188 0.148438 14.015625 0.265625 C 14.035156 0.378906 14.03125 0.5 14 0.625 C 13.925781 1.03125 13.6875 1.398438 13.28125 1.734375 C 12.875 2.066406 12.375 2.300781 11.78125 2.4375 C 11.195312 2.570312 10.585938 2.566406 9.953125 2.421875 C 9.191406 2.242188 8.578125 1.953125 8.109375 1.546875 C 7.640625 1.140625 7.367188 0.644531 7.296875 0.0625 C 6.734375 0.476562 6.117188 0.757812 5.453125 0.90625 C 4.785156 1.050781 4.109375 1.039062 3.421875 0.875 C 2.648438 0.695312 2.035156 0.394531 1.578125 -0.03125 C 1.128906 -0.457031 0.832031 -0.9375 0.6875 -1.46875 C 0.539062 -2 0.53125 -2.53125 0.65625 -3.0625 C 0.707031 -3.289062 0.78125 -3.507812 0.875 -3.71875 C 1.34375 -4.675781 2.03125 -5.316406 2.9375 -5.640625 C 3.84375 -5.960938 4.832031 -6 5.90625 -5.75 C 7.125 -5.457031 8.269531 -4.984375 9.34375 -4.328125 L 10.234375 -5.625 C 10.578125 -6.207031 10.785156 -6.664062 10.859375 -7 C 10.921875 -7.34375 10.863281 -7.628906 10.6875 -7.859375 C 10.507812 -8.085938 10.195312 -8.253906 9.75 -8.359375 C 9.78125 -8.117188 9.765625 -7.867188 9.703125 -7.609375 C 9.578125 -7.078125 9.265625 -6.660156 8.765625 -6.359375 C 8.265625 -6.054688 7.632812 -5.992188 6.875 -6.171875 C 6.15625 -6.347656 5.628906 -6.640625 5.296875 -7.046875 C 4.972656 -7.453125 4.867188 -7.890625 4.984375 -8.359375 C 5.148438 -9.085938 5.695312 -9.597656 6.625 -9.890625 C 7.5625 -10.179688 8.867188 -10.128906 10.546875 -9.734375 Z M 7.75 -3.375 C 7.34375 -3.46875 6.972656 -3.390625 6.640625 -3.140625 C 6.316406 -2.890625 6.109375 -2.582031 6.015625 -2.21875 C 5.960938 -1.988281 5.972656 -1.785156 6.046875 -1.609375 C 6.128906 -1.441406 6.273438 -1.335938 6.484375 -1.296875 C 6.671875 -1.242188 6.894531 -1.265625 7.15625 -1.359375 C 7.414062 -1.460938 7.632812 -1.65625 7.8125 -1.9375 L 8.578125 -3.125 C 8.335938 -3.21875 8.0625 -3.300781 7.75 -3.375 Z M 7.75 -3.375 "/></g></g></g><g fill="#ffaa04" fill-opacity="0.302"><g transform="translate(233.058115, 127.904069)"><g><path d="M 14.90625 -6.421875 C 15.664062 -6.085938 16.171875 -5.585938 16.421875 -4.921875 C 16.679688 -4.253906 16.660156 -3.578125 16.359375 -2.890625 C 16.242188 -2.628906 16.109375 -2.398438 15.953125 -2.203125 C 15.566406 -1.703125 15.117188 -1.382812 14.609375 -1.25 C 14.097656 -1.113281 13.570312 -1.164062 13.03125 -1.40625 C 12.507812 -1.632812 12.171875 -1.929688 12.015625 -2.296875 C 11.859375 -2.671875 11.765625 -3.109375 11.734375 -3.609375 C 11.734375 -3.878906 11.707031 -4.085938 11.65625 -4.234375 C 11.601562 -4.390625 11.515625 -4.492188 11.390625 -4.546875 C 11.253906 -4.609375 11.109375 -4.609375 10.953125 -4.546875 C 10.804688 -4.484375 10.628906 -4.332031 10.421875 -4.09375 L 6.578125 0.34375 C 6.515625 0.40625 6.457031 0.503906 6.40625 0.640625 C 6.320312 0.816406 6.304688 0.984375 6.359375 1.140625 C 6.410156 1.304688 6.5 1.484375 6.625 1.671875 C 6.75 1.847656 6.820312 1.984375 6.84375 2.078125 C 6.863281 2.171875 6.847656 2.269531 6.796875 2.375 C 6.679688 2.539062 6.519531 2.625 6.3125 2.625 C 6.101562 2.632812 5.796875 2.550781 5.390625 2.375 L 0.125 0.0625 C -0.238281 -0.101562 -0.472656 -0.273438 -0.578125 -0.453125 C -0.679688 -0.640625 -0.671875 -0.820312 -0.546875 -1 C -0.421875 -1.144531 -0.210938 -1.226562 0.078125 -1.25 C 0.335938 -1.257812 0.566406 -1.3125 0.765625 -1.40625 C 0.972656 -1.5 1.195312 -1.691406 1.4375 -1.984375 L 5.875 -7.109375 C 5.9375 -7.171875 5.992188 -7.265625 6.046875 -7.390625 C 6.117188 -7.535156 6.140625 -7.660156 6.109375 -7.765625 C 6.085938 -7.878906 6.035156 -8.03125 5.953125 -8.21875 C 5.859375 -8.382812 5.800781 -8.519531 5.78125 -8.625 C 5.769531 -8.726562 5.8125 -8.84375 5.90625 -8.96875 C 6.132812 -9.25 6.691406 -9.332031 7.578125 -9.21875 C 8.472656 -9.113281 9.34375 -8.875 10.1875 -8.5 C 10.75 -8.25 11.15625 -7.914062 11.40625 -7.5 C 11.664062 -7.09375 11.75 -6.628906 11.65625 -6.109375 C 12.75 -6.796875 13.832031 -6.898438 14.90625 -6.421875 Z M 14.90625 -6.421875 "/></g></g></g><g fill="#1c5d72" fill-opacity="1"><g transform="translate(158.315066, 145.685423)"><g><path d="M 3.671875 -22.75 C 4.128906 -23.144531 4.484375 -23.195312 4.734375 -22.90625 C 4.796875 -22.820312 4.84375 -22.757812 4.875 -22.71875 C 4.9375 -22.570312 4.957031 -22.4375 4.9375 -22.3125 C 4.925781 -22.195312 4.890625 -22.039062 4.828125 -21.84375 C 4.753906 -21.601562 4.710938 -21.375 4.703125 -21.15625 C 4.691406 -20.9375 4.753906 -20.660156 4.890625 -20.328125 L 9.234375 -10.90625 C 9.617188 -10.050781 9.78125 -9.359375 9.71875 -8.828125 C 9.664062 -8.304688 9.382812 -7.832031 8.875 -7.40625 C 8.414062 -7.007812 7.921875 -6.816406 7.390625 -6.828125 C 6.859375 -6.847656 6.226562 -7.03125 5.5 -7.375 L -1.734375 -10.625 L 1.078125 -4.40625 C 1.160156 -4.21875 1.25 -4.066406 1.34375 -3.953125 C 1.476562 -3.804688 1.609375 -3.707031 1.734375 -3.65625 C 1.867188 -3.601562 2.03125 -3.566406 2.21875 -3.546875 C 2.476562 -3.492188 2.648438 -3.414062 2.734375 -3.3125 C 2.796875 -3.238281 2.832031 -3.179688 2.84375 -3.140625 C 2.925781 -2.941406 2.914062 -2.742188 2.8125 -2.546875 C 2.707031 -2.347656 2.492188 -2.113281 2.171875 -1.84375 L 0.3125 -0.265625 C -0.15625 0.128906 -0.515625 0.179688 -0.765625 -0.109375 C -0.828125 -0.191406 -0.875 -0.253906 -0.90625 -0.296875 C -0.96875 -0.441406 -0.988281 -0.578125 -0.96875 -0.703125 C -0.957031 -0.828125 -0.921875 -0.976562 -0.859375 -1.15625 C -0.773438 -1.394531 -0.726562 -1.625 -0.71875 -1.84375 C -0.71875 -2.070312 -0.789062 -2.359375 -0.9375 -2.703125 L -5.28125 -12.234375 L -6.046875 -12.5625 C -6.335938 -12.695312 -6.5625 -12.851562 -6.71875 -13.03125 C -7.007812 -13.375 -6.929688 -13.738281 -6.484375 -14.125 L -3.953125 -16.28125 C -3.585938 -16.59375 -3.238281 -16.75 -2.90625 -16.75 C -2.582031 -16.75 -2.128906 -16.625 -1.546875 -16.375 L 5.21875 -13.484375 L 2.875 -18.609375 C 2.78125 -18.816406 2.691406 -18.972656 2.609375 -19.078125 C 2.484375 -19.210938 2.351562 -19.304688 2.21875 -19.359375 C 2.082031 -19.410156 1.925781 -19.445312 1.75 -19.46875 C 1.5 -19.507812 1.332031 -19.582031 1.25 -19.6875 C 1.1875 -19.757812 1.144531 -19.816406 1.125 -19.859375 C 1.039062 -20.066406 1.050781 -20.265625 1.15625 -20.453125 C 1.257812 -20.648438 1.472656 -20.882812 1.796875 -21.15625 Z M 3.671875 -22.75 "/></g></g></g><g fill="#1c5d72" fill-opacity="1"><g transform="translate(169.581062, 135.840656)"><g><path d="M 2.59375 -18.25 C 4.59375 -19.300781 6.296875 -19.707031 7.703125 -19.46875 C 9.109375 -19.238281 10.195312 -18.382812 10.96875 -16.90625 C 11.351562 -16.175781 11.660156 -15.265625 11.890625 -14.171875 C 12.273438 -12.398438 12.328125 -10.867188 12.046875 -9.578125 C 11.765625 -8.285156 11.125 -7.113281 10.125 -6.0625 C 9.125 -5.019531 7.671875 -4.003906 5.765625 -3.015625 L 0.359375 -0.203125 C 0.078125 -0.0546875 -0.160156 0.0078125 -0.359375 0 C -0.566406 -0.0195312 -0.710938 -0.113281 -0.796875 -0.28125 C -0.835938 -0.351562 -0.863281 -0.445312 -0.875 -0.5625 C -0.90625 -0.707031 -0.894531 -0.820312 -0.84375 -0.90625 C -0.800781 -1 -0.726562 -1.128906 -0.625 -1.296875 C -0.476562 -1.523438 -0.378906 -1.742188 -0.328125 -1.953125 C -0.285156 -2.171875 -0.296875 -2.460938 -0.359375 -2.828125 L -2.40625 -12.671875 C -2.445312 -12.878906 -2.507812 -13.0625 -2.59375 -13.21875 C -2.664062 -13.363281 -2.75 -13.472656 -2.84375 -13.546875 C -2.945312 -13.617188 -3.078125 -13.703125 -3.234375 -13.796875 C -3.429688 -13.898438 -3.5625 -14.003906 -3.625 -14.109375 C -3.644531 -14.148438 -3.671875 -14.234375 -3.703125 -14.359375 C -3.734375 -14.554688 -3.679688 -14.738281 -3.546875 -14.90625 C -3.410156 -15.070312 -3.148438 -15.253906 -2.765625 -15.453125 Z M 6.578125 -11.9375 C 6.265625 -13.363281 5.921875 -14.4375 5.546875 -15.15625 C 5.171875 -15.851562 4.769531 -16.257812 4.34375 -16.375 C 3.914062 -16.488281 3.429688 -16.40625 2.890625 -16.125 L 2.4375 -15.890625 L 4.828125 -4.8125 L 5.296875 -5.0625 C 5.910156 -5.382812 6.359375 -5.78125 6.640625 -6.25 C 6.921875 -6.726562 7.054688 -7.410156 7.046875 -8.296875 C 7.046875 -9.191406 6.890625 -10.40625 6.578125 -11.9375 Z M 6.578125 -11.9375 "/></g></g></g><g fill="#1c5d72" fill-opacity="1"><g transform="translate(183.765533, 128.414784)"><g><path d="M 4.546875 -13.609375 C 6.203125 -14.066406 7.613281 -14.128906 8.78125 -13.796875 C 9.957031 -13.460938 10.71875 -12.664062 11.0625 -11.40625 C 11.195312 -10.925781 11.265625 -10.363281 11.265625 -9.71875 L 11.21875 -6.46875 C 11.207031 -6.40625 11.210938 -6.332031 11.234375 -6.25 C 11.296875 -6.019531 11.421875 -5.929688 11.609375 -5.984375 C 11.773438 -6.035156 11.898438 -6.15625 11.984375 -6.34375 C 12.078125 -6.53125 12.140625 -6.628906 12.171875 -6.640625 C 12.242188 -6.660156 12.320312 -6.625 12.40625 -6.53125 C 12.488281 -6.4375 12.546875 -6.328125 12.578125 -6.203125 C 12.710938 -5.816406 12.675781 -5.375 12.46875 -4.875 C 12.269531 -4.382812 11.945312 -3.9375 11.5 -3.53125 C 11.050781 -3.132812 10.515625 -2.851562 9.890625 -2.6875 C 9.140625 -2.476562 8.460938 -2.429688 7.859375 -2.546875 C 7.253906 -2.671875 6.769531 -2.976562 6.40625 -3.46875 C 6.125 -2.820312 5.722656 -2.273438 5.203125 -1.828125 C 4.691406 -1.390625 4.097656 -1.078125 3.421875 -0.890625 C 2.660156 -0.671875 1.972656 -0.632812 1.359375 -0.78125 C 0.753906 -0.9375 0.265625 -1.210938 -0.109375 -1.609375 C -0.492188 -2.015625 -0.757812 -2.476562 -0.90625 -3 C -0.96875 -3.226562 -1.007812 -3.457031 -1.03125 -3.6875 C -1.070312 -4.738281 -0.773438 -5.625 -0.140625 -6.34375 C 0.492188 -7.070312 1.34375 -7.585938 2.40625 -7.890625 C 3.601562 -8.222656 4.832031 -8.359375 6.09375 -8.296875 L 6.25 -9.875 C 6.257812 -10.53125 6.21875 -11.023438 6.125 -11.359375 C 6.007812 -11.703125 5.820312 -11.929688 5.5625 -12.046875 C 5.300781 -12.160156 4.945312 -12.160156 4.5 -12.046875 C 4.644531 -11.835938 4.753906 -11.601562 4.828125 -11.34375 C 4.972656 -10.8125 4.898438 -10.289062 4.609375 -9.78125 C 4.316406 -9.28125 3.796875 -8.925781 3.046875 -8.71875 C 2.328125 -8.519531 1.722656 -8.519531 1.234375 -8.71875 C 0.753906 -8.925781 0.453125 -9.257812 0.328125 -9.71875 C 0.128906 -10.445312 0.363281 -11.160156 1.03125 -11.859375 C 1.707031 -12.554688 2.878906 -13.140625 4.546875 -13.609375 Z M 5.15625 -6.703125 C 4.757812 -6.585938 4.476562 -6.335938 4.3125 -5.953125 C 4.144531 -5.578125 4.109375 -5.210938 4.203125 -4.859375 C 4.265625 -4.628906 4.367188 -4.457031 4.515625 -4.34375 C 4.671875 -4.226562 4.847656 -4.203125 5.046875 -4.265625 C 5.234375 -4.316406 5.421875 -4.445312 5.609375 -4.65625 C 5.796875 -4.863281 5.894531 -5.132812 5.90625 -5.46875 L 6 -6.875 C 5.738281 -6.84375 5.457031 -6.785156 5.15625 -6.703125 Z M 5.15625 -6.703125 "/></g></g></g><g fill="#1c5d72" fill-opacity="1"><g transform="translate(196.301293, 124.152021)"><g><path d="M 21.3125 -3.515625 C 21.289062 -3.453125 21.285156 -3.359375 21.296875 -3.234375 C 21.296875 -3.128906 21.320312 -3.050781 21.375 -3 C 21.425781 -2.945312 21.492188 -2.921875 21.578125 -2.921875 C 21.765625 -2.921875 21.914062 -3 22.03125 -3.15625 C 22.15625 -3.320312 22.238281 -3.40625 22.28125 -3.40625 C 22.363281 -3.40625 22.425781 -3.351562 22.46875 -3.25 C 22.519531 -3.15625 22.546875 -3.039062 22.546875 -2.90625 C 22.578125 -2.476562 22.441406 -2.050781 22.140625 -1.625 C 21.847656 -1.207031 21.414062 -0.863281 20.84375 -0.59375 C 20.269531 -0.320312 19.582031 -0.175781 18.78125 -0.15625 C 17.789062 -0.132812 17 -0.347656 16.40625 -0.796875 C 15.8125 -1.242188 15.5 -1.847656 15.46875 -2.609375 C 15.457031 -3.160156 15.582031 -3.789062 15.84375 -4.5 L 17.015625 -7.75 C 17.078125 -7.945312 17.109375 -8.101562 17.109375 -8.21875 C 17.109375 -8.414062 17.039062 -8.566406 16.90625 -8.671875 C 16.78125 -8.785156 16.625 -8.84375 16.4375 -8.84375 C 16.1875 -8.832031 15.925781 -8.710938 15.65625 -8.484375 C 15.394531 -8.253906 15.164062 -7.898438 14.96875 -7.421875 L 13.8125 -3.375 C 13.78125 -3.3125 13.769531 -3.21875 13.78125 -3.09375 C 13.78125 -2.988281 13.804688 -2.90625 13.859375 -2.84375 C 13.910156 -2.789062 13.984375 -2.765625 14.078125 -2.765625 C 14.253906 -2.773438 14.398438 -2.859375 14.515625 -3.015625 C 14.640625 -3.171875 14.726562 -3.25 14.78125 -3.25 C 14.851562 -3.25 14.914062 -3.203125 14.96875 -3.109375 C 15.019531 -3.015625 15.046875 -2.898438 15.046875 -2.765625 C 15.066406 -2.335938 14.925781 -1.910156 14.625 -1.484375 C 14.332031 -1.066406 13.898438 -0.71875 13.328125 -0.4375 C 12.765625 -0.164062 12.078125 -0.0234375 11.265625 -0.015625 C 10.273438 0.00390625 9.484375 -0.207031 8.890625 -0.65625 C 8.304688 -1.101562 7.992188 -1.707031 7.953125 -2.46875 C 7.941406 -3.019531 8.066406 -3.644531 8.328125 -4.34375 L 9.5 -7.609375 C 9.570312 -7.804688 9.609375 -7.960938 9.609375 -8.078125 C 9.609375 -8.273438 9.539062 -8.425781 9.40625 -8.53125 C 9.269531 -8.644531 9.113281 -8.695312 8.9375 -8.6875 C 8.675781 -8.6875 8.414062 -8.578125 8.15625 -8.359375 C 7.894531 -8.140625 7.675781 -7.785156 7.5 -7.296875 L 6.109375 -2.46875 C 6.054688 -2.300781 6.035156 -2.140625 6.046875 -1.984375 C 6.046875 -1.804688 6.082031 -1.660156 6.15625 -1.546875 C 6.226562 -1.441406 6.335938 -1.328125 6.484375 -1.203125 C 6.585938 -1.109375 6.660156 -1.023438 6.703125 -0.953125 C 6.753906 -0.878906 6.765625 -0.789062 6.734375 -0.6875 C 6.679688 -0.488281 6.539062 -0.34375 6.3125 -0.25 C 6.09375 -0.15625 5.742188 -0.109375 5.265625 -0.109375 L 0.140625 0 C -0.253906 0.0078125 -0.535156 -0.046875 -0.703125 -0.171875 C -0.878906 -0.296875 -0.953125 -0.46875 -0.921875 -0.6875 C -0.859375 -0.863281 -0.695312 -1.019531 -0.4375 -1.15625 C -0.226562 -1.28125 -0.0507812 -1.425781 0.09375 -1.59375 C 0.25 -1.757812 0.375 -2.03125 0.46875 -2.40625 L 2.34375 -8.921875 C 2.375 -9.003906 2.390625 -9.113281 2.390625 -9.25 C 2.378906 -9.40625 2.335938 -9.53125 2.265625 -9.625 C 2.203125 -9.71875 2.097656 -9.832031 1.953125 -9.96875 C 1.796875 -10.070312 1.6875 -10.164062 1.625 -10.25 C 1.5625 -10.34375 1.550781 -10.46875 1.59375 -10.625 C 1.675781 -10.96875 2.140625 -11.28125 2.984375 -11.5625 C 3.835938 -11.84375 4.726562 -11.988281 5.65625 -12 C 6.394531 -12.019531 6.984375 -11.832031 7.421875 -11.4375 C 7.859375 -11.039062 8.070312 -10.488281 8.0625 -9.78125 C 8.664062 -10.644531 9.300781 -11.25 9.96875 -11.59375 C 10.644531 -11.9375 11.378906 -12.113281 12.171875 -12.125 C 13.046875 -12.144531 13.757812 -11.910156 14.3125 -11.421875 C 14.875 -10.929688 15.195312 -10.28125 15.28125 -9.46875 C 15.894531 -10.5 16.5625 -11.21875 17.28125 -11.625 C 18.007812 -12.039062 18.8125 -12.257812 19.6875 -12.28125 C 20.601562 -12.289062 21.347656 -12.023438 21.921875 -11.484375 C 22.492188 -10.941406 22.789062 -10.226562 22.8125 -9.34375 C 22.820312 -8.875 22.753906 -8.414062 22.609375 -7.96875 Z M 21.3125 -3.515625 "/></g></g></g><g fill="#1c5d72" fill-opacity="1"><g transform="translate(218.242271, 124.082312)"><g><path d="M 10.546875 -9.734375 C 12.222656 -9.335938 13.488281 -8.707031 14.34375 -7.84375 C 15.207031 -6.988281 15.488281 -5.925781 15.1875 -4.65625 C 15.070312 -4.164062 14.863281 -3.640625 14.5625 -3.078125 L 12.9375 -0.25 C 12.894531 -0.207031 12.863281 -0.144531 12.84375 -0.0625 C 12.789062 0.175781 12.863281 0.320312 13.0625 0.375 C 13.226562 0.414062 13.394531 0.367188 13.5625 0.234375 C 13.726562 0.109375 13.832031 0.0507812 13.875 0.0625 C 13.945312 0.0820312 13.992188 0.148438 14.015625 0.265625 C 14.035156 0.378906 14.03125 0.5 14 0.625 C 13.925781 1.03125 13.6875 1.398438 13.28125 1.734375 C 12.875 2.066406 12.375 2.300781 11.78125 2.4375 C 11.195312 2.570312 10.585938 2.566406 9.953125 2.421875 C 9.191406 2.242188 8.578125 1.953125 8.109375 1.546875 C 7.640625 1.140625 7.367188 0.644531 7.296875 0.0625 C 6.734375 0.476562 6.117188 0.757812 5.453125 0.90625 C 4.785156 1.050781 4.109375 1.039062 3.421875 0.875 C 2.648438 0.695312 2.035156 0.394531 1.578125 -0.03125 C 1.128906 -0.457031 0.832031 -0.9375 0.6875 -1.46875 C 0.539062 -2 0.53125 -2.53125 0.65625 -3.0625 C 0.707031 -3.289062 0.78125 -3.507812 0.875 -3.71875 C 1.34375 -4.675781 2.03125 -5.316406 2.9375 -5.640625 C 3.84375 -5.960938 4.832031 -6 5.90625 -5.75 C 7.125 -5.457031 8.269531 -4.984375 9.34375 -4.328125 L 10.234375 -5.625 C 10.578125 -6.207031 10.785156 -6.664062 10.859375 -7 C 10.921875 -7.34375 10.863281 -7.628906 10.6875 -7.859375 C 10.507812 -8.085938 10.195312 -8.253906 9.75 -8.359375 C 9.78125 -8.117188 9.765625 -7.867188 9.703125 -7.609375 C 9.578125 -7.078125 9.265625 -6.660156 8.765625 -6.359375 C 8.265625 -6.054688 7.632812 -5.992188 6.875 -6.171875 C 6.15625 -6.347656 5.628906 -6.640625 5.296875 -7.046875 C 4.972656 -7.453125 4.867188 -7.890625 4.984375 -8.359375 C 5.148438 -9.085938 5.695312 -9.597656 6.625 -9.890625 C 7.5625 -10.179688 8.867188 -10.128906 10.546875 -9.734375 Z M 7.75 -3.375 C 7.34375 -3.46875 6.972656 -3.390625 6.640625 -3.140625 C 6.316406 -2.890625 6.109375 -2.582031 6.015625 -2.21875 C 5.960938 -1.988281 5.972656 -1.785156 6.046875 -1.609375 C 6.128906 -1.441406 6.273438 -1.335938 6.484375 -1.296875 C 6.671875 -1.242188 6.894531 -1.265625 7.15625 -1.359375 C 7.414062 -1.460938 7.632812 -1.65625 7.8125 -1.9375 L 8.578125 -3.125 C 8.335938 -3.21875 8.0625 -3.300781 7.75 -3.375 Z M 7.75 -3.375 "/></g></g></g><g fill="#1c5d72" fill-opacity="1"><g transform="translate(231.415922, 127.169714)"><g><path d="M 14.90625 -6.421875 C 15.664062 -6.085938 16.171875 -5.585938 16.421875 -4.921875 C 16.679688 -4.253906 16.660156 -3.578125 16.359375 -2.890625 C 16.242188 -2.628906 16.109375 -2.398438 15.953125 -2.203125 C 15.566406 -1.703125 15.117188 -1.382812 14.609375 -1.25 C 14.097656 -1.113281 13.570312 -1.164062 13.03125 -1.40625 C 12.507812 -1.632812 12.171875 -1.929688 12.015625 -2.296875 C 11.859375 -2.671875 11.765625 -3.109375 11.734375 -3.609375 C 11.734375 -3.878906 11.707031 -4.085938 11.65625 -4.234375 C 11.601562 -4.390625 11.515625 -4.492188 11.390625 -4.546875 C 11.253906 -4.609375 11.109375 -4.609375 10.953125 -4.546875 C 10.804688 -4.484375 10.628906 -4.332031 10.421875 -4.09375 L 6.578125 0.34375 C 6.515625 0.40625 6.457031 0.503906 6.40625 0.640625 C 6.320312 0.816406 6.304688 0.984375 6.359375 1.140625 C 6.410156 1.304688 6.5 1.484375 6.625 1.671875 C 6.75 1.847656 6.820312 1.984375 6.84375 2.078125 C 6.863281 2.171875 6.847656 2.269531 6.796875 2.375 C 6.679688 2.539062 6.519531 2.625 6.3125 2.625 C 6.101562 2.632812 5.796875 2.550781 5.390625 2.375 L 0.125 0.0625 C -0.238281 -0.101562 -0.472656 -0.273438 -0.578125 -0.453125 C -0.679688 -0.640625 -0.671875 -0.820312 -0.546875 -1 C -0.421875 -1.144531 -0.210938 -1.226562 0.078125 -1.25 C 0.335938 -1.257812 0.566406 -1.3125 0.765625 -1.40625 C 0.972656 -1.5 1.195312 -1.691406 1.4375 -1.984375 L 5.875 -7.109375 C 5.9375 -7.171875 5.992188 -7.265625 6.046875 -7.390625 C 6.117188 -7.535156 6.140625 -7.660156 6.109375 -7.765625 C 6.085938 -7.878906 6.035156 -8.03125 5.953125 -8.21875 C 5.859375 -8.382812 5.800781 -8.519531 5.78125 -8.625 C 5.769531 -8.726562 5.8125 -8.84375 5.90625 -8.96875 C 6.132812 -9.25 6.691406 -9.332031 7.578125 -9.21875 C 8.472656 -9.113281 9.34375 -8.875 10.1875 -8.5 C 10.75 -8.25 11.15625 -7.914062 11.40625 -7.5 C 11.664062 -7.09375 11.75 -6.628906 11.65625 -6.109375 C 12.75 -6.796875 13.832031 -6.898438 14.90625 -6.421875 Z M 14.90625 -6.421875 "/></g></g></g><g fill="#ff1616" fill-opacity="1"><g transform="translate(127.494175, 167.110417)"><g><path d="M 5.996094 1.53125 L 1.441406 0.664062 C 1.316406 0.640625 1.195312 0.667969 1.089844 0.738281 L -0.15625 1.640625 C -0.265625 1.738281 -0.347656 1.828125 -0.378906 1.988281 L -1.0625 5.578125 C -1.09375 5.742188 -1.050781 5.867188 -0.984375 5.984375 L -0.15625 7.28125 C -0.0859375 7.398438 0.0195312 7.457031 0.144531 7.480469 L 4.699219 8.347656 C 4.796875 8.367188 4.902344 8.296875 4.921875 8.199219 L 5.082031 7.359375 C 5.101562 7.257812 5.027344 7.15625 4.929688 7.136719 L 0.789062 6.347656 C 0.699219 6.332031 0.640625 6.304688 0.589844 6.21875 L 0.246094 5.660156 C 0.226562 5.617188 0.222656 5.578125 0.230469 5.527344 L 0.804688 2.511719 C 0.816406 2.449219 0.835938 2.414062 0.867188 2.394531 L 1.394531 2.003906 C 1.46875 1.953125 1.535156 1.9375 1.625 1.957031 L 5.765625 2.746094 C 5.867188 2.761719 5.96875 2.691406 5.988281 2.59375 L 6.148438 1.753906 C 6.167969 1.652344 6.097656 1.550781 5.996094 1.53125 Z M 5.996094 1.53125 "/></g></g></g><g fill="#ff1616" fill-opacity="1"><g transform="translate(125.67586, 177.797772)"><g><path d="M 0.171875 0.390625 C 0.0703125 0.386719 -0.0234375 0.46875 -0.03125 0.574219 L -0.0742188 1.425781 C -0.078125 1.527344 0.00390625 1.621094 0.105469 1.625 L 5.015625 1.882812 L 4.835938 5.304688 C 4.832031 5.355469 4.820312 5.390625 4.792969 5.429688 L 3.960938 6.214844 C 3.890625 6.273438 3.828125 6.296875 3.738281 6.292969 L -0.128906 6.089844 C -0.230469 6.082031 -0.324219 6.167969 -0.328125 6.269531 L -0.375 7.121094 C -0.378906 7.222656 -0.292969 7.316406 -0.191406 7.324219 L 4.03125 7.542969 C 4.15625 7.550781 4.273438 7.507812 4.367188 7.421875 L 5.90625 6.0625 C 6.011719 5.964844 6.070312 5.851562 6.078125 5.6875 L 6.320312 1.109375 C 6.328125 0.894531 6.171875 0.707031 5.957031 0.695312 Z M 0.171875 0.390625 "/></g></g></g><g fill="#ff1616" fill-opacity="1"><g transform="translate(125.402283, 188.466679)"><g><path d="M 0.0273438 0.574219 L 0.0703125 1.527344 C 0.0742188 1.628906 0.167969 1.714844 0.269531 1.707031 L 6.25 1.429688 C 6.351562 1.425781 6.4375 1.332031 6.433594 1.230469 L 6.386719 0.277344 C 6.382812 0.175781 6.289062 0.0898438 6.1875 0.09375 L 0.207031 0.371094 C 0.105469 0.378906 0.0234375 0.472656 0.0273438 0.574219 Z M 0.0273438 0.574219 "/></g></g></g><g fill="#ff1616" fill-opacity="1"><g transform="translate(125.644759, 193.54576)"><g><path d="M 7.367188 6.316406 L 7.242188 5.472656 C 7.226562 5.371094 7.125 5.296875 7.027344 5.3125 L 3.988281 5.757812 C 3.902344 5.773438 3.847656 5.753906 3.761719 5.703125 L 2.0625 4.640625 L 1.988281 4.574219 C 1.957031 4.539062 1.9375 4.503906 1.929688 4.453125 L 1.714844 2.992188 C 1.707031 2.929688 1.714844 2.890625 1.734375 2.859375 L 1.785156 2.773438 L 3.109375 1.265625 C 3.175781 1.191406 3.222656 1.160156 3.308594 1.148438 L 6.347656 0.699219 C 6.449219 0.683594 6.523438 0.582031 6.507812 0.484375 L 6.382812 -0.359375 C 6.367188 -0.460938 6.265625 -0.539062 6.167969 -0.523438 L 2.738281 -0.015625 C 2.613281 0 2.519531 0.0664062 2.433594 0.167969 L 0.511719 2.421875 C 0.425781 2.539062 0.390625 2.660156 0.414062 2.824219 L 0.734375 4.988281 C 0.757812 5.152344 0.828125 5.273438 0.941406 5.34375 L 3.429688 6.949219 C 3.542969 7.019531 3.652344 7.058594 3.777344 7.039062 L 7.207031 6.535156 C 7.308594 6.519531 7.382812 6.417969 7.367188 6.316406 Z M 7.367188 6.316406 "/></g></g></g><g fill="#ff1616" fill-opacity="1"><g transform="translate(127.472816, 204.42784)"><g><path d="M 4.945312 0.449219 L 5.425781 0.734375 C 5.519531 0.785156 5.558594 0.828125 5.574219 0.886719 L 6.855469 5.304688 C 6.886719 5.402344 6.996094 5.460938 7.09375 5.433594 L 7.9375 5.1875 C 8.035156 5.160156 8.097656 5.050781 8.066406 4.953125 L 6.667969 0.132812 C 6.625 -0.015625 6.5625 -0.101562 6.417969 -0.179688 L 5.078125 -0.917969 C 4.984375 -0.96875 4.839844 -1.007812 4.71875 -0.972656 L 1.625 -0.0742188 C 1.464844 -0.0273438 1.367188 0.0546875 1.296875 0.179688 L 0.585938 1.515625 C 0.523438 1.625 0.507812 1.75 0.542969 1.871094 L 1.953125 6.726562 C 1.980469 6.824219 2.089844 6.886719 2.1875 6.855469 L 3.007812 6.621094 C 3.105469 6.589844 3.167969 6.480469 3.140625 6.382812 L 1.859375 1.980469 C 1.835938 1.894531 1.84375 1.824219 1.886719 1.746094 L 2.226562 1.183594 C 2.257812 1.148438 2.289062 1.125 2.339844 1.113281 L 2.972656 0.925781 L 4.273438 5.402344 C 4.300781 5.5 4.414062 5.5625 4.511719 5.535156 L 5.355469 5.289062 C 5.453125 5.261719 5.511719 5.148438 5.484375 5.050781 L 4.183594 0.574219 L 4.710938 0.421875 C 4.796875 0.398438 4.863281 0.40625 4.945312 0.449219 Z M 4.945312 0.449219 "/></g></g></g><g fill="#ff1616" fill-opacity="1"><g transform="translate(130.655904, 214.659281)"><g><path d="M 7.660156 4.648438 L 8.214844 3.144531 C 8.261719 3.027344 8.261719 2.902344 8.210938 2.785156 L 6.050781 -2.066406 C 6.007812 -2.160156 5.890625 -2.203125 5.796875 -2.164062 L 0.328125 0.269531 C 0.238281 0.3125 0.191406 0.429688 0.234375 0.523438 L 0.589844 1.328125 C 0.632812 1.417969 0.75 1.464844 0.84375 1.421875 L 1.949219 0.929688 L 3.351562 4.085938 L 2.496094 5.328125 C 2.449219 5.40625 2.4375 5.480469 2.46875 5.550781 L 2.859375 6.421875 C 2.921875 6.5625 3.078125 6.574219 3.164062 6.453125 L 4.082031 5.097656 L 5.460938 5.628906 C 5.5625 5.667969 5.707031 5.683594 5.824219 5.632812 L 7.371094 4.945312 C 7.523438 4.875 7.605469 4.785156 7.660156 4.648438 Z M 5.355469 -0.585938 L 6.914062 2.917969 C 6.953125 2.996094 6.953125 3.066406 6.921875 3.148438 L 6.707031 3.664062 L 6.660156 3.753906 C 6.636719 3.792969 6.605469 3.820312 6.5625 3.839844 L 5.582031 4.277344 C 5.5 4.3125 5.433594 4.316406 5.347656 4.28125 L 4.835938 4.066406 C 4.734375 4.027344 4.691406 3.992188 4.664062 3.933594 L 3.101562 0.417969 Z M 5.355469 -0.585938 "/></g></g></g><g fill="#ff1616" fill-opacity="1"><g transform="translate(135.34366, 224.65271)"><g><path d="M 3.578125 -1.773438 C 3.4375 -1.683594 3.367188 -1.582031 3.332031 -1.441406 L 3.066406 -0.226562 C 3.050781 -0.109375 3.054688 0.0195312 3.125 0.128906 L 5.121094 3.34375 C 5.167969 3.417969 5.179688 3.484375 5.15625 3.574219 L 5.0625 3.855469 C 5.042969 3.898438 5.019531 3.929688 4.976562 3.957031 L 4.714844 4.117188 C 4.640625 4.164062 4.574219 4.175781 4.484375 4.15625 L 4.121094 4.050781 C 4.027344 4.019531 3.96875 3.996094 3.933594 3.945312 L 1.488281 0.00390625 C 1.433594 -0.0820312 1.3125 -0.109375 1.222656 -0.0546875 L 0.476562 0.40625 C 0.390625 0.460938 0.363281 0.585938 0.417969 0.671875 L 3.050781 4.910156 C 3.132812 5.042969 3.21875 5.109375 3.375 5.144531 L 4.777344 5.472656 C 4.882812 5.496094 5.03125 5.496094 5.140625 5.429688 L 6.039062 4.871094 C 6.179688 4.78125 6.261719 4.671875 6.28125 4.539062 L 6.507812 3.5 C 6.523438 3.382812 6.519531 3.253906 6.449219 3.144531 L 4.386719 -0.175781 C 4.339844 -0.253906 4.328125 -0.320312 4.347656 -0.40625 L 4.445312 -0.691406 C 4.460938 -0.734375 4.488281 -0.765625 4.53125 -0.789062 L 4.757812 -0.933594 C 4.835938 -0.980469 4.902344 -0.992188 4.988281 -0.96875 L 5.355469 -0.867188 C 5.449219 -0.835938 5.507812 -0.8125 5.542969 -0.757812 L 7.917969 3.070312 C 7.972656 3.160156 8.097656 3.1875 8.183594 3.132812 L 8.929688 2.667969 C 9.015625 2.617188 9.042969 2.492188 8.992188 2.40625 L 6.425781 -1.726562 C 6.34375 -1.855469 6.257812 -1.921875 6.097656 -1.960938 L 4.695312 -2.289062 C 4.589844 -2.3125 4.441406 -2.308594 4.335938 -2.242188 Z M 3.578125 -1.773438 "/></g></g></g><g fill="#ff1616" fill-opacity="1"><g transform="translate(141.227331, 233.599636)"><g/></g></g><g fill="#ff1616" fill-opacity="1"><g transform="translate(145.152271, 238.559325)"><g><path d="M 8.65625 1.597656 L 8.664062 -0.00390625 C 8.667969 -0.128906 8.625 -0.246094 8.535156 -0.339844 L 4.972656 -4.019531 C 4.902344 -4.089844 4.777344 -4.09375 4.703125 -4.023438 L 0.402344 0.140625 C 0.328125 0.210938 0.328125 0.339844 0.398438 0.410156 L 3.933594 4.0625 C 4.039062 4.171875 4.136719 4.21875 4.300781 4.222656 L 5.921875 4.246094 C 6.027344 4.25 6.171875 4.214844 6.265625 4.128906 L 8.488281 1.972656 C 8.605469 1.859375 8.652344 1.742188 8.65625 1.597656 Z M 5.574219 2.9375 C 5.507812 3 5.445312 3.023438 5.355469 3.023438 L 4.796875 2.996094 C 4.6875 2.992188 4.636719 2.976562 4.589844 2.929688 L 2.039062 0.292969 L 4.820312 -2.398438 L 7.363281 0.226562 C 7.425781 0.292969 7.453125 0.355469 7.449219 0.445312 L 7.421875 1.003906 L 7.414062 1.101562 C 7.402344 1.144531 7.382812 1.183594 7.347656 1.21875 Z M 5.574219 2.9375 "/></g></g></g><g fill="#ff1616" fill-opacity="1"><g transform="translate(152.844149, 246.193096)"><g><path d="M 4.28125 -2.515625 L 4.835938 -2.5625 C 4.945312 -2.578125 5 -2.566406 5.050781 -2.527344 L 8.664062 0.316406 C 8.742188 0.378906 8.867188 0.367188 8.929688 0.285156 L 9.472656 -0.40625 C 9.539062 -0.484375 9.523438 -0.609375 9.441406 -0.671875 L 5.5 -3.777344 C 5.378906 -3.871094 5.273438 -3.902344 5.113281 -3.882812 L 3.59375 -3.703125 C 3.488281 -3.691406 3.347656 -3.636719 3.269531 -3.539062 L 1.277344 -1.003906 C 1.175781 -0.875 1.144531 -0.753906 1.160156 -0.609375 L 1.359375 0.890625 C 1.371094 1.015625 1.429688 1.125 1.53125 1.203125 L 5.503906 4.332031 C 5.585938 4.394531 5.710938 4.378906 5.773438 4.300781 L 6.300781 3.628906 C 6.363281 3.546875 6.347656 3.421875 6.269531 3.359375 L 2.664062 0.523438 C 2.59375 0.46875 2.5625 0.410156 2.550781 0.320312 L 2.5 -0.335938 C 2.503906 -0.378906 2.515625 -0.417969 2.546875 -0.457031 L 2.957031 -0.980469 L 6.621094 1.902344 C 6.703125 1.964844 6.828125 1.953125 6.890625 1.871094 L 7.433594 1.179688 C 7.496094 1.101562 7.480469 0.976562 7.402344 0.914062 L 3.738281 -1.96875 L 4.074219 -2.398438 C 4.132812 -2.46875 4.191406 -2.503906 4.28125 -2.515625 Z M 4.28125 -2.515625 "/></g></g></g><g fill="#ff1616" fill-opacity="1"><g transform="translate(161.322221, 252.517775)"><g/></g></g><g fill="#ff1616" fill-opacity="1"><g transform="translate(166.69618, 255.830681)"><g><path d="M 3.066406 -5.375 L 1.0625 -1.292969 C 1.003906 -1.179688 1.019531 -1.03125 1.054688 -0.929688 L 1.578125 0.605469 C 1.628906 0.757812 1.703125 0.835938 1.839844 0.902344 L 6.058594 2.976562 C 6.148438 3.019531 6.269531 2.980469 6.3125 2.886719 L 6.703125 2.101562 C 6.746094 2.007812 6.707031 1.890625 6.613281 1.84375 L 2.773438 -0.0429688 C 2.714844 -0.0703125 2.683594 -0.117188 2.648438 -0.21875 L 2.421875 -0.824219 C 2.390625 -0.910156 2.398438 -0.980469 2.4375 -1.058594 L 4.265625 -4.785156 C 4.3125 -4.878906 4.269531 -4.996094 4.179688 -5.042969 L 3.320312 -5.464844 C 3.230469 -5.507812 3.109375 -5.46875 3.066406 -5.375 Z M 3.066406 -5.375 "/></g></g></g><g fill="#ff1616" fill-opacity="1"><g transform="translate(176.038423, 260.121132)"><g><path d="M 2.558594 -5.160156 L 3.449219 -4.824219 C 3.546875 -4.789062 3.660156 -4.839844 3.695312 -4.933594 L 4.234375 -6.367188 C 4.273438 -6.460938 4.21875 -6.574219 4.125 -6.613281 L 3.230469 -6.949219 C 3.136719 -6.984375 3.019531 -6.933594 2.984375 -6.835938 L 2.445312 -5.40625 C 2.410156 -5.3125 2.460938 -5.195312 2.558594 -5.160156 Z M 2.558594 -5.160156 "/></g></g></g><g fill="#ff1616" fill-opacity="1"><g transform="translate(180.796094, 261.904634)"><g><path d="M 8.25 -3.039062 L 7.464844 -4.433594 C 7.390625 -4.558594 7.292969 -4.640625 7.132812 -4.679688 L 3.601562 -5.628906 C 3.445312 -5.671875 3.320312 -5.652344 3.195312 -5.578125 L 1.816406 -4.761719 C 1.707031 -4.699219 1.628906 -4.601562 1.59375 -4.476562 L 0.417969 -0.0859375 C 0.390625 0.0117188 0.457031 0.121094 0.554688 0.148438 L 1.378906 0.367188 C 1.476562 0.394531 1.585938 0.332031 1.613281 0.234375 L 2.101562 -1.597656 L 6.421875 -0.441406 L 5.929688 1.390625 C 5.902344 1.488281 5.964844 1.597656 6.066406 1.625 L 6.890625 1.84375 C 6.988281 1.871094 7.097656 1.808594 7.125 1.710938 L 8.300781 -2.683594 C 8.332031 -2.804688 8.3125 -2.929688 8.25 -3.039062 Z M 2.390625 -2.667969 L 2.703125 -3.839844 C 2.726562 -3.925781 2.765625 -3.980469 2.84375 -4.023438 L 3.335938 -4.289062 L 3.425781 -4.328125 C 3.457031 -4.347656 3.5 -4.351562 3.558594 -4.332031 L 6.523438 -3.539062 C 6.574219 -3.527344 6.609375 -3.503906 6.636719 -3.46875 L 6.695312 -3.386719 L 6.992188 -2.914062 C 7.035156 -2.835938 7.042969 -2.769531 7.019531 -2.683594 L 6.707031 -1.511719 Z M 2.390625 -2.667969 "/></g></g></g><g fill="#ff1616" fill-opacity="1"><g transform="translate(191.321138, 264.502573)"><g><path d="M 1.15625 -6.078125 L 0.574219 -1.480469 C 0.554688 -1.355469 0.59375 -1.234375 0.667969 -1.136719 L 1.648438 0.0546875 C 1.75 0.15625 1.84375 0.234375 2.007812 0.253906 L 5.636719 0.714844 C 5.800781 0.734375 5.921875 0.683594 6.035156 0.609375 L 7.277344 -0.296875 C 7.390625 -0.375 7.441406 -0.484375 7.457031 -0.609375 L 8.039062 -5.207031 C 8.054688 -5.308594 7.976562 -5.410156 7.875 -5.421875 L 7.027344 -5.527344 C 6.925781 -5.542969 6.828125 -5.464844 6.816406 -5.363281 L 6.285156 -1.179688 C 6.273438 -1.09375 6.253906 -1.03125 6.171875 -0.976562 L 5.632812 -0.597656 C 5.59375 -0.574219 5.554688 -0.566406 5.503906 -0.574219 L 2.457031 -0.960938 C 2.394531 -0.96875 2.359375 -0.984375 2.335938 -1.015625 L 1.914062 -1.515625 C 1.855469 -1.589844 1.839844 -1.652344 1.851562 -1.742188 L 2.378906 -5.925781 C 2.394531 -6.027344 2.316406 -6.125 2.214844 -6.136719 L 1.367188 -6.246094 C 1.265625 -6.257812 1.167969 -6.179688 1.15625 -6.078125 Z M 1.15625 -6.078125 "/></g></g></g><g fill="#ff1616" fill-opacity="1"><g transform="translate(202.13948, 265.689746)"><g><path d="M 8.347656 -6.527344 L 0.453125 -6.378906 C 0.351562 -6.375 0.265625 -6.285156 0.265625 -6.183594 L 0.285156 -5.226562 C 0.285156 -5.125 0.375 -5.039062 0.476562 -5.039062 L 3.765625 -5.101562 L 3.855469 -0.261719 C 3.855469 -0.160156 3.949219 -0.0742188 4.050781 -0.0742188 L 5.003906 -0.09375 C 5.105469 -0.0976562 5.195312 -0.1875 5.191406 -0.289062 L 5.101562 -5.128906 L 8.375 -5.1875 C 8.476562 -5.191406 8.5625 -5.28125 8.5625 -5.382812 L 8.542969 -6.339844 C 8.539062 -6.441406 8.449219 -6.527344 8.347656 -6.527344 Z M 8.347656 -6.527344 "/></g></g></g><g fill="#ff1616" fill-opacity="1"><g transform="translate(214.344017, 265.180581)"><g><path d="M 0.113281 -1.671875 C 0.132812 -1.546875 0.203125 -1.441406 0.304688 -1.367188 L 1.597656 -0.417969 C 1.714844 -0.335938 1.835938 -0.300781 1.996094 -0.328125 L 5.605469 -0.925781 C 5.769531 -0.953125 5.871094 -1.019531 5.957031 -1.136719 L 6.875 -2.449219 C 6.949219 -2.554688 6.980469 -2.675781 6.960938 -2.800781 L 6.453125 -5.867188 C 6.433594 -5.992188 6.363281 -6.097656 6.261719 -6.171875 L 4.96875 -7.117188 C 4.851562 -7.203125 4.730469 -7.234375 4.566406 -7.207031 L 0.960938 -6.613281 C 0.796875 -6.585938 0.695312 -6.515625 0.609375 -6.398438 L -0.308594 -5.085938 C -0.382812 -4.984375 -0.414062 -4.863281 -0.394531 -4.738281 Z M 1.277344 -2.199219 L 0.878906 -4.609375 C 0.863281 -4.699219 0.878906 -4.765625 0.929688 -4.839844 L 1.269531 -5.28125 L 1.335938 -5.359375 C 1.359375 -5.386719 1.394531 -5.40625 1.457031 -5.417969 L 4.484375 -5.914062 C 4.535156 -5.925781 4.574219 -5.917969 4.617188 -5.898438 L 4.703125 -5.847656 L 5.167969 -5.539062 C 5.238281 -5.484375 5.273438 -5.425781 5.289062 -5.339844 L 5.6875 -2.925781 C 5.703125 -2.835938 5.6875 -2.769531 5.632812 -2.699219 L 5.292969 -2.253906 L 5.230469 -2.179688 C 5.195312 -2.148438 5.160156 -2.128906 5.109375 -2.121094 L 2.082031 -1.621094 C 2.019531 -1.609375 1.980469 -1.617188 1.949219 -1.636719 L 1.863281 -1.6875 L 1.398438 -2 C 1.328125 -2.050781 1.292969 -2.109375 1.277344 -2.199219 Z M 1.277344 -2.199219 "/></g></g></g><g fill="#ff1616" fill-opacity="1"><g transform="translate(225.225869, 263.35074)"><g><path d="M 10.628906 -8.972656 L 9.03125 -9.757812 C 8.902344 -9.820312 8.777344 -9.832031 8.621094 -9.777344 L 5.507812 -8.683594 C 5.351562 -8.628906 5.25 -8.539062 5.199219 -8.414062 L 4.738281 -7.414062 L 3.742188 -7.902344 C 3.625 -7.96875 3.488281 -7.976562 3.332031 -7.921875 L -0.078125 -6.722656 C -0.234375 -6.667969 -0.328125 -6.582031 -0.390625 -6.449219 L -1.144531 -4.835938 C -1.1875 -4.726562 -1.210938 -4.597656 -1.167969 -4.476562 L 0.296875 -0.308594 C 0.332031 -0.210938 0.445312 -0.15625 0.539062 -0.191406 L 1.347656 -0.472656 C 1.441406 -0.507812 1.496094 -0.621094 1.460938 -0.714844 L 0.128906 -4.511719 C 0.0976562 -4.597656 0.101562 -4.664062 0.140625 -4.746094 L 0.542969 -5.5625 C 0.570312 -5.601562 0.601562 -5.625 0.652344 -5.640625 L 3.472656 -6.632812 C 3.523438 -6.648438 3.5625 -6.652344 3.605469 -6.640625 L 4.375 -6.300781 C 4.449219 -6.273438 4.5 -6.210938 4.53125 -6.125 L 5.882812 -2.269531 C 5.917969 -2.171875 6.03125 -2.117188 6.128906 -2.152344 L 6.933594 -2.433594 C 7.03125 -2.46875 7.082031 -2.582031 7.050781 -2.679688 L 5.695312 -6.535156 C 5.664062 -6.621094 5.664062 -6.699219 5.707031 -6.769531 L 6.09375 -7.511719 C 6.121094 -7.550781 6.152344 -7.574219 6.203125 -7.589844 L 8.738281 -8.480469 C 8.785156 -8.5 8.824219 -8.5 8.871094 -8.488281 L 9.679688 -8.109375 C 9.753906 -8.082031 9.804688 -8.019531 9.832031 -7.9375 L 11.171875 -4.125 C 11.207031 -4.03125 11.320312 -3.976562 11.414062 -4.007812 L 12.21875 -4.292969 C 12.316406 -4.328125 12.371094 -4.441406 12.335938 -4.535156 L 10.871094 -8.707031 C 10.832031 -8.824219 10.730469 -8.914062 10.628906 -8.972656 Z M 10.628906 -8.972656 "/></g></g></g><g fill="#ff1616" fill-opacity="1"><g transform="translate(240.905577, 257.266944)"><g><path d="M -0.464844 -1.609375 C -0.402344 -1.496094 -0.304688 -1.421875 -0.179688 -1.386719 L 1.355469 -0.9375 C 1.496094 -0.898438 1.621094 -0.910156 1.765625 -0.992188 L 4.953125 -2.785156 C 5.09375 -2.863281 5.171875 -2.964844 5.210938 -3.105469 L 5.625 -4.652344 C 5.660156 -4.773438 5.648438 -4.898438 5.585938 -5.007812 L 4.0625 -7.71875 C 4 -7.828125 3.898438 -7.90625 3.777344 -7.9375 L 2.238281 -8.386719 C 2.101562 -8.425781 1.976562 -8.414062 1.832031 -8.335938 L -1.355469 -6.542969 C -1.5 -6.460938 -1.574219 -6.363281 -1.613281 -6.222656 L -2.027344 -4.675781 C -2.0625 -4.554688 -2.050781 -4.429688 -1.988281 -4.316406 Z M 0.449219 -2.503906 L -0.75 -4.632812 C -0.792969 -4.710938 -0.800781 -4.78125 -0.777344 -4.867188 L -0.609375 -5.398438 L -0.574219 -5.492188 C -0.566406 -5.527344 -0.539062 -5.554688 -0.480469 -5.585938 L 2.191406 -7.089844 C 2.238281 -7.117188 2.277344 -7.125 2.324219 -7.121094 L 2.421875 -7.101562 L 2.964844 -6.96875 C 3.050781 -6.945312 3.101562 -6.902344 3.148438 -6.824219 L 4.34375 -4.691406 C 4.390625 -4.613281 4.398438 -4.546875 4.375 -4.460938 L 4.207031 -3.925781 L 4.171875 -3.835938 C 4.148438 -3.792969 4.121094 -3.765625 4.078125 -3.738281 L 1.402344 -2.234375 C 1.347656 -2.203125 1.308594 -2.195312 1.273438 -2.207031 L 1.175781 -2.222656 L 0.632812 -2.355469 C 0.546875 -2.382812 0.492188 -2.425781 0.449219 -2.503906 Z M 0.449219 -2.503906 "/></g></g></g><g fill="#ff1616" fill-opacity="1"><g transform="translate(250.24926, 251.769406)"><g><path d="M 4.042969 -6.542969 L 3.175781 -6.652344 L 3.210938 -6.902344 C 3.230469 -7.042969 3.199219 -7.167969 3.101562 -7.296875 L 2.476562 -8.121094 C 2.378906 -8.253906 2.269531 -8.3125 2.125 -8.332031 L 0.890625 -8.484375 C 0.773438 -8.492188 0.644531 -8.476562 0.542969 -8.398438 L -3.386719 -5.421875 C -3.46875 -5.363281 -3.484375 -5.238281 -3.421875 -5.15625 L 0.1875 -0.382812 C 0.25 -0.300781 0.375 -0.285156 0.457031 -0.347656 L 4.742188 -3.589844 C 4.84375 -3.667969 4.898438 -3.785156 4.921875 -3.902344 L 5.109375 -5.128906 C 5.128906 -5.273438 5.101562 -5.394531 5 -5.527344 L 4.394531 -6.328125 C 4.292969 -6.460938 4.183594 -6.523438 4.042969 -6.542969 Z M 1.023438 -7.214844 C 1.097656 -7.265625 1.171875 -7.292969 1.25 -7.273438 L 1.542969 -7.207031 C 1.585938 -7.191406 1.617188 -7.167969 1.648438 -7.125 L 1.917969 -6.769531 C 1.949219 -6.730469 1.960938 -6.691406 1.964844 -6.648438 L 1.949219 -6.347656 C 1.949219 -6.265625 1.902344 -6.199219 1.832031 -6.148438 L -0.992188 -4.011719 L -1.796875 -5.074219 Z M 3.820312 -5 C 3.851562 -4.957031 3.863281 -4.921875 3.867188 -4.875 L 3.851562 -4.578125 C 3.847656 -4.496094 3.804688 -4.429688 3.734375 -4.375 L 0.554688 -1.96875 L -0.238281 -3.015625 L 2.941406 -5.421875 C 3.011719 -5.472656 3.089844 -5.5 3.167969 -5.480469 L 3.457031 -5.414062 C 3.5 -5.398438 3.535156 -5.375 3.566406 -5.335938 Z M 3.820312 -5 "/></g></g></g><g fill="#ff1616" fill-opacity="1"><g transform="translate(258.584168, 245.103779)"><g><path d="M 0.421875 -0.390625 L 1.121094 -1.039062 C 1.195312 -1.105469 1.203125 -1.234375 1.132812 -1.308594 L -2.933594 -5.703125 C -3.003906 -5.777344 -3.128906 -5.78125 -3.203125 -5.710938 L -3.90625 -5.0625 C -3.980469 -4.992188 -3.984375 -4.867188 -3.914062 -4.792969 L 0.152344 -0.398438 C 0.21875 -0.324219 0.347656 -0.320312 0.421875 -0.390625 Z M 0.421875 -0.390625 "/></g></g></g><g fill="#ff1616" fill-opacity="1"><g transform="translate(262.29402, 241.652301)"><g><path d="M -4.355469 -4.394531 L -0.960938 -1.371094 C -0.867188 -1.285156 -0.722656 -1.257812 -0.613281 -1.261719 L 1.003906 -1.355469 C 1.167969 -1.367188 1.261719 -1.417969 1.363281 -1.53125 L 4.492188 -5.039062 C 4.558594 -5.113281 4.550781 -5.242188 4.476562 -5.308594 L 3.820312 -5.894531 C 3.742188 -5.960938 3.617188 -5.953125 3.550781 -5.878906 L 0.703125 -2.683594 C 0.660156 -2.636719 0.605469 -2.613281 0.5 -2.609375 L -0.148438 -2.554688 C -0.238281 -2.546875 -0.300781 -2.570312 -0.367188 -2.628906 L -3.46875 -5.394531 C -3.542969 -5.460938 -3.667969 -5.453125 -3.738281 -5.378906 L -4.371094 -4.664062 C -4.441406 -4.589844 -4.433594 -4.460938 -4.355469 -4.394531 Z M -4.355469 -4.394531 "/></g></g></g><g fill="#ff1616" fill-opacity="1"><g transform="translate(269.093226, 233.721554)"><g><path d="M -2.8125 -4.089844 L -2.902344 -4.640625 C -2.921875 -4.75 -2.914062 -4.804688 -2.878906 -4.859375 L -0.296875 -8.664062 C -0.242188 -8.746094 -0.265625 -8.871094 -0.347656 -8.929688 L -1.078125 -9.421875 C -1.160156 -9.480469 -1.285156 -9.457031 -1.34375 -9.371094 L -4.15625 -5.21875 C -4.242188 -5.089844 -4.269531 -4.984375 -4.238281 -4.824219 L -3.949219 -3.320312 C -3.929688 -3.214844 -3.867188 -3.082031 -3.761719 -3.007812 L -1.09375 -1.203125 C -0.957031 -1.109375 -0.832031 -1.085938 -0.691406 -1.113281 L 0.792969 -1.417969 C 0.914062 -1.441406 1.023438 -1.507812 1.09375 -1.613281 L 3.929688 -5.796875 C 3.988281 -5.882812 3.960938 -6.007812 3.878906 -6.0625 L 3.171875 -6.542969 C 3.085938 -6.601562 2.964844 -6.574219 2.90625 -6.492188 L 0.335938 -2.695312 C 0.285156 -2.621094 0.226562 -2.582031 0.140625 -2.566406 L -0.511719 -2.46875 C -0.558594 -2.46875 -0.597656 -2.480469 -0.636719 -2.507812 L -1.1875 -2.878906 L 1.429688 -6.738281 C 1.484375 -6.824219 1.460938 -6.949219 1.378906 -7.003906 L 0.648438 -7.496094 C 0.566406 -7.554688 0.441406 -7.53125 0.382812 -7.445312 L -2.230469 -3.589844 L -2.683594 -3.894531 C -2.757812 -3.945312 -2.796875 -4.003906 -2.8125 -4.089844 Z M -2.8125 -4.089844 "/></g></g></g></svg>