<svg xmlns="http://www.w3.org/2000/svg" xmlns:xlink="http://www.w3.org/1999/xlink" width="500" zoomAndPan="magnify" viewBox="0 0 375 374.999991" height="500" preserveAspectRatio="xMidYMid meet" version="1.0"><defs><g/><clipPath id="25147a3ad2"><path d="M 92.546875 147.875 L 275 147.875 L 275 174 L 92.546875 174 Z M 92.546875 147.875 " clip-rule="nonzero"/></clipPath><clipPath id="323b73bb7c"><path d="M 215 170 L 276.730469 170 L 276.730469 184.625 L 215 184.625 Z M 215 170 " clip-rule="nonzero"/></clipPath></defs><rect x="-37.5" width="450" fill="#ffffff" y="-37.499999" height="449.999989" fill-opacity="1"/><rect x="-37.5" width="450" fill="#efefef" y="-37.499999" height="449.999989" fill-opacity="1"/><g clip-path="url(#25147a3ad2)"><path fill="#000000" d="M 259.765625 166.332031 C 257.492188 165.910156 255.242188 165.351562 253.03125 164.667969 C 250.820312 163.976562 248.632812 163.191406 246.472656 162.320312 C 244.308594 161.445312 242.164062 160.511719 240.011719 159.542969 L 233.503906 156.589844 C 231.308594 155.601562 229.074219 154.628906 226.773438 153.703125 C 226.191406 153.476562 225.621094 153.242188 225.03125 153.027344 L 224.152344 152.695312 L 223.261719 152.375 C 222.675781 152.15625 222.066406 151.957031 221.46875 151.75 C 221.167969 151.648438 220.859375 151.550781 220.554688 151.453125 C 220.25 151.355469 219.949219 151.253906 219.640625 151.164062 C 219.023438 150.976562 218.40625 150.789062 217.777344 150.617188 C 217.464844 150.535156 217.15625 150.441406 216.839844 150.363281 L 215.886719 150.125 C 215.253906 149.96875 214.625 149.804688 213.980469 149.675781 L 213.019531 149.472656 C 212.699219 149.40625 212.378906 149.332031 212.054688 149.277344 L 210.109375 148.933594 L 208.15625 148.644531 C 207.992188 148.621094 207.828125 148.59375 207.664062 148.574219 L 207.171875 148.515625 L 206.191406 148.402344 C 205.863281 148.367188 205.535156 148.320312 205.207031 148.292969 L 204.21875 148.207031 C 201.589844 147.980469 198.949219 147.875 196.320312 147.898438 C 193.6875 147.925781 191.070312 148.054688 188.480469 148.285156 C 183.292969 148.75 178.21875 149.621094 173.285156 150.746094 C 168.355469 151.886719 163.566406 153.289062 158.925781 154.902344 C 156.609375 155.710938 154.320312 156.558594 152.074219 157.464844 C 149.828125 158.367188 147.617188 159.3125 145.445312 160.300781 C 150.097656 158.757812 154.785156 157.296875 159.558594 156.046875 C 164.320312 154.777344 169.164062 153.707031 174.054688 152.875 C 176.5 152.457031 178.960938 152.121094 181.425781 151.847656 C 182.660156 151.703125 183.894531 151.597656 185.128906 151.492188 L 186.984375 151.363281 C 187.601562 151.324219 188.222656 151.304688 188.839844 151.273438 C 191.3125 151.171875 193.78125 151.148438 196.238281 151.234375 L 198.078125 151.316406 C 198.6875 151.355469 199.296875 151.402344 199.90625 151.445312 L 200.363281 151.480469 L 200.816406 151.523438 L 201.726562 151.609375 C 202.027344 151.640625 202.332031 151.664062 202.632812 151.699219 L 204.4375 151.925781 C 204.738281 151.960938 205.035156 152.015625 205.332031 152.058594 L 206.226562 152.195312 L 206.671875 152.265625 C 206.820312 152.285156 206.96875 152.316406 207.117188 152.34375 L 208.882812 152.671875 L 210.625 153.050781 C 210.917969 153.109375 211.203125 153.1875 211.492188 153.257812 L 212.351562 153.472656 C 212.929688 153.605469 213.488281 153.773438 214.054688 153.933594 L 214.898438 154.171875 C 215.179688 154.253906 215.457031 154.347656 215.734375 154.433594 C 216.292969 154.601562 216.84375 154.792969 217.394531 154.976562 C 221.804688 156.492188 226.019531 158.425781 230.25 160.457031 C 234.480469 162.488281 238.734375 164.628906 243.304688 166.5625 C 244.175781 166.929688 245.0625 167.289062 245.960938 167.640625 C 243.253906 167.84375 240.539062 168 237.820312 168.113281 L 235.238281 168.207031 L 232.648438 168.269531 C 231.789062 168.296875 230.921875 168.296875 230.058594 168.308594 L 228.765625 168.320312 C 228.332031 168.328125 227.898438 168.320312 227.46875 168.320312 C 224.011719 168.335938 220.546875 168.265625 217.078125 168.164062 C 213.609375 168.0625 210.140625 167.902344 206.667969 167.710938 C 203.191406 167.519531 199.71875 167.300781 196.238281 167.046875 C 189.28125 166.550781 182.316406 165.953125 175.328125 165.371094 C 168.34375 164.785156 161.335938 164.203125 154.300781 163.730469 L 151.664062 163.558594 C 150.785156 163.5 149.902344 163.445312 149.023438 163.390625 C 147.257812 163.289062 145.488281 163.199219 143.71875 163.121094 C 142.832031 163.078125 141.945312 163.046875 141.058594 163.011719 L 138.394531 162.929688 C 137.503906 162.914062 136.613281 162.894531 135.722656 162.886719 L 134.386719 162.875 C 133.941406 162.871094 133.496094 162.871094 133.050781 162.875 C 132.160156 162.878906 131.269531 162.878906 130.375 162.898438 L 129.035156 162.925781 C 128.589844 162.933594 128.144531 162.953125 127.699219 162.96875 L 126.363281 163.019531 L 125.023438 163.089844 C 124.132812 163.128906 123.242188 163.199219 122.355469 163.257812 C 118.796875 163.515625 115.257812 163.941406 111.78125 164.546875 C 108.300781 165.164062 104.894531 165.976562 101.621094 167.007812 C 98.351562 168.042969 95.207031 169.289062 92.308594 170.777344 C 98.578125 168.382812 105.339844 166.886719 112.191406 166.140625 C 119.058594 165.386719 126.015625 165.371094 132.9375 165.683594 C 133.371094 165.699219 133.804688 165.722656 134.238281 165.746094 L 135.535156 165.820312 C 136.402344 165.871094 137.269531 165.9375 138.132812 165.988281 L 140.730469 166.183594 C 141.597656 166.253906 142.460938 166.320312 143.328125 166.398438 C 145.058594 166.550781 146.789062 166.714844 148.523438 166.890625 C 150.257812 167.054688 151.992188 167.238281 153.726562 167.414062 C 160.667969 168.148438 167.605469 168.9375 174.566406 169.707031 C 188.484375 171.242188 202.523438 172.683594 216.761719 173.230469 C 223.875 173.507812 231.039062 173.542969 238.199219 173.25 C 241.78125 173.09375 245.363281 172.875 248.933594 172.542969 C 252.503906 172.207031 256.058594 171.777344 259.59375 171.25 L 274.351562 169.050781 Z M 259.765625 166.332031 " fill-opacity="1" fill-rule="nonzero"/></g><g clip-path="url(#323b73bb7c)"><path fill="#1c5d72" d="M 220.609375 181.3125 C 226.109375 182.503906 231.683594 183.382812 237.289062 183.894531 C 244.320312 184.53125 251.484375 184.621094 258.46875 183.503906 C 261.867188 182.960938 265.234375 182.117188 268.417969 180.808594 C 271.03125 179.734375 275.976562 177.992188 276.445312 174.769531 C 276.613281 173.628906 276.65625 171.902344 275.210938 171.011719 C 273.34375 169.863281 270.84375 171.019531 269.097656 171.679688 C 267.011719 172.464844 264.957031 173.300781 262.707031 173.914062 C 259.894531 174.675781 256.984375 175.3125 254.046875 175.875 C 250.734375 176.511719 247.363281 177.082031 243.957031 177.511719 C 245.636719 177.785156 248.429688 178.160156 249.941406 178.347656 C 251.746094 178.570312 253.5625 178.765625 255.386719 178.921875 C 257.308594 179.089844 259.292969 179.210938 261.277344 179.277344 C 252.441406 181.035156 237.390625 182.578125 215.511719 180.085938 C 217.230469 180.523438 218.949219 180.949219 220.609375 181.3125 Z M 220.609375 181.3125 " fill-opacity="1" fill-rule="nonzero"/></g><g fill="#ffaa04" fill-opacity="0.302"><g transform="translate(53.003354, 199.286089)"><g><path d="M 28.015625 -23.953125 C 29.003906 -23.953125 29.5 -23.640625 29.5 -23.015625 C 29.5 -22.847656 29.484375 -22.726562 29.453125 -22.65625 C 29.378906 -22.414062 29.269531 -22.226562 29.125 -22.09375 C 28.988281 -21.96875 28.785156 -21.820312 28.515625 -21.65625 C 28.160156 -21.4375 27.863281 -21.191406 27.625 -20.921875 C 27.382812 -20.660156 27.179688 -20.253906 27.015625 -19.703125 L 22.546875 -3.734375 C 22.140625 -2.296875 21.628906 -1.289062 21.015625 -0.71875 C 20.410156 -0.144531 19.566406 0.140625 18.484375 0.140625 C 17.523438 0.140625 16.726562 -0.140625 16.09375 -0.703125 C 15.457031 -1.265625 14.863281 -2.132812 14.3125 -3.3125 L 8.890625 -14.75 L 5.859375 -4.25 C 5.785156 -3.9375 5.75 -3.660156 5.75 -3.421875 C 5.75 -3.109375 5.800781 -2.847656 5.90625 -2.640625 C 6.019531 -2.441406 6.171875 -2.234375 6.359375 -2.015625 C 6.628906 -1.703125 6.765625 -1.4375 6.765625 -1.21875 C 6.765625 -1.070312 6.75 -0.96875 6.71875 -0.90625 C 6.625 -0.5625 6.410156 -0.320312 6.078125 -0.1875 C 5.742188 -0.0625 5.238281 0 4.5625 0 L 0.640625 0 C -0.335938 0 -0.828125 -0.3125 -0.828125 -0.9375 C -0.828125 -1.101562 -0.816406 -1.222656 -0.796875 -1.296875 C -0.722656 -1.535156 -0.613281 -1.71875 -0.46875 -1.84375 C -0.320312 -1.976562 -0.117188 -2.128906 0.140625 -2.296875 C 0.503906 -2.515625 0.804688 -2.753906 1.046875 -3.015625 C 1.285156 -3.285156 1.488281 -3.695312 1.65625 -4.25 L 6.21875 -20.390625 L 5.640625 -21.578125 C 5.398438 -22.054688 5.28125 -22.476562 5.28125 -22.84375 C 5.28125 -23.582031 5.757812 -23.953125 6.71875 -23.953125 L 12.046875 -23.953125 C 12.816406 -23.953125 13.398438 -23.773438 13.796875 -23.421875 C 14.191406 -23.078125 14.617188 -22.460938 15.078125 -21.578125 L 20.328125 -11.046875 L 22.796875 -19.703125 C 22.867188 -20.046875 22.90625 -20.320312 22.90625 -20.53125 C 22.90625 -20.84375 22.851562 -21.101562 22.75 -21.3125 C 22.644531 -21.519531 22.492188 -21.726562 22.296875 -21.9375 C 22.035156 -22.25 21.90625 -22.515625 21.90625 -22.734375 C 21.90625 -22.878906 21.914062 -22.988281 21.9375 -23.0625 C 22.03125 -23.394531 22.242188 -23.625 22.578125 -23.75 C 22.921875 -23.882812 23.425781 -23.953125 24.09375 -23.953125 Z M 28.015625 -23.953125 "/></g></g></g><g fill="#ffaa04" fill-opacity="0.302"><g transform="translate(79.149795, 199.286089)"><g><path d="M 17.234375 -23.953125 C 20.828125 -23.953125 23.535156 -23.257812 25.359375 -21.875 C 27.179688 -20.5 28.09375 -18.484375 28.09375 -15.828125 C 28.09375 -14.503906 27.851562 -12.984375 27.375 -11.265625 C 26.582031 -8.472656 25.515625 -6.257812 24.171875 -4.625 C 22.828125 -3 21.054688 -1.816406 18.859375 -1.078125 C 16.671875 -0.335938 13.863281 0.0195312 10.4375 0 L 0.640625 -0.03125 C 0.140625 -0.03125 -0.242188 -0.113281 -0.515625 -0.28125 C -0.796875 -0.457031 -0.9375 -0.6875 -0.9375 -0.96875 C -0.9375 -1.113281 -0.898438 -1.269531 -0.828125 -1.4375 C -0.753906 -1.65625 -0.648438 -1.8125 -0.515625 -1.90625 C -0.390625 -2 -0.191406 -2.128906 0.078125 -2.296875 C 0.453125 -2.515625 0.753906 -2.753906 0.984375 -3.015625 C 1.210938 -3.285156 1.410156 -3.707031 1.578125 -4.28125 L 5.96875 -19.75 C 6.0625 -20.0625 6.109375 -20.359375 6.109375 -20.640625 C 6.109375 -20.910156 6.066406 -21.132812 5.984375 -21.3125 C 5.898438 -21.488281 5.785156 -21.695312 5.640625 -21.9375 C 5.429688 -22.25 5.328125 -22.503906 5.328125 -22.703125 C 5.328125 -22.765625 5.347656 -22.894531 5.390625 -23.09375 C 5.492188 -23.40625 5.707031 -23.625 6.03125 -23.75 C 6.351562 -23.882812 6.847656 -23.953125 7.515625 -23.953125 Z M 18.171875 -12.046875 C 18.785156 -14.304688 19.09375 -16.082031 19.09375 -17.375 C 19.09375 -18.644531 18.828125 -19.519531 18.296875 -20 C 17.773438 -20.476562 17.023438 -20.71875 16.046875 -20.71875 L 15.25 -20.71875 L 10.390625 -3.234375 L 11.265625 -3.234375 C 12.359375 -3.234375 13.28125 -3.46875 14.03125 -3.9375 C 14.789062 -4.40625 15.492188 -5.269531 16.140625 -6.53125 C 16.796875 -7.789062 17.472656 -9.628906 18.171875 -12.046875 Z M 18.171875 -12.046875 "/></g></g></g><g fill="#ffaa04" fill-opacity="0.302"><g transform="translate(106.914659, 199.286089)"><g><path d="M 12.84375 -19.03125 C 15.601562 -19.03125 17.804688 -18.519531 19.453125 -17.5 C 21.109375 -16.476562 21.9375 -14.925781 21.9375 -12.84375 C 21.9375 -12.050781 21.796875 -11.148438 21.515625 -10.140625 L 20.03125 -5.171875 C 20.007812 -5.078125 20 -4.957031 20 -4.8125 C 20 -4.4375 20.15625 -4.25 20.46875 -4.25 C 20.75 -4.25 20.992188 -4.375 21.203125 -4.625 C 21.410156 -4.875 21.550781 -5 21.625 -5 C 21.738281 -5 21.835938 -4.914062 21.921875 -4.75 C 22.003906 -4.582031 22.046875 -4.390625 22.046875 -4.171875 C 22.066406 -3.523438 21.816406 -2.863281 21.296875 -2.1875 C 20.785156 -1.519531 20.097656 -0.96875 19.234375 -0.53125 C 18.378906 -0.101562 17.4375 0.109375 16.40625 0.109375 C 15.15625 0.109375 14.085938 -0.117188 13.203125 -0.578125 C 12.316406 -1.035156 11.703125 -1.707031 11.359375 -2.59375 C 10.640625 -1.726562 9.789062 -1.0625 8.8125 -0.59375 C 7.832031 -0.125 6.773438 0.109375 5.640625 0.109375 C 4.367188 0.109375 3.300781 -0.132812 2.4375 -0.625 C 1.582031 -1.113281 0.941406 -1.75 0.515625 -2.53125 C 0.0976562 -3.3125 -0.109375 -4.132812 -0.109375 -5 C -0.109375 -5.382812 -0.0703125 -5.753906 0 -6.109375 C 0.382812 -7.765625 1.21875 -9.007812 2.5 -9.84375 C 3.78125 -10.6875 5.304688 -11.109375 7.078125 -11.109375 C 9.078125 -11.109375 11.035156 -10.796875 12.953125 -10.171875 L 13.84375 -12.546875 C 14.15625 -13.554688 14.3125 -14.335938 14.3125 -14.890625 C 14.289062 -15.460938 14.097656 -15.894531 13.734375 -16.1875 C 13.378906 -16.476562 12.828125 -16.625 12.078125 -16.625 C 12.222656 -16.238281 12.296875 -15.84375 12.296875 -15.4375 C 12.296875 -14.539062 11.957031 -13.769531 11.28125 -13.125 C 10.613281 -12.476562 9.660156 -12.15625 8.421875 -12.15625 C 7.242188 -12.15625 6.320312 -12.410156 5.65625 -12.921875 C 5 -13.441406 4.671875 -14.085938 4.671875 -14.859375 C 4.671875 -16.054688 5.34375 -17.050781 6.6875 -17.84375 C 8.03125 -18.632812 10.082031 -19.03125 12.84375 -19.03125 Z M 10.828125 -8.125 C 10.148438 -8.125 9.601562 -7.863281 9.1875 -7.34375 C 8.769531 -6.832031 8.5625 -6.28125 8.5625 -5.6875 C 8.5625 -5.300781 8.648438 -4.988281 8.828125 -4.75 C 9.003906 -4.507812 9.265625 -4.390625 9.609375 -4.390625 C 9.921875 -4.390625 10.257812 -4.515625 10.625 -4.765625 C 11 -5.015625 11.269531 -5.394531 11.4375 -5.90625 L 12.1875 -8.015625 C 11.78125 -8.085938 11.328125 -8.125 10.828125 -8.125 Z M 10.828125 -8.125 "/></g></g></g><g fill="#ffaa04" fill-opacity="0.302"><g transform="translate(130.435664, 199.286089)"><g><path d="M 34.203125 -4.96875 C 34.160156 -4.863281 34.140625 -4.71875 34.140625 -4.53125 C 34.140625 -4.363281 34.179688 -4.234375 34.265625 -4.140625 C 34.347656 -4.046875 34.460938 -4 34.609375 -4 C 34.890625 -4 35.128906 -4.125 35.328125 -4.375 C 35.535156 -4.625 35.675781 -4.75 35.75 -4.75 C 35.875 -4.75 35.972656 -4.671875 36.046875 -4.515625 C 36.117188 -4.359375 36.15625 -4.171875 36.15625 -3.953125 C 36.175781 -3.253906 35.945312 -2.578125 35.46875 -1.921875 C 34.988281 -1.265625 34.285156 -0.722656 33.359375 -0.296875 C 32.429688 0.117188 31.320312 0.328125 30.03125 0.328125 C 28.445312 0.328125 27.1875 -0.0351562 26.25 -0.765625 C 25.320312 -1.503906 24.84375 -2.484375 24.8125 -3.703125 C 24.8125 -4.585938 25.03125 -5.582031 25.46875 -6.6875 L 27.4375 -11.875 C 27.5625 -12.1875 27.625 -12.4375 27.625 -12.625 C 27.625 -12.9375 27.519531 -13.179688 27.3125 -13.359375 C 27.113281 -13.535156 26.867188 -13.625 26.578125 -13.625 C 26.171875 -13.625 25.75 -13.441406 25.3125 -13.078125 C 24.882812 -12.722656 24.503906 -12.164062 24.171875 -11.40625 L 22.1875 -4.96875 C 22.144531 -4.863281 22.125 -4.71875 22.125 -4.53125 C 22.125 -4.363281 22.164062 -4.234375 22.25 -4.140625 C 22.332031 -4.046875 22.445312 -4 22.59375 -4 C 22.875 -4 23.113281 -4.125 23.3125 -4.375 C 23.519531 -4.625 23.660156 -4.75 23.734375 -4.75 C 23.859375 -4.75 23.957031 -4.671875 24.03125 -4.515625 C 24.101562 -4.359375 24.140625 -4.171875 24.140625 -3.953125 C 24.160156 -3.253906 23.929688 -2.578125 23.453125 -1.921875 C 22.972656 -1.265625 22.269531 -0.722656 21.34375 -0.296875 C 20.425781 0.117188 19.316406 0.328125 18.015625 0.328125 C 16.429688 0.328125 15.171875 -0.0351562 14.234375 -0.765625 C 13.304688 -1.503906 12.832031 -2.484375 12.8125 -3.703125 C 12.8125 -4.585938 13.023438 -5.582031 13.453125 -6.6875 L 15.4375 -11.875 C 15.550781 -12.1875 15.609375 -12.4375 15.609375 -12.625 C 15.609375 -12.9375 15.503906 -13.179688 15.296875 -13.359375 C 15.097656 -13.535156 14.851562 -13.625 14.5625 -13.625 C 14.15625 -13.625 13.734375 -13.453125 13.296875 -13.109375 C 12.867188 -12.765625 12.515625 -12.207031 12.234375 -11.4375 L 9.859375 -3.734375 C 9.765625 -3.472656 9.71875 -3.222656 9.71875 -2.984375 C 9.71875 -2.691406 9.773438 -2.457031 9.890625 -2.28125 C 10.015625 -2.101562 10.179688 -1.914062 10.390625 -1.71875 C 10.554688 -1.582031 10.675781 -1.453125 10.75 -1.328125 C 10.820312 -1.210938 10.835938 -1.070312 10.796875 -0.90625 C 10.691406 -0.59375 10.457031 -0.363281 10.09375 -0.21875 C 9.738281 -0.0703125 9.179688 0 8.421875 0 L 0.21875 0 C -0.40625 0 -0.851562 -0.0976562 -1.125 -0.296875 C -1.40625 -0.503906 -1.507812 -0.773438 -1.4375 -1.109375 C -1.34375 -1.398438 -1.09375 -1.65625 -0.6875 -1.875 C -0.320312 -2.0625 -0.0195312 -2.285156 0.21875 -2.546875 C 0.457031 -2.816406 0.660156 -3.238281 0.828125 -3.8125 L 4.03125 -14.203125 C 4.070312 -14.328125 4.09375 -14.5 4.09375 -14.71875 C 4.09375 -14.976562 4.039062 -15.175781 3.9375 -15.3125 C 3.832031 -15.457031 3.660156 -15.640625 3.421875 -15.859375 C 3.179688 -16.054688 3.007812 -16.222656 2.90625 -16.359375 C 2.8125 -16.503906 2.800781 -16.695312 2.875 -16.9375 C 3.019531 -17.488281 3.773438 -17.972656 5.140625 -18.390625 C 6.503906 -18.816406 7.929688 -19.03125 9.421875 -19.03125 C 10.597656 -19.03125 11.523438 -18.703125 12.203125 -18.046875 C 12.890625 -17.398438 13.222656 -16.515625 13.203125 -15.390625 C 14.179688 -16.753906 15.21875 -17.703125 16.3125 -18.234375 C 17.40625 -18.765625 18.585938 -19.03125 19.859375 -19.03125 C 21.242188 -19.03125 22.375 -18.628906 23.25 -17.828125 C 24.125 -17.023438 24.609375 -15.972656 24.703125 -14.671875 C 25.734375 -16.304688 26.835938 -17.441406 28.015625 -18.078125 C 29.191406 -18.710938 30.476562 -19.03125 31.875 -19.03125 C 33.332031 -19.03125 34.507812 -18.582031 35.40625 -17.6875 C 36.3125 -16.800781 36.765625 -15.65625 36.765625 -14.25 C 36.765625 -13.5 36.644531 -12.765625 36.40625 -12.046875 Z M 34.203125 -4.96875 "/></g></g></g><g fill="#ffaa04" fill-opacity="0.302"><g transform="translate(168.126824, 199.286089)"><g><path d="M 12.84375 -19.03125 C 15.601562 -19.03125 17.804688 -18.519531 19.453125 -17.5 C 21.109375 -16.476562 21.9375 -14.925781 21.9375 -12.84375 C 21.9375 -12.050781 21.796875 -11.148438 21.515625 -10.140625 L 20.03125 -5.171875 C 20.007812 -5.078125 20 -4.957031 20 -4.8125 C 20 -4.4375 20.15625 -4.25 20.46875 -4.25 C 20.75 -4.25 20.992188 -4.375 21.203125 -4.625 C 21.410156 -4.875 21.550781 -5 21.625 -5 C 21.738281 -5 21.835938 -4.914062 21.921875 -4.75 C 22.003906 -4.582031 22.046875 -4.390625 22.046875 -4.171875 C 22.066406 -3.523438 21.816406 -2.863281 21.296875 -2.1875 C 20.785156 -1.519531 20.097656 -0.96875 19.234375 -0.53125 C 18.378906 -0.101562 17.4375 0.109375 16.40625 0.109375 C 15.15625 0.109375 14.085938 -0.117188 13.203125 -0.578125 C 12.316406 -1.035156 11.703125 -1.707031 11.359375 -2.59375 C 10.640625 -1.726562 9.789062 -1.0625 8.8125 -0.59375 C 7.832031 -0.125 6.773438 0.109375 5.640625 0.109375 C 4.367188 0.109375 3.300781 -0.132812 2.4375 -0.625 C 1.582031 -1.113281 0.941406 -1.75 0.515625 -2.53125 C 0.0976562 -3.3125 -0.109375 -4.132812 -0.109375 -5 C -0.109375 -5.382812 -0.0703125 -5.753906 0 -6.109375 C 0.382812 -7.765625 1.21875 -9.007812 2.5 -9.84375 C 3.78125 -10.6875 5.304688 -11.109375 7.078125 -11.109375 C 9.078125 -11.109375 11.035156 -10.796875 12.953125 -10.171875 L 13.84375 -12.546875 C 14.15625 -13.554688 14.3125 -14.335938 14.3125 -14.890625 C 14.289062 -15.460938 14.097656 -15.894531 13.734375 -16.1875 C 13.378906 -16.476562 12.828125 -16.625 12.078125 -16.625 C 12.222656 -16.238281 12.296875 -15.84375 12.296875 -15.4375 C 12.296875 -14.539062 11.957031 -13.769531 11.28125 -13.125 C 10.613281 -12.476562 9.660156 -12.15625 8.421875 -12.15625 C 7.242188 -12.15625 6.320312 -12.410156 5.65625 -12.921875 C 5 -13.441406 4.671875 -14.085938 4.671875 -14.859375 C 4.671875 -16.054688 5.34375 -17.050781 6.6875 -17.84375 C 8.03125 -18.632812 10.082031 -19.03125 12.84375 -19.03125 Z M 10.828125 -8.125 C 10.148438 -8.125 9.601562 -7.863281 9.1875 -7.34375 C 8.769531 -6.832031 8.5625 -6.28125 8.5625 -5.6875 C 8.5625 -5.300781 8.648438 -4.988281 8.828125 -4.75 C 9.003906 -4.507812 9.265625 -4.390625 9.609375 -4.390625 C 9.921875 -4.390625 10.257812 -4.515625 10.625 -4.765625 C 11 -5.015625 11.269531 -5.394531 11.4375 -5.90625 L 12.1875 -8.015625 C 11.78125 -8.085938 11.328125 -8.125 10.828125 -8.125 Z M 10.828125 -8.125 "/></g></g></g><g fill="#ffaa04" fill-opacity="0.302"><g transform="translate(191.64783, 199.286089)"><g><path d="M 17.65625 -19.03125 C 19 -19.03125 20.070312 -18.617188 20.875 -17.796875 C 21.675781 -16.984375 22.078125 -15.976562 22.078125 -14.78125 C 22.078125 -14.320312 22.03125 -13.90625 21.9375 -13.53125 C 21.695312 -12.539062 21.238281 -11.78125 20.5625 -11.25 C 19.894531 -10.726562 19.097656 -10.46875 18.171875 -10.46875 C 17.253906 -10.46875 16.5625 -10.679688 16.09375 -11.109375 C 15.625 -11.546875 15.210938 -12.125 14.859375 -12.84375 C 14.660156 -13.25 14.476562 -13.546875 14.3125 -13.734375 C 14.144531 -13.929688 13.953125 -14.03125 13.734375 -14.03125 C 13.492188 -14.03125 13.285156 -13.929688 13.109375 -13.734375 C 12.929688 -13.546875 12.769531 -13.210938 12.625 -12.734375 L 9.859375 -3.734375 C 9.804688 -3.617188 9.78125 -3.441406 9.78125 -3.203125 C 9.78125 -2.890625 9.867188 -2.628906 10.046875 -2.421875 C 10.234375 -2.222656 10.484375 -2.023438 10.796875 -1.828125 C 11.078125 -1.640625 11.265625 -1.484375 11.359375 -1.359375 C 11.460938 -1.242188 11.5 -1.09375 11.46875 -0.90625 C 11.425781 -0.59375 11.253906 -0.363281 10.953125 -0.21875 C 10.648438 -0.0703125 10.140625 0 9.421875 0 L 0.21875 0 C -0.40625 0 -0.851562 -0.0976562 -1.125 -0.296875 C -1.40625 -0.503906 -1.507812 -0.773438 -1.4375 -1.109375 C -1.34375 -1.398438 -1.09375 -1.65625 -0.6875 -1.875 C -0.320312 -2.0625 -0.0195312 -2.285156 0.21875 -2.546875 C 0.457031 -2.816406 0.660156 -3.238281 0.828125 -3.8125 L 4.03125 -14.203125 C 4.070312 -14.328125 4.09375 -14.5 4.09375 -14.71875 C 4.09375 -14.976562 4.039062 -15.175781 3.9375 -15.3125 C 3.832031 -15.457031 3.660156 -15.640625 3.421875 -15.859375 C 3.179688 -16.054688 3.007812 -16.222656 2.90625 -16.359375 C 2.8125 -16.503906 2.800781 -16.695312 2.875 -16.9375 C 3.019531 -17.488281 3.773438 -17.972656 5.140625 -18.390625 C 6.503906 -18.816406 7.929688 -19.03125 9.421875 -19.03125 C 10.410156 -19.03125 11.226562 -18.804688 11.875 -18.359375 C 12.519531 -17.921875 12.9375 -17.289062 13.125 -16.46875 C 14.28125 -18.175781 15.789062 -19.03125 17.65625 -19.03125 Z M 17.65625 -19.03125 "/></g></g></g><g fill="#ffaa04" fill-opacity="0.502"><g transform="translate(51.7966, 198.502413)"><g><path d="M 28.015625 -23.953125 C 29.003906 -23.953125 29.5 -23.640625 29.5 -23.015625 C 29.5 -22.847656 29.484375 -22.726562 29.453125 -22.65625 C 29.378906 -22.414062 29.269531 -22.226562 29.125 -22.09375 C 28.988281 -21.96875 28.785156 -21.820312 28.515625 -21.65625 C 28.160156 -21.4375 27.863281 -21.191406 27.625 -20.921875 C 27.382812 -20.660156 27.179688 -20.253906 27.015625 -19.703125 L 22.546875 -3.734375 C 22.140625 -2.296875 21.628906 -1.289062 21.015625 -0.71875 C 20.410156 -0.144531 19.566406 0.140625 18.484375 0.140625 C 17.523438 0.140625 16.726562 -0.140625 16.09375 -0.703125 C 15.457031 -1.265625 14.863281 -2.132812 14.3125 -3.3125 L 8.890625 -14.75 L 5.859375 -4.25 C 5.785156 -3.9375 5.75 -3.660156 5.75 -3.421875 C 5.75 -3.109375 5.800781 -2.847656 5.90625 -2.640625 C 6.019531 -2.441406 6.171875 -2.234375 6.359375 -2.015625 C 6.628906 -1.703125 6.765625 -1.4375 6.765625 -1.21875 C 6.765625 -1.070312 6.75 -0.96875 6.71875 -0.90625 C 6.625 -0.5625 6.410156 -0.320312 6.078125 -0.1875 C 5.742188 -0.0625 5.238281 0 4.5625 0 L 0.640625 0 C -0.335938 0 -0.828125 -0.3125 -0.828125 -0.9375 C -0.828125 -1.101562 -0.816406 -1.222656 -0.796875 -1.296875 C -0.722656 -1.535156 -0.613281 -1.71875 -0.46875 -1.84375 C -0.320312 -1.976562 -0.117188 -2.128906 0.140625 -2.296875 C 0.503906 -2.515625 0.804688 -2.753906 1.046875 -3.015625 C 1.285156 -3.285156 1.488281 -3.695312 1.65625 -4.25 L 6.21875 -20.390625 L 5.640625 -21.578125 C 5.398438 -22.054688 5.28125 -22.476562 5.28125 -22.84375 C 5.28125 -23.582031 5.757812 -23.953125 6.71875 -23.953125 L 12.046875 -23.953125 C 12.816406 -23.953125 13.398438 -23.773438 13.796875 -23.421875 C 14.191406 -23.078125 14.617188 -22.460938 15.078125 -21.578125 L 20.328125 -11.046875 L 22.796875 -19.703125 C 22.867188 -20.046875 22.90625 -20.320312 22.90625 -20.53125 C 22.90625 -20.84375 22.851562 -21.101562 22.75 -21.3125 C 22.644531 -21.519531 22.492188 -21.726562 22.296875 -21.9375 C 22.035156 -22.25 21.90625 -22.515625 21.90625 -22.734375 C 21.90625 -22.878906 21.914062 -22.988281 21.9375 -23.0625 C 22.03125 -23.394531 22.242188 -23.625 22.578125 -23.75 C 22.921875 -23.882812 23.425781 -23.953125 24.09375 -23.953125 Z M 28.015625 -23.953125 "/></g></g></g><g fill="#ffaa04" fill-opacity="0.502"><g transform="translate(77.94304, 198.502413)"><g><path d="M 17.234375 -23.953125 C 20.828125 -23.953125 23.535156 -23.257812 25.359375 -21.875 C 27.179688 -20.5 28.09375 -18.484375 28.09375 -15.828125 C 28.09375 -14.503906 27.851562 -12.984375 27.375 -11.265625 C 26.582031 -8.472656 25.515625 -6.257812 24.171875 -4.625 C 22.828125 -3 21.054688 -1.816406 18.859375 -1.078125 C 16.671875 -0.335938 13.863281 0.0195312 10.4375 0 L 0.640625 -0.03125 C 0.140625 -0.03125 -0.242188 -0.113281 -0.515625 -0.28125 C -0.796875 -0.457031 -0.9375 -0.6875 -0.9375 -0.96875 C -0.9375 -1.113281 -0.898438 -1.269531 -0.828125 -1.4375 C -0.753906 -1.65625 -0.648438 -1.8125 -0.515625 -1.90625 C -0.390625 -2 -0.191406 -2.128906 0.078125 -2.296875 C 0.453125 -2.515625 0.753906 -2.753906 0.984375 -3.015625 C 1.210938 -3.285156 1.410156 -3.707031 1.578125 -4.28125 L 5.96875 -19.75 C 6.0625 -20.0625 6.109375 -20.359375 6.109375 -20.640625 C 6.109375 -20.910156 6.066406 -21.132812 5.984375 -21.3125 C 5.898438 -21.488281 5.785156 -21.695312 5.640625 -21.9375 C 5.429688 -22.25 5.328125 -22.503906 5.328125 -22.703125 C 5.328125 -22.765625 5.347656 -22.894531 5.390625 -23.09375 C 5.492188 -23.40625 5.707031 -23.625 6.03125 -23.75 C 6.351562 -23.882812 6.847656 -23.953125 7.515625 -23.953125 Z M 18.171875 -12.046875 C 18.785156 -14.304688 19.09375 -16.082031 19.09375 -17.375 C 19.09375 -18.644531 18.828125 -19.519531 18.296875 -20 C 17.773438 -20.476562 17.023438 -20.71875 16.046875 -20.71875 L 15.25 -20.71875 L 10.390625 -3.234375 L 11.265625 -3.234375 C 12.359375 -3.234375 13.28125 -3.46875 14.03125 -3.9375 C 14.789062 -4.40625 15.492188 -5.269531 16.140625 -6.53125 C 16.796875 -7.789062 17.472656 -9.628906 18.171875 -12.046875 Z M 18.171875 -12.046875 "/></g></g></g><g fill="#ffaa04" fill-opacity="0.502"><g transform="translate(105.707904, 198.502413)"><g><path d="M 12.84375 -19.03125 C 15.601562 -19.03125 17.804688 -18.519531 19.453125 -17.5 C 21.109375 -16.476562 21.9375 -14.925781 21.9375 -12.84375 C 21.9375 -12.050781 21.796875 -11.148438 21.515625 -10.140625 L 20.03125 -5.171875 C 20.007812 -5.078125 20 -4.957031 20 -4.8125 C 20 -4.4375 20.15625 -4.25 20.46875 -4.25 C 20.75 -4.25 20.992188 -4.375 21.203125 -4.625 C 21.410156 -4.875 21.550781 -5 21.625 -5 C 21.738281 -5 21.835938 -4.914062 21.921875 -4.75 C 22.003906 -4.582031 22.046875 -4.390625 22.046875 -4.171875 C 22.066406 -3.523438 21.816406 -2.863281 21.296875 -2.1875 C 20.785156 -1.519531 20.097656 -0.96875 19.234375 -0.53125 C 18.378906 -0.101562 17.4375 0.109375 16.40625 0.109375 C 15.15625 0.109375 14.085938 -0.117188 13.203125 -0.578125 C 12.316406 -1.035156 11.703125 -1.707031 11.359375 -2.59375 C 10.640625 -1.726562 9.789062 -1.0625 8.8125 -0.59375 C 7.832031 -0.125 6.773438 0.109375 5.640625 0.109375 C 4.367188 0.109375 3.300781 -0.132812 2.4375 -0.625 C 1.582031 -1.113281 0.941406 -1.75 0.515625 -2.53125 C 0.0976562 -3.3125 -0.109375 -4.132812 -0.109375 -5 C -0.109375 -5.382812 -0.0703125 -5.753906 0 -6.109375 C 0.382812 -7.765625 1.21875 -9.007812 2.5 -9.84375 C 3.78125 -10.6875 5.304688 -11.109375 7.078125 -11.109375 C 9.078125 -11.109375 11.035156 -10.796875 12.953125 -10.171875 L 13.84375 -12.546875 C 14.15625 -13.554688 14.3125 -14.335938 14.3125 -14.890625 C 14.289062 -15.460938 14.097656 -15.894531 13.734375 -16.1875 C 13.378906 -16.476562 12.828125 -16.625 12.078125 -16.625 C 12.222656 -16.238281 12.296875 -15.84375 12.296875 -15.4375 C 12.296875 -14.539062 11.957031 -13.769531 11.28125 -13.125 C 10.613281 -12.476562 9.660156 -12.15625 8.421875 -12.15625 C 7.242188 -12.15625 6.320312 -12.410156 5.65625 -12.921875 C 5 -13.441406 4.671875 -14.085938 4.671875 -14.859375 C 4.671875 -16.054688 5.34375 -17.050781 6.6875 -17.84375 C 8.03125 -18.632812 10.082031 -19.03125 12.84375 -19.03125 Z M 10.828125 -8.125 C 10.148438 -8.125 9.601562 -7.863281 9.1875 -7.34375 C 8.769531 -6.832031 8.5625 -6.28125 8.5625 -5.6875 C 8.5625 -5.300781 8.648438 -4.988281 8.828125 -4.75 C 9.003906 -4.507812 9.265625 -4.390625 9.609375 -4.390625 C 9.921875 -4.390625 10.257812 -4.515625 10.625 -4.765625 C 11 -5.015625 11.269531 -5.394531 11.4375 -5.90625 L 12.1875 -8.015625 C 11.78125 -8.085938 11.328125 -8.125 10.828125 -8.125 Z M 10.828125 -8.125 "/></g></g></g><g fill="#ffaa04" fill-opacity="0.502"><g transform="translate(129.22891, 198.502413)"><g><path d="M 34.203125 -4.96875 C 34.160156 -4.863281 34.140625 -4.71875 34.140625 -4.53125 C 34.140625 -4.363281 34.179688 -4.234375 34.265625 -4.140625 C 34.347656 -4.046875 34.460938 -4 34.609375 -4 C 34.890625 -4 35.128906 -4.125 35.328125 -4.375 C 35.535156 -4.625 35.675781 -4.75 35.75 -4.75 C 35.875 -4.75 35.972656 -4.671875 36.046875 -4.515625 C 36.117188 -4.359375 36.15625 -4.171875 36.15625 -3.953125 C 36.175781 -3.253906 35.945312 -2.578125 35.46875 -1.921875 C 34.988281 -1.265625 34.285156 -0.722656 33.359375 -0.296875 C 32.429688 0.117188 31.320312 0.328125 30.03125 0.328125 C 28.445312 0.328125 27.1875 -0.0351562 26.25 -0.765625 C 25.320312 -1.503906 24.84375 -2.484375 24.8125 -3.703125 C 24.8125 -4.585938 25.03125 -5.582031 25.46875 -6.6875 L 27.4375 -11.875 C 27.5625 -12.1875 27.625 -12.4375 27.625 -12.625 C 27.625 -12.9375 27.519531 -13.179688 27.3125 -13.359375 C 27.113281 -13.535156 26.867188 -13.625 26.578125 -13.625 C 26.171875 -13.625 25.75 -13.441406 25.3125 -13.078125 C 24.882812 -12.722656 24.503906 -12.164062 24.171875 -11.40625 L 22.1875 -4.96875 C 22.144531 -4.863281 22.125 -4.71875 22.125 -4.53125 C 22.125 -4.363281 22.164062 -4.234375 22.25 -4.140625 C 22.332031 -4.046875 22.445312 -4 22.59375 -4 C 22.875 -4 23.113281 -4.125 23.3125 -4.375 C 23.519531 -4.625 23.660156 -4.75 23.734375 -4.75 C 23.859375 -4.75 23.957031 -4.671875 24.03125 -4.515625 C 24.101562 -4.359375 24.140625 -4.171875 24.140625 -3.953125 C 24.160156 -3.253906 23.929688 -2.578125 23.453125 -1.921875 C 22.972656 -1.265625 22.269531 -0.722656 21.34375 -0.296875 C 20.425781 0.117188 19.316406 0.328125 18.015625 0.328125 C 16.429688 0.328125 15.171875 -0.0351562 14.234375 -0.765625 C 13.304688 -1.503906 12.832031 -2.484375 12.8125 -3.703125 C 12.8125 -4.585938 13.023438 -5.582031 13.453125 -6.6875 L 15.4375 -11.875 C 15.550781 -12.1875 15.609375 -12.4375 15.609375 -12.625 C 15.609375 -12.9375 15.503906 -13.179688 15.296875 -13.359375 C 15.097656 -13.535156 14.851562 -13.625 14.5625 -13.625 C 14.15625 -13.625 13.734375 -13.453125 13.296875 -13.109375 C 12.867188 -12.765625 12.515625 -12.207031 12.234375 -11.4375 L 9.859375 -3.734375 C 9.765625 -3.472656 9.71875 -3.222656 9.71875 -2.984375 C 9.71875 -2.691406 9.773438 -2.457031 9.890625 -2.28125 C 10.015625 -2.101562 10.179688 -1.914062 10.390625 -1.71875 C 10.554688 -1.582031 10.675781 -1.453125 10.75 -1.328125 C 10.820312 -1.210938 10.835938 -1.070312 10.796875 -0.90625 C 10.691406 -0.59375 10.457031 -0.363281 10.09375 -0.21875 C 9.738281 -0.0703125 9.179688 0 8.421875 0 L 0.21875 0 C -0.40625 0 -0.851562 -0.0976562 -1.125 -0.296875 C -1.40625 -0.503906 -1.507812 -0.773438 -1.4375 -1.109375 C -1.34375 -1.398438 -1.09375 -1.65625 -0.6875 -1.875 C -0.320312 -2.0625 -0.0195312 -2.285156 0.21875 -2.546875 C 0.457031 -2.816406 0.660156 -3.238281 0.828125 -3.8125 L 4.03125 -14.203125 C 4.070312 -14.328125 4.09375 -14.5 4.09375 -14.71875 C 4.09375 -14.976562 4.039062 -15.175781 3.9375 -15.3125 C 3.832031 -15.457031 3.660156 -15.640625 3.421875 -15.859375 C 3.179688 -16.054688 3.007812 -16.222656 2.90625 -16.359375 C 2.8125 -16.503906 2.800781 -16.695312 2.875 -16.9375 C 3.019531 -17.488281 3.773438 -17.972656 5.140625 -18.390625 C 6.503906 -18.816406 7.929688 -19.03125 9.421875 -19.03125 C 10.597656 -19.03125 11.523438 -18.703125 12.203125 -18.046875 C 12.890625 -17.398438 13.222656 -16.515625 13.203125 -15.390625 C 14.179688 -16.753906 15.21875 -17.703125 16.3125 -18.234375 C 17.40625 -18.765625 18.585938 -19.03125 19.859375 -19.03125 C 21.242188 -19.03125 22.375 -18.628906 23.25 -17.828125 C 24.125 -17.023438 24.609375 -15.972656 24.703125 -14.671875 C 25.734375 -16.304688 26.835938 -17.441406 28.015625 -18.078125 C 29.191406 -18.710938 30.476562 -19.03125 31.875 -19.03125 C 33.332031 -19.03125 34.507812 -18.582031 35.40625 -17.6875 C 36.3125 -16.800781 36.765625 -15.65625 36.765625 -14.25 C 36.765625 -13.5 36.644531 -12.765625 36.40625 -12.046875 Z M 34.203125 -4.96875 "/></g></g></g><g fill="#ffaa04" fill-opacity="0.502"><g transform="translate(166.92007, 198.502413)"><g><path d="M 12.84375 -19.03125 C 15.601562 -19.03125 17.804688 -18.519531 19.453125 -17.5 C 21.109375 -16.476562 21.9375 -14.925781 21.9375 -12.84375 C 21.9375 -12.050781 21.796875 -11.148438 21.515625 -10.140625 L 20.03125 -5.171875 C 20.007812 -5.078125 20 -4.957031 20 -4.8125 C 20 -4.4375 20.15625 -4.25 20.46875 -4.25 C 20.75 -4.25 20.992188 -4.375 21.203125 -4.625 C 21.410156 -4.875 21.550781 -5 21.625 -5 C 21.738281 -5 21.835938 -4.914062 21.921875 -4.75 C 22.003906 -4.582031 22.046875 -4.390625 22.046875 -4.171875 C 22.066406 -3.523438 21.816406 -2.863281 21.296875 -2.1875 C 20.785156 -1.519531 20.097656 -0.96875 19.234375 -0.53125 C 18.378906 -0.101562 17.4375 0.109375 16.40625 0.109375 C 15.15625 0.109375 14.085938 -0.117188 13.203125 -0.578125 C 12.316406 -1.035156 11.703125 -1.707031 11.359375 -2.59375 C 10.640625 -1.726562 9.789062 -1.0625 8.8125 -0.59375 C 7.832031 -0.125 6.773438 0.109375 5.640625 0.109375 C 4.367188 0.109375 3.300781 -0.132812 2.4375 -0.625 C 1.582031 -1.113281 0.941406 -1.75 0.515625 -2.53125 C 0.0976562 -3.3125 -0.109375 -4.132812 -0.109375 -5 C -0.109375 -5.382812 -0.0703125 -5.753906 0 -6.109375 C 0.382812 -7.765625 1.21875 -9.007812 2.5 -9.84375 C 3.78125 -10.6875 5.304688 -11.109375 7.078125 -11.109375 C 9.078125 -11.109375 11.035156 -10.796875 12.953125 -10.171875 L 13.84375 -12.546875 C 14.15625 -13.554688 14.3125 -14.335938 14.3125 -14.890625 C 14.289062 -15.460938 14.097656 -15.894531 13.734375 -16.1875 C 13.378906 -16.476562 12.828125 -16.625 12.078125 -16.625 C 12.222656 -16.238281 12.296875 -15.84375 12.296875 -15.4375 C 12.296875 -14.539062 11.957031 -13.769531 11.28125 -13.125 C 10.613281 -12.476562 9.660156 -12.15625 8.421875 -12.15625 C 7.242188 -12.15625 6.320312 -12.410156 5.65625 -12.921875 C 5 -13.441406 4.671875 -14.085938 4.671875 -14.859375 C 4.671875 -16.054688 5.34375 -17.050781 6.6875 -17.84375 C 8.03125 -18.632812 10.082031 -19.03125 12.84375 -19.03125 Z M 10.828125 -8.125 C 10.148438 -8.125 9.601562 -7.863281 9.1875 -7.34375 C 8.769531 -6.832031 8.5625 -6.28125 8.5625 -5.6875 C 8.5625 -5.300781 8.648438 -4.988281 8.828125 -4.75 C 9.003906 -4.507812 9.265625 -4.390625 9.609375 -4.390625 C 9.921875 -4.390625 10.257812 -4.515625 10.625 -4.765625 C 11 -5.015625 11.269531 -5.394531 11.4375 -5.90625 L 12.1875 -8.015625 C 11.78125 -8.085938 11.328125 -8.125 10.828125 -8.125 Z M 10.828125 -8.125 "/></g></g></g><g fill="#ffaa04" fill-opacity="0.502"><g transform="translate(190.441075, 198.502413)"><g><path d="M 17.65625 -19.03125 C 19 -19.03125 20.070312 -18.617188 20.875 -17.796875 C 21.675781 -16.984375 22.078125 -15.976562 22.078125 -14.78125 C 22.078125 -14.320312 22.03125 -13.90625 21.9375 -13.53125 C 21.695312 -12.539062 21.238281 -11.78125 20.5625 -11.25 C 19.894531 -10.726562 19.097656 -10.46875 18.171875 -10.46875 C 17.253906 -10.46875 16.5625 -10.679688 16.09375 -11.109375 C 15.625 -11.546875 15.210938 -12.125 14.859375 -12.84375 C 14.660156 -13.25 14.476562 -13.546875 14.3125 -13.734375 C 14.144531 -13.929688 13.953125 -14.03125 13.734375 -14.03125 C 13.492188 -14.03125 13.285156 -13.929688 13.109375 -13.734375 C 12.929688 -13.546875 12.769531 -13.210938 12.625 -12.734375 L 9.859375 -3.734375 C 9.804688 -3.617188 9.78125 -3.441406 9.78125 -3.203125 C 9.78125 -2.890625 9.867188 -2.628906 10.046875 -2.421875 C 10.234375 -2.222656 10.484375 -2.023438 10.796875 -1.828125 C 11.078125 -1.640625 11.265625 -1.484375 11.359375 -1.359375 C 11.460938 -1.242188 11.5 -1.09375 11.46875 -0.90625 C 11.425781 -0.59375 11.253906 -0.363281 10.953125 -0.21875 C 10.648438 -0.0703125 10.140625 0 9.421875 0 L 0.21875 0 C -0.40625 0 -0.851562 -0.0976562 -1.125 -0.296875 C -1.40625 -0.503906 -1.507812 -0.773438 -1.4375 -1.109375 C -1.34375 -1.398438 -1.09375 -1.65625 -0.6875 -1.875 C -0.320312 -2.0625 -0.0195312 -2.285156 0.21875 -2.546875 C 0.457031 -2.816406 0.660156 -3.238281 0.828125 -3.8125 L 4.03125 -14.203125 C 4.070312 -14.328125 4.09375 -14.5 4.09375 -14.71875 C 4.09375 -14.976562 4.039062 -15.175781 3.9375 -15.3125 C 3.832031 -15.457031 3.660156 -15.640625 3.421875 -15.859375 C 3.179688 -16.054688 3.007812 -16.222656 2.90625 -16.359375 C 2.8125 -16.503906 2.800781 -16.695312 2.875 -16.9375 C 3.019531 -17.488281 3.773438 -17.972656 5.140625 -18.390625 C 6.503906 -18.816406 7.929688 -19.03125 9.421875 -19.03125 C 10.410156 -19.03125 11.226562 -18.804688 11.875 -18.359375 C 12.519531 -17.921875 12.9375 -17.289062 13.125 -16.46875 C 14.28125 -18.175781 15.789062 -19.03125 17.65625 -19.03125 Z M 17.65625 -19.03125 "/></g></g></g><g fill="#1c5d72" fill-opacity="1"><g transform="translate(50.589845, 197.718738)"><g><path d="M 28.015625 -23.953125 C 29.003906 -23.953125 29.5 -23.640625 29.5 -23.015625 C 29.5 -22.847656 29.484375 -22.726562 29.453125 -22.65625 C 29.378906 -22.414062 29.269531 -22.226562 29.125 -22.09375 C 28.988281 -21.96875 28.785156 -21.820312 28.515625 -21.65625 C 28.160156 -21.4375 27.863281 -21.191406 27.625 -20.921875 C 27.382812 -20.660156 27.179688 -20.253906 27.015625 -19.703125 L 22.546875 -3.734375 C 22.140625 -2.296875 21.628906 -1.289062 21.015625 -0.71875 C 20.410156 -0.144531 19.566406 0.140625 18.484375 0.140625 C 17.523438 0.140625 16.726562 -0.140625 16.09375 -0.703125 C 15.457031 -1.265625 14.863281 -2.132812 14.3125 -3.3125 L 8.890625 -14.75 L 5.859375 -4.25 C 5.785156 -3.9375 5.75 -3.660156 5.75 -3.421875 C 5.75 -3.109375 5.800781 -2.847656 5.90625 -2.640625 C 6.019531 -2.441406 6.171875 -2.234375 6.359375 -2.015625 C 6.628906 -1.703125 6.765625 -1.4375 6.765625 -1.21875 C 6.765625 -1.070312 6.75 -0.96875 6.71875 -0.90625 C 6.625 -0.5625 6.410156 -0.320312 6.078125 -0.1875 C 5.742188 -0.0625 5.238281 0 4.5625 0 L 0.640625 0 C -0.335938 0 -0.828125 -0.3125 -0.828125 -0.9375 C -0.828125 -1.101562 -0.816406 -1.222656 -0.796875 -1.296875 C -0.722656 -1.535156 -0.613281 -1.71875 -0.46875 -1.84375 C -0.320312 -1.976562 -0.117188 -2.128906 0.140625 -2.296875 C 0.503906 -2.515625 0.804688 -2.753906 1.046875 -3.015625 C 1.285156 -3.285156 1.488281 -3.695312 1.65625 -4.25 L 6.21875 -20.390625 L 5.640625 -21.578125 C 5.398438 -22.054688 5.28125 -22.476562 5.28125 -22.84375 C 5.28125 -23.582031 5.757812 -23.953125 6.71875 -23.953125 L 12.046875 -23.953125 C 12.816406 -23.953125 13.398438 -23.773438 13.796875 -23.421875 C 14.191406 -23.078125 14.617188 -22.460938 15.078125 -21.578125 L 20.328125 -11.046875 L 22.796875 -19.703125 C 22.867188 -20.046875 22.90625 -20.320312 22.90625 -20.53125 C 22.90625 -20.84375 22.851562 -21.101562 22.75 -21.3125 C 22.644531 -21.519531 22.492188 -21.726562 22.296875 -21.9375 C 22.035156 -22.25 21.90625 -22.515625 21.90625 -22.734375 C 21.90625 -22.878906 21.914062 -22.988281 21.9375 -23.0625 C 22.03125 -23.394531 22.242188 -23.625 22.578125 -23.75 C 22.921875 -23.882812 23.425781 -23.953125 24.09375 -23.953125 Z M 28.015625 -23.953125 "/></g></g></g><g fill="#1c5d72" fill-opacity="1"><g transform="translate(76.736285, 197.718738)"><g><path d="M 17.234375 -23.953125 C 20.828125 -23.953125 23.535156 -23.257812 25.359375 -21.875 C 27.179688 -20.5 28.09375 -18.484375 28.09375 -15.828125 C 28.09375 -14.503906 27.851562 -12.984375 27.375 -11.265625 C 26.582031 -8.472656 25.515625 -6.257812 24.171875 -4.625 C 22.828125 -3 21.054688 -1.816406 18.859375 -1.078125 C 16.671875 -0.335938 13.863281 0.0195312 10.4375 0 L 0.640625 -0.03125 C 0.140625 -0.03125 -0.242188 -0.113281 -0.515625 -0.28125 C -0.796875 -0.457031 -0.9375 -0.6875 -0.9375 -0.96875 C -0.9375 -1.113281 -0.898438 -1.269531 -0.828125 -1.4375 C -0.753906 -1.65625 -0.648438 -1.8125 -0.515625 -1.90625 C -0.390625 -2 -0.191406 -2.128906 0.078125 -2.296875 C 0.453125 -2.515625 0.753906 -2.753906 0.984375 -3.015625 C 1.210938 -3.285156 1.410156 -3.707031 1.578125 -4.28125 L 5.96875 -19.75 C 6.0625 -20.0625 6.109375 -20.359375 6.109375 -20.640625 C 6.109375 -20.910156 6.066406 -21.132812 5.984375 -21.3125 C 5.898438 -21.488281 5.785156 -21.695312 5.640625 -21.9375 C 5.429688 -22.25 5.328125 -22.503906 5.328125 -22.703125 C 5.328125 -22.765625 5.347656 -22.894531 5.390625 -23.09375 C 5.492188 -23.40625 5.707031 -23.625 6.03125 -23.75 C 6.351562 -23.882812 6.847656 -23.953125 7.515625 -23.953125 Z M 18.171875 -12.046875 C 18.785156 -14.304688 19.09375 -16.082031 19.09375 -17.375 C 19.09375 -18.644531 18.828125 -19.519531 18.296875 -20 C 17.773438 -20.476562 17.023438 -20.71875 16.046875 -20.71875 L 15.25 -20.71875 L 10.390625 -3.234375 L 11.265625 -3.234375 C 12.359375 -3.234375 13.28125 -3.46875 14.03125 -3.9375 C 14.789062 -4.40625 15.492188 -5.269531 16.140625 -6.53125 C 16.796875 -7.789062 17.472656 -9.628906 18.171875 -12.046875 Z M 18.171875 -12.046875 "/></g></g></g><g fill="#1c5d72" fill-opacity="1"><g transform="translate(104.501149, 197.718738)"><g><path d="M 12.84375 -19.03125 C 15.601562 -19.03125 17.804688 -18.519531 19.453125 -17.5 C 21.109375 -16.476562 21.9375 -14.925781 21.9375 -12.84375 C 21.9375 -12.050781 21.796875 -11.148438 21.515625 -10.140625 L 20.03125 -5.171875 C 20.007812 -5.078125 20 -4.957031 20 -4.8125 C 20 -4.4375 20.15625 -4.25 20.46875 -4.25 C 20.75 -4.25 20.992188 -4.375 21.203125 -4.625 C 21.410156 -4.875 21.550781 -5 21.625 -5 C 21.738281 -5 21.835938 -4.914062 21.921875 -4.75 C 22.003906 -4.582031 22.046875 -4.390625 22.046875 -4.171875 C 22.066406 -3.523438 21.816406 -2.863281 21.296875 -2.1875 C 20.785156 -1.519531 20.097656 -0.96875 19.234375 -0.53125 C 18.378906 -0.101562 17.4375 0.109375 16.40625 0.109375 C 15.15625 0.109375 14.085938 -0.117188 13.203125 -0.578125 C 12.316406 -1.035156 11.703125 -1.707031 11.359375 -2.59375 C 10.640625 -1.726562 9.789062 -1.0625 8.8125 -0.59375 C 7.832031 -0.125 6.773438 0.109375 5.640625 0.109375 C 4.367188 0.109375 3.300781 -0.132812 2.4375 -0.625 C 1.582031 -1.113281 0.941406 -1.75 0.515625 -2.53125 C 0.0976562 -3.3125 -0.109375 -4.132812 -0.109375 -5 C -0.109375 -5.382812 -0.0703125 -5.753906 0 -6.109375 C 0.382812 -7.765625 1.21875 -9.007812 2.5 -9.84375 C 3.78125 -10.6875 5.304688 -11.109375 7.078125 -11.109375 C 9.078125 -11.109375 11.035156 -10.796875 12.953125 -10.171875 L 13.84375 -12.546875 C 14.15625 -13.554688 14.3125 -14.335938 14.3125 -14.890625 C 14.289062 -15.460938 14.097656 -15.894531 13.734375 -16.1875 C 13.378906 -16.476562 12.828125 -16.625 12.078125 -16.625 C 12.222656 -16.238281 12.296875 -15.84375 12.296875 -15.4375 C 12.296875 -14.539062 11.957031 -13.769531 11.28125 -13.125 C 10.613281 -12.476562 9.660156 -12.15625 8.421875 -12.15625 C 7.242188 -12.15625 6.320312 -12.410156 5.65625 -12.921875 C 5 -13.441406 4.671875 -14.085938 4.671875 -14.859375 C 4.671875 -16.054688 5.34375 -17.050781 6.6875 -17.84375 C 8.03125 -18.632812 10.082031 -19.03125 12.84375 -19.03125 Z M 10.828125 -8.125 C 10.148438 -8.125 9.601562 -7.863281 9.1875 -7.34375 C 8.769531 -6.832031 8.5625 -6.28125 8.5625 -5.6875 C 8.5625 -5.300781 8.648438 -4.988281 8.828125 -4.75 C 9.003906 -4.507812 9.265625 -4.390625 9.609375 -4.390625 C 9.921875 -4.390625 10.257812 -4.515625 10.625 -4.765625 C 11 -5.015625 11.269531 -5.394531 11.4375 -5.90625 L 12.1875 -8.015625 C 11.78125 -8.085938 11.328125 -8.125 10.828125 -8.125 Z M 10.828125 -8.125 "/></g></g></g><g fill="#1c5d72" fill-opacity="1"><g transform="translate(128.022155, 197.718738)"><g><path d="M 34.203125 -4.96875 C 34.160156 -4.863281 34.140625 -4.71875 34.140625 -4.53125 C 34.140625 -4.363281 34.179688 -4.234375 34.265625 -4.140625 C 34.347656 -4.046875 34.460938 -4 34.609375 -4 C 34.890625 -4 35.128906 -4.125 35.328125 -4.375 C 35.535156 -4.625 35.675781 -4.75 35.75 -4.75 C 35.875 -4.75 35.972656 -4.671875 36.046875 -4.515625 C 36.117188 -4.359375 36.15625 -4.171875 36.15625 -3.953125 C 36.175781 -3.253906 35.945312 -2.578125 35.46875 -1.921875 C 34.988281 -1.265625 34.285156 -0.722656 33.359375 -0.296875 C 32.429688 0.117188 31.320312 0.328125 30.03125 0.328125 C 28.445312 0.328125 27.1875 -0.0351562 26.25 -0.765625 C 25.320312 -1.503906 24.84375 -2.484375 24.8125 -3.703125 C 24.8125 -4.585938 25.03125 -5.582031 25.46875 -6.6875 L 27.4375 -11.875 C 27.5625 -12.1875 27.625 -12.4375 27.625 -12.625 C 27.625 -12.9375 27.519531 -13.179688 27.3125 -13.359375 C 27.113281 -13.535156 26.867188 -13.625 26.578125 -13.625 C 26.171875 -13.625 25.75 -13.441406 25.3125 -13.078125 C 24.882812 -12.722656 24.503906 -12.164062 24.171875 -11.40625 L 22.1875 -4.96875 C 22.144531 -4.863281 22.125 -4.71875 22.125 -4.53125 C 22.125 -4.363281 22.164062 -4.234375 22.25 -4.140625 C 22.332031 -4.046875 22.445312 -4 22.59375 -4 C 22.875 -4 23.113281 -4.125 23.3125 -4.375 C 23.519531 -4.625 23.660156 -4.75 23.734375 -4.75 C 23.859375 -4.75 23.957031 -4.671875 24.03125 -4.515625 C 24.101562 -4.359375 24.140625 -4.171875 24.140625 -3.953125 C 24.160156 -3.253906 23.929688 -2.578125 23.453125 -1.921875 C 22.972656 -1.265625 22.269531 -0.722656 21.34375 -0.296875 C 20.425781 0.117188 19.316406 0.328125 18.015625 0.328125 C 16.429688 0.328125 15.171875 -0.0351562 14.234375 -0.765625 C 13.304688 -1.503906 12.832031 -2.484375 12.8125 -3.703125 C 12.8125 -4.585938 13.023438 -5.582031 13.453125 -6.6875 L 15.4375 -11.875 C 15.550781 -12.1875 15.609375 -12.4375 15.609375 -12.625 C 15.609375 -12.9375 15.503906 -13.179688 15.296875 -13.359375 C 15.097656 -13.535156 14.851562 -13.625 14.5625 -13.625 C 14.15625 -13.625 13.734375 -13.453125 13.296875 -13.109375 C 12.867188 -12.765625 12.515625 -12.207031 12.234375 -11.4375 L 9.859375 -3.734375 C 9.765625 -3.472656 9.71875 -3.222656 9.71875 -2.984375 C 9.71875 -2.691406 9.773438 -2.457031 9.890625 -2.28125 C 10.015625 -2.101562 10.179688 -1.914062 10.390625 -1.71875 C 10.554688 -1.582031 10.675781 -1.453125 10.75 -1.328125 C 10.820312 -1.210938 10.835938 -1.070312 10.796875 -0.90625 C 10.691406 -0.59375 10.457031 -0.363281 10.09375 -0.21875 C 9.738281 -0.0703125 9.179688 0 8.421875 0 L 0.21875 0 C -0.40625 0 -0.851562 -0.0976562 -1.125 -0.296875 C -1.40625 -0.503906 -1.507812 -0.773438 -1.4375 -1.109375 C -1.34375 -1.398438 -1.09375 -1.65625 -0.6875 -1.875 C -0.320312 -2.0625 -0.0195312 -2.285156 0.21875 -2.546875 C 0.457031 -2.816406 0.660156 -3.238281 0.828125 -3.8125 L 4.03125 -14.203125 C 4.070312 -14.328125 4.09375 -14.5 4.09375 -14.71875 C 4.09375 -14.976562 4.039062 -15.175781 3.9375 -15.3125 C 3.832031 -15.457031 3.660156 -15.640625 3.421875 -15.859375 C 3.179688 -16.054688 3.007812 -16.222656 2.90625 -16.359375 C 2.8125 -16.503906 2.800781 -16.695312 2.875 -16.9375 C 3.019531 -17.488281 3.773438 -17.972656 5.140625 -18.390625 C 6.503906 -18.816406 7.929688 -19.03125 9.421875 -19.03125 C 10.597656 -19.03125 11.523438 -18.703125 12.203125 -18.046875 C 12.890625 -17.398438 13.222656 -16.515625 13.203125 -15.390625 C 14.179688 -16.753906 15.21875 -17.703125 16.3125 -18.234375 C 17.40625 -18.765625 18.585938 -19.03125 19.859375 -19.03125 C 21.242188 -19.03125 22.375 -18.628906 23.25 -17.828125 C 24.125 -17.023438 24.609375 -15.972656 24.703125 -14.671875 C 25.734375 -16.304688 26.835938 -17.441406 28.015625 -18.078125 C 29.191406 -18.710938 30.476562 -19.03125 31.875 -19.03125 C 33.332031 -19.03125 34.507812 -18.582031 35.40625 -17.6875 C 36.3125 -16.800781 36.765625 -15.65625 36.765625 -14.25 C 36.765625 -13.5 36.644531 -12.765625 36.40625 -12.046875 Z M 34.203125 -4.96875 "/></g></g></g><g fill="#1c5d72" fill-opacity="1"><g transform="translate(165.713315, 197.718738)"><g><path d="M 12.84375 -19.03125 C 15.601562 -19.03125 17.804688 -18.519531 19.453125 -17.5 C 21.109375 -16.476562 21.9375 -14.925781 21.9375 -12.84375 C 21.9375 -12.050781 21.796875 -11.148438 21.515625 -10.140625 L 20.03125 -5.171875 C 20.007812 -5.078125 20 -4.957031 20 -4.8125 C 20 -4.4375 20.15625 -4.25 20.46875 -4.25 C 20.75 -4.25 20.992188 -4.375 21.203125 -4.625 C 21.410156 -4.875 21.550781 -5 21.625 -5 C 21.738281 -5 21.835938 -4.914062 21.921875 -4.75 C 22.003906 -4.582031 22.046875 -4.390625 22.046875 -4.171875 C 22.066406 -3.523438 21.816406 -2.863281 21.296875 -2.1875 C 20.785156 -1.519531 20.097656 -0.96875 19.234375 -0.53125 C 18.378906 -0.101562 17.4375 0.109375 16.40625 0.109375 C 15.15625 0.109375 14.085938 -0.117188 13.203125 -0.578125 C 12.316406 -1.035156 11.703125 -1.707031 11.359375 -2.59375 C 10.640625 -1.726562 9.789062 -1.0625 8.8125 -0.59375 C 7.832031 -0.125 6.773438 0.109375 5.640625 0.109375 C 4.367188 0.109375 3.300781 -0.132812 2.4375 -0.625 C 1.582031 -1.113281 0.941406 -1.75 0.515625 -2.53125 C 0.0976562 -3.3125 -0.109375 -4.132812 -0.109375 -5 C -0.109375 -5.382812 -0.0703125 -5.753906 0 -6.109375 C 0.382812 -7.765625 1.21875 -9.007812 2.5 -9.84375 C 3.78125 -10.6875 5.304688 -11.109375 7.078125 -11.109375 C 9.078125 -11.109375 11.035156 -10.796875 12.953125 -10.171875 L 13.84375 -12.546875 C 14.15625 -13.554688 14.3125 -14.335938 14.3125 -14.890625 C 14.289062 -15.460938 14.097656 -15.894531 13.734375 -16.1875 C 13.378906 -16.476562 12.828125 -16.625 12.078125 -16.625 C 12.222656 -16.238281 12.296875 -15.84375 12.296875 -15.4375 C 12.296875 -14.539062 11.957031 -13.769531 11.28125 -13.125 C 10.613281 -12.476562 9.660156 -12.15625 8.421875 -12.15625 C 7.242188 -12.15625 6.320312 -12.410156 5.65625 -12.921875 C 5 -13.441406 4.671875 -14.085938 4.671875 -14.859375 C 4.671875 -16.054688 5.34375 -17.050781 6.6875 -17.84375 C 8.03125 -18.632812 10.082031 -19.03125 12.84375 -19.03125 Z M 10.828125 -8.125 C 10.148438 -8.125 9.601562 -7.863281 9.1875 -7.34375 C 8.769531 -6.832031 8.5625 -6.28125 8.5625 -5.6875 C 8.5625 -5.300781 8.648438 -4.988281 8.828125 -4.75 C 9.003906 -4.507812 9.265625 -4.390625 9.609375 -4.390625 C 9.921875 -4.390625 10.257812 -4.515625 10.625 -4.765625 C 11 -5.015625 11.269531 -5.394531 11.4375 -5.90625 L 12.1875 -8.015625 C 11.78125 -8.085938 11.328125 -8.125 10.828125 -8.125 Z M 10.828125 -8.125 "/></g></g></g><g fill="#1c5d72" fill-opacity="1"><g transform="translate(189.234321, 197.718738)"><g><path d="M 17.65625 -19.03125 C 19 -19.03125 20.070312 -18.617188 20.875 -17.796875 C 21.675781 -16.984375 22.078125 -15.976562 22.078125 -14.78125 C 22.078125 -14.320312 22.03125 -13.90625 21.9375 -13.53125 C 21.695312 -12.539062 21.238281 -11.78125 20.5625 -11.25 C 19.894531 -10.726562 19.097656 -10.46875 18.171875 -10.46875 C 17.253906 -10.46875 16.5625 -10.679688 16.09375 -11.109375 C 15.625 -11.546875 15.210938 -12.125 14.859375 -12.84375 C 14.660156 -13.25 14.476562 -13.546875 14.3125 -13.734375 C 14.144531 -13.929688 13.953125 -14.03125 13.734375 -14.03125 C 13.492188 -14.03125 13.285156 -13.929688 13.109375 -13.734375 C 12.929688 -13.546875 12.769531 -13.210938 12.625 -12.734375 L 9.859375 -3.734375 C 9.804688 -3.617188 9.78125 -3.441406 9.78125 -3.203125 C 9.78125 -2.890625 9.867188 -2.628906 10.046875 -2.421875 C 10.234375 -2.222656 10.484375 -2.023438 10.796875 -1.828125 C 11.078125 -1.640625 11.265625 -1.484375 11.359375 -1.359375 C 11.460938 -1.242188 11.5 -1.09375 11.46875 -0.90625 C 11.425781 -0.59375 11.253906 -0.363281 10.953125 -0.21875 C 10.648438 -0.0703125 10.140625 0 9.421875 0 L 0.21875 0 C -0.40625 0 -0.851562 -0.0976562 -1.125 -0.296875 C -1.40625 -0.503906 -1.507812 -0.773438 -1.4375 -1.109375 C -1.34375 -1.398438 -1.09375 -1.65625 -0.6875 -1.875 C -0.320312 -2.0625 -0.0195312 -2.285156 0.21875 -2.546875 C 0.457031 -2.816406 0.660156 -3.238281 0.828125 -3.8125 L 4.03125 -14.203125 C 4.070312 -14.328125 4.09375 -14.5 4.09375 -14.71875 C 4.09375 -14.976562 4.039062 -15.175781 3.9375 -15.3125 C 3.832031 -15.457031 3.660156 -15.640625 3.421875 -15.859375 C 3.179688 -16.054688 3.007812 -16.222656 2.90625 -16.359375 C 2.8125 -16.503906 2.800781 -16.695312 2.875 -16.9375 C 3.019531 -17.488281 3.773438 -17.972656 5.140625 -18.390625 C 6.503906 -18.816406 7.929688 -19.03125 9.421875 -19.03125 C 10.410156 -19.03125 11.226562 -18.804688 11.875 -18.359375 C 12.519531 -17.921875 12.9375 -17.289062 13.125 -16.46875 C 14.28125 -18.175781 15.789062 -19.03125 17.65625 -19.03125 Z M 17.65625 -19.03125 "/></g></g></g></svg>