<?xml version="1.0" encoding="UTF-8"?>
<svg xmlns="http://www.w3.org/2000/svg" xmlns:xlink="http://www.w3.org/1999/xlink" width="150px" height="150px" viewBox="0 0 150 150" version="1.1">
<defs>
<clipPath id="clip1">
  <path d="M 100 74.398438 L 108.78125 74.398438 L 108.78125 80.800781 L 100 80.800781 Z M 100 74.398438 "/>
</clipPath>
<clipPath id="clip2">
  <path d="M 41.28125 71.601562 L 45.601562 71.601562 L 45.601562 80 L 41.28125 80 Z M 41.28125 71.601562 "/>
</clipPath>
<clipPath id="clip3">
  <path d="M 45.601562 44.257812 L 104 44.257812 L 104 70 L 45.601562 70 Z M 45.601562 44.257812 "/>
</clipPath>
<clipPath id="clip4">
  <path d="M 50 91.601562 L 99 91.601562 L 99 103.957031 L 50 103.957031 Z M 50 91.601562 "/>
</clipPath>
</defs>
<g id="surface1">
<rect x="0" y="0" width="150" height="150" style="fill:rgb(93.72549%,93.72549%,93.72549%);fill-opacity:1;stroke:none;"/>
<path style=" stroke:none;fill-rule:nonzero;fill:rgb(100%,56.862745%,30.196078%);fill-opacity:1;" d="M 61.316406 97.097656 C 61.46875 96.832031 61.707031 96.574219 62.035156 96.308594 C 62.367188 96.042969 62.75 95.792969 63.179688 95.550781 C 63.605469 95.304688 64.074219 95.074219 64.570312 94.855469 C 65.070312 94.636719 65.578125 94.4375 66.089844 94.253906 C 66.574219 94.074219 67.039062 93.917969 67.492188 93.792969 C 67.941406 93.660156 68.355469 93.574219 68.734375 93.503906 C 69.101562 93.445312 69.4375 93.421875 69.722656 93.425781 C 70.007812 93.429688 70.222656 93.484375 70.363281 93.585938 C 70.46875 93.664062 70.53125 93.769531 70.542969 93.894531 C 70.550781 94.023438 70.507812 94.183594 70.417969 94.378906 C 70.707031 94.324219 70.933594 94.238281 71.097656 94.117188 C 71.261719 93.996094 71.371094 93.863281 71.4375 93.71875 C 71.546875 93.421875 71.527344 93.191406 71.382812 93.039062 C 71.234375 92.882812 70.976562 92.785156 70.621094 92.738281 C 70.226562 92.695312 69.742188 92.722656 69.152344 92.800781 C 68.5625 92.890625 67.910156 93.023438 67.222656 93.207031 C 66.53125 93.398438 65.808594 93.632812 65.070312 93.90625 C 64.324219 94.1875 63.617188 94.503906 62.941406 94.847656 C 62.996094 94.6875 63.113281 94.507812 63.285156 94.304688 C 63.457031 94.101562 63.652344 93.902344 63.878906 93.6875 C 64.109375 93.476562 64.34375 93.269531 64.605469 93.066406 C 64.851562 92.867188 65.097656 92.679688 65.320312 92.511719 C 65.699219 92.230469 66.058594 91.976562 66.414062 91.730469 C 66.765625 91.488281 67.09375 91.277344 67.390625 91.074219 L 68.078125 90.613281 C 67.859375 90.496094 67.636719 90.421875 67.421875 90.40625 C 67.207031 90.386719 66.964844 90.375 66.6875 90.378906 C 66.25 90.390625 65.773438 90.4375 65.261719 90.519531 C 64.742188 90.609375 64.210938 90.71875 63.667969 90.828125 C 63.109375 90.941406 62.5625 91.050781 62.023438 91.167969 C 61.480469 91.277344 60.972656 91.351562 60.5 91.398438 C 60.007812 91.449219 59.585938 91.441406 59.210938 91.402344 C 58.839844 91.359375 58.542969 91.246094 58.335938 91.042969 C 58.164062 90.894531 58.085938 90.726562 58.070312 90.539062 C 58.054688 90.351562 58.082031 90.15625 58.160156 89.960938 C 58.226562 89.769531 58.328125 89.578125 58.457031 89.394531 C 58.589844 89.214844 58.71875 89.054688 58.867188 88.910156 C 58.570312 88.871094 58.28125 88.851562 57.992188 88.871094 C 57.703125 88.886719 57.421875 88.925781 57.144531 89 C 56.855469 89.070312 56.578125 89.171875 56.324219 89.316406 C 56.0625 89.453125 55.832031 89.613281 55.632812 89.820312 C 55.390625 90.050781 55.214844 90.3125 55.085938 90.597656 C 54.953125 90.882812 54.898438 91.183594 54.917969 91.472656 C 54.921875 91.761719 55.003906 92.050781 55.152344 92.332031 C 55.300781 92.617188 55.546875 92.871094 55.875 93.109375 C 56.140625 93.300781 56.5 93.394531 56.964844 93.378906 C 57.425781 93.371094 57.945312 93.292969 58.546875 93.160156 C 59.132812 93.027344 59.746094 92.855469 60.414062 92.632812 C 61.078125 92.410156 61.75 92.175781 62.441406 91.933594 C 63.117188 91.691406 63.769531 91.46875 64.414062 91.253906 C 65.054688 91.035156 65.648438 90.875 66.183594 90.757812 C 65.554688 91.035156 64.9375 91.355469 64.335938 91.714844 C 63.730469 92.082031 63.167969 92.496094 62.636719 92.953125 C 62.449219 93.109375 62.273438 93.28125 62.082031 93.472656 C 61.894531 93.664062 61.730469 93.875 61.578125 94.089844 C 61.421875 94.304688 61.289062 94.539062 61.175781 94.78125 C 61.0625 95.027344 60.984375 95.273438 60.953125 95.527344 C 60.914062 95.789062 60.917969 96.042969 60.976562 96.3125 C 61.027344 96.574219 61.136719 96.84375 61.316406 97.097656 Z M 61.316406 97.097656 "/>
<path style=" stroke:none;fill-rule:nonzero;fill:rgb(100%,56.862745%,30.196078%);fill-opacity:1;" d="M 68.234375 99.535156 C 68.628906 99.738281 69.046875 99.820312 69.492188 99.808594 C 69.9375 99.792969 70.386719 99.683594 70.84375 99.503906 C 71.289062 99.320312 71.71875 99.074219 72.15625 98.761719 C 72.582031 98.445312 72.976562 98.082031 73.34375 97.671875 C 73.699219 97.265625 74.007812 96.828125 74.269531 96.367188 C 74.535156 95.90625 74.738281 95.433594 74.871094 94.949219 C 74.988281 94.472656 75.03125 94.011719 75 93.550781 C 74.957031 93.097656 74.8125 92.660156 74.554688 92.261719 C 74.300781 91.859375 73.921875 91.511719 73.441406 91.210938 C 72.945312 90.917969 72.320312 90.6875 71.542969 90.523438 L 71.582031 90.535156 C 71.101562 90.433594 70.59375 90.402344 70.078125 90.441406 C 69.554688 90.476562 69.0625 90.585938 68.59375 90.785156 C 68.121094 90.980469 67.707031 91.253906 67.34375 91.605469 C 66.980469 91.957031 66.738281 92.390625 66.601562 92.925781 C 66.515625 93.269531 66.535156 93.5625 66.679688 93.785156 C 66.8125 94.019531 67.011719 94.183594 67.273438 94.273438 C 67.523438 94.367188 67.804688 94.375 68.117188 94.304688 C 68.429688 94.238281 68.714844 94.066406 68.980469 93.796875 C 68.808594 93.730469 68.679688 93.667969 68.582031 93.582031 C 68.476562 93.5 68.40625 93.410156 68.367188 93.316406 C 68.316406 93.21875 68.289062 93.117188 68.292969 93.011719 C 68.289062 92.90625 68.308594 92.796875 68.339844 92.675781 C 68.363281 92.578125 68.398438 92.472656 68.449219 92.355469 C 68.5 92.246094 68.554688 92.144531 68.621094 92.042969 C 68.691406 91.945312 68.757812 91.847656 68.820312 91.757812 C 68.886719 91.667969 68.957031 91.589844 69.019531 91.519531 C 69.183594 91.3125 69.40625 91.144531 69.667969 91.023438 C 69.933594 90.898438 70.21875 90.800781 70.527344 90.753906 C 70.832031 90.714844 71.136719 90.714844 71.460938 90.757812 C 71.789062 90.796875 72.101562 90.886719 72.402344 91.027344 C 72.894531 91.253906 73.269531 91.566406 73.507812 91.957031 C 73.746094 92.339844 73.882812 92.765625 73.925781 93.21875 C 73.957031 93.679688 73.914062 94.152344 73.777344 94.644531 C 73.644531 95.136719 73.453125 95.605469 73.207031 96.046875 C 72.984375 96.421875 72.730469 96.757812 72.441406 97.042969 C 72.144531 97.335938 71.835938 97.566406 71.496094 97.730469 C 71.160156 97.910156 70.808594 98.011719 70.464844 98.042969 C 70.117188 98.082031 69.785156 98.019531 69.484375 97.871094 C 69.257812 97.769531 69.042969 97.613281 68.847656 97.394531 C 68.648438 97.183594 68.484375 96.910156 68.347656 96.582031 L 68.480469 96.457031 C 68.671875 96.285156 68.875 96.105469 69.078125 95.925781 C 69.273438 95.742188 69.476562 95.550781 69.683594 95.363281 C 69.878906 95.179688 70.082031 94.996094 70.292969 94.832031 C 70.5 94.660156 70.710938 94.496094 70.941406 94.339844 C 71.269531 94.109375 71.617188 93.902344 71.980469 93.71875 C 72.339844 93.546875 72.753906 93.398438 73.222656 93.261719 C 72.910156 93.238281 72.597656 93.261719 72.296875 93.335938 C 71.996094 93.40625 71.683594 93.519531 71.355469 93.644531 C 71.027344 93.785156 70.691406 93.941406 70.375 94.113281 C 70.058594 94.289062 69.738281 94.472656 69.417969 94.652344 C 69.097656 94.847656 68.78125 95.019531 68.46875 95.171875 C 68.15625 95.324219 67.847656 95.457031 67.550781 95.5625 C 67.238281 95.671875 66.949219 95.738281 66.671875 95.753906 C 66.390625 95.777344 66.117188 95.738281 65.847656 95.628906 C 65.636719 95.554688 65.484375 95.453125 65.390625 95.324219 C 65.285156 95.191406 65.214844 95.050781 65.183594 94.882812 C 65.113281 94.570312 65.160156 94.226562 65.339844 93.839844 C 65.105469 93.894531 64.882812 93.988281 64.667969 94.121094 C 64.449219 94.257812 64.246094 94.425781 64.058594 94.621094 C 63.863281 94.824219 63.703125 95.039062 63.558594 95.277344 C 63.417969 95.511719 63.316406 95.75 63.230469 95.992188 C 63.144531 96.253906 63.09375 96.503906 63.09375 96.757812 C 63.082031 97.007812 63.128906 97.25 63.230469 97.476562 C 63.316406 97.707031 63.457031 97.902344 63.664062 98.082031 C 63.871094 98.257812 64.144531 98.398438 64.476562 98.496094 C 64.730469 98.570312 64.996094 98.570312 65.28125 98.519531 C 65.558594 98.460938 65.847656 98.363281 66.148438 98.207031 C 66.4375 98.0625 66.726562 97.871094 67.035156 97.644531 C 67.335938 97.421875 67.640625 97.175781 67.945312 96.914062 C 67.71875 97.234375 67.570312 97.535156 67.503906 97.800781 C 67.421875 98.078125 67.40625 98.316406 67.457031 98.535156 C 67.492188 98.769531 67.578125 98.96875 67.714844 99.128906 C 67.84375 99.296875 68.019531 99.4375 68.234375 99.535156 Z M 68.234375 99.535156 "/>
<path style=" stroke:none;fill-rule:nonzero;fill:rgb(100%,56.862745%,30.196078%);fill-opacity:1;" d="M 76.15625 100.179688 L 76.117188 100.214844 C 76.402344 100.199219 76.683594 100.105469 76.96875 99.917969 C 77.25 99.742188 77.523438 99.511719 77.777344 99.246094 C 78.019531 98.988281 78.242188 98.703125 78.453125 98.40625 C 78.660156 98.109375 78.832031 97.824219 78.960938 97.574219 C 78.945312 97.59375 78.921875 97.605469 78.894531 97.628906 C 78.863281 97.648438 78.835938 97.683594 78.796875 97.714844 C 78.707031 97.800781 78.609375 97.886719 78.5 97.976562 C 78.394531 98.070312 78.277344 98.167969 78.148438 98.265625 C 77.875 98.496094 77.644531 98.660156 77.445312 98.75 C 77.347656 98.804688 77.265625 98.820312 77.210938 98.804688 C 77.160156 98.785156 77.148438 98.722656 77.171875 98.621094 C 77.1875 98.515625 77.273438 98.351562 77.40625 98.140625 L 79.5 94.738281 L 78.0625 94.808594 L 77.457031 95.777344 C 77.445312 95.574219 77.40625 95.410156 77.328125 95.273438 C 77.25 95.140625 77.15625 95.046875 77.03125 94.96875 C 76.894531 94.90625 76.738281 94.871094 76.574219 94.859375 C 76.410156 94.855469 76.226562 94.886719 76.046875 94.933594 C 75.90625 94.984375 75.746094 95.050781 75.578125 95.164062 C 75.410156 95.273438 75.242188 95.390625 75.0625 95.542969 C 74.886719 95.695312 74.703125 95.867188 74.515625 96.0625 C 74.332031 96.253906 74.15625 96.445312 73.984375 96.660156 C 73.769531 96.914062 73.578125 97.167969 73.40625 97.433594 C 73.226562 97.707031 73.074219 97.96875 72.945312 98.230469 C 72.851562 98.417969 72.769531 98.636719 72.722656 98.886719 C 72.671875 99.132812 72.652344 99.359375 72.683594 99.570312 C 72.703125 99.796875 72.773438 99.976562 72.882812 100.125 C 72.992188 100.273438 73.167969 100.34375 73.425781 100.332031 C 73.769531 100.316406 74.132812 100.226562 74.492188 100.046875 C 74.664062 99.96875 74.820312 99.867188 74.96875 99.757812 C 75.117188 99.648438 75.246094 99.519531 75.339844 99.382812 C 75.332031 99.617188 75.402344 99.808594 75.554688 99.964844 C 75.691406 100.121094 75.890625 100.195312 76.15625 100.179688 Z M 74.390625 98.96875 C 74.296875 98.921875 74.230469 98.84375 74.195312 98.722656 C 74.15625 98.601562 74.171875 98.449219 74.222656 98.25 C 74.265625 98.066406 74.359375 97.847656 74.507812 97.574219 C 74.65625 97.3125 74.867188 97.003906 75.136719 96.65625 C 75.253906 96.507812 75.367188 96.359375 75.503906 96.207031 C 75.628906 96.058594 75.765625 95.929688 75.90625 95.800781 C 76.03125 95.679688 76.167969 95.582031 76.320312 95.515625 C 76.460938 95.445312 76.609375 95.417969 76.773438 95.410156 C 76.867188 95.417969 76.9375 95.445312 76.992188 95.492188 C 77.035156 95.550781 77.070312 95.621094 77.09375 95.710938 C 77.109375 95.804688 77.113281 95.90625 77.101562 96.027344 C 77.085938 96.152344 77.070312 96.273438 77.039062 96.410156 L 77.046875 96.410156 L 76.058594 97.929688 C 75.980469 98.054688 75.875 98.191406 75.761719 98.339844 C 75.632812 98.492188 75.5 98.628906 75.351562 98.75 C 75.195312 98.878906 75.035156 98.96875 74.875 99.015625 C 74.703125 99.078125 74.539062 99.0625 74.390625 98.96875 Z M 74.390625 98.96875 "/>
<path style=" stroke:none;fill-rule:nonzero;fill:rgb(100%,56.862745%,30.196078%);fill-opacity:1;" d="M 81.949219 95.171875 L 80.488281 99.742188 L 81.75 99.324219 C 81.761719 99.265625 81.785156 99.195312 81.820312 99.097656 C 81.847656 99.015625 81.882812 98.921875 81.921875 98.800781 L 82.136719 98.097656 C 82.210938 97.851562 82.28125 97.617188 82.359375 97.382812 C 82.4375 97.144531 82.496094 96.957031 82.554688 96.789062 L 82.722656 96.289062 C 82.75 96.199219 82.78125 96.09375 82.8125 95.988281 C 82.847656 95.890625 82.890625 95.78125 82.929688 95.664062 C 83.003906 95.449219 83.078125 95.234375 83.160156 95.019531 C 83.246094 94.800781 83.332031 94.585938 83.417969 94.386719 C 83.464844 94.289062 83.523438 94.195312 83.582031 94.105469 C 83.648438 94.007812 83.71875 93.925781 83.789062 93.839844 C 83.863281 93.765625 83.9375 93.699219 84.015625 93.644531 C 84.089844 93.601562 84.164062 93.566406 84.234375 93.554688 C 84.308594 93.546875 84.355469 93.605469 84.375 93.738281 C 84.378906 93.886719 84.328125 94.148438 84.222656 94.5 L 83.761719 95.734375 C 83.667969 95.996094 83.566406 96.261719 83.457031 96.53125 C 83.332031 96.820312 83.246094 97.105469 83.210938 97.347656 C 83.175781 97.507812 83.167969 97.660156 83.167969 97.808594 C 83.171875 97.957031 83.210938 98.09375 83.265625 98.207031 C 83.324219 98.328125 83.40625 98.421875 83.523438 98.492188 C 83.628906 98.566406 83.789062 98.59375 83.980469 98.589844 C 84.140625 98.59375 84.300781 98.554688 84.460938 98.488281 C 84.609375 98.421875 84.753906 98.324219 84.859375 98.1875 C 84.972656 98.066406 85.078125 97.917969 85.175781 97.75 C 85.273438 97.582031 85.359375 97.40625 85.449219 97.210938 C 85.535156 97.023438 85.617188 96.839844 85.691406 96.65625 C 85.761719 96.476562 85.828125 96.304688 85.886719 96.140625 L 85.6875 96.371094 C 85.59375 96.484375 85.507812 96.585938 85.425781 96.671875 C 85.339844 96.773438 85.257812 96.851562 85.179688 96.90625 C 85.09375 96.976562 85.027344 97.007812 84.96875 96.992188 C 84.910156 96.976562 84.882812 96.910156 84.882812 96.804688 C 84.871094 96.699219 84.886719 96.570312 84.917969 96.398438 C 84.957031 96.238281 84.996094 96.054688 85.0625 95.84375 L 85.242188 95.234375 C 85.300781 95.039062 85.355469 94.839844 85.417969 94.648438 C 85.472656 94.484375 85.523438 94.332031 85.558594 94.171875 C 85.625 93.925781 85.65625 93.703125 85.636719 93.507812 C 85.621094 93.308594 85.5625 93.148438 85.449219 93.019531 C 85.28125 92.847656 85.082031 92.757812 84.867188 92.75 C 84.652344 92.75 84.433594 92.792969 84.21875 92.898438 C 83.996094 93.007812 83.800781 93.164062 83.621094 93.355469 C 83.445312 93.546875 83.3125 93.75 83.226562 93.953125 C 83.203125 94.015625 83.183594 94.0625 83.167969 94.113281 C 83.140625 94.164062 83.121094 94.210938 83.101562 94.25 C 83.074219 94.300781 83.054688 94.347656 83.039062 94.394531 C 83.015625 94.457031 83 94.515625 82.984375 94.570312 C 82.964844 94.332031 82.914062 94.125 82.832031 93.957031 C 82.738281 93.792969 82.597656 93.675781 82.410156 93.613281 C 82.203125 93.570312 82.011719 93.597656 81.808594 93.710938 C 81.613281 93.832031 81.4375 93.992188 81.265625 94.203125 C 81.085938 94.429688 80.925781 94.667969 80.777344 94.925781 C 80.621094 95.1875 80.492188 95.425781 80.371094 95.65625 C 80.394531 95.457031 80.394531 95.273438 80.386719 95.109375 C 80.378906 94.9375 80.355469 94.789062 80.3125 94.648438 C 80.214844 94.390625 80.066406 94.253906 79.847656 94.234375 C 79.722656 94.242188 79.578125 94.296875 79.417969 94.398438 C 79.246094 94.5 79.050781 94.675781 78.84375 94.910156 L 78.832031 94.933594 C 79.058594 95.125 79.191406 95.316406 79.246094 95.503906 C 79.265625 95.601562 79.269531 95.71875 79.261719 95.828125 C 79.242188 95.953125 79.21875 96.085938 79.1875 96.226562 L 77.867188 100.523438 L 79.214844 100.117188 L 80.140625 96.703125 C 80.183594 96.640625 80.25 96.535156 80.316406 96.398438 C 80.378906 96.257812 80.449219 96.101562 80.527344 95.929688 L 80.785156 95.402344 C 80.878906 95.226562 80.980469 95.058594 81.082031 94.875 C 81.191406 94.703125 81.308594 94.5625 81.445312 94.449219 C 81.714844 94.238281 81.890625 94.261719 81.96875 94.523438 C 82.011719 94.664062 82 94.878906 81.949219 95.171875 Z M 81.949219 95.171875 "/>
<path style=" stroke:none;fill-rule:nonzero;fill:rgb(100%,56.862745%,30.196078%);fill-opacity:1;" d="M 88.808594 96.289062 L 88.789062 96.335938 C 89.03125 96.1875 89.238281 95.972656 89.402344 95.671875 C 89.566406 95.386719 89.703125 95.054688 89.800781 94.699219 C 89.894531 94.359375 89.953125 94.003906 90.003906 93.640625 C 90.050781 93.28125 90.066406 92.953125 90.0625 92.667969 C 90.058594 92.695312 90.046875 92.714844 90.03125 92.75 C 90.015625 92.78125 90.003906 92.824219 89.984375 92.871094 C 89.945312 92.988281 89.898438 93.109375 89.84375 93.238281 C 89.796875 93.375 89.738281 93.515625 89.671875 93.664062 C 89.53125 93.992188 89.410156 94.242188 89.277344 94.417969 C 89.214844 94.515625 89.148438 94.5625 89.09375 94.574219 C 89.039062 94.582031 89 94.535156 88.976562 94.429688 C 88.941406 94.332031 88.9375 94.144531 88.953125 93.898438 L 89.210938 89.910156 L 87.972656 90.644531 L 87.890625 91.785156 C 87.789062 91.609375 87.675781 91.484375 87.542969 91.398438 C 87.414062 91.320312 87.28125 91.28125 87.136719 91.273438 C 86.984375 91.28125 86.832031 91.320312 86.679688 91.390625 C 86.535156 91.460938 86.390625 91.574219 86.25 91.703125 C 86.148438 91.8125 86.039062 91.945312 85.945312 92.125 C 85.847656 92.300781 85.753906 92.484375 85.667969 92.703125 C 85.585938 92.917969 85.5 93.15625 85.429688 93.414062 C 85.355469 93.671875 85.289062 93.921875 85.238281 94.191406 C 85.167969 94.519531 85.117188 94.832031 85.089844 95.148438 C 85.058594 95.472656 85.050781 95.777344 85.058594 96.070312 C 85.0625 96.277344 85.09375 96.507812 85.164062 96.75 C 85.238281 96.992188 85.328125 97.203125 85.453125 97.375 C 85.578125 97.5625 85.722656 97.691406 85.890625 97.769531 C 86.054688 97.851562 86.246094 97.832031 86.464844 97.703125 C 86.765625 97.523438 87.042969 97.273438 87.277344 96.945312 C 87.390625 96.796875 87.484375 96.632812 87.5625 96.46875 C 87.640625 96.304688 87.691406 96.128906 87.710938 95.964844 C 87.816406 96.175781 87.96875 96.3125 88.171875 96.378906 C 88.371094 96.453125 88.578125 96.421875 88.808594 96.289062 Z M 86.679688 96.042969 C 86.574219 96.046875 86.480469 96.007812 86.390625 95.917969 C 86.304688 95.828125 86.242188 95.6875 86.195312 95.488281 C 86.144531 95.304688 86.125 95.066406 86.128906 94.753906 C 86.140625 94.453125 86.179688 94.082031 86.253906 93.648438 C 86.289062 93.460938 86.320312 93.277344 86.367188 93.082031 C 86.410156 92.890625 86.46875 92.710938 86.53125 92.535156 C 86.585938 92.371094 86.664062 92.21875 86.765625 92.085938 C 86.855469 91.960938 86.976562 91.867188 87.117188 91.78125 C 87.203125 91.742188 87.277344 91.734375 87.347656 91.75 C 87.414062 91.785156 87.476562 91.828125 87.542969 91.898438 C 87.597656 91.972656 87.648438 92.058594 87.695312 92.175781 C 87.742188 92.289062 87.785156 92.40625 87.816406 92.542969 L 87.828125 92.535156 L 87.664062 94.34375 C 87.65625 94.488281 87.628906 94.660156 87.59375 94.84375 C 87.554688 95.035156 87.5 95.222656 87.425781 95.398438 C 87.347656 95.585938 87.25 95.742188 87.128906 95.859375 C 87.007812 95.992188 86.855469 96.058594 86.679688 96.042969 Z M 86.679688 96.042969 "/>
<path style=" stroke:none;fill-rule:nonzero;fill:rgb(100%,56.862745%,30.196078%);fill-opacity:1;" d="M 89.671875 91.292969 L 90.265625 95.691406 L 91.316406 94.757812 L 90.671875 90.945312 C 90.632812 90.683594 90.632812 90.394531 90.667969 90.078125 C 90.679688 90 90.691406 89.890625 90.714844 89.75 C 90.746094 89.613281 90.773438 89.464844 90.828125 89.308594 C 90.875 89.15625 90.929688 89.023438 90.988281 88.890625 C 91.046875 88.753906 91.117188 88.652344 91.210938 88.570312 C 91.300781 88.503906 91.40625 88.480469 91.503906 88.5 C 91.609375 88.527344 91.726562 88.613281 91.863281 88.769531 C 91.933594 88.84375 91.957031 88.933594 91.957031 89.042969 C 91.957031 89.148438 91.929688 89.242188 91.882812 89.339844 C 91.832031 89.4375 91.769531 89.535156 91.675781 89.617188 C 91.585938 89.699219 91.480469 89.75 91.363281 89.773438 C 91.425781 89.933594 91.492188 90.054688 91.5625 90.128906 C 91.628906 90.207031 91.710938 90.253906 91.789062 90.269531 C 91.867188 90.292969 91.949219 90.292969 92.023438 90.265625 C 92.09375 90.242188 92.164062 90.210938 92.222656 90.15625 C 92.375 90.050781 92.476562 89.917969 92.53125 89.730469 C 92.578125 89.554688 92.589844 89.367188 92.5625 89.15625 C 92.539062 88.960938 92.484375 88.761719 92.398438 88.566406 C 92.304688 88.375 92.203125 88.207031 92.070312 88.066406 C 91.941406 87.933594 91.796875 87.832031 91.640625 87.765625 C 91.476562 87.703125 91.3125 87.703125 91.148438 87.765625 C 90.992188 87.835938 90.855469 87.957031 90.753906 88.117188 C 90.65625 88.285156 90.566406 88.460938 90.503906 88.652344 C 90.441406 88.855469 90.394531 89.066406 90.351562 89.265625 C 90.320312 89.472656 90.296875 89.644531 90.273438 89.785156 C 90.15625 89.578125 90.019531 89.425781 89.875 89.324219 C 89.734375 89.226562 89.582031 89.210938 89.433594 89.277344 C 89.320312 89.332031 89.214844 89.441406 89.109375 89.605469 C 89.007812 89.761719 88.90625 89.988281 88.820312 90.273438 C 88.96875 90.316406 89.082031 90.367188 89.179688 90.417969 C 89.277344 90.464844 89.351562 90.535156 89.421875 90.613281 C 89.480469 90.695312 89.53125 90.800781 89.570312 90.902344 C 89.605469 91.019531 89.640625 91.152344 89.671875 91.292969 Z M 88.804688 90.273438 L 88.808594 90.308594 L 88.820312 90.273438 Z M 88.804688 90.273438 "/>
<path style=" stroke:none;fill-rule:nonzero;fill:rgb(0%,0%,0%);fill-opacity:1;" d="M 61.5625 96.964844 C 61.714844 96.699219 61.953125 96.441406 62.28125 96.175781 C 62.613281 95.910156 62.996094 95.65625 63.421875 95.414062 C 63.851562 95.167969 64.320312 94.941406 64.816406 94.71875 C 65.316406 94.5 65.824219 94.300781 66.335938 94.117188 C 66.820312 93.9375 67.28125 93.78125 67.738281 93.65625 C 68.1875 93.527344 68.601562 93.4375 68.976562 93.371094 C 69.347656 93.308594 69.679688 93.285156 69.96875 93.289062 C 70.253906 93.292969 70.46875 93.347656 70.609375 93.449219 C 70.714844 93.527344 70.777344 93.632812 70.789062 93.757812 C 70.796875 93.886719 70.753906 94.046875 70.664062 94.246094 C 70.953125 94.191406 71.179688 94.101562 71.34375 93.980469 C 71.507812 93.859375 71.617188 93.726562 71.679688 93.582031 C 71.792969 93.285156 71.773438 93.058594 71.628906 92.902344 C 71.480469 92.746094 71.222656 92.648438 70.867188 92.605469 C 70.46875 92.558594 69.984375 92.585938 69.398438 92.664062 C 68.804688 92.753906 68.15625 92.886719 67.46875 93.070312 C 66.777344 93.261719 66.054688 93.496094 65.316406 93.769531 C 64.570312 94.050781 63.863281 94.371094 63.1875 94.714844 C 63.242188 94.550781 63.359375 94.371094 63.53125 94.167969 C 63.703125 93.964844 63.898438 93.765625 64.125 93.550781 C 64.355469 93.339844 64.589844 93.132812 64.851562 92.929688 C 65.097656 92.730469 65.34375 92.542969 65.566406 92.378906 C 65.945312 92.097656 66.304688 91.839844 66.660156 91.59375 C 67.007812 91.355469 67.339844 91.140625 67.636719 90.941406 L 68.320312 90.476562 C 68.105469 90.359375 67.882812 90.285156 67.667969 90.269531 C 67.453125 90.253906 67.210938 90.238281 66.929688 90.242188 C 66.496094 90.253906 66.019531 90.300781 65.507812 90.382812 C 64.988281 90.472656 64.457031 90.582031 63.914062 90.691406 C 63.351562 90.804688 62.808594 90.914062 62.269531 91.03125 C 61.726562 91.140625 61.21875 91.214844 60.742188 91.261719 C 60.253906 91.3125 59.828125 91.308594 59.457031 91.265625 C 59.085938 91.222656 58.789062 91.109375 58.582031 90.910156 C 58.410156 90.761719 58.332031 90.589844 58.316406 90.402344 C 58.300781 90.214844 58.328125 90.019531 58.40625 89.824219 C 58.46875 89.632812 58.570312 89.441406 58.703125 89.257812 C 58.835938 89.078125 58.960938 88.917969 59.113281 88.777344 C 58.816406 88.738281 58.527344 88.714844 58.238281 88.734375 C 57.949219 88.753906 57.667969 88.789062 57.390625 88.863281 C 57.101562 88.933594 56.824219 89.035156 56.570312 89.179688 C 56.304688 89.316406 56.078125 89.476562 55.875 89.683594 C 55.636719 89.914062 55.460938 90.175781 55.328125 90.460938 C 55.199219 90.746094 55.144531 91.046875 55.164062 91.335938 C 55.167969 91.628906 55.25 91.914062 55.398438 92.199219 C 55.546875 92.480469 55.789062 92.734375 56.121094 92.972656 C 56.386719 93.164062 56.746094 93.257812 57.210938 93.242188 C 57.671875 93.234375 58.191406 93.15625 58.789062 93.023438 C 59.375 92.894531 59.992188 92.722656 60.65625 92.496094 C 61.324219 92.273438 61.996094 92.039062 62.6875 91.796875 C 63.363281 91.554688 64.015625 91.332031 64.660156 91.121094 C 65.296875 90.898438 65.894531 90.738281 66.429688 90.621094 C 65.800781 90.898438 65.179688 91.21875 64.582031 91.578125 C 63.976562 91.945312 63.414062 92.359375 62.882812 92.816406 C 62.695312 92.972656 62.515625 93.144531 62.328125 93.339844 C 62.140625 93.527344 61.976562 93.738281 61.820312 93.953125 C 61.664062 94.167969 61.535156 94.402344 61.421875 94.644531 C 61.308594 94.890625 61.230469 95.136719 61.199219 95.390625 C 61.160156 95.652344 61.164062 95.910156 61.222656 96.175781 C 61.273438 96.441406 61.382812 96.707031 61.5625 96.964844 Z M 61.5625 96.964844 "/>
<path style=" stroke:none;fill-rule:nonzero;fill:rgb(0%,0%,0%);fill-opacity:1;" d="M 68.480469 99.398438 C 68.871094 99.601562 69.292969 99.683594 69.738281 99.671875 C 70.183594 99.65625 70.632812 99.546875 71.089844 99.367188 C 71.535156 99.183594 71.964844 98.9375 72.402344 98.625 C 72.828125 98.308594 73.222656 97.949219 73.589844 97.535156 C 73.945312 97.128906 74.253906 96.691406 74.515625 96.230469 C 74.78125 95.769531 74.984375 95.296875 75.113281 94.8125 C 75.234375 94.339844 75.277344 93.875 75.246094 93.414062 C 75.203125 92.960938 75.058594 92.527344 74.800781 92.125 C 74.542969 91.722656 74.167969 91.375 73.6875 91.074219 C 73.191406 90.785156 72.566406 90.550781 71.785156 90.386719 L 71.824219 90.398438 C 71.347656 90.300781 70.839844 90.265625 70.324219 90.304688 C 69.800781 90.339844 69.308594 90.449219 68.839844 90.648438 C 68.367188 90.84375 67.949219 91.121094 67.589844 91.472656 C 67.226562 91.820312 66.980469 92.253906 66.847656 92.789062 C 66.761719 93.136719 66.78125 93.425781 66.925781 93.652344 C 67.058594 93.882812 67.257812 94.050781 67.519531 94.136719 C 67.769531 94.230469 68.050781 94.238281 68.363281 94.167969 C 68.675781 94.101562 68.960938 93.929688 69.226562 93.660156 C 69.054688 93.597656 68.925781 93.53125 68.828125 93.445312 C 68.722656 93.363281 68.652344 93.273438 68.613281 93.179688 C 68.5625 93.082031 68.535156 92.980469 68.539062 92.878906 C 68.535156 92.769531 68.554688 92.660156 68.582031 92.542969 C 68.609375 92.441406 68.644531 92.335938 68.695312 92.222656 C 68.746094 92.109375 68.800781 92.007812 68.867188 91.90625 C 68.933594 91.808594 69.003906 91.710938 69.066406 91.621094 C 69.132812 91.53125 69.203125 91.457031 69.261719 91.386719 C 69.429688 91.175781 69.652344 91.011719 69.914062 90.886719 C 70.175781 90.761719 70.464844 90.667969 70.769531 90.617188 C 71.074219 90.578125 71.378906 90.582031 71.707031 90.621094 C 72.035156 90.660156 72.347656 90.75 72.648438 90.890625 C 73.140625 91.117188 73.511719 91.433594 73.753906 91.820312 C 73.992188 92.207031 74.128906 92.628906 74.171875 93.082031 C 74.203125 93.542969 74.160156 94.015625 74.023438 94.507812 C 73.890625 95 73.699219 95.46875 73.449219 95.910156 C 73.230469 96.285156 72.976562 96.621094 72.683594 96.90625 C 72.390625 97.199219 72.082031 97.429688 71.742188 97.597656 C 71.402344 97.773438 71.050781 97.875 70.707031 97.90625 C 70.363281 97.945312 70.03125 97.882812 69.730469 97.734375 C 69.503906 97.632812 69.289062 97.476562 69.09375 97.257812 C 68.894531 97.050781 68.730469 96.777344 68.589844 96.449219 L 68.726562 96.324219 C 68.917969 96.152344 69.121094 95.96875 69.324219 95.789062 C 69.519531 95.605469 69.722656 95.417969 69.929688 95.226562 C 70.121094 95.042969 70.324219 94.863281 70.535156 94.695312 C 70.746094 94.527344 70.957031 94.359375 71.183594 94.207031 C 71.515625 93.972656 71.863281 93.765625 72.226562 93.582031 C 72.585938 93.410156 73 93.261719 73.464844 93.125 C 73.15625 93.101562 72.84375 93.128906 72.542969 93.199219 C 72.242188 93.269531 71.929688 93.382812 71.601562 93.511719 C 71.273438 93.648438 70.9375 93.804688 70.621094 93.980469 C 70.304688 94.152344 69.984375 94.335938 69.664062 94.519531 C 69.34375 94.710938 69.027344 94.882812 68.714844 95.035156 C 68.402344 95.191406 68.09375 95.324219 67.792969 95.425781 C 67.484375 95.535156 67.191406 95.601562 66.917969 95.617188 C 66.636719 95.640625 66.363281 95.601562 66.09375 95.492188 C 65.882812 95.417969 65.730469 95.316406 65.636719 95.1875 C 65.53125 95.058594 65.460938 94.914062 65.429688 94.746094 C 65.359375 94.433594 65.40625 94.089844 65.585938 93.703125 C 65.351562 93.761719 65.128906 93.851562 64.914062 93.988281 C 64.691406 94.121094 64.492188 94.292969 64.304688 94.488281 C 64.105469 94.691406 63.949219 94.902344 63.804688 95.140625 C 63.660156 95.378906 63.558594 95.613281 63.476562 95.855469 C 63.390625 96.121094 63.339844 96.371094 63.339844 96.621094 C 63.328125 96.871094 63.371094 97.113281 63.472656 97.339844 C 63.5625 97.574219 63.703125 97.765625 63.910156 97.945312 C 64.117188 98.121094 64.386719 98.261719 64.722656 98.359375 C 64.976562 98.433594 65.238281 98.433594 65.527344 98.382812 C 65.804688 98.324219 66.089844 98.230469 66.394531 98.074219 C 66.683594 97.925781 66.972656 97.734375 67.28125 97.507812 C 67.582031 97.285156 67.886719 97.039062 68.191406 96.777344 C 67.964844 97.097656 67.816406 97.398438 67.746094 97.667969 C 67.667969 97.941406 67.652344 98.179688 67.699219 98.402344 C 67.738281 98.632812 67.824219 98.832031 67.960938 98.992188 C 68.089844 99.160156 68.261719 99.300781 68.480469 99.398438 Z M 68.480469 99.398438 "/>
<path style=" stroke:none;fill-rule:nonzero;fill:rgb(0%,0%,0%);fill-opacity:1;" d="M 76.402344 100.042969 L 76.363281 100.078125 C 76.648438 100.0625 76.929688 99.96875 77.214844 99.78125 C 77.496094 99.605469 77.769531 99.375 78.023438 99.109375 C 78.265625 98.851562 78.488281 98.566406 78.699219 98.269531 C 78.90625 97.972656 79.078125 97.6875 79.207031 97.4375 C 79.191406 97.457031 79.167969 97.46875 79.140625 97.492188 C 79.109375 97.511719 79.082031 97.546875 79.042969 97.578125 C 78.953125 97.664062 78.855469 97.75 78.746094 97.839844 C 78.640625 97.933594 78.523438 98.03125 78.394531 98.128906 C 78.121094 98.359375 77.890625 98.523438 77.691406 98.613281 C 77.59375 98.667969 77.511719 98.683594 77.457031 98.667969 C 77.40625 98.648438 77.394531 98.585938 77.417969 98.484375 C 77.433594 98.378906 77.519531 98.214844 77.652344 98.003906 L 79.746094 94.601562 L 78.308594 94.671875 L 77.703125 95.640625 C 77.691406 95.4375 77.652344 95.273438 77.574219 95.136719 C 77.496094 95.003906 77.402344 94.910156 77.277344 94.832031 C 77.140625 94.769531 76.984375 94.734375 76.820312 94.722656 C 76.65625 94.71875 76.472656 94.75 76.292969 94.796875 C 76.152344 94.847656 75.992188 94.914062 75.824219 95.027344 C 75.65625 95.136719 75.488281 95.253906 75.308594 95.40625 C 75.132812 95.558594 74.949219 95.730469 74.761719 95.925781 C 74.578125 96.117188 74.402344 96.308594 74.230469 96.523438 C 74.015625 96.777344 73.824219 97.03125 73.652344 97.296875 C 73.472656 97.570312 73.320312 97.832031 73.191406 98.09375 C 73.097656 98.28125 73.015625 98.5 72.96875 98.75 C 72.917969 98.996094 72.898438 99.222656 72.929688 99.433594 C 72.949219 99.660156 73.019531 99.839844 73.128906 99.988281 C 73.238281 100.136719 73.414062 100.207031 73.671875 100.195312 C 74.015625 100.179688 74.378906 100.089844 74.738281 99.910156 C 74.910156 99.832031 75.066406 99.730469 75.214844 99.621094 C 75.363281 99.511719 75.492188 99.382812 75.585938 99.246094 C 75.578125 99.480469 75.648438 99.671875 75.800781 99.828125 C 75.9375 99.984375 76.136719 100.058594 76.402344 100.042969 Z M 74.636719 98.832031 C 74.542969 98.785156 74.476562 98.707031 74.441406 98.585938 C 74.402344 98.464844 74.417969 98.3125 74.46875 98.113281 C 74.511719 97.929688 74.605469 97.710938 74.753906 97.4375 C 74.902344 97.175781 75.113281 96.867188 75.382812 96.519531 C 75.5 96.371094 75.613281 96.222656 75.75 96.070312 C 75.875 95.921875 76.011719 95.792969 76.152344 95.664062 C 76.277344 95.542969 76.414062 95.445312 76.566406 95.378906 C 76.707031 95.308594 76.855469 95.28125 77.019531 95.273438 C 77.113281 95.28125 77.183594 95.308594 77.238281 95.355469 C 77.28125 95.414062 77.316406 95.484375 77.339844 95.574219 C 77.355469 95.667969 77.359375 95.769531 77.347656 95.890625 C 77.332031 96.015625 77.316406 96.136719 77.285156 96.273438 L 77.292969 96.273438 L 76.304688 97.792969 C 76.226562 97.917969 76.121094 98.054688 76.007812 98.203125 C 75.878906 98.355469 75.746094 98.492188 75.597656 98.613281 C 75.441406 98.742188 75.28125 98.832031 75.121094 98.878906 C 74.949219 98.941406 74.785156 98.925781 74.636719 98.832031 Z M 74.636719 98.832031 "/>
<path style=" stroke:none;fill-rule:nonzero;fill:rgb(0%,0%,0%);fill-opacity:1;" d="M 82.195312 95.035156 L 80.734375 99.609375 L 81.996094 99.1875 C 82.007812 99.128906 82.03125 99.058594 82.066406 98.960938 C 82.09375 98.878906 82.128906 98.785156 82.167969 98.664062 L 82.382812 97.960938 C 82.457031 97.714844 82.527344 97.480469 82.605469 97.246094 C 82.683594 97.007812 82.742188 96.820312 82.800781 96.652344 L 82.96875 96.15625 C 82.996094 96.0625 83.027344 95.957031 83.058594 95.851562 C 83.09375 95.753906 83.136719 95.648438 83.175781 95.527344 C 83.25 95.3125 83.324219 95.101562 83.40625 94.882812 C 83.492188 94.664062 83.578125 94.449219 83.664062 94.25 C 83.710938 94.152344 83.769531 94.0625 83.828125 93.96875 C 83.894531 93.875 83.964844 93.789062 84.035156 93.703125 C 84.109375 93.628906 84.183594 93.5625 84.261719 93.507812 C 84.335938 93.464844 84.410156 93.429688 84.480469 93.421875 C 84.554688 93.410156 84.601562 93.46875 84.621094 93.601562 C 84.625 93.75 84.574219 94.011719 84.46875 94.363281 L 84.007812 95.597656 C 83.914062 95.859375 83.8125 96.125 83.703125 96.394531 C 83.578125 96.6875 83.492188 96.96875 83.457031 97.210938 C 83.421875 97.375 83.414062 97.523438 83.414062 97.671875 C 83.417969 97.820312 83.457031 97.957031 83.511719 98.070312 C 83.570312 98.191406 83.652344 98.285156 83.769531 98.355469 C 83.875 98.429688 84.035156 98.457031 84.226562 98.453125 C 84.386719 98.457031 84.546875 98.421875 84.707031 98.351562 C 84.855469 98.285156 85 98.1875 85.105469 98.050781 C 85.21875 97.929688 85.324219 97.78125 85.421875 97.613281 C 85.519531 97.445312 85.605469 97.269531 85.695312 97.074219 C 85.78125 96.886719 85.863281 96.703125 85.9375 96.523438 C 86.007812 96.339844 86.074219 96.171875 86.132812 96.003906 L 85.933594 96.234375 C 85.839844 96.347656 85.753906 96.449219 85.671875 96.535156 C 85.585938 96.636719 85.503906 96.714844 85.425781 96.769531 C 85.339844 96.839844 85.273438 96.871094 85.214844 96.855469 C 85.15625 96.839844 85.128906 96.773438 85.128906 96.667969 C 85.117188 96.5625 85.132812 96.433594 85.164062 96.261719 C 85.203125 96.101562 85.242188 95.917969 85.308594 95.707031 L 85.488281 95.101562 C 85.546875 94.902344 85.601562 94.703125 85.664062 94.515625 C 85.71875 94.347656 85.769531 94.195312 85.804688 94.035156 C 85.871094 93.789062 85.902344 93.570312 85.882812 93.371094 C 85.867188 93.171875 85.808594 93.011719 85.695312 92.882812 C 85.527344 92.710938 85.328125 92.621094 85.113281 92.613281 C 84.898438 92.613281 84.679688 92.65625 84.464844 92.765625 C 84.242188 92.875 84.046875 93.03125 83.867188 93.21875 C 83.691406 93.414062 83.558594 93.613281 83.472656 93.820312 C 83.449219 93.878906 83.429688 93.929688 83.414062 93.976562 C 83.386719 94.027344 83.367188 94.074219 83.347656 94.113281 C 83.320312 94.164062 83.300781 94.210938 83.285156 94.257812 C 83.261719 94.320312 83.246094 94.378906 83.230469 94.4375 C 83.210938 94.195312 83.160156 93.988281 83.078125 93.820312 C 82.984375 93.65625 82.84375 93.539062 82.65625 93.476562 C 82.449219 93.433594 82.257812 93.460938 82.054688 93.574219 C 81.859375 93.695312 81.683594 93.855469 81.511719 94.066406 C 81.332031 94.292969 81.171875 94.53125 81.023438 94.789062 C 80.867188 95.050781 80.738281 95.289062 80.617188 95.519531 C 80.640625 95.320312 80.640625 95.140625 80.632812 94.972656 C 80.625 94.804688 80.601562 94.652344 80.558594 94.515625 C 80.460938 94.257812 80.3125 94.117188 80.09375 94.101562 C 79.96875 94.105469 79.824219 94.160156 79.664062 94.261719 C 79.492188 94.367188 79.296875 94.539062 79.089844 94.773438 L 79.078125 94.796875 C 79.304688 94.988281 79.4375 95.179688 79.492188 95.367188 C 79.511719 95.46875 79.515625 95.585938 79.507812 95.695312 C 79.488281 95.816406 79.464844 95.949219 79.433594 96.089844 L 78.113281 100.386719 L 79.460938 99.980469 L 80.386719 96.570312 C 80.429688 96.503906 80.496094 96.398438 80.5625 96.261719 C 80.625 96.125 80.695312 95.964844 80.773438 95.792969 L 81.03125 95.265625 C 81.125 95.089844 81.226562 94.921875 81.328125 94.742188 C 81.4375 94.570312 81.554688 94.429688 81.691406 94.3125 C 81.960938 94.101562 82.136719 94.125 82.214844 94.390625 C 82.257812 94.527344 82.246094 94.742188 82.195312 95.035156 Z M 82.195312 95.035156 "/>
<path style=" stroke:none;fill-rule:nonzero;fill:rgb(0%,0%,0%);fill-opacity:1;" d="M 89.054688 96.152344 L 89.03125 96.199219 C 89.277344 96.050781 89.484375 95.835938 89.648438 95.535156 C 89.8125 95.25 89.945312 94.917969 90.046875 94.5625 C 90.140625 94.222656 90.199219 93.867188 90.25 93.507812 C 90.296875 93.144531 90.3125 92.816406 90.308594 92.53125 C 90.304688 92.558594 90.289062 92.578125 90.273438 92.613281 C 90.257812 92.644531 90.25 92.6875 90.226562 92.734375 C 90.191406 92.851562 90.144531 92.972656 90.089844 93.101562 C 90.039062 93.238281 89.984375 93.378906 89.914062 93.527344 C 89.777344 93.855469 89.65625 94.109375 89.523438 94.28125 C 89.460938 94.378906 89.394531 94.429688 89.339844 94.4375 C 89.285156 94.445312 89.246094 94.398438 89.21875 94.296875 C 89.1875 94.195312 89.179688 94.007812 89.199219 93.761719 L 89.457031 89.773438 L 88.21875 90.507812 L 88.136719 91.648438 C 88.03125 91.476562 87.921875 91.351562 87.789062 91.265625 C 87.660156 91.1875 87.527344 91.144531 87.382812 91.136719 C 87.230469 91.144531 87.078125 91.1875 86.925781 91.253906 C 86.78125 91.328125 86.632812 91.4375 86.496094 91.566406 C 86.394531 91.675781 86.285156 91.8125 86.1875 91.988281 C 86.09375 92.164062 86 92.351562 85.914062 92.566406 C 85.828125 92.78125 85.746094 93.023438 85.671875 93.28125 C 85.601562 93.535156 85.535156 93.789062 85.484375 94.054688 C 85.414062 94.382812 85.363281 94.695312 85.335938 95.011719 C 85.304688 95.335938 85.296875 95.640625 85.304688 95.933594 C 85.308594 96.140625 85.339844 96.375 85.410156 96.617188 C 85.484375 96.859375 85.570312 97.066406 85.699219 97.242188 C 85.820312 97.429688 85.96875 97.554688 86.132812 97.632812 C 86.300781 97.714844 86.492188 97.695312 86.710938 97.566406 C 87.007812 97.386719 87.289062 97.140625 87.523438 96.8125 C 87.632812 96.660156 87.726562 96.5 87.808594 96.332031 C 87.886719 96.167969 87.9375 95.992188 87.957031 95.828125 C 88.0625 96.039062 88.210938 96.175781 88.417969 96.242188 C 88.617188 96.316406 88.824219 96.285156 89.054688 96.152344 Z M 86.925781 95.90625 C 86.820312 95.910156 86.726562 95.871094 86.636719 95.78125 C 86.546875 95.691406 86.488281 95.550781 86.441406 95.351562 C 86.390625 95.167969 86.367188 94.929688 86.375 94.617188 C 86.382812 94.316406 86.425781 93.945312 86.5 93.511719 C 86.53125 93.328125 86.566406 93.140625 86.613281 92.945312 C 86.65625 92.753906 86.714844 92.578125 86.777344 92.398438 C 86.832031 92.234375 86.910156 92.082031 87.007812 91.953125 C 87.101562 91.824219 87.222656 91.730469 87.363281 91.648438 C 87.445312 91.609375 87.523438 91.597656 87.59375 91.617188 C 87.660156 91.648438 87.722656 91.695312 87.789062 91.761719 C 87.84375 91.835938 87.894531 91.921875 87.941406 92.039062 C 87.984375 92.15625 88.03125 92.269531 88.0625 92.40625 L 88.070312 92.398438 L 87.910156 94.207031 C 87.902344 94.351562 87.875 94.523438 87.839844 94.710938 C 87.800781 94.898438 87.746094 95.085938 87.671875 95.261719 C 87.59375 95.453125 87.492188 95.605469 87.375 95.722656 C 87.25 95.855469 87.101562 95.921875 86.925781 95.90625 Z M 86.925781 95.90625 "/>
<path style=" stroke:none;fill-rule:nonzero;fill:rgb(0%,0%,0%);fill-opacity:1;" d="M 89.914062 91.15625 L 90.507812 95.554688 L 91.5625 94.621094 L 90.917969 90.808594 C 90.875 90.546875 90.878906 90.257812 90.914062 89.941406 C 90.921875 89.863281 90.9375 89.753906 90.960938 89.613281 C 90.992188 89.476562 91.019531 89.328125 91.074219 89.171875 C 91.117188 89.019531 91.175781 88.886719 91.234375 88.753906 C 91.292969 88.617188 91.363281 88.515625 91.457031 88.433594 C 91.546875 88.367188 91.648438 88.34375 91.75 88.363281 C 91.855469 88.390625 91.972656 88.476562 92.109375 88.632812 C 92.179688 88.707031 92.203125 88.796875 92.203125 88.90625 C 92.203125 89.011719 92.175781 89.105469 92.125 89.203125 C 92.078125 89.300781 92.015625 89.398438 91.921875 89.480469 C 91.832031 89.5625 91.726562 89.613281 91.609375 89.636719 C 91.671875 89.796875 91.738281 89.917969 91.804688 89.992188 C 91.875 90.070312 91.957031 90.117188 92.035156 90.132812 C 92.113281 90.15625 92.195312 90.15625 92.265625 90.128906 C 92.339844 90.105469 92.40625 90.074219 92.46875 90.019531 C 92.621094 89.914062 92.722656 89.78125 92.777344 89.59375 C 92.820312 89.417969 92.835938 89.230469 92.808594 89.019531 C 92.785156 88.824219 92.730469 88.625 92.640625 88.429688 C 92.550781 88.238281 92.445312 88.070312 92.316406 87.929688 C 92.1875 87.796875 92.042969 87.695312 91.886719 87.628906 C 91.722656 87.566406 91.558594 87.566406 91.394531 87.628906 C 91.238281 87.699219 91.101562 87.820312 91 87.980469 C 90.902344 88.148438 90.8125 88.324219 90.75 88.515625 C 90.6875 88.71875 90.640625 88.929688 90.597656 89.128906 C 90.5625 89.335938 90.539062 89.507812 90.515625 89.648438 C 90.398438 89.441406 90.265625 89.289062 90.117188 89.1875 C 89.980469 89.089844 89.828125 89.074219 89.679688 89.140625 C 89.566406 89.195312 89.460938 89.304688 89.355469 89.46875 C 89.253906 89.625 89.152344 89.851562 89.0625 90.136719 C 89.214844 90.179688 89.328125 90.230469 89.425781 90.28125 C 89.523438 90.328125 89.597656 90.398438 89.664062 90.476562 C 89.726562 90.558594 89.777344 90.664062 89.816406 90.765625 C 89.851562 90.882812 89.886719 91.015625 89.914062 91.15625 Z M 89.050781 90.136719 L 89.054688 90.171875 L 89.0625 90.136719 Z M 89.050781 90.136719 "/>
<path style=" stroke:none;fill-rule:nonzero;fill:rgb(11.372549%,11.372549%,10.588235%);fill-opacity:1;" d="M 63.03125 65.1875 L 59.789062 65.890625 L 57.21875 66.445312 L 55.269531 66.6875 L 50.527344 67.273438 L 56.203125 66.253906 Z M 63.03125 65.1875 "/>
<path style=" stroke:none;fill-rule:nonzero;fill:rgb(10.980392%,36.470588%,44.705882%);fill-opacity:1;" d="M 59.789062 65.890625 L 57.21875 66.445312 L 55.269531 66.6875 L 58.601562 66.015625 Z M 59.789062 65.890625 "/>
<path style=" stroke:none;fill-rule:nonzero;fill:rgb(10.980392%,36.470588%,44.705882%);fill-opacity:1;" d="M 57.445312 77.597656 L 60.460938 77.0625 L 65.773438 76.234375 L 67.15625 76.234375 L 64.242188 77.148438 L 62.929688 77.925781 L 67.898438 79.167969 L 72.242188 79.339844 L 87.09375 79.71875 L 88.855469 79.820312 L 88.855469 80.203125 L 67.277344 80.339844 C 67.277344 80.339844 63.03125 80.460938 62.875 80.375 L 60.03125 78.90625 L 57.445312 78.21875 Z M 57.445312 77.597656 "/>
<g clip-path="url(#clip1)" clip-rule="nonzero">
<path style=" stroke:none;fill-rule:nonzero;fill:rgb(10.980392%,36.470588%,44.705882%);fill-opacity:1;" d="M 108.589844 78.945312 C 108.078125 78.859375 107.578125 78.734375 107.085938 78.5625 C 106.726562 78.429688 106.375 78.277344 106.035156 78.097656 C 106.511719 77.460938 106.800781 76.75 106.898438 75.960938 C 106.914062 75.851562 106.917969 75.742188 106.914062 75.632812 L 103.671875 75.011719 L 102.15625 74.71875 L 100.894531 74.476562 C 101.042969 75.507812 101.046875 76.535156 100.914062 77.5625 C 100.78125 78.539062 100.523438 79.484375 100.136719 80.390625 L 103.964844 80.390625 C 104.570312 80.40625 108.414062 80.546875 108.691406 79.476562 C 108.734375 79.285156 108.699219 79.105469 108.589844 78.945312 Z M 100.636719 80.046875 C 101.175781 78.964844 101.460938 77.820312 101.5 76.617188 C 101.511719 76.085938 101.476562 75.554688 101.394531 75.03125 L 105.898438 75.769531 C 105.648438 76.484375 105.28125 77.125 104.792969 77.703125 C 103.363281 79.40625 101.359375 79.90625 100.636719 80.046875 Z M 107.105469 79.875 C 106.121094 80.167969 105.34375 80.082031 104.535156 80.0625 C 103.609375 80.023438 102.683594 80.039062 101.757812 80.117188 C 103.050781 79.925781 104.429688 79.769531 105.898438 79.667969 L 107.882812 79.5625 C 107.628906 79.6875 107.371094 79.789062 107.105469 79.875 Z M 107.105469 79.875 "/>
</g>
<g clip-path="url(#clip2)" clip-rule="nonzero">
<path style=" stroke:none;fill-rule:nonzero;fill:rgb(10.980392%,36.470588%,44.705882%);fill-opacity:1;" d="M 41.96875 71.753906 C 41.917969 71.753906 41.765625 72.011719 41.351562 73.460938 C 41.339844 75.085938 41.703125 76.628906 42.4375 78.082031 L 43.125 79.476562 L 45.558594 79.71875 C 45.117188 79.210938 44.789062 78.632812 44.574219 77.996094 C 44.40625 77.472656 44.332031 76.9375 44.351562 76.390625 C 43.8125 76.285156 43.339844 76.042969 42.9375 75.667969 C 42.160156 74.925781 42.054688 73.910156 41.988281 73.304688 C 41.902344 72.410156 42.054688 71.773438 41.96875 71.753906 Z M 41.96875 71.753906 "/>
</g>
<path style=" stroke:none;fill-rule:nonzero;fill:rgb(10.980392%,36.470588%,44.705882%);fill-opacity:1;" d="M 103.601562 72.445312 C 103.085938 72.085938 102.550781 71.761719 102 71.460938 L 101.222656 71.0625 C 98.273438 69.6875 97.015625 69.839844 91.90625 68.632812 C 88.578125 67.839844 88.871094 67.390625 85.058594 66.203125 C 82.382812 65.34375 79.644531 64.753906 76.851562 64.429688 C 72.796875 63.960938 69.792969 64.304688 66.136719 64.632812 C 63.34375 64.875 60.253906 65.445312 55.339844 66.082031 L 47.265625 67.566406 L 45.628906 67.859375 L 44.765625 68.011719 L 45.59375 67.976562 L 47.164062 67.910156 L 55.734375 67.566406 L 58.960938 68.617188 L 65.378906 70.21875 L 67.550781 69.304688 L 75.746094 69.890625 L 77.46875 70.359375 L 70.707031 70.117188 L 67.828125 69.976562 L 66.808594 70.460938 L 79.972656 72.773438 L 88.890625 74.167969 C 89.179688 73.578125 89.554688 73.046875 90.011719 72.574219 C 90.46875 72.101562 90.984375 71.707031 91.5625 71.390625 C 94.597656 69.773438 97.738281 71.324219 97.996094 71.460938 C 99.195312 72.085938 100.132812 72.980469 100.808594 74.148438 L 102.15625 74.375 L 103.671875 74.632812 L 106.742188 75.167969 C 105.796875 74.140625 104.75 73.234375 103.601562 72.445312 Z M 54.839844 67.289062 L 51.199219 67.511719 L 55.269531 66.6875 L 57.21875 66.445312 L 59.789062 65.890625 L 62.117188 65.617188 L 57.703125 66.839844 Z M 87.679688 70.152344 L 86.40625 70.289062 L 78.054688 69.546875 L 67.15625 68.824219 L 59.980469 68.460938 L 58.03125 67.875 L 58.21875 67.460938 L 62.117188 66.203125 L 65.1875 65.410156 L 73.089844 64.824219 L 80.75 65.667969 L 85.542969 66.945312 L 91.527344 69.011719 Z M 103.671875 74.359375 L 102.15625 74.03125 L 101.15625 73.824219 C 100.792969 73.199219 100.351562 72.644531 99.824219 72.148438 C 99.070312 71.425781 98.203125 70.878906 97.21875 70.511719 C 97.867188 70.511719 98.503906 70.578125 99.136719 70.703125 C 100.15625 70.914062 101.125 71.273438 102.035156 71.789062 C 102.207031 71.875 102.375 71.972656 102.535156 72.082031 C 102.859375 72.273438 103.222656 72.496094 103.636719 72.789062 C 104.460938 73.382812 105.207031 74.0625 105.878906 74.824219 Z M 103.671875 74.359375 "/>
<path style=" stroke:none;fill-rule:nonzero;fill:rgb(10.980392%,36.470588%,44.705882%);fill-opacity:1;" d="M 46.835938 67.53125 L 45.664062 67.667969 L 44.074219 67.890625 L 43.644531 68.132812 L 41.882812 67.101562 L 45.730469 67.425781 Z M 46.835938 67.53125 "/>
<path style=" stroke:none;fill-rule:nonzero;fill:rgb(11.372549%,11.372549%,10.588235%);fill-opacity:1;" d="M 55.667969 74.976562 C 55.433594 74.566406 55.148438 74.195312 54.8125 73.859375 C 54.476562 73.523438 54.105469 73.238281 53.695312 73.003906 C 53.285156 72.769531 52.847656 72.59375 52.390625 72.472656 C 51.929688 72.355469 51.464844 72.300781 50.992188 72.304688 C 48.09375 72.324219 45.75 74.632812 45.765625 77.445312 C 45.769531 78.117188 45.90625 78.757812 46.179688 79.375 C 45.757812 78.632812 45.542969 77.832031 45.539062 76.976562 C 45.523438 74.167969 47.871094 71.875 50.769531 71.859375 C 51.285156 71.847656 51.792969 71.910156 52.289062 72.050781 C 52.789062 72.1875 53.253906 72.398438 53.691406 72.675781 C 54.125 72.953125 54.515625 73.289062 54.851562 73.679688 C 55.1875 74.070312 55.460938 74.503906 55.667969 74.976562 Z M 55.667969 74.976562 "/>
<path style=" stroke:none;fill-rule:nonzero;fill:rgb(11.372549%,11.372549%,10.588235%);fill-opacity:1;" d="M 56.082031 76.910156 C 56.078125 76.234375 55.941406 75.59375 55.667969 74.976562 C 55.554688 74.773438 55.429688 74.578125 55.289062 74.390625 L 55.167969 74.234375 C 55.148438 74.203125 55.117188 74.183594 55.097656 74.167969 C 55.078125 74.148438 55.078125 74.132812 55.0625 74.117188 L 54.960938 74.011719 L 54.855469 73.890625 L 54.71875 73.773438 C 54.6875 73.722656 54.648438 73.679688 54.597656 73.648438 L 54.476562 73.53125 L 54.199219 73.324219 L 54.097656 73.253906 L 53.839844 73.082031 L 53.820312 73.082031 L 53.734375 73.046875 C 53.699219 73.011719 53.664062 73.011719 53.632812 72.996094 L 53.546875 72.945312 C 53.527344 72.921875 53.503906 72.910156 53.476562 72.910156 L 53.441406 72.910156 L 53.304688 72.839844 L 53.199219 72.789062 L 53.183594 72.789062 C 53.164062 72.765625 53.140625 72.753906 53.113281 72.753906 L 52.992188 72.703125 L 52.804688 72.632812 L 52.648438 72.582031 L 52.476562 72.53125 L 52.371094 72.53125 L 52.132812 72.460938 L 51.957031 72.425781 L 50.335938 72.425781 L 49.785156 72.511719 L 49.628906 72.5625 L 49.457031 72.597656 L 49.300781 72.648438 L 49.128906 72.71875 L 49.113281 72.71875 L 48.992188 72.773438 L 48.957031 72.773438 L 48.835938 72.824219 L 48.59375 72.945312 L 48.507812 72.976562 L 48.386719 73.046875 L 48.179688 73.167969 L 48.023438 73.273438 L 47.871094 73.390625 C 47.664062 73.527344 47.476562 73.683594 47.300781 73.859375 L 47.195312 73.960938 C 47.125 74.027344 47.0625 74.101562 47.007812 74.183594 C 46.972656 74.21875 46.9375 74.234375 46.921875 74.269531 L 46.800781 74.425781 C 46.75 74.484375 46.703125 74.550781 46.664062 74.617188 L 46.558594 74.769531 L 46.492188 74.890625 L 46.402344 75.011719 C 46.386719 75.0625 46.363281 75.109375 46.335938 75.148438 C 46.3125 75.207031 46.285156 75.257812 46.25 75.304688 C 46.226562 75.363281 46.207031 75.421875 46.179688 75.476562 L 46.128906 75.597656 C 46.109375 75.628906 46.097656 75.664062 46.09375 75.703125 C 46.09375 75.71875 46.09375 75.71875 46.078125 75.71875 L 46.023438 75.890625 C 45.992188 75.96875 45.96875 76.050781 45.953125 76.132812 C 45.9375 76.171875 45.925781 76.210938 45.921875 76.253906 L 45.886719 76.339844 C 45.886719 76.363281 45.882812 76.386719 45.867188 76.410156 C 45.867188 76.445312 45.851562 76.476562 45.851562 76.53125 C 45.851562 76.582031 45.835938 76.617188 45.816406 76.667969 C 45.820312 76.71875 45.8125 76.773438 45.800781 76.820312 C 45.804688 76.871094 45.796875 76.914062 45.78125 76.960938 L 45.78125 77.117188 C 45.769531 77.164062 45.761719 77.21875 45.765625 77.269531 L 45.765625 77.460938 C 45.769531 78.132812 45.90625 78.777344 46.179688 79.390625 C 46.414062 79.804688 46.699219 80.175781 47.03125 80.511719 C 47.367188 80.84375 47.742188 81.128906 48.152344 81.367188 C 48.5625 81.601562 48.996094 81.777344 49.457031 81.894531 C 49.914062 82.015625 50.382812 82.070312 50.855469 82.0625 L 50.992188 82.0625 C 50.5625 82.058594 50.144531 81.996094 49.734375 81.882812 C 49.320312 81.765625 48.933594 81.601562 48.5625 81.382812 C 48.195312 81.164062 47.863281 80.902344 47.5625 80.597656 C 47.265625 80.292969 47.011719 79.953125 46.800781 79.582031 C 46.5625 79.011719 46.441406 78.421875 46.4375 77.804688 C 46.429688 77.296875 46.507812 76.800781 46.671875 76.320312 C 46.835938 75.835938 47.074219 75.394531 47.386719 74.996094 C 47.5625 74.703125 47.773438 74.441406 48.023438 74.203125 C 48.265625 73.96875 48.539062 73.765625 48.835938 73.601562 C 49.132812 73.433594 49.449219 73.308594 49.777344 73.222656 C 50.109375 73.136719 50.445312 73.097656 50.785156 73.097656 L 51.234375 73.097656 C 51.667969 73.089844 52.097656 73.140625 52.519531 73.246094 C 52.941406 73.355469 53.339844 73.515625 53.71875 73.730469 C 54.097656 73.945312 54.4375 74.210938 54.746094 74.515625 C 55.054688 74.824219 55.3125 75.167969 55.527344 75.546875 C 55.78125 76.113281 55.90625 76.703125 55.90625 77.320312 C 55.914062 78.074219 55.75 78.789062 55.40625 79.460938 C 55.859375 78.667969 56.082031 77.820312 56.082031 76.910156 Z M 56.082031 76.910156 "/>
<path style=" stroke:none;fill-rule:nonzero;fill:rgb(11.372549%,11.372549%,10.588235%);fill-opacity:1;" d="M 99.652344 75.234375 C 99.417969 74.828125 99.132812 74.453125 98.796875 74.121094 C 98.464844 73.789062 98.089844 73.503906 97.679688 73.269531 C 97.269531 73.035156 96.832031 72.859375 96.375 72.742188 C 95.917969 72.628906 95.453125 72.574219 94.976562 72.582031 C 92.0625 72.597656 89.734375 74.890625 89.75 77.703125 C 89.757812 78.371094 89.890625 79.015625 90.148438 79.632812 C 89.734375 78.894531 89.527344 78.101562 89.527344 77.253906 C 89.511719 74.445312 91.839844 72.132812 94.753906 72.117188 C 95.269531 72.109375 95.777344 72.175781 96.273438 72.316406 C 96.769531 72.457031 97.234375 72.664062 97.671875 72.941406 C 98.109375 73.21875 98.492188 73.554688 98.832031 73.945312 C 99.167969 74.335938 99.441406 74.765625 99.652344 75.234375 Z M 99.652344 75.234375 "/>
<path style=" stroke:none;fill-rule:nonzero;fill:rgb(11.372549%,11.372549%,10.588235%);fill-opacity:1;" d="M 100.066406 77.183594 C 100.070312 77.023438 100.0625 76.863281 100.046875 76.703125 C 100.03125 76.539062 100.007812 76.382812 99.976562 76.222656 C 99.941406 76.0625 99.902344 75.90625 99.851562 75.753906 C 99.804688 75.601562 99.746094 75.449219 99.683594 75.300781 C 99.617188 75.152344 99.546875 75.007812 99.464844 74.867188 C 99.382812 74.726562 99.296875 74.59375 99.203125 74.460938 C 99.109375 74.328125 99.007812 74.203125 98.898438 74.082031 C 98.792969 73.960938 98.679688 73.847656 98.558594 73.742188 C 98.4375 73.632812 98.3125 73.53125 98.183594 73.433594 C 98.050781 73.339844 97.914062 73.25 97.777344 73.171875 C 97.636719 73.089844 97.492188 73.015625 97.34375 72.949219 C 97.195312 72.882812 97.046875 72.828125 96.890625 72.777344 C 96.738281 72.726562 96.582031 72.6875 96.425781 72.652344 C 96.265625 72.617188 96.105469 72.59375 95.945312 72.578125 C 95.785156 72.5625 95.625 72.554688 95.460938 72.554688 C 95.300781 72.554688 95.140625 72.5625 94.976562 72.582031 L 94.21875 72.582031 L 94.046875 72.617188 L 94.03125 72.617188 L 93.839844 72.648438 L 93.667969 72.683594 L 93.476562 72.738281 L 93.304688 72.804688 L 93.183594 72.839844 L 93.132812 72.839844 L 92.960938 72.910156 L 92.945312 72.910156 L 92.769531 72.996094 L 92.753906 72.996094 L 92.597656 73.082031 L 92.582031 73.082031 L 92.476562 73.132812 L 92.148438 73.324219 L 91.855469 73.53125 C 91.65625 73.675781 91.464844 73.835938 91.289062 74.011719 L 91.183594 74.117188 C 91.132812 74.148438 91.09375 74.1875 91.0625 74.234375 L 90.976562 74.324219 L 90.890625 74.425781 L 90.613281 74.789062 L 90.546875 74.910156 L 90.460938 75.046875 C 90.449219 75.054688 90.445312 75.066406 90.441406 75.082031 L 90.320312 75.289062 C 90.21875 75.472656 90.132812 75.660156 90.0625 75.859375 C 90.046875 75.890625 90.046875 75.945312 90.027344 75.976562 C 90.011719 76.011719 90.011719 76.03125 89.992188 76.046875 L 89.992188 76.082031 C 89.976562 76.097656 89.976562 76.132812 89.960938 76.148438 C 89.957031 76.195312 89.945312 76.234375 89.925781 76.269531 L 89.875 76.496094 C 89.855469 76.53125 89.855469 76.5625 89.835938 76.597656 C 89.820312 76.632812 89.820312 76.683594 89.820312 76.71875 C 89.820312 76.753906 89.804688 76.804688 89.804688 76.839844 C 89.804688 76.875 89.785156 76.925781 89.785156 76.960938 C 89.785156 76.996094 89.769531 77.167969 89.75 77.253906 L 89.75 77.890625 C 89.753906 77.90625 89.757812 77.917969 89.769531 77.925781 L 89.769531 78.148438 C 89.769531 78.203125 89.785156 78.253906 89.785156 78.304688 C 89.800781 78.34375 89.804688 78.382812 89.804688 78.425781 C 89.816406 78.460938 89.824219 78.492188 89.820312 78.53125 L 89.875 78.703125 C 89.875 78.71875 89.890625 78.753906 89.890625 78.769531 C 89.90625 78.820312 89.90625 78.875 89.925781 78.925781 C 89.941406 78.976562 90.027344 79.234375 90.097656 79.390625 C 90.164062 79.546875 90.113281 79.460938 90.132812 79.496094 C 90.359375 79.921875 90.636719 80.308594 90.96875 80.65625 C 91.300781 81.007812 91.671875 81.308594 92.085938 81.554688 C 92.5 81.804688 92.9375 81.996094 93.402344 82.125 C 93.867188 82.253906 94.339844 82.320312 94.824219 82.320312 L 94.960938 82.320312 C 94.535156 82.320312 94.117188 82.257812 93.707031 82.148438 C 93.296875 82.03125 92.910156 81.867188 92.542969 81.648438 C 92.175781 81.433594 91.84375 81.171875 91.546875 80.871094 C 91.25 80.566406 90.996094 80.226562 90.789062 79.855469 C 90.546875 79.289062 90.417969 78.695312 90.40625 78.082031 C 90.40625 77.570312 90.488281 77.074219 90.648438 76.589844 C 90.8125 76.105469 91.046875 75.660156 91.355469 75.253906 C 91.539062 74.964844 91.753906 74.703125 92 74.46875 C 92.25 74.234375 92.523438 74.035156 92.820312 73.867188 C 93.121094 73.703125 93.433594 73.578125 93.765625 73.492188 C 94.09375 73.40625 94.429688 73.359375 94.773438 73.359375 L 95.21875 73.359375 C 95.65625 73.351562 96.082031 73.402344 96.503906 73.511719 C 96.921875 73.621094 97.324219 73.78125 97.699219 74 C 98.078125 74.210938 98.421875 74.472656 98.726562 74.78125 C 99.035156 75.085938 99.296875 75.429688 99.515625 75.804688 C 99.765625 76.375 99.894531 76.972656 99.894531 77.597656 C 99.894531 78.347656 99.71875 79.054688 99.375 79.71875 C 99.84375 78.9375 100.070312 78.09375 100.066406 77.183594 Z M 100.066406 77.183594 "/>
<path style=" stroke:none;fill-rule:nonzero;fill:rgb(10.980392%,36.470588%,44.705882%);fill-opacity:1;" d="M 65.5 75.097656 C 63.667969 73.492188 61.667969 72.136719 59.496094 71.03125 C 57.910156 70.21875 56.148438 69.339844 53.648438 68.996094 C 52.632812 68.851562 51.617188 68.816406 50.59375 68.890625 C 49.140625 69.007812 47.742188 69.359375 46.402344 69.945312 C 45.75 70.25 45.128906 70.613281 44.539062 71.03125 L 44.472656 71.289062 C 44.929688 70.957031 45.414062 70.671875 45.921875 70.425781 C 47.734375 69.53125 49.386719 69.390625 50.527344 69.289062 C 51.644531 69.203125 52.761719 69.234375 53.875 69.375 C 55.304688 69.601562 56.597656 70.03125 59.359375 71.476562 C 61.46875 72.578125 63.515625 73.785156 65.5 75.097656 Z M 65.5 75.097656 "/>
<path style=" stroke:none;fill-rule:nonzero;fill:rgb(10.980392%,36.470588%,44.705882%);fill-opacity:1;" d="M 57.71875 76.703125 C 57.792969 76.28125 57.785156 75.863281 57.703125 75.445312 C 57.636719 75.019531 57.492188 74.621094 57.269531 74.253906 C 58.773438 74.789062 60.308594 75.1875 61.875 75.460938 C 63.019531 75.648438 64.167969 75.765625 65.328125 75.804688 Z M 57.71875 76.703125 "/>
<g clip-path="url(#clip3)" clip-rule="nonzero">
<path style=" stroke:none;fill-rule:nonzero;fill:rgb(11.372549%,11.372549%,10.588235%);fill-opacity:1;" d="M 45.730469 64.996094 C 48.921875 53.101562 60.496094 44.257812 74.261719 44.257812 C 89.820312 44.257812 102.601562 55.566406 103.601562 69.824219 C 103.101562 69.496094 102.570312 69.1875 102 68.875 C 100.515625 55.859375 88.648438 45.671875 74.261719 45.671875 C 61.308594 45.671875 50.371094 53.945312 47.265625 65.132812 L 45.628906 65.410156 C 45.632812 65.351562 45.644531 65.292969 45.664062 65.238281 Z M 45.730469 64.996094 "/>
</g>
<path style=" stroke:none;fill-rule:nonzero;fill:rgb(10.980392%,36.470588%,44.705882%);fill-opacity:1;" d="M 75.574219 47.617188 L 76.832031 50.101562 L 79.660156 50.5 L 77.609375 52.429688 L 78.089844 55.152344 L 75.574219 53.859375 L 73.039062 55.152344 L 73.519531 52.429688 L 71.46875 50.5 L 74.296875 50.101562 Z M 75.574219 47.617188 "/>
<path style=" stroke:none;fill-rule:nonzero;fill:rgb(10.980392%,36.470588%,44.705882%);fill-opacity:1;" d="M 63.808594 50.914062 L 64.84375 52.929688 L 67.136719 53.257812 L 65.480469 54.824219 L 65.859375 57.046875 L 63.808594 55.996094 L 61.757812 57.046875 L 62.152344 54.824219 L 60.480469 53.257812 L 62.773438 52.929688 Z M 63.808594 50.914062 "/>
<path style=" stroke:none;fill-rule:nonzero;fill:rgb(10.980392%,36.470588%,44.705882%);fill-opacity:1;" d="M 56.082031 57.046875 L 56.925781 58.667969 L 58.773438 58.945312 L 57.425781 60.203125 L 57.753906 61.996094 L 56.082031 61.152344 L 54.425781 61.996094 L 54.734375 60.203125 L 53.390625 58.945312 L 55.253906 58.667969 Z M 56.082031 57.046875 "/>
<path style=" stroke:none;fill-rule:nonzero;fill:rgb(10.980392%,36.470588%,44.705882%);fill-opacity:1;" d="M 92.441406 57.046875 L 93.289062 58.667969 L 95.152344 58.945312 L 93.789062 60.203125 L 94.117188 61.996094 L 92.441406 61.152344 L 90.789062 61.996094 L 91.097656 60.203125 L 89.75 58.945312 L 91.617188 58.667969 Z M 92.441406 57.046875 "/>
<path style=" stroke:none;fill-rule:nonzero;fill:rgb(10.980392%,36.470588%,44.705882%);fill-opacity:1;" d="M 85.351562 50.914062 L 86.371094 52.929688 L 88.683594 53.257812 L 87.007812 54.824219 L 87.40625 57.046875 L 85.351562 55.996094 L 83.28125 57.046875 L 83.679688 54.824219 L 82.007812 53.257812 L 84.320312 52.929688 Z M 85.351562 50.914062 "/>
<g clip-path="url(#clip4)" clip-rule="nonzero">
<path style=" stroke:none;fill-rule:nonzero;fill:rgb(11.372549%,11.372549%,10.588235%);fill-opacity:1;" d="M 97.117188 91.785156 L 98.980469 91.785156 C 93.683594 99.113281 84.734375 103.957031 74.625 103.957031 C 64.515625 103.957031 55.546875 99.113281 50.265625 91.785156 L 52.113281 91.785156 C 57.203125 98.285156 65.394531 102.527344 74.625 102.527344 C 83.851562 102.527344 92.03125 98.285156 97.117188 91.785156 Z M 97.117188 91.785156 "/>
</g>
<path style=" stroke:none;fill-rule:nonzero;fill:rgb(10.980392%,36.470588%,44.705882%);fill-opacity:1;" d="M 43.808594 86.609375 L 42.246094 87.351562 C 42.203125 87.371094 42.171875 87.410156 42.15625 87.453125 L 41.980469 88 C 41.96875 88.054688 41.964844 88.097656 41.992188 88.152344 L 42.578125 89.386719 C 42.601562 89.441406 42.644531 89.46875 42.691406 89.488281 L 43.226562 89.699219 C 43.273438 89.71875 43.316406 89.710938 43.359375 89.691406 L 44.921875 88.949219 C 44.957031 88.933594 44.972656 88.886719 44.957031 88.851562 L 44.820312 88.566406 C 44.804688 88.53125 44.757812 88.515625 44.726562 88.53125 L 43.304688 89.207031 C 43.273438 89.222656 43.25 89.230469 43.214844 89.214844 L 42.988281 89.121094 C 42.972656 89.113281 42.964844 89.101562 42.953125 89.082031 L 42.460938 88.050781 C 42.453125 88.027344 42.449219 88.011719 42.453125 88 L 42.527344 87.765625 C 42.539062 87.734375 42.554688 87.714844 42.585938 87.699219 L 44.007812 87.023438 C 44.039062 87.007812 44.054688 86.964844 44.039062 86.929688 L 43.902344 86.644531 C 43.886719 86.609375 43.84375 86.59375 43.808594 86.609375 Z M 43.808594 86.609375 "/>
<path style=" stroke:none;fill-rule:nonzero;fill:rgb(10.980392%,36.470588%,44.705882%);fill-opacity:1;" d="M 43.585938 91.152344 C 43.554688 91.171875 43.542969 91.21875 43.5625 91.25 L 43.730469 91.519531 C 43.75 91.554688 43.796875 91.566406 43.828125 91.542969 L 45.386719 90.574219 L 46.0625 91.660156 C 46.074219 91.675781 46.078125 91.691406 46.078125 91.707031 L 45.988281 92.128906 C 45.980469 92.160156 45.964844 92.179688 45.9375 92.199219 L 44.710938 92.960938 C 44.679688 92.980469 44.667969 93.027344 44.6875 93.058594 L 44.855469 93.332031 C 44.875 93.363281 44.921875 93.371094 44.953125 93.351562 L 46.292969 92.519531 C 46.335938 92.496094 46.359375 92.457031 46.371094 92.410156 L 46.550781 91.664062 C 46.5625 91.613281 46.558594 91.566406 46.523438 91.511719 L 45.621094 90.058594 C 45.578125 89.992188 45.492188 89.96875 45.421875 90.011719 Z M 43.585938 91.152344 "/>
<path style=" stroke:none;fill-rule:nonzero;fill:rgb(10.980392%,36.470588%,44.705882%);fill-opacity:1;" d="M 45.746094 94.558594 L 45.957031 94.84375 C 45.980469 94.875 46.027344 94.882812 46.054688 94.859375 L 47.851562 93.53125 C 47.882812 93.507812 47.886719 93.460938 47.867188 93.429688 L 47.652344 93.144531 C 47.628906 93.113281 47.582031 93.105469 47.554688 93.128906 L 45.757812 94.460938 C 45.726562 94.484375 45.722656 94.527344 45.746094 94.558594 Z M 45.746094 94.558594 "/>
<path style=" stroke:none;fill-rule:nonzero;fill:rgb(10.980392%,36.470588%,44.705882%);fill-opacity:1;" d="M 50.324219 96.382812 L 50.113281 96.140625 C 50.089844 96.113281 50.042969 96.109375 50.011719 96.132812 L 49.152344 96.890625 C 49.125 96.914062 49.105469 96.917969 49.066406 96.917969 L 48.320312 96.929688 L 48.285156 96.925781 C 48.265625 96.921875 48.253906 96.914062 48.242188 96.898438 L 47.878906 96.484375 C 47.863281 96.464844 47.855469 96.453125 47.855469 96.4375 L 47.855469 96.402344 L 47.964844 95.660156 C 47.972656 95.625 47.980469 95.605469 48.003906 95.582031 L 48.863281 94.828125 C 48.894531 94.800781 48.894531 94.753906 48.871094 94.726562 L 48.660156 94.488281 C 48.636719 94.457031 48.589844 94.453125 48.558594 94.480469 L 47.589844 95.332031 C 47.550781 95.363281 47.535156 95.40625 47.53125 95.453125 L 47.386719 96.550781 C 47.378906 96.601562 47.394531 96.648438 47.433594 96.695312 L 47.976562 97.308594 C 48.015625 97.355469 48.0625 97.378906 48.113281 97.378906 L 49.214844 97.375 C 49.269531 97.375 49.308594 97.367188 49.34375 97.335938 L 50.316406 96.480469 C 50.34375 96.457031 50.347656 96.410156 50.324219 96.382812 Z M 50.324219 96.382812 "/>
<path style=" stroke:none;fill-rule:nonzero;fill:rgb(10.980392%,36.470588%,44.705882%);fill-opacity:1;" d="M 51.140625 98.101562 L 51.347656 98.097656 C 51.390625 98.097656 51.410156 98.101562 51.425781 98.117188 L 52.699219 99.273438 C 52.726562 99.300781 52.773438 99.296875 52.796875 99.269531 L 53.019531 99.027344 C 53.042969 98.996094 53.042969 98.949219 53.011719 98.925781 L 51.628906 97.664062 C 51.585938 97.625 51.550781 97.609375 51.488281 97.613281 L 50.917969 97.640625 C 50.878906 97.640625 50.824219 97.660156 50.792969 97.691406 L 49.980469 98.582031 C 49.941406 98.628906 49.925781 98.671875 49.929688 98.726562 L 49.960938 99.289062 C 49.964844 99.335938 49.984375 99.378906 50.019531 99.410156 L 51.414062 100.683594 C 51.441406 100.707031 51.488281 100.707031 51.515625 100.675781 L 51.730469 100.441406 C 51.753906 100.414062 51.753906 100.367188 51.722656 100.339844 L 50.457031 99.191406 C 50.433594 99.167969 50.421875 99.144531 50.421875 99.109375 L 50.417969 98.863281 C 50.421875 98.847656 50.429688 98.832031 50.441406 98.820312 L 50.609375 98.636719 L 51.894531 99.808594 C 51.921875 99.832031 51.96875 99.832031 51.996094 99.804688 L 52.214844 99.5625 C 52.242188 99.535156 52.238281 99.488281 52.210938 99.460938 L 50.925781 98.289062 L 51.0625 98.136719 C 51.085938 98.113281 51.105469 98.101562 51.140625 98.101562 Z M 51.140625 98.101562 "/>
<path style=" stroke:none;fill-rule:nonzero;fill:rgb(10.980392%,36.470588%,44.705882%);fill-opacity:1;" d="M 55.800781 101.613281 L 55.699219 101.027344 C 55.691406 100.980469 55.667969 100.9375 55.628906 100.910156 L 54.023438 99.75 C 53.992188 99.726562 53.945312 99.734375 53.921875 99.765625 L 52.613281 101.574219 C 52.589844 101.605469 52.597656 101.652344 52.628906 101.675781 L 52.894531 101.867188 C 52.925781 101.890625 52.972656 101.882812 52.996094 101.851562 L 53.257812 101.484375 L 54.304688 102.238281 L 54.261719 102.800781 C 54.257812 102.835938 54.269531 102.863281 54.292969 102.878906 L 54.582031 103.085938 C 54.628906 103.121094 54.683594 103.09375 54.6875 103.039062 L 54.730469 102.429688 L 55.273438 102.34375 C 55.3125 102.335938 55.363281 102.316406 55.390625 102.277344 L 55.761719 101.761719 C 55.796875 101.714844 55.808594 101.667969 55.800781 101.613281 Z M 54.078125 100.355469 L 55.234375 101.195312 C 55.261719 101.214844 55.277344 101.238281 55.28125 101.269531 L 55.308594 101.476562 L 55.3125 101.511719 C 55.308594 101.53125 55.304688 101.542969 55.292969 101.558594 L 55.058594 101.882812 C 55.039062 101.910156 55.019531 101.925781 54.984375 101.929688 L 54.777344 101.957031 C 54.738281 101.960938 54.71875 101.957031 54.699219 101.945312 L 53.535156 101.105469 Z M 54.078125 100.355469 "/>
<path style=" stroke:none;fill-rule:nonzero;fill:rgb(10.980392%,36.470588%,44.705882%);fill-opacity:1;" d="M 56.660156 102.671875 C 56.628906 102.722656 56.625 102.769531 56.640625 102.824219 L 56.773438 103.269531 C 56.785156 103.308594 56.8125 103.351562 56.855469 103.375 L 58.082031 104.066406 C 58.113281 104.082031 58.128906 104.105469 58.136719 104.136719 L 58.160156 104.246094 C 58.160156 104.261719 58.15625 104.277344 58.148438 104.292969 L 58.089844 104.394531 C 58.074219 104.421875 58.054688 104.4375 58.023438 104.449219 L 57.886719 104.480469 C 57.847656 104.484375 57.824219 104.488281 57.804688 104.476562 L 56.296875 103.628906 C 56.261719 103.609375 56.21875 103.621094 56.199219 103.65625 L 56.039062 103.941406 C 56.019531 103.972656 56.03125 104.019531 56.066406 104.039062 L 57.6875 104.953125 C 57.738281 104.980469 57.777344 104.988281 57.835938 104.972656 L 58.355469 104.824219 C 58.394531 104.816406 58.441406 104.789062 58.464844 104.746094 L 58.660156 104.402344 C 58.691406 104.347656 58.695312 104.296875 58.679688 104.25 L 58.566406 103.871094 C 58.550781 103.828125 58.527344 103.785156 58.484375 103.761719 L 57.214844 103.046875 C 57.183594 103.03125 57.167969 103.011719 57.160156 102.980469 L 57.136719 102.871094 C 57.136719 102.851562 57.140625 102.835938 57.148438 102.820312 L 57.199219 102.734375 C 57.214844 102.707031 57.234375 102.6875 57.269531 102.679688 L 57.40625 102.648438 C 57.441406 102.640625 57.464844 102.636719 57.484375 102.652344 L 58.953125 103.476562 C 58.984375 103.496094 59.03125 103.480469 59.050781 103.449219 L 59.210938 103.164062 C 59.230469 103.128906 59.214844 103.085938 59.183594 103.066406 L 57.601562 102.175781 C 57.550781 102.144531 57.511719 102.140625 57.453125 102.15625 L 56.933594 102.300781 C 56.894531 102.3125 56.847656 102.339844 56.824219 102.378906 Z M 56.660156 102.671875 "/>
<path style=" stroke:none;fill-rule:nonzero;fill:rgb(10.980392%,36.470588%,44.705882%);fill-opacity:1;" d="M 64.601562 105.808594 L 64.335938 105.273438 C 64.316406 105.230469 64.28125 105.199219 64.238281 105.183594 L 62.433594 104.550781 C 62.398438 104.539062 62.355469 104.558594 62.34375 104.59375 L 61.601562 106.703125 C 61.589844 106.738281 61.609375 106.78125 61.648438 106.792969 L 63.4375 107.421875 C 63.492188 107.441406 63.53125 107.441406 63.585938 107.414062 L 64.132812 107.152344 C 64.167969 107.132812 64.210938 107.097656 64.226562 107.050781 L 64.609375 105.964844 C 64.628906 105.902344 64.625 105.859375 64.601562 105.808594 Z M 63.796875 106.769531 C 63.785156 106.800781 63.769531 106.824219 63.738281 106.835938 L 63.546875 106.921875 C 63.511719 106.9375 63.488281 106.941406 63.46875 106.933594 L 62.175781 106.480469 L 62.652344 105.117188 L 63.941406 105.566406 C 63.972656 105.578125 63.992188 105.597656 64.007812 105.625 L 64.089844 105.816406 L 64.101562 105.851562 C 64.109375 105.867188 64.109375 105.882812 64.101562 105.902344 Z M 63.796875 106.769531 "/>
<path style=" stroke:none;fill-rule:nonzero;fill:rgb(10.980392%,36.470588%,44.705882%);fill-opacity:1;" d="M 66.300781 106.460938 L 66.480469 106.355469 C 66.515625 106.332031 66.535156 106.328125 66.558594 106.332031 L 68.230469 106.71875 C 68.269531 106.726562 68.308594 106.703125 68.316406 106.664062 L 68.390625 106.34375 C 68.398438 106.308594 68.371094 106.269531 68.335938 106.261719 L 66.511719 105.839844 C 66.457031 105.828125 66.414062 105.832031 66.363281 105.863281 L 65.878906 106.167969 C 65.84375 106.1875 65.808594 106.230469 65.796875 106.277344 L 65.527344 107.449219 C 65.511719 107.507812 65.519531 107.554688 65.550781 107.597656 L 65.855469 108.074219 C 65.878906 108.113281 65.917969 108.144531 65.964844 108.152344 L 67.804688 108.574219 C 67.839844 108.585938 67.878906 108.558594 67.886719 108.523438 L 67.960938 108.210938 C 67.96875 108.175781 67.945312 108.136719 67.90625 108.125 L 66.238281 107.742188 C 66.207031 107.734375 66.183594 107.722656 66.167969 107.691406 L 66.046875 107.480469 C 66.039062 107.464844 66.039062 107.449219 66.042969 107.429688 L 66.097656 107.1875 L 67.792969 107.578125 C 67.832031 107.585938 67.871094 107.5625 67.878906 107.527344 L 67.953125 107.207031 C 67.960938 107.167969 67.9375 107.128906 67.898438 107.121094 L 66.203125 106.730469 L 66.25 106.53125 C 66.257812 106.496094 66.269531 106.476562 66.300781 106.460938 Z M 66.300781 106.460938 "/>
<path style=" stroke:none;fill-rule:nonzero;fill:rgb(10.980392%,36.470588%,44.705882%);fill-opacity:1;" d="M 71.675781 106.800781 L 71.585938 108.496094 C 71.582031 108.542969 71.609375 108.59375 71.636719 108.625 L 72.039062 109.074219 C 72.082031 109.121094 72.117188 109.136719 72.175781 109.136719 L 73.925781 109.230469 C 73.964844 109.234375 74 109.203125 74 109.164062 L 74.019531 108.835938 C 74.023438 108.796875 73.988281 108.761719 73.953125 108.761719 L 72.355469 108.675781 C 72.332031 108.675781 72.3125 108.664062 72.289062 108.636719 L 72.121094 108.457031 C 72.097656 108.433594 72.089844 108.410156 72.09375 108.378906 L 72.171875 106.828125 C 72.175781 106.792969 72.144531 106.757812 72.105469 106.753906 L 71.75 106.734375 C 71.710938 106.734375 71.679688 106.765625 71.675781 106.800781 Z M 71.675781 106.800781 "/>
<path style=" stroke:none;fill-rule:nonzero;fill:rgb(10.980392%,36.470588%,44.705882%);fill-opacity:1;" d="M 75.382812 107.074219 L 75.738281 107.066406 C 75.777344 107.0625 75.808594 107.027344 75.808594 106.992188 L 75.792969 106.421875 C 75.792969 106.382812 75.757812 106.351562 75.722656 106.351562 L 75.363281 106.363281 C 75.328125 106.363281 75.292969 106.394531 75.292969 106.433594 L 75.308594 107.003906 C 75.3125 107.042969 75.347656 107.074219 75.382812 107.074219 Z M 75.382812 107.074219 "/>
<path style=" stroke:none;fill-rule:nonzero;fill:rgb(10.980392%,36.470588%,44.705882%);fill-opacity:1;" d="M 79.5625 107 L 79.101562 106.617188 C 79.058594 106.585938 79.015625 106.570312 78.953125 106.578125 L 77.597656 106.722656 C 77.535156 106.730469 77.492188 106.753906 77.460938 106.796875 L 77.089844 107.265625 C 77.0625 107.300781 77.046875 107.347656 77.050781 107.394531 L 77.234375 109.082031 C 77.238281 109.117188 77.273438 109.148438 77.3125 109.144531 L 77.628906 109.109375 C 77.667969 109.105469 77.695312 109.070312 77.691406 109.03125 L 77.617188 108.328125 L 79.273438 108.148438 L 79.351562 108.851562 C 79.355469 108.890625 79.390625 108.917969 79.429688 108.914062 L 79.746094 108.882812 C 79.785156 108.875 79.8125 108.839844 79.808594 108.804688 L 79.628906 107.117188 C 79.621094 107.070312 79.597656 107.027344 79.5625 107 Z M 77.570312 107.914062 L 77.523438 107.46875 C 77.519531 107.433594 77.527344 107.410156 77.546875 107.382812 L 77.683594 107.226562 L 77.710938 107.199219 C 77.71875 107.1875 77.730469 107.179688 77.753906 107.179688 L 78.894531 107.054688 C 78.914062 107.054688 78.929688 107.058594 78.945312 107.066406 L 78.972656 107.085938 L 79.140625 107.210938 C 79.167969 107.234375 79.179688 107.253906 79.183594 107.289062 L 79.230469 107.738281 Z M 77.570312 107.914062 "/>
<path style=" stroke:none;fill-rule:nonzero;fill:rgb(10.980392%,36.470588%,44.705882%);fill-opacity:1;" d="M 80.722656 106.390625 L 81.101562 108.078125 C 81.109375 108.125 81.136719 108.164062 81.179688 108.1875 L 81.671875 108.484375 C 81.71875 108.507812 81.765625 108.519531 81.824219 108.507812 L 83.15625 108.210938 C 83.214844 108.195312 83.25 108.164062 83.28125 108.125 L 83.605469 107.648438 C 83.632812 107.605469 83.640625 107.5625 83.628906 107.515625 L 83.25 105.828125 C 83.242188 105.789062 83.203125 105.765625 83.167969 105.773438 L 82.855469 105.84375 C 82.820312 105.851562 82.792969 105.890625 82.800781 105.925781 L 83.144531 107.460938 C 83.152344 107.496094 83.152344 107.519531 83.128906 107.546875 L 82.988281 107.75 C 82.976562 107.761719 82.964844 107.769531 82.945312 107.773438 L 81.828125 108.023438 C 81.804688 108.03125 81.789062 108.027344 81.777344 108.019531 L 81.566406 107.898438 C 81.539062 107.878906 81.523438 107.859375 81.515625 107.828125 L 81.171875 106.289062 C 81.164062 106.253906 81.125 106.226562 81.085938 106.234375 L 80.777344 106.304688 C 80.742188 106.3125 80.714844 106.351562 80.722656 106.390625 Z M 80.722656 106.390625 "/>
<path style=" stroke:none;fill-rule:nonzero;fill:rgb(10.980392%,36.470588%,44.705882%);fill-opacity:1;" d="M 87.199219 104.449219 L 84.417969 105.429688 C 84.382812 105.441406 84.363281 105.484375 84.375 105.519531 L 84.496094 105.855469 C 84.507812 105.890625 84.550781 105.914062 84.585938 105.898438 L 85.742188 105.492188 L 86.339844 107.195312 C 86.355469 107.234375 86.398438 107.253906 86.433594 107.238281 L 86.769531 107.121094 C 86.804688 107.109375 86.824219 107.066406 86.8125 107.03125 L 86.210938 105.328125 L 87.363281 104.921875 C 87.402344 104.90625 87.421875 104.867188 87.410156 104.828125 L 87.289062 104.492188 C 87.277344 104.457031 87.234375 104.4375 87.199219 104.449219 Z M 87.199219 104.449219 "/>
<path style=" stroke:none;fill-rule:nonzero;fill:rgb(10.980392%,36.470588%,44.705882%);fill-opacity:1;" d="M 89.109375 105.550781 C 89.128906 105.59375 89.164062 105.621094 89.210938 105.636719 L 89.773438 105.835938 C 89.824219 105.855469 89.871094 105.851562 89.925781 105.824219 L 91.148438 105.222656 C 91.207031 105.195312 91.234375 105.160156 91.253906 105.105469 L 91.4375 104.539062 C 91.453125 104.492188 91.453125 104.445312 91.429688 104.402344 L 90.917969 103.363281 C 90.898438 103.320312 90.859375 103.292969 90.816406 103.277344 L 90.25 103.078125 C 90.203125 103.058594 90.15625 103.0625 90.097656 103.089844 L 88.875 103.691406 C 88.820312 103.71875 88.789062 103.753906 88.773438 103.808594 L 88.585938 104.375 C 88.570312 104.417969 88.574219 104.464844 88.59375 104.507812 Z M 89.464844 105.234375 L 89.0625 104.417969 C 89.046875 104.386719 89.046875 104.363281 89.054688 104.328125 L 89.128906 104.132812 L 89.144531 104.101562 C 89.148438 104.085938 89.160156 104.078125 89.179688 104.066406 L 90.210938 103.558594 C 90.226562 103.550781 90.242188 103.550781 90.257812 103.550781 L 90.292969 103.558594 L 90.492188 103.621094 C 90.523438 103.632812 90.546875 103.648438 90.558594 103.679688 L 90.960938 104.496094 C 90.976562 104.527344 90.980469 104.550781 90.96875 104.585938 L 90.894531 104.777344 L 90.878906 104.8125 C 90.871094 104.828125 90.859375 104.839844 90.84375 104.847656 L 89.816406 105.355469 C 89.796875 105.363281 89.78125 105.367188 89.765625 105.363281 L 89.730469 105.355469 L 89.53125 105.292969 C 89.5 105.28125 89.480469 105.265625 89.464844 105.234375 Z M 89.464844 105.234375 "/>
<path style=" stroke:none;fill-rule:nonzero;fill:rgb(10.980392%,36.470588%,44.705882%);fill-opacity:1;" d="M 95.859375 100.082031 L 95.207031 99.953125 C 95.152344 99.941406 95.105469 99.953125 95.058594 99.984375 L 94.042969 100.683594 C 93.988281 100.71875 93.960938 100.761719 93.957031 100.8125 L 93.886719 101.214844 L 93.480469 101.136719 C 93.433594 101.125 93.382812 101.132812 93.332031 101.171875 L 92.21875 101.933594 C 92.167969 101.96875 92.144531 102.007812 92.132812 102.0625 L 92.019531 102.71875 C 92.015625 102.761719 92.019531 102.808594 92.046875 102.847656 L 92.980469 104.210938 C 93 104.242188 93.046875 104.25 93.078125 104.226562 L 93.339844 104.046875 C 93.371094 104.023438 93.378906 103.980469 93.359375 103.949219 L 92.511719 102.710938 C 92.488281 102.683594 92.484375 102.65625 92.492188 102.625 L 92.558594 102.289062 C 92.5625 102.273438 92.570312 102.261719 92.589844 102.25 L 93.507812 101.621094 C 93.523438 101.609375 93.539062 101.605469 93.554688 101.605469 L 93.863281 101.652344 C 93.894531 101.65625 93.917969 101.671875 93.9375 101.699219 L 94.800781 102.957031 C 94.824219 102.988281 94.871094 102.996094 94.902344 102.976562 L 95.164062 102.796875 C 95.195312 102.773438 95.203125 102.726562 95.183594 102.695312 L 94.316406 101.4375 C 94.300781 101.410156 94.292969 101.382812 94.300781 101.351562 L 94.367188 101.046875 C 94.371094 101.03125 94.382812 101.019531 94.398438 101.007812 L 95.222656 100.441406 C 95.242188 100.429688 95.253906 100.425781 95.273438 100.425781 L 95.601562 100.484375 C 95.628906 100.484375 95.652344 100.503906 95.671875 100.53125 L 96.527344 101.773438 C 96.546875 101.804688 96.59375 101.8125 96.625 101.792969 L 96.886719 101.613281 C 96.917969 101.589844 96.925781 101.542969 96.90625 101.511719 L 95.972656 100.152344 C 95.945312 100.113281 95.902344 100.09375 95.859375 100.082031 Z M 95.859375 100.082031 "/>
<path style=" stroke:none;fill-rule:nonzero;fill:rgb(10.980392%,36.470588%,44.705882%);fill-opacity:1;" d="M 97.644531 100.136719 C 97.675781 100.171875 97.71875 100.191406 97.765625 100.191406 L 98.363281 100.222656 C 98.417969 100.226562 98.460938 100.210938 98.507812 100.167969 L 99.511719 99.246094 C 99.554688 99.203125 99.574219 99.160156 99.574219 99.105469 L 99.59375 98.507812 C 99.597656 98.460938 99.582031 98.417969 99.546875 98.378906 L 98.761719 97.527344 C 98.730469 97.492188 98.6875 97.476562 98.640625 97.472656 L 98.042969 97.441406 C 97.988281 97.441406 97.941406 97.457031 97.898438 97.496094 L 96.894531 98.421875 C 96.851562 98.464844 96.832031 98.507812 96.828125 98.5625 L 96.8125 99.160156 C 96.808594 99.207031 96.824219 99.25 96.855469 99.285156 Z M 97.898438 99.734375 L 97.28125 99.0625 C 97.257812 99.039062 97.25 99.015625 97.25 98.980469 L 97.265625 98.773438 L 97.269531 98.738281 C 97.269531 98.722656 97.277344 98.710938 97.292969 98.695312 L 98.136719 97.917969 C 98.152344 97.902344 98.164062 97.898438 98.183594 97.894531 L 98.425781 97.894531 C 98.460938 97.894531 98.484375 97.90625 98.507812 97.933594 L 99.125 98.601562 C 99.148438 98.628906 99.15625 98.652344 99.15625 98.683594 L 99.140625 98.894531 L 99.136719 98.929688 C 99.132812 98.945312 99.125 98.960938 99.109375 98.972656 L 98.269531 99.75 C 98.25 99.765625 98.238281 99.769531 98.222656 99.769531 L 98.1875 99.773438 L 97.980469 99.769531 C 97.945312 99.769531 97.921875 99.757812 97.898438 99.734375 Z M 97.898438 99.734375 "/>
<path style=" stroke:none;fill-rule:nonzero;fill:rgb(10.980392%,36.470588%,44.705882%);fill-opacity:1;" d="M 101.828125 95.210938 L 101.503906 95.234375 L 101.496094 95.140625 C 101.492188 95.089844 101.472656 95.046875 101.425781 95.007812 L 101.136719 94.753906 C 101.089844 94.710938 101.042969 94.699219 100.988281 94.703125 L 100.527344 94.742188 C 100.484375 94.75 100.4375 94.765625 100.40625 94.804688 L 99.203125 96.195312 C 99.179688 96.222656 99.183594 96.269531 99.210938 96.292969 L 100.898438 97.757812 C 100.929688 97.78125 100.976562 97.777344 101 97.75 L 102.3125 96.234375 C 102.34375 96.195312 102.355469 96.148438 102.355469 96.105469 L 102.328125 95.640625 C 102.324219 95.585938 102.304688 95.546875 102.257812 95.503906 L 101.972656 95.257812 C 101.925781 95.21875 101.882812 95.203125 101.828125 95.210938 Z M 100.675781 95.199219 C 100.695312 95.171875 100.722656 95.15625 100.753906 95.15625 L 100.863281 95.160156 C 100.882812 95.164062 100.894531 95.167969 100.910156 95.179688 L 101.035156 95.289062 C 101.050781 95.300781 101.058594 95.316406 101.0625 95.332031 L 101.082031 95.441406 C 101.085938 95.472656 101.074219 95.5 101.050781 95.523438 L 100.1875 96.523438 L 99.808594 96.195312 Z M 101.867188 95.789062 C 101.878906 95.800781 101.886719 95.8125 101.894531 95.832031 L 101.910156 95.941406 C 101.917969 95.972656 101.90625 96 101.882812 96.023438 L 100.910156 97.148438 L 100.539062 96.828125 L 101.511719 95.703125 C 101.535156 95.679688 101.5625 95.664062 101.589844 95.664062 L 101.703125 95.664062 C 101.71875 95.667969 101.734375 95.675781 101.746094 95.6875 Z M 101.867188 95.789062 "/>
<path style=" stroke:none;fill-rule:nonzero;fill:rgb(10.980392%,36.470588%,44.705882%);fill-opacity:1;" d="M 103.515625 94.6875 L 103.726562 94.398438 C 103.746094 94.367188 103.742188 94.320312 103.710938 94.300781 L 101.90625 92.980469 C 101.875 92.957031 101.828125 92.964844 101.804688 92.996094 L 101.597656 93.28125 C 101.574219 93.3125 101.582031 93.359375 101.609375 93.382812 L 103.414062 94.703125 C 103.445312 94.726562 103.492188 94.71875 103.515625 94.6875 Z M 103.515625 94.6875 "/>
<path style=" stroke:none;fill-rule:nonzero;fill:rgb(10.980392%,36.470588%,44.705882%);fill-opacity:1;" d="M 102.601562 92.015625 L 104.046875 92.90625 C 104.085938 92.929688 104.140625 92.929688 104.179688 92.921875 L 104.769531 92.78125 C 104.828125 92.769531 104.859375 92.742188 104.890625 92.695312 L 105.8125 91.203125 C 105.832031 91.171875 105.820312 91.125 105.789062 91.105469 L 105.507812 90.933594 C 105.476562 90.914062 105.429688 90.921875 105.410156 90.957031 L 104.574219 92.316406 C 104.5625 92.335938 104.542969 92.347656 104.503906 92.355469 L 104.269531 92.417969 C 104.234375 92.425781 104.210938 92.421875 104.183594 92.402344 L 102.863281 91.589844 C 102.832031 91.570312 102.785156 91.582031 102.765625 91.613281 L 102.578125 91.917969 C 102.558594 91.949219 102.570312 91.996094 102.601562 92.015625 Z M 102.601562 92.015625 "/>
<path style=" stroke:none;fill-rule:nonzero;fill:rgb(10.980392%,36.470588%,44.705882%);fill-opacity:1;" d="M 105.203125 88.675781 L 105.136719 88.476562 C 105.125 88.4375 105.125 88.417969 105.136719 88.394531 L 105.871094 86.84375 C 105.886719 86.8125 105.871094 86.765625 105.839844 86.75 L 105.542969 86.609375 C 105.507812 86.59375 105.464844 86.609375 105.449219 86.644531 L 104.644531 88.335938 C 104.617188 88.386719 104.613281 88.425781 104.636719 88.484375 L 104.828125 89.023438 C 104.839844 89.0625 104.871094 89.105469 104.914062 89.125 L 106 89.644531 C 106.054688 89.671875 106.101562 89.671875 106.152344 89.652344 L 106.683594 89.457031 C 106.726562 89.441406 106.761719 89.410156 106.785156 89.367188 L 107.59375 87.664062 C 107.609375 87.628906 107.59375 87.585938 107.558594 87.570312 L 107.273438 87.429688 C 107.238281 87.414062 107.191406 87.429688 107.175781 87.464844 L 106.441406 89.011719 C 106.429688 89.039062 106.410156 89.058594 106.378906 89.070312 L 106.144531 89.140625 C 106.125 89.144531 106.113281 89.144531 106.09375 89.136719 L 105.871094 89.03125 L 106.617188 87.457031 C 106.632812 87.421875 106.617188 87.378906 106.582031 87.363281 L 106.289062 87.222656 C 106.253906 87.207031 106.207031 87.222656 106.191406 87.257812 L 105.445312 88.828125 L 105.261719 88.738281 C 105.230469 88.726562 105.214844 88.707031 105.203125 88.675781 Z M 105.203125 88.675781 "/>
</g>
</svg>
