<svg xmlns="http://www.w3.org/2000/svg" xmlns:xlink="http://www.w3.org/1999/xlink" width="500" zoomAndPan="magnify" viewBox="0 0 375 374.999991" height="500" preserveAspectRatio="xMidYMid meet" version="1.0"><defs><g/><clipPath id="9db9c34260"><path d="M 130.21875 96.574219 L 271 96.574219 L 271 246.574219 L 130.21875 246.574219 Z M 130.21875 96.574219 " clip-rule="nonzero"/></clipPath><clipPath id="b523ea44df"><path d="M 263 204 L 271.96875 204 L 271.96875 213 L 263 213 Z M 263 204 " clip-rule="nonzero"/></clipPath><clipPath id="65b25c5f81"><path d="M 183.746094 173.464844 L 336 173.464844 L 336 195 L 183.746094 195 Z M 183.746094 173.464844 " clip-rule="nonzero"/></clipPath><clipPath id="40b36b51a9"><path d="M 286 192 L 337.402344 192 L 337.402344 204 L 286 204 Z M 286 192 " clip-rule="nonzero"/></clipPath></defs><rect x="-37.5" width="450" fill="#ffffff" y="-37.499999" height="449.999989" fill-opacity="1"/><rect x="-37.5" width="450" fill="#efefef" y="-37.499999" height="449.999989" fill-opacity="1"/><g clip-path="url(#9db9c34260)"><path fill="#000000" d="M 263.492188 129.941406 L 259.484375 124.816406 L 259.578125 124.925781 L 255.132812 120.175781 L 255.238281 120.273438 L 250.386719 115.9375 L 250.5 116.027344 L 245.285156 112.140625 L 245.40625 112.21875 L 239.867188 108.808594 L 239.992188 108.878906 L 234.175781 105.972656 L 234.304688 106.03125 L 228.253906 103.648438 L 228.390625 103.695312 L 222.152344 101.863281 L 222.289062 101.898438 L 215.914062 100.625 L 216.054688 100.648438 L 209.589844 99.949219 L 209.734375 99.957031 L 203.234375 99.832031 L 203.378906 99.828125 L 196.890625 100.28125 L 197.035156 100.265625 L 190.613281 101.292969 L 190.757812 101.261719 L 184.453125 102.855469 L 184.589844 102.816406 L 178.449219 104.960938 L 178.585938 104.90625 L 172.660156 107.589844 L 172.789062 107.523438 L 167.125 110.722656 L 167.246094 110.644531 L 161.886719 114.332031 L 162.003906 114.246094 L 156.992188 118.394531 L 157.097656 118.296875 L 152.476562 122.875 L 152.574219 122.769531 L 148.371094 127.738281 L 148.460938 127.625 L 144.714844 132.949219 L 144.792969 132.828125 L 141.535156 138.460938 L 141.601562 138.332031 L 138.855469 144.234375 L 138.910156 144.101562 L 136.695312 150.222656 L 136.738281 150.085938 L 135.078125 156.378906 L 135.105469 156.238281 L 134.007812 162.65625 L 134.027344 162.511719 L 133.5 169 L 133.503906 168.855469 L 133.554688 175.367188 L 133.546875 175.222656 L 134.167969 181.675781 L 134.148438 181.53125 L 135.335938 187.902344 L 135.300781 187.761719 L 137.046875 194 L 137 193.863281 L 139.285156 199.925781 L 139.230469 199.792969 L 142.042969 205.628906 L 141.972656 205.503906 L 145.289062 211.070312 L 145.210938 210.949219 L 149 216.199219 L 148.910156 216.085938 L 153.152344 220.980469 L 153.054688 220.878906 L 157.707031 225.378906 L 157.597656 225.285156 L 162.632812 229.359375 L 162.515625 229.273438 L 167.890625 232.886719 L 167.765625 232.808594 L 173.4375 235.933594 L 173.308594 235.871094 L 179.230469 238.480469 L 179.09375 238.429688 L 185.226562 240.507812 L 185.085938 240.46875 L 191.375 241.996094 L 191.234375 241.96875 L 197.632812 242.933594 L 197.492188 242.917969 L 203.949219 243.316406 L 203.804688 243.316406 L 210.273438 243.140625 L 210.132812 243.152344 L 216.558594 242.40625 L 216.417969 242.429688 L 222.753906 241.121094 L 222.617188 241.15625 L 228.8125 239.289062 L 228.679688 239.339844 L 234.6875 236.933594 L 234.554688 236.992188 L 240.332031 234.066406 L 240.207031 234.136719 L 245.699219 230.714844 L 245.582031 230.792969 L 250.75 226.898438 L 250.640625 226.988281 L 255.449219 222.652344 L 255.34375 222.753906 L 259.75 218.007812 L 259.660156 218.117188 L 263.628906 213 L 263.546875 213.117188 L 267.050781 207.671875 C 267.539062 206.914062 268.546875 206.695312 269.300781 207.183594 C 270.054688 207.671875 270.273438 208.679688 269.789062 209.4375 L 266.28125 214.882812 C 266.257812 214.921875 266.230469 214.964844 266.199219 215 L 262.226562 220.117188 C 262.199219 220.15625 262.167969 220.191406 262.136719 220.226562 L 257.726562 224.972656 C 257.695312 225.007812 257.660156 225.039062 257.625 225.074219 L 252.820312 229.410156 C 252.785156 229.441406 252.746094 229.472656 252.707031 229.503906 L 247.539062 233.398438 C 247.5 233.425781 247.460938 233.453125 247.417969 233.480469 L 241.925781 236.90625 C 241.882812 236.929688 241.84375 236.953125 241.800781 236.976562 L 236.027344 239.902344 C 235.984375 239.921875 235.941406 239.941406 235.894531 239.960938 L 229.886719 242.363281 C 229.839844 242.382812 229.796875 242.398438 229.75 242.410156 L 223.550781 244.277344 C 223.507812 244.289062 223.460938 244.300781 223.414062 244.3125 L 217.074219 245.621094 C 217.027344 245.628906 216.980469 245.636719 216.933594 245.644531 L 210.503906 246.386719 C 210.457031 246.394531 210.410156 246.398438 210.363281 246.398438 L 203.894531 246.574219 C 203.84375 246.574219 203.796875 246.574219 203.75 246.570312 L 197.289062 246.171875 C 197.242188 246.167969 197.195312 246.164062 197.148438 246.15625 L 190.75 245.191406 C 190.703125 245.183594 190.65625 245.171875 190.609375 245.164062 L 184.320312 243.632812 C 184.273438 243.621094 184.226562 243.609375 184.179688 243.59375 L 178.050781 241.515625 C 178.007812 241.5 177.960938 241.484375 177.917969 241.464844 L 171.996094 238.851562 C 171.953125 238.832031 171.910156 238.8125 171.867188 238.789062 L 166.195312 235.664062 C 166.15625 235.640625 166.113281 235.617188 166.074219 235.589844 L 160.703125 231.976562 C 160.664062 231.949219 160.625 231.921875 160.585938 231.890625 L 155.554688 227.820312 C 155.515625 227.789062 155.480469 227.757812 155.445312 227.722656 L 150.792969 223.222656 C 150.757812 223.1875 150.722656 223.152344 150.691406 223.117188 L 146.453125 218.222656 C 146.421875 218.1875 146.390625 218.148438 146.363281 218.109375 L 142.570312 212.859375 C 142.542969 212.820312 142.515625 212.78125 142.492188 212.738281 L 139.179688 207.171875 C 139.152344 207.132812 139.132812 207.089844 139.109375 207.046875 L 136.296875 201.210938 C 136.277344 201.167969 136.257812 201.121094 136.242188 201.078125 L 133.957031 195.015625 C 133.9375 194.972656 133.921875 194.925781 133.910156 194.878906 L 132.167969 188.640625 C 132.15625 188.59375 132.144531 188.546875 132.136719 188.5 L 130.949219 182.128906 C 130.9375 182.082031 130.933594 182.035156 130.925781 181.988281 L 130.304688 175.535156 C 130.300781 175.488281 130.300781 175.441406 130.300781 175.394531 L 130.25 168.882812 C 130.25 168.832031 130.25 168.785156 130.253906 168.738281 L 130.78125 162.25 C 130.785156 162.199219 130.792969 162.152344 130.800781 162.105469 L 131.898438 155.6875 C 131.90625 155.640625 131.917969 155.59375 131.929688 155.546875 L 133.59375 149.25 C 133.605469 149.203125 133.621094 149.160156 133.636719 149.113281 L 135.851562 142.992188 C 135.867188 142.945312 135.886719 142.902344 135.90625 142.859375 L 138.652344 136.957031 C 138.671875 136.914062 138.695312 136.871094 138.71875 136.828125 L 141.976562 131.195312 C 142 131.152344 142.027344 131.113281 142.054688 131.070312 L 145.800781 125.75 C 145.828125 125.710938 145.855469 125.671875 145.886719 125.632812 L 150.089844 120.664062 C 150.121094 120.628906 150.152344 120.59375 150.1875 120.558594 L 154.8125 115.980469 C 154.84375 115.945312 154.882812 115.914062 154.917969 115.882812 L 159.929688 111.734375 C 159.964844 111.703125 160.003906 111.675781 160.042969 111.648438 L 165.402344 107.960938 C 165.441406 107.933594 165.484375 107.90625 165.527344 107.882812 L 171.191406 104.6875 C 171.230469 104.660156 171.273438 104.640625 171.320312 104.621094 L 177.242188 101.9375 C 177.289062 101.917969 177.332031 101.898438 177.378906 101.882812 L 183.515625 99.738281 C 183.5625 99.722656 183.609375 99.707031 183.65625 99.695312 L 189.960938 98.105469 C 190.007812 98.09375 190.054688 98.082031 190.101562 98.074219 L 196.523438 97.046875 C 196.570312 97.039062 196.617188 97.035156 196.664062 97.03125 L 203.152344 96.578125 C 203.199219 96.574219 203.25 96.574219 203.296875 96.574219 L 209.796875 96.699219 C 209.847656 96.699219 209.894531 96.703125 209.941406 96.707031 L 216.40625 97.410156 C 216.453125 97.414062 216.503906 97.421875 216.550781 97.429688 L 222.925781 98.703125 C 222.972656 98.710938 223.019531 98.722656 223.066406 98.738281 L 229.304688 100.570312 C 229.351562 100.582031 229.398438 100.597656 229.441406 100.617188 L 235.496094 102.996094 C 235.539062 103.015625 235.585938 103.035156 235.628906 103.054688 L 241.445312 105.960938 C 241.488281 105.984375 241.53125 106.007812 241.570312 106.03125 L 247.109375 109.445312 C 247.152344 109.46875 247.191406 109.496094 247.230469 109.527344 L 252.445312 113.414062 C 252.480469 113.445312 252.519531 113.476562 252.554688 113.507812 L 257.40625 117.84375 C 257.441406 117.878906 257.476562 117.910156 257.507812 117.945312 L 261.953125 122.695312 C 261.988281 122.730469 262.019531 122.769531 262.046875 122.808594 L 266.054688 127.933594 C 266.609375 128.640625 266.484375 129.667969 265.777344 130.222656 C 265.070312 130.777344 264.046875 130.652344 263.492188 129.941406 Z M 263.492188 129.941406 " fill-opacity="1" fill-rule="nonzero"/></g><path fill="#000000" d="M 268.667969 128.546875 L 268.703125 129.128906 C 268.675781 130.3125 268.28125 131.304688 267.523438 132.105469 C 266.757812 132.910156 265.789062 133.316406 264.621094 133.332031 C 263.496094 133.285156 262.546875 132.859375 261.773438 132.050781 C 261.523438 131.789062 261.3125 131.496094 261.132812 131.175781 L 260.894531 130.671875 C 260.753906 130.324219 260.65625 129.953125 260.609375 129.5625 C 260.484375 128.355469 260.753906 127.304688 261.410156 126.410156 C 262.070312 125.515625 262.96875 124.984375 264.105469 124.808594 C 265.25 124.695312 266.253906 124.992188 267.113281 125.695312 C 267.972656 126.398438 268.488281 127.347656 268.667969 128.546875 " fill-opacity="1" fill-rule="nonzero"/><g clip-path="url(#b523ea44df)"><path fill="#000000" d="M 271.898438 207.902344 L 271.933594 208.480469 C 271.921875 209.007812 271.835938 209.496094 271.679688 209.945312 C 271.664062 210.070312 271.503906 210.386719 271.203125 210.898438 C 271.070312 211.09375 270.921875 211.28125 270.753906 211.460938 C 270.582031 211.636719 270.402344 211.796875 270.210938 211.9375 C 269.71875 212.25 269.414062 212.417969 269.289062 212.433594 C 268.847656 212.59375 268.371094 212.679688 267.847656 212.683594 C 267.347656 212.664062 266.882812 212.570312 266.453125 212.398438 C 265.929688 212.152344 265.628906 211.980469 265.542969 211.886719 C 265.355469 211.746094 265.175781 211.582031 265.003906 211.40625 C 264.226562 210.527344 263.828125 209.566406 263.8125 208.519531 C 263.796875 208 263.855469 207.507812 263.996094 207.050781 C 264.0625 206.820312 264.152344 206.597656 264.261719 206.382812 C 264.292969 206.265625 264.496094 205.964844 264.871094 205.480469 C 265.5 204.757812 266.324219 204.316406 267.335938 204.164062 C 267.84375 204.113281 268.324219 204.144531 268.777344 204.253906 C 269.003906 204.308594 269.222656 204.386719 269.433594 204.480469 C 269.953125 204.753906 270.253906 204.945312 270.339844 205.046875 C 270.457031 205.109375 270.707031 205.371094 271.085938 205.832031 C 271.226562 206.027344 271.351562 206.230469 271.457031 206.449219 C 271.671875 206.882812 271.820312 207.367188 271.898438 207.902344 " fill-opacity="1" fill-rule="nonzero"/></g><g clip-path="url(#65b25c5f81)"><path fill="#000000" d="M 323.355469 188.910156 C 321.460938 188.554688 319.589844 188.085938 317.742188 187.515625 C 315.902344 186.9375 314.078125 186.277344 312.277344 185.550781 C 310.476562 184.820312 308.6875 184.039062 306.894531 183.226562 L 301.472656 180.757812 C 299.644531 179.929688 297.78125 179.113281 295.863281 178.34375 C 295.378906 178.152344 294.902344 177.957031 294.414062 177.773438 L 293.679688 177.496094 L 292.9375 177.226562 C 292.449219 177.046875 291.941406 176.878906 291.441406 176.707031 C 291.191406 176.621094 290.9375 176.539062 290.683594 176.457031 C 290.429688 176.375 290.179688 176.292969 289.917969 176.214844 C 289.40625 176.058594 288.894531 175.902344 288.371094 175.761719 C 288.109375 175.6875 287.847656 175.613281 287.585938 175.546875 L 286.792969 175.347656 C 286.265625 175.21875 285.742188 175.078125 285.203125 174.972656 L 284.402344 174.800781 C 284.136719 174.746094 283.871094 174.683594 283.597656 174.640625 L 281.980469 174.347656 L 280.351562 174.109375 C 280.214844 174.089844 280.078125 174.066406 279.941406 174.050781 L 279.53125 174 L 278.710938 173.90625 C 278.4375 173.875 278.167969 173.835938 277.894531 173.816406 L 277.070312 173.742188 C 274.878906 173.550781 272.679688 173.464844 270.488281 173.484375 C 268.296875 173.507812 266.113281 173.613281 263.953125 173.808594 C 259.632812 174.195312 255.402344 174.925781 251.292969 175.867188 C 247.1875 176.820312 243.195312 177.996094 239.328125 179.347656 C 237.398438 180.019531 235.488281 180.730469 233.621094 181.488281 C 231.746094 182.242188 229.902344 183.035156 228.09375 183.859375 C 231.96875 182.570312 235.875 181.347656 239.855469 180.300781 C 243.824219 179.242188 247.859375 178.34375 251.933594 177.648438 C 253.96875 177.296875 256.023438 177.019531 258.078125 176.789062 C 259.105469 176.667969 260.132812 176.578125 261.164062 176.492188 L 262.707031 176.386719 C 263.222656 176.351562 263.738281 176.335938 264.253906 176.308594 C 266.316406 176.222656 268.375 176.203125 270.417969 176.273438 L 271.953125 176.34375 C 272.460938 176.375 272.96875 176.417969 273.476562 176.453125 L 273.855469 176.480469 L 274.234375 176.515625 L 274.992188 176.589844 C 275.246094 176.617188 275.496094 176.636719 275.75 176.664062 L 276.5 176.757812 L 277.253906 176.851562 C 277.503906 176.882812 277.75 176.925781 278 176.964844 L 278.742188 177.078125 L 279.117188 177.136719 C 279.238281 177.15625 279.359375 177.179688 279.484375 177.203125 L 280.957031 177.476562 L 282.410156 177.796875 C 282.652344 177.84375 282.890625 177.910156 283.128906 177.96875 L 283.847656 178.148438 C 284.328125 178.257812 284.792969 178.402344 285.265625 178.535156 L 285.96875 178.734375 C 286.203125 178.804688 286.433594 178.878906 286.667969 178.953125 C 287.132812 179.09375 287.589844 179.253906 288.050781 179.40625 C 291.726562 180.671875 295.238281 182.292969 298.761719 183.992188 C 302.285156 185.691406 305.832031 187.484375 309.640625 189.101562 C 310.367188 189.40625 311.105469 189.710938 311.851562 190 C 309.597656 190.175781 307.335938 190.304688 305.070312 190.398438 L 302.917969 190.480469 L 300.761719 190.53125 C 300.042969 190.550781 299.324219 190.550781 298.605469 190.5625 L 297.523438 190.574219 C 297.164062 190.578125 296.804688 190.574219 296.445312 190.574219 C 293.5625 190.585938 290.675781 190.527344 287.785156 190.441406 C 284.894531 190.355469 282.003906 190.222656 279.109375 190.0625 C 276.214844 189.902344 273.320312 189.71875 270.421875 189.503906 C 264.625 189.09375 258.820312 188.589844 252.996094 188.105469 C 247.175781 187.613281 241.335938 187.125 235.476562 186.730469 L 233.277344 186.585938 C 232.542969 186.539062 231.808594 186.492188 231.074219 186.449219 C 229.605469 186.363281 228.128906 186.289062 226.65625 186.21875 C 225.917969 186.1875 225.175781 186.160156 224.4375 186.128906 L 222.21875 186.0625 C 221.476562 186.046875 220.734375 186.03125 219.992188 186.023438 L 218.878906 186.015625 C 218.507812 186.011719 218.136719 186.011719 217.765625 186.015625 C 217.023438 186.019531 216.28125 186.019531 215.535156 186.035156 L 214.421875 186.058594 C 214.050781 186.066406 213.675781 186.082031 213.304688 186.09375 L 212.191406 186.136719 L 211.078125 186.195312 C 210.335938 186.226562 209.59375 186.285156 208.851562 186.335938 C 205.886719 186.550781 202.941406 186.910156 200.042969 187.414062 C 197.144531 187.929688 194.304688 188.609375 191.578125 189.476562 C 188.851562 190.339844 186.234375 191.382812 183.816406 192.628906 C 189.039062 190.625 194.675781 189.371094 200.386719 188.75 C 206.105469 188.117188 211.902344 188.105469 217.671875 188.363281 C 218.035156 188.378906 218.394531 188.398438 218.753906 188.417969 L 219.835938 188.480469 C 220.558594 188.523438 221.28125 188.578125 222 188.621094 L 224.164062 188.78125 C 224.886719 188.84375 225.609375 188.898438 226.328125 188.964844 C 227.773438 189.09375 229.214844 189.226562 230.660156 189.375 C 232.105469 189.511719 233.550781 189.664062 234.996094 189.816406 C 240.777344 190.429688 246.558594 191.089844 252.359375 191.734375 C 263.960938 193.015625 275.65625 194.222656 287.523438 194.679688 C 293.449219 194.910156 299.417969 194.941406 305.386719 194.699219 C 308.371094 194.566406 311.355469 194.382812 314.332031 194.105469 C 317.304688 193.824219 320.269531 193.464844 323.214844 193.023438 L 335.511719 191.183594 Z M 323.355469 188.910156 " fill-opacity="1" fill-rule="nonzero"/></g><g clip-path="url(#40b36b51a9)"><path fill="#ff1616" d="M 290.726562 201.441406 C 295.308594 202.4375 299.957031 203.175781 304.628906 203.601562 C 310.488281 204.136719 316.453125 204.210938 322.277344 203.277344 C 325.109375 202.820312 327.914062 202.117188 330.566406 201.019531 C 332.746094 200.125 336.863281 198.664062 337.257812 195.96875 C 337.394531 195.015625 337.433594 193.570312 336.226562 192.824219 C 334.671875 191.863281 332.585938 192.832031 331.132812 193.382812 C 329.394531 194.039062 327.683594 194.738281 325.808594 195.25 C 323.464844 195.890625 321.039062 196.421875 318.589844 196.894531 C 315.832031 197.425781 313.019531 197.90625 310.183594 198.261719 C 311.582031 198.492188 313.910156 198.804688 315.167969 198.960938 C 316.675781 199.148438 318.1875 199.3125 319.707031 199.445312 C 321.308594 199.582031 322.960938 199.683594 324.617188 199.738281 C 317.253906 201.210938 304.714844 202.503906 286.480469 200.417969 C 287.910156 200.78125 289.34375 201.140625 290.726562 201.441406 Z M 290.726562 201.441406 " fill-opacity="1" fill-rule="nonzero"/></g><g fill="#ffaa04" fill-opacity="0.502"><g transform="translate(159.136169, 146.05269)"><g><path d="M 3.671875 -22.75 C 4.128906 -23.144531 4.484375 -23.195312 4.734375 -22.90625 C 4.796875 -22.820312 4.84375 -22.757812 4.875 -22.71875 C 4.9375 -22.570312 4.957031 -22.4375 4.9375 -22.3125 C 4.925781 -22.195312 4.890625 -22.039062 4.828125 -21.84375 C 4.753906 -21.601562 4.710938 -21.375 4.703125 -21.15625 C 4.691406 -20.9375 4.753906 -20.660156 4.890625 -20.328125 L 9.234375 -10.90625 C 9.617188 -10.050781 9.78125 -9.359375 9.71875 -8.828125 C 9.664062 -8.304688 9.382812 -7.832031 8.875 -7.40625 C 8.414062 -7.007812 7.921875 -6.816406 7.390625 -6.828125 C 6.859375 -6.847656 6.226562 -7.03125 5.5 -7.375 L -1.734375 -10.625 L 1.078125 -4.40625 C 1.160156 -4.21875 1.25 -4.066406 1.34375 -3.953125 C 1.476562 -3.804688 1.609375 -3.707031 1.734375 -3.65625 C 1.867188 -3.601562 2.03125 -3.566406 2.21875 -3.546875 C 2.476562 -3.492188 2.648438 -3.414062 2.734375 -3.3125 C 2.796875 -3.238281 2.832031 -3.179688 2.84375 -3.140625 C 2.925781 -2.941406 2.914062 -2.742188 2.8125 -2.546875 C 2.707031 -2.347656 2.492188 -2.113281 2.171875 -1.84375 L 0.3125 -0.265625 C -0.15625 0.128906 -0.515625 0.179688 -0.765625 -0.109375 C -0.828125 -0.191406 -0.875 -0.253906 -0.90625 -0.296875 C -0.96875 -0.441406 -0.988281 -0.578125 -0.96875 -0.703125 C -0.957031 -0.828125 -0.921875 -0.976562 -0.859375 -1.15625 C -0.773438 -1.394531 -0.726562 -1.625 -0.71875 -1.84375 C -0.71875 -2.070312 -0.789062 -2.359375 -0.9375 -2.703125 L -5.28125 -12.234375 L -6.046875 -12.5625 C -6.335938 -12.695312 -6.5625 -12.851562 -6.71875 -13.03125 C -7.007812 -13.375 -6.929688 -13.738281 -6.484375 -14.125 L -3.953125 -16.28125 C -3.585938 -16.59375 -3.238281 -16.75 -2.90625 -16.75 C -2.582031 -16.75 -2.128906 -16.625 -1.546875 -16.375 L 5.21875 -13.484375 L 2.875 -18.609375 C 2.78125 -18.816406 2.691406 -18.972656 2.609375 -19.078125 C 2.484375 -19.210938 2.351562 -19.304688 2.21875 -19.359375 C 2.082031 -19.410156 1.925781 -19.445312 1.75 -19.46875 C 1.5 -19.507812 1.332031 -19.582031 1.25 -19.6875 C 1.1875 -19.757812 1.144531 -19.816406 1.125 -19.859375 C 1.039062 -20.066406 1.050781 -20.265625 1.15625 -20.453125 C 1.257812 -20.648438 1.472656 -20.882812 1.796875 -21.15625 Z M 3.671875 -22.75 "/></g></g></g><g fill="#ffaa04" fill-opacity="0.502"><g transform="translate(170.402153, 136.207745)"><g><path d="M 2.59375 -18.25 C 4.59375 -19.300781 6.296875 -19.707031 7.703125 -19.46875 C 9.109375 -19.238281 10.195312 -18.382812 10.96875 -16.90625 C 11.351562 -16.175781 11.660156 -15.265625 11.890625 -14.171875 C 12.273438 -12.398438 12.328125 -10.867188 12.046875 -9.578125 C 11.765625 -8.285156 11.125 -7.113281 10.125 -6.0625 C 9.125 -5.019531 7.671875 -4.003906 5.765625 -3.015625 L 0.359375 -0.203125 C 0.078125 -0.0546875 -0.160156 0.0078125 -0.359375 0 C -0.566406 -0.0195312 -0.710938 -0.113281 -0.796875 -0.28125 C -0.835938 -0.351562 -0.863281 -0.445312 -0.875 -0.5625 C -0.90625 -0.707031 -0.894531 -0.820312 -0.84375 -0.90625 C -0.800781 -1 -0.726562 -1.128906 -0.625 -1.296875 C -0.476562 -1.523438 -0.378906 -1.742188 -0.328125 -1.953125 C -0.285156 -2.171875 -0.296875 -2.460938 -0.359375 -2.828125 L -2.40625 -12.671875 C -2.445312 -12.878906 -2.507812 -13.0625 -2.59375 -13.21875 C -2.664062 -13.363281 -2.75 -13.472656 -2.84375 -13.546875 C -2.945312 -13.617188 -3.078125 -13.703125 -3.234375 -13.796875 C -3.429688 -13.898438 -3.5625 -14.003906 -3.625 -14.109375 C -3.644531 -14.148438 -3.671875 -14.234375 -3.703125 -14.359375 C -3.734375 -14.554688 -3.679688 -14.738281 -3.546875 -14.90625 C -3.410156 -15.070312 -3.148438 -15.253906 -2.765625 -15.453125 Z M 6.578125 -11.9375 C 6.265625 -13.363281 5.921875 -14.4375 5.546875 -15.15625 C 5.171875 -15.851562 4.769531 -16.257812 4.34375 -16.375 C 3.914062 -16.488281 3.429688 -16.40625 2.890625 -16.125 L 2.4375 -15.890625 L 4.828125 -4.8125 L 5.296875 -5.0625 C 5.910156 -5.382812 6.359375 -5.78125 6.640625 -6.25 C 6.921875 -6.726562 7.054688 -7.410156 7.046875 -8.296875 C 7.046875 -9.191406 6.890625 -10.40625 6.578125 -11.9375 Z M 6.578125 -11.9375 "/></g></g></g><g fill="#ffaa04" fill-opacity="0.502"><g transform="translate(184.586621, 128.782049)"><g><path d="M 4.546875 -13.609375 C 6.203125 -14.066406 7.613281 -14.128906 8.78125 -13.796875 C 9.957031 -13.460938 10.71875 -12.664062 11.0625 -11.40625 C 11.195312 -10.925781 11.265625 -10.363281 11.265625 -9.71875 L 11.21875 -6.46875 C 11.207031 -6.40625 11.210938 -6.332031 11.234375 -6.25 C 11.296875 -6.019531 11.421875 -5.929688 11.609375 -5.984375 C 11.773438 -6.035156 11.898438 -6.15625 11.984375 -6.34375 C 12.078125 -6.53125 12.140625 -6.628906 12.171875 -6.640625 C 12.242188 -6.660156 12.320312 -6.625 12.40625 -6.53125 C 12.488281 -6.4375 12.546875 -6.328125 12.578125 -6.203125 C 12.710938 -5.816406 12.675781 -5.375 12.46875 -4.875 C 12.269531 -4.382812 11.945312 -3.9375 11.5 -3.53125 C 11.050781 -3.132812 10.515625 -2.851562 9.890625 -2.6875 C 9.140625 -2.476562 8.460938 -2.429688 7.859375 -2.546875 C 7.253906 -2.671875 6.769531 -2.976562 6.40625 -3.46875 C 6.125 -2.820312 5.722656 -2.273438 5.203125 -1.828125 C 4.691406 -1.390625 4.097656 -1.078125 3.421875 -0.890625 C 2.660156 -0.671875 1.972656 -0.632812 1.359375 -0.78125 C 0.753906 -0.9375 0.265625 -1.210938 -0.109375 -1.609375 C -0.492188 -2.015625 -0.757812 -2.476562 -0.90625 -3 C -0.96875 -3.226562 -1.007812 -3.457031 -1.03125 -3.6875 C -1.070312 -4.738281 -0.773438 -5.625 -0.140625 -6.34375 C 0.492188 -7.070312 1.34375 -7.585938 2.40625 -7.890625 C 3.601562 -8.222656 4.832031 -8.359375 6.09375 -8.296875 L 6.25 -9.875 C 6.257812 -10.53125 6.21875 -11.023438 6.125 -11.359375 C 6.007812 -11.703125 5.820312 -11.929688 5.5625 -12.046875 C 5.300781 -12.160156 4.945312 -12.160156 4.5 -12.046875 C 4.644531 -11.835938 4.753906 -11.601562 4.828125 -11.34375 C 4.972656 -10.8125 4.898438 -10.289062 4.609375 -9.78125 C 4.316406 -9.28125 3.796875 -8.925781 3.046875 -8.71875 C 2.328125 -8.519531 1.722656 -8.519531 1.234375 -8.71875 C 0.753906 -8.925781 0.453125 -9.257812 0.328125 -9.71875 C 0.128906 -10.445312 0.363281 -11.160156 1.03125 -11.859375 C 1.707031 -12.554688 2.878906 -13.140625 4.546875 -13.609375 Z M 5.15625 -6.703125 C 4.757812 -6.585938 4.476562 -6.335938 4.3125 -5.953125 C 4.144531 -5.578125 4.109375 -5.210938 4.203125 -4.859375 C 4.265625 -4.628906 4.367188 -4.457031 4.515625 -4.34375 C 4.671875 -4.226562 4.847656 -4.203125 5.046875 -4.265625 C 5.234375 -4.316406 5.421875 -4.445312 5.609375 -4.65625 C 5.796875 -4.863281 5.894531 -5.132812 5.90625 -5.46875 L 6 -6.875 C 5.738281 -6.84375 5.457031 -6.785156 5.15625 -6.703125 Z M 5.15625 -6.703125 "/></g></g></g><g fill="#ffaa04" fill-opacity="0.502"><g transform="translate(197.122381, 124.519225)"><g><path d="M 21.3125 -3.515625 C 21.289062 -3.453125 21.285156 -3.359375 21.296875 -3.234375 C 21.296875 -3.128906 21.320312 -3.050781 21.375 -3 C 21.425781 -2.945312 21.492188 -2.921875 21.578125 -2.921875 C 21.765625 -2.921875 21.914062 -3 22.03125 -3.15625 C 22.15625 -3.320312 22.238281 -3.40625 22.28125 -3.40625 C 22.363281 -3.40625 22.425781 -3.351562 22.46875 -3.25 C 22.519531 -3.15625 22.546875 -3.039062 22.546875 -2.90625 C 22.578125 -2.476562 22.441406 -2.050781 22.140625 -1.625 C 21.847656 -1.207031 21.414062 -0.863281 20.84375 -0.59375 C 20.269531 -0.320312 19.582031 -0.175781 18.78125 -0.15625 C 17.789062 -0.132812 17 -0.347656 16.40625 -0.796875 C 15.8125 -1.242188 15.5 -1.847656 15.46875 -2.609375 C 15.457031 -3.160156 15.582031 -3.789062 15.84375 -4.5 L 17.015625 -7.75 C 17.078125 -7.945312 17.109375 -8.101562 17.109375 -8.21875 C 17.109375 -8.414062 17.039062 -8.566406 16.90625 -8.671875 C 16.78125 -8.785156 16.625 -8.84375 16.4375 -8.84375 C 16.1875 -8.832031 15.925781 -8.710938 15.65625 -8.484375 C 15.394531 -8.253906 15.164062 -7.898438 14.96875 -7.421875 L 13.8125 -3.375 C 13.78125 -3.3125 13.769531 -3.21875 13.78125 -3.09375 C 13.78125 -2.988281 13.804688 -2.90625 13.859375 -2.84375 C 13.910156 -2.789062 13.984375 -2.765625 14.078125 -2.765625 C 14.253906 -2.773438 14.398438 -2.859375 14.515625 -3.015625 C 14.640625 -3.171875 14.726562 -3.25 14.78125 -3.25 C 14.851562 -3.25 14.914062 -3.203125 14.96875 -3.109375 C 15.019531 -3.015625 15.046875 -2.898438 15.046875 -2.765625 C 15.066406 -2.335938 14.925781 -1.910156 14.625 -1.484375 C 14.332031 -1.066406 13.898438 -0.71875 13.328125 -0.4375 C 12.765625 -0.164062 12.078125 -0.0234375 11.265625 -0.015625 C 10.273438 0.00390625 9.484375 -0.207031 8.890625 -0.65625 C 8.304688 -1.101562 7.992188 -1.707031 7.953125 -2.46875 C 7.941406 -3.019531 8.066406 -3.644531 8.328125 -4.34375 L 9.5 -7.609375 C 9.570312 -7.804688 9.609375 -7.960938 9.609375 -8.078125 C 9.609375 -8.273438 9.539062 -8.425781 9.40625 -8.53125 C 9.269531 -8.644531 9.113281 -8.695312 8.9375 -8.6875 C 8.675781 -8.6875 8.414062 -8.578125 8.15625 -8.359375 C 7.894531 -8.140625 7.675781 -7.785156 7.5 -7.296875 L 6.109375 -2.46875 C 6.054688 -2.300781 6.035156 -2.140625 6.046875 -1.984375 C 6.046875 -1.804688 6.082031 -1.660156 6.15625 -1.546875 C 6.226562 -1.441406 6.335938 -1.328125 6.484375 -1.203125 C 6.585938 -1.109375 6.660156 -1.023438 6.703125 -0.953125 C 6.753906 -0.878906 6.765625 -0.789062 6.734375 -0.6875 C 6.679688 -0.488281 6.539062 -0.34375 6.3125 -0.25 C 6.09375 -0.15625 5.742188 -0.109375 5.265625 -0.109375 L 0.140625 0 C -0.253906 0.0078125 -0.535156 -0.046875 -0.703125 -0.171875 C -0.878906 -0.296875 -0.953125 -0.46875 -0.921875 -0.6875 C -0.859375 -0.863281 -0.695312 -1.019531 -0.4375 -1.15625 C -0.226562 -1.28125 -0.0507812 -1.425781 0.09375 -1.59375 C 0.25 -1.757812 0.375 -2.03125 0.46875 -2.40625 L 2.34375 -8.921875 C 2.375 -9.003906 2.390625 -9.113281 2.390625 -9.25 C 2.378906 -9.40625 2.335938 -9.53125 2.265625 -9.625 C 2.203125 -9.71875 2.097656 -9.832031 1.953125 -9.96875 C 1.796875 -10.070312 1.6875 -10.164062 1.625 -10.25 C 1.5625 -10.34375 1.550781 -10.46875 1.59375 -10.625 C 1.675781 -10.96875 2.140625 -11.28125 2.984375 -11.5625 C 3.835938 -11.84375 4.726562 -11.988281 5.65625 -12 C 6.394531 -12.019531 6.984375 -11.832031 7.421875 -11.4375 C 7.859375 -11.039062 8.070312 -10.488281 8.0625 -9.78125 C 8.664062 -10.644531 9.300781 -11.25 9.96875 -11.59375 C 10.644531 -11.9375 11.378906 -12.113281 12.171875 -12.125 C 13.046875 -12.144531 13.757812 -11.910156 14.3125 -11.421875 C 14.875 -10.929688 15.195312 -10.28125 15.28125 -9.46875 C 15.894531 -10.5 16.5625 -11.21875 17.28125 -11.625 C 18.007812 -12.039062 18.8125 -12.257812 19.6875 -12.28125 C 20.601562 -12.289062 21.347656 -12.023438 21.921875 -11.484375 C 22.492188 -10.941406 22.789062 -10.226562 22.8125 -9.34375 C 22.820312 -8.875 22.753906 -8.414062 22.609375 -7.96875 Z M 21.3125 -3.515625 "/></g></g></g><g fill="#ffaa04" fill-opacity="0.502"><g transform="translate(219.063374, 124.449519)"><g><path d="M 10.546875 -9.734375 C 12.222656 -9.335938 13.488281 -8.707031 14.34375 -7.84375 C 15.207031 -6.988281 15.488281 -5.925781 15.1875 -4.65625 C 15.070312 -4.164062 14.863281 -3.640625 14.5625 -3.078125 L 12.9375 -0.25 C 12.894531 -0.207031 12.863281 -0.144531 12.84375 -0.0625 C 12.789062 0.175781 12.863281 0.320312 13.0625 0.375 C 13.226562 0.414062 13.394531 0.367188 13.5625 0.234375 C 13.726562 0.109375 13.832031 0.0507812 13.875 0.0625 C 13.945312 0.0820312 13.992188 0.148438 14.015625 0.265625 C 14.035156 0.378906 14.03125 0.5 14 0.625 C 13.925781 1.03125 13.6875 1.398438 13.28125 1.734375 C 12.875 2.066406 12.375 2.300781 11.78125 2.4375 C 11.195312 2.570312 10.585938 2.566406 9.953125 2.421875 C 9.191406 2.242188 8.578125 1.953125 8.109375 1.546875 C 7.640625 1.140625 7.367188 0.644531 7.296875 0.0625 C 6.734375 0.476562 6.117188 0.757812 5.453125 0.90625 C 4.785156 1.050781 4.109375 1.039062 3.421875 0.875 C 2.648438 0.695312 2.035156 0.394531 1.578125 -0.03125 C 1.128906 -0.457031 0.832031 -0.9375 0.6875 -1.46875 C 0.539062 -2 0.53125 -2.53125 0.65625 -3.0625 C 0.707031 -3.289062 0.78125 -3.507812 0.875 -3.71875 C 1.34375 -4.675781 2.03125 -5.316406 2.9375 -5.640625 C 3.84375 -5.960938 4.832031 -6 5.90625 -5.75 C 7.125 -5.457031 8.269531 -4.984375 9.34375 -4.328125 L 10.234375 -5.625 C 10.578125 -6.207031 10.785156 -6.664062 10.859375 -7 C 10.921875 -7.34375 10.863281 -7.628906 10.6875 -7.859375 C 10.507812 -8.085938 10.195312 -8.253906 9.75 -8.359375 C 9.78125 -8.117188 9.765625 -7.867188 9.703125 -7.609375 C 9.578125 -7.078125 9.265625 -6.660156 8.765625 -6.359375 C 8.265625 -6.054688 7.632812 -5.992188 6.875 -6.171875 C 6.15625 -6.347656 5.628906 -6.640625 5.296875 -7.046875 C 4.972656 -7.453125 4.867188 -7.890625 4.984375 -8.359375 C 5.148438 -9.085938 5.695312 -9.597656 6.625 -9.890625 C 7.5625 -10.179688 8.867188 -10.128906 10.546875 -9.734375 Z M 7.75 -3.375 C 7.34375 -3.46875 6.972656 -3.390625 6.640625 -3.140625 C 6.316406 -2.890625 6.109375 -2.582031 6.015625 -2.21875 C 5.960938 -1.988281 5.972656 -1.785156 6.046875 -1.609375 C 6.128906 -1.441406 6.273438 -1.335938 6.484375 -1.296875 C 6.671875 -1.242188 6.894531 -1.265625 7.15625 -1.359375 C 7.414062 -1.460938 7.632812 -1.65625 7.8125 -1.9375 L 8.578125 -3.125 C 8.335938 -3.21875 8.0625 -3.300781 7.75 -3.375 Z M 7.75 -3.375 "/></g></g></g><g fill="#ffaa04" fill-opacity="0.502"><g transform="translate(232.237013, 127.536861)"><g><path d="M 14.90625 -6.421875 C 15.664062 -6.085938 16.171875 -5.585938 16.421875 -4.921875 C 16.679688 -4.253906 16.660156 -3.578125 16.359375 -2.890625 C 16.242188 -2.628906 16.109375 -2.398438 15.953125 -2.203125 C 15.566406 -1.703125 15.117188 -1.382812 14.609375 -1.25 C 14.097656 -1.113281 13.570312 -1.164062 13.03125 -1.40625 C 12.507812 -1.632812 12.171875 -1.929688 12.015625 -2.296875 C 11.859375 -2.671875 11.765625 -3.109375 11.734375 -3.609375 C 11.734375 -3.878906 11.707031 -4.085938 11.65625 -4.234375 C 11.601562 -4.390625 11.515625 -4.492188 11.390625 -4.546875 C 11.253906 -4.609375 11.109375 -4.609375 10.953125 -4.546875 C 10.804688 -4.484375 10.628906 -4.332031 10.421875 -4.09375 L 6.578125 0.34375 C 6.515625 0.40625 6.457031 0.503906 6.40625 0.640625 C 6.320312 0.816406 6.304688 0.984375 6.359375 1.140625 C 6.410156 1.304688 6.5 1.484375 6.625 1.671875 C 6.75 1.847656 6.820312 1.984375 6.84375 2.078125 C 6.863281 2.171875 6.847656 2.269531 6.796875 2.375 C 6.679688 2.539062 6.519531 2.625 6.3125 2.625 C 6.101562 2.632812 5.796875 2.550781 5.390625 2.375 L 0.125 0.0625 C -0.238281 -0.101562 -0.472656 -0.273438 -0.578125 -0.453125 C -0.679688 -0.640625 -0.671875 -0.820312 -0.546875 -1 C -0.421875 -1.144531 -0.210938 -1.226562 0.078125 -1.25 C 0.335938 -1.257812 0.566406 -1.3125 0.765625 -1.40625 C 0.972656 -1.5 1.195312 -1.691406 1.4375 -1.984375 L 5.875 -7.109375 C 5.9375 -7.171875 5.992188 -7.265625 6.046875 -7.390625 C 6.117188 -7.535156 6.140625 -7.660156 6.109375 -7.765625 C 6.085938 -7.878906 6.035156 -8.03125 5.953125 -8.21875 C 5.859375 -8.382812 5.800781 -8.519531 5.78125 -8.625 C 5.769531 -8.726562 5.8125 -8.84375 5.90625 -8.96875 C 6.132812 -9.25 6.691406 -9.332031 7.578125 -9.21875 C 8.472656 -9.113281 9.34375 -8.875 10.1875 -8.5 C 10.75 -8.25 11.15625 -7.914062 11.40625 -7.5 C 11.664062 -7.09375 11.75 -6.628906 11.65625 -6.109375 C 12.75 -6.796875 13.832031 -6.898438 14.90625 -6.421875 Z M 14.90625 -6.421875 "/></g></g></g><g fill="#ffaa04" fill-opacity="0.302"><g transform="translate(159.957273, 146.419838)"><g><path d="M 3.671875 -22.75 C 4.128906 -23.144531 4.484375 -23.195312 4.734375 -22.90625 C 4.796875 -22.820312 4.84375 -22.757812 4.875 -22.71875 C 4.9375 -22.570312 4.957031 -22.4375 4.9375 -22.3125 C 4.925781 -22.195312 4.890625 -22.039062 4.828125 -21.84375 C 4.753906 -21.601562 4.710938 -21.375 4.703125 -21.15625 C 4.691406 -20.9375 4.753906 -20.660156 4.890625 -20.328125 L 9.234375 -10.90625 C 9.617188 -10.050781 9.78125 -9.359375 9.71875 -8.828125 C 9.664062 -8.304688 9.382812 -7.832031 8.875 -7.40625 C 8.414062 -7.007812 7.921875 -6.816406 7.390625 -6.828125 C 6.859375 -6.847656 6.226562 -7.03125 5.5 -7.375 L -1.734375 -10.625 L 1.078125 -4.40625 C 1.160156 -4.21875 1.25 -4.066406 1.34375 -3.953125 C 1.476562 -3.804688 1.609375 -3.707031 1.734375 -3.65625 C 1.867188 -3.601562 2.03125 -3.566406 2.21875 -3.546875 C 2.476562 -3.492188 2.648438 -3.414062 2.734375 -3.3125 C 2.796875 -3.238281 2.832031 -3.179688 2.84375 -3.140625 C 2.925781 -2.941406 2.914062 -2.742188 2.8125 -2.546875 C 2.707031 -2.347656 2.492188 -2.113281 2.171875 -1.84375 L 0.3125 -0.265625 C -0.15625 0.128906 -0.515625 0.179688 -0.765625 -0.109375 C -0.828125 -0.191406 -0.875 -0.253906 -0.90625 -0.296875 C -0.96875 -0.441406 -0.988281 -0.578125 -0.96875 -0.703125 C -0.957031 -0.828125 -0.921875 -0.976562 -0.859375 -1.15625 C -0.773438 -1.394531 -0.726562 -1.625 -0.71875 -1.84375 C -0.71875 -2.070312 -0.789062 -2.359375 -0.9375 -2.703125 L -5.28125 -12.234375 L -6.046875 -12.5625 C -6.335938 -12.695312 -6.5625 -12.851562 -6.71875 -13.03125 C -7.007812 -13.375 -6.929688 -13.738281 -6.484375 -14.125 L -3.953125 -16.28125 C -3.585938 -16.59375 -3.238281 -16.75 -2.90625 -16.75 C -2.582031 -16.75 -2.128906 -16.625 -1.546875 -16.375 L 5.21875 -13.484375 L 2.875 -18.609375 C 2.78125 -18.816406 2.691406 -18.972656 2.609375 -19.078125 C 2.484375 -19.210938 2.351562 -19.304688 2.21875 -19.359375 C 2.082031 -19.410156 1.925781 -19.445312 1.75 -19.46875 C 1.5 -19.507812 1.332031 -19.582031 1.25 -19.6875 C 1.1875 -19.757812 1.144531 -19.816406 1.125 -19.859375 C 1.039062 -20.066406 1.050781 -20.265625 1.15625 -20.453125 C 1.257812 -20.648438 1.472656 -20.882812 1.796875 -21.15625 Z M 3.671875 -22.75 "/></g></g></g><g fill="#ffaa04" fill-opacity="0.302"><g transform="translate(171.223255, 136.57501)"><g><path d="M 2.59375 -18.25 C 4.59375 -19.300781 6.296875 -19.707031 7.703125 -19.46875 C 9.109375 -19.238281 10.195312 -18.382812 10.96875 -16.90625 C 11.351562 -16.175781 11.660156 -15.265625 11.890625 -14.171875 C 12.273438 -12.398438 12.328125 -10.867188 12.046875 -9.578125 C 11.765625 -8.285156 11.125 -7.113281 10.125 -6.0625 C 9.125 -5.019531 7.671875 -4.003906 5.765625 -3.015625 L 0.359375 -0.203125 C 0.078125 -0.0546875 -0.160156 0.0078125 -0.359375 0 C -0.566406 -0.0195312 -0.710938 -0.113281 -0.796875 -0.28125 C -0.835938 -0.351562 -0.863281 -0.445312 -0.875 -0.5625 C -0.90625 -0.707031 -0.894531 -0.820312 -0.84375 -0.90625 C -0.800781 -1 -0.726562 -1.128906 -0.625 -1.296875 C -0.476562 -1.523438 -0.378906 -1.742188 -0.328125 -1.953125 C -0.285156 -2.171875 -0.296875 -2.460938 -0.359375 -2.828125 L -2.40625 -12.671875 C -2.445312 -12.878906 -2.507812 -13.0625 -2.59375 -13.21875 C -2.664062 -13.363281 -2.75 -13.472656 -2.84375 -13.546875 C -2.945312 -13.617188 -3.078125 -13.703125 -3.234375 -13.796875 C -3.429688 -13.898438 -3.5625 -14.003906 -3.625 -14.109375 C -3.644531 -14.148438 -3.671875 -14.234375 -3.703125 -14.359375 C -3.734375 -14.554688 -3.679688 -14.738281 -3.546875 -14.90625 C -3.410156 -15.070312 -3.148438 -15.253906 -2.765625 -15.453125 Z M 6.578125 -11.9375 C 6.265625 -13.363281 5.921875 -14.4375 5.546875 -15.15625 C 5.171875 -15.851562 4.769531 -16.257812 4.34375 -16.375 C 3.914062 -16.488281 3.429688 -16.40625 2.890625 -16.125 L 2.4375 -15.890625 L 4.828125 -4.8125 L 5.296875 -5.0625 C 5.910156 -5.382812 6.359375 -5.78125 6.640625 -6.25 C 6.921875 -6.726562 7.054688 -7.410156 7.046875 -8.296875 C 7.046875 -9.191406 6.890625 -10.40625 6.578125 -11.9375 Z M 6.578125 -11.9375 "/></g></g></g><g fill="#ffaa04" fill-opacity="0.302"><g transform="translate(185.407726, 129.149198)"><g><path d="M 4.546875 -13.609375 C 6.203125 -14.066406 7.613281 -14.128906 8.78125 -13.796875 C 9.957031 -13.460938 10.71875 -12.664062 11.0625 -11.40625 C 11.195312 -10.925781 11.265625 -10.363281 11.265625 -9.71875 L 11.21875 -6.46875 C 11.207031 -6.40625 11.210938 -6.332031 11.234375 -6.25 C 11.296875 -6.019531 11.421875 -5.929688 11.609375 -5.984375 C 11.773438 -6.035156 11.898438 -6.15625 11.984375 -6.34375 C 12.078125 -6.53125 12.140625 -6.628906 12.171875 -6.640625 C 12.242188 -6.660156 12.320312 -6.625 12.40625 -6.53125 C 12.488281 -6.4375 12.546875 -6.328125 12.578125 -6.203125 C 12.710938 -5.816406 12.675781 -5.375 12.46875 -4.875 C 12.269531 -4.382812 11.945312 -3.9375 11.5 -3.53125 C 11.050781 -3.132812 10.515625 -2.851562 9.890625 -2.6875 C 9.140625 -2.476562 8.460938 -2.429688 7.859375 -2.546875 C 7.253906 -2.671875 6.769531 -2.976562 6.40625 -3.46875 C 6.125 -2.820312 5.722656 -2.273438 5.203125 -1.828125 C 4.691406 -1.390625 4.097656 -1.078125 3.421875 -0.890625 C 2.660156 -0.671875 1.972656 -0.632812 1.359375 -0.78125 C 0.753906 -0.9375 0.265625 -1.210938 -0.109375 -1.609375 C -0.492188 -2.015625 -0.757812 -2.476562 -0.90625 -3 C -0.96875 -3.226562 -1.007812 -3.457031 -1.03125 -3.6875 C -1.070312 -4.738281 -0.773438 -5.625 -0.140625 -6.34375 C 0.492188 -7.070312 1.34375 -7.585938 2.40625 -7.890625 C 3.601562 -8.222656 4.832031 -8.359375 6.09375 -8.296875 L 6.25 -9.875 C 6.257812 -10.53125 6.21875 -11.023438 6.125 -11.359375 C 6.007812 -11.703125 5.820312 -11.929688 5.5625 -12.046875 C 5.300781 -12.160156 4.945312 -12.160156 4.5 -12.046875 C 4.644531 -11.835938 4.753906 -11.601562 4.828125 -11.34375 C 4.972656 -10.8125 4.898438 -10.289062 4.609375 -9.78125 C 4.316406 -9.28125 3.796875 -8.925781 3.046875 -8.71875 C 2.328125 -8.519531 1.722656 -8.519531 1.234375 -8.71875 C 0.753906 -8.925781 0.453125 -9.257812 0.328125 -9.71875 C 0.128906 -10.445312 0.363281 -11.160156 1.03125 -11.859375 C 1.707031 -12.554688 2.878906 -13.140625 4.546875 -13.609375 Z M 5.15625 -6.703125 C 4.757812 -6.585938 4.476562 -6.335938 4.3125 -5.953125 C 4.144531 -5.578125 4.109375 -5.210938 4.203125 -4.859375 C 4.265625 -4.628906 4.367188 -4.457031 4.515625 -4.34375 C 4.671875 -4.226562 4.847656 -4.203125 5.046875 -4.265625 C 5.234375 -4.316406 5.421875 -4.445312 5.609375 -4.65625 C 5.796875 -4.863281 5.894531 -5.132812 5.90625 -5.46875 L 6 -6.875 C 5.738281 -6.84375 5.457031 -6.785156 5.15625 -6.703125 Z M 5.15625 -6.703125 "/></g></g></g><g fill="#ffaa04" fill-opacity="0.302"><g transform="translate(197.9435, 124.886375)"><g><path d="M 21.3125 -3.515625 C 21.289062 -3.453125 21.285156 -3.359375 21.296875 -3.234375 C 21.296875 -3.128906 21.320312 -3.050781 21.375 -3 C 21.425781 -2.945312 21.492188 -2.921875 21.578125 -2.921875 C 21.765625 -2.921875 21.914062 -3 22.03125 -3.15625 C 22.15625 -3.320312 22.238281 -3.40625 22.28125 -3.40625 C 22.363281 -3.40625 22.425781 -3.351562 22.46875 -3.25 C 22.519531 -3.15625 22.546875 -3.039062 22.546875 -2.90625 C 22.578125 -2.476562 22.441406 -2.050781 22.140625 -1.625 C 21.847656 -1.207031 21.414062 -0.863281 20.84375 -0.59375 C 20.269531 -0.320312 19.582031 -0.175781 18.78125 -0.15625 C 17.789062 -0.132812 17 -0.347656 16.40625 -0.796875 C 15.8125 -1.242188 15.5 -1.847656 15.46875 -2.609375 C 15.457031 -3.160156 15.582031 -3.789062 15.84375 -4.5 L 17.015625 -7.75 C 17.078125 -7.945312 17.109375 -8.101562 17.109375 -8.21875 C 17.109375 -8.414062 17.039062 -8.566406 16.90625 -8.671875 C 16.78125 -8.785156 16.625 -8.84375 16.4375 -8.84375 C 16.1875 -8.832031 15.925781 -8.710938 15.65625 -8.484375 C 15.394531 -8.253906 15.164062 -7.898438 14.96875 -7.421875 L 13.8125 -3.375 C 13.78125 -3.3125 13.769531 -3.21875 13.78125 -3.09375 C 13.78125 -2.988281 13.804688 -2.90625 13.859375 -2.84375 C 13.910156 -2.789062 13.984375 -2.765625 14.078125 -2.765625 C 14.253906 -2.773438 14.398438 -2.859375 14.515625 -3.015625 C 14.640625 -3.171875 14.726562 -3.25 14.78125 -3.25 C 14.851562 -3.25 14.914062 -3.203125 14.96875 -3.109375 C 15.019531 -3.015625 15.046875 -2.898438 15.046875 -2.765625 C 15.066406 -2.335938 14.925781 -1.910156 14.625 -1.484375 C 14.332031 -1.066406 13.898438 -0.71875 13.328125 -0.4375 C 12.765625 -0.164062 12.078125 -0.0234375 11.265625 -0.015625 C 10.273438 0.00390625 9.484375 -0.207031 8.890625 -0.65625 C 8.304688 -1.101562 7.992188 -1.707031 7.953125 -2.46875 C 7.941406 -3.019531 8.066406 -3.644531 8.328125 -4.34375 L 9.5 -7.609375 C 9.570312 -7.804688 9.609375 -7.960938 9.609375 -8.078125 C 9.609375 -8.273438 9.539062 -8.425781 9.40625 -8.53125 C 9.269531 -8.644531 9.113281 -8.695312 8.9375 -8.6875 C 8.675781 -8.6875 8.414062 -8.578125 8.15625 -8.359375 C 7.894531 -8.140625 7.675781 -7.785156 7.5 -7.296875 L 6.109375 -2.46875 C 6.054688 -2.300781 6.035156 -2.140625 6.046875 -1.984375 C 6.046875 -1.804688 6.082031 -1.660156 6.15625 -1.546875 C 6.226562 -1.441406 6.335938 -1.328125 6.484375 -1.203125 C 6.585938 -1.109375 6.660156 -1.023438 6.703125 -0.953125 C 6.753906 -0.878906 6.765625 -0.789062 6.734375 -0.6875 C 6.679688 -0.488281 6.539062 -0.34375 6.3125 -0.25 C 6.09375 -0.15625 5.742188 -0.109375 5.265625 -0.109375 L 0.140625 0 C -0.253906 0.0078125 -0.535156 -0.046875 -0.703125 -0.171875 C -0.878906 -0.296875 -0.953125 -0.46875 -0.921875 -0.6875 C -0.859375 -0.863281 -0.695312 -1.019531 -0.4375 -1.15625 C -0.226562 -1.28125 -0.0507812 -1.425781 0.09375 -1.59375 C 0.25 -1.757812 0.375 -2.03125 0.46875 -2.40625 L 2.34375 -8.921875 C 2.375 -9.003906 2.390625 -9.113281 2.390625 -9.25 C 2.378906 -9.40625 2.335938 -9.53125 2.265625 -9.625 C 2.203125 -9.71875 2.097656 -9.832031 1.953125 -9.96875 C 1.796875 -10.070312 1.6875 -10.164062 1.625 -10.25 C 1.5625 -10.34375 1.550781 -10.46875 1.59375 -10.625 C 1.675781 -10.96875 2.140625 -11.28125 2.984375 -11.5625 C 3.835938 -11.84375 4.726562 -11.988281 5.65625 -12 C 6.394531 -12.019531 6.984375 -11.832031 7.421875 -11.4375 C 7.859375 -11.039062 8.070312 -10.488281 8.0625 -9.78125 C 8.664062 -10.644531 9.300781 -11.25 9.96875 -11.59375 C 10.644531 -11.9375 11.378906 -12.113281 12.171875 -12.125 C 13.046875 -12.144531 13.757812 -11.910156 14.3125 -11.421875 C 14.875 -10.929688 15.195312 -10.28125 15.28125 -9.46875 C 15.894531 -10.5 16.5625 -11.21875 17.28125 -11.625 C 18.007812 -12.039062 18.8125 -12.257812 19.6875 -12.28125 C 20.601562 -12.289062 21.347656 -12.023438 21.921875 -11.484375 C 22.492188 -10.941406 22.789062 -10.226562 22.8125 -9.34375 C 22.820312 -8.875 22.753906 -8.414062 22.609375 -7.96875 Z M 21.3125 -3.515625 "/></g></g></g><g fill="#ffaa04" fill-opacity="0.302"><g transform="translate(219.884464, 124.816784)"><g><path d="M 10.546875 -9.734375 C 12.222656 -9.335938 13.488281 -8.707031 14.34375 -7.84375 C 15.207031 -6.988281 15.488281 -5.925781 15.1875 -4.65625 C 15.070312 -4.164062 14.863281 -3.640625 14.5625 -3.078125 L 12.9375 -0.25 C 12.894531 -0.207031 12.863281 -0.144531 12.84375 -0.0625 C 12.789062 0.175781 12.863281 0.320312 13.0625 0.375 C 13.226562 0.414062 13.394531 0.367188 13.5625 0.234375 C 13.726562 0.109375 13.832031 0.0507812 13.875 0.0625 C 13.945312 0.0820312 13.992188 0.148438 14.015625 0.265625 C 14.035156 0.378906 14.03125 0.5 14 0.625 C 13.925781 1.03125 13.6875 1.398438 13.28125 1.734375 C 12.875 2.066406 12.375 2.300781 11.78125 2.4375 C 11.195312 2.570312 10.585938 2.566406 9.953125 2.421875 C 9.191406 2.242188 8.578125 1.953125 8.109375 1.546875 C 7.640625 1.140625 7.367188 0.644531 7.296875 0.0625 C 6.734375 0.476562 6.117188 0.757812 5.453125 0.90625 C 4.785156 1.050781 4.109375 1.039062 3.421875 0.875 C 2.648438 0.695312 2.035156 0.394531 1.578125 -0.03125 C 1.128906 -0.457031 0.832031 -0.9375 0.6875 -1.46875 C 0.539062 -2 0.53125 -2.53125 0.65625 -3.0625 C 0.707031 -3.289062 0.78125 -3.507812 0.875 -3.71875 C 1.34375 -4.675781 2.03125 -5.316406 2.9375 -5.640625 C 3.84375 -5.960938 4.832031 -6 5.90625 -5.75 C 7.125 -5.457031 8.269531 -4.984375 9.34375 -4.328125 L 10.234375 -5.625 C 10.578125 -6.207031 10.785156 -6.664062 10.859375 -7 C 10.921875 -7.34375 10.863281 -7.628906 10.6875 -7.859375 C 10.507812 -8.085938 10.195312 -8.253906 9.75 -8.359375 C 9.78125 -8.117188 9.765625 -7.867188 9.703125 -7.609375 C 9.578125 -7.078125 9.265625 -6.660156 8.765625 -6.359375 C 8.265625 -6.054688 7.632812 -5.992188 6.875 -6.171875 C 6.15625 -6.347656 5.628906 -6.640625 5.296875 -7.046875 C 4.972656 -7.453125 4.867188 -7.890625 4.984375 -8.359375 C 5.148438 -9.085938 5.695312 -9.597656 6.625 -9.890625 C 7.5625 -10.179688 8.867188 -10.128906 10.546875 -9.734375 Z M 7.75 -3.375 C 7.34375 -3.46875 6.972656 -3.390625 6.640625 -3.140625 C 6.316406 -2.890625 6.109375 -2.582031 6.015625 -2.21875 C 5.960938 -1.988281 5.972656 -1.785156 6.046875 -1.609375 C 6.128906 -1.441406 6.273438 -1.335938 6.484375 -1.296875 C 6.671875 -1.242188 6.894531 -1.265625 7.15625 -1.359375 C 7.414062 -1.460938 7.632812 -1.65625 7.8125 -1.9375 L 8.578125 -3.125 C 8.335938 -3.21875 8.0625 -3.300781 7.75 -3.375 Z M 7.75 -3.375 "/></g></g></g><g fill="#ffaa04" fill-opacity="0.302"><g transform="translate(233.058115, 127.904011)"><g><path d="M 14.90625 -6.421875 C 15.664062 -6.085938 16.171875 -5.585938 16.421875 -4.921875 C 16.679688 -4.253906 16.660156 -3.578125 16.359375 -2.890625 C 16.242188 -2.628906 16.109375 -2.398438 15.953125 -2.203125 C 15.566406 -1.703125 15.117188 -1.382812 14.609375 -1.25 C 14.097656 -1.113281 13.570312 -1.164062 13.03125 -1.40625 C 12.507812 -1.632812 12.171875 -1.929688 12.015625 -2.296875 C 11.859375 -2.671875 11.765625 -3.109375 11.734375 -3.609375 C 11.734375 -3.878906 11.707031 -4.085938 11.65625 -4.234375 C 11.601562 -4.390625 11.515625 -4.492188 11.390625 -4.546875 C 11.253906 -4.609375 11.109375 -4.609375 10.953125 -4.546875 C 10.804688 -4.484375 10.628906 -4.332031 10.421875 -4.09375 L 6.578125 0.34375 C 6.515625 0.40625 6.457031 0.503906 6.40625 0.640625 C 6.320312 0.816406 6.304688 0.984375 6.359375 1.140625 C 6.410156 1.304688 6.5 1.484375 6.625 1.671875 C 6.75 1.847656 6.820312 1.984375 6.84375 2.078125 C 6.863281 2.171875 6.847656 2.269531 6.796875 2.375 C 6.679688 2.539062 6.519531 2.625 6.3125 2.625 C 6.101562 2.632812 5.796875 2.550781 5.390625 2.375 L 0.125 0.0625 C -0.238281 -0.101562 -0.472656 -0.273438 -0.578125 -0.453125 C -0.679688 -0.640625 -0.671875 -0.820312 -0.546875 -1 C -0.421875 -1.144531 -0.210938 -1.226562 0.078125 -1.25 C 0.335938 -1.257812 0.566406 -1.3125 0.765625 -1.40625 C 0.972656 -1.5 1.195312 -1.691406 1.4375 -1.984375 L 5.875 -7.109375 C 5.9375 -7.171875 5.992188 -7.265625 6.046875 -7.390625 C 6.117188 -7.535156 6.140625 -7.660156 6.109375 -7.765625 C 6.085938 -7.878906 6.035156 -8.03125 5.953125 -8.21875 C 5.859375 -8.382812 5.800781 -8.519531 5.78125 -8.625 C 5.769531 -8.726562 5.8125 -8.84375 5.90625 -8.96875 C 6.132812 -9.25 6.691406 -9.332031 7.578125 -9.21875 C 8.472656 -9.113281 9.34375 -8.875 10.1875 -8.5 C 10.75 -8.25 11.15625 -7.914062 11.40625 -7.5 C 11.664062 -7.09375 11.75 -6.628906 11.65625 -6.109375 C 12.75 -6.796875 13.832031 -6.898438 14.90625 -6.421875 Z M 14.90625 -6.421875 "/></g></g></g><g fill="#1c5d72" fill-opacity="1"><g transform="translate(158.315066, 145.685423)"><g><path d="M 3.671875 -22.75 C 4.128906 -23.144531 4.484375 -23.195312 4.734375 -22.90625 C 4.796875 -22.820312 4.84375 -22.757812 4.875 -22.71875 C 4.9375 -22.570312 4.957031 -22.4375 4.9375 -22.3125 C 4.925781 -22.195312 4.890625 -22.039062 4.828125 -21.84375 C 4.753906 -21.601562 4.710938 -21.375 4.703125 -21.15625 C 4.691406 -20.9375 4.753906 -20.660156 4.890625 -20.328125 L 9.234375 -10.90625 C 9.617188 -10.050781 9.78125 -9.359375 9.71875 -8.828125 C 9.664062 -8.304688 9.382812 -7.832031 8.875 -7.40625 C 8.414062 -7.007812 7.921875 -6.816406 7.390625 -6.828125 C 6.859375 -6.847656 6.226562 -7.03125 5.5 -7.375 L -1.734375 -10.625 L 1.078125 -4.40625 C 1.160156 -4.21875 1.25 -4.066406 1.34375 -3.953125 C 1.476562 -3.804688 1.609375 -3.707031 1.734375 -3.65625 C 1.867188 -3.601562 2.03125 -3.566406 2.21875 -3.546875 C 2.476562 -3.492188 2.648438 -3.414062 2.734375 -3.3125 C 2.796875 -3.238281 2.832031 -3.179688 2.84375 -3.140625 C 2.925781 -2.941406 2.914062 -2.742188 2.8125 -2.546875 C 2.707031 -2.347656 2.492188 -2.113281 2.171875 -1.84375 L 0.3125 -0.265625 C -0.15625 0.128906 -0.515625 0.179688 -0.765625 -0.109375 C -0.828125 -0.191406 -0.875 -0.253906 -0.90625 -0.296875 C -0.96875 -0.441406 -0.988281 -0.578125 -0.96875 -0.703125 C -0.957031 -0.828125 -0.921875 -0.976562 -0.859375 -1.15625 C -0.773438 -1.394531 -0.726562 -1.625 -0.71875 -1.84375 C -0.71875 -2.070312 -0.789062 -2.359375 -0.9375 -2.703125 L -5.28125 -12.234375 L -6.046875 -12.5625 C -6.335938 -12.695312 -6.5625 -12.851562 -6.71875 -13.03125 C -7.007812 -13.375 -6.929688 -13.738281 -6.484375 -14.125 L -3.953125 -16.28125 C -3.585938 -16.59375 -3.238281 -16.75 -2.90625 -16.75 C -2.582031 -16.75 -2.128906 -16.625 -1.546875 -16.375 L 5.21875 -13.484375 L 2.875 -18.609375 C 2.78125 -18.816406 2.691406 -18.972656 2.609375 -19.078125 C 2.484375 -19.210938 2.351562 -19.304688 2.21875 -19.359375 C 2.082031 -19.410156 1.925781 -19.445312 1.75 -19.46875 C 1.5 -19.507812 1.332031 -19.582031 1.25 -19.6875 C 1.1875 -19.757812 1.144531 -19.816406 1.125 -19.859375 C 1.039062 -20.066406 1.050781 -20.265625 1.15625 -20.453125 C 1.257812 -20.648438 1.472656 -20.882812 1.796875 -21.15625 Z M 3.671875 -22.75 "/></g></g></g><g fill="#1c5d72" fill-opacity="1"><g transform="translate(169.581062, 135.840598)"><g><path d="M 2.59375 -18.25 C 4.59375 -19.300781 6.296875 -19.707031 7.703125 -19.46875 C 9.109375 -19.238281 10.195312 -18.382812 10.96875 -16.90625 C 11.351562 -16.175781 11.660156 -15.265625 11.890625 -14.171875 C 12.273438 -12.398438 12.328125 -10.867188 12.046875 -9.578125 C 11.765625 -8.285156 11.125 -7.113281 10.125 -6.0625 C 9.125 -5.019531 7.671875 -4.003906 5.765625 -3.015625 L 0.359375 -0.203125 C 0.078125 -0.0546875 -0.160156 0.0078125 -0.359375 0 C -0.566406 -0.0195312 -0.710938 -0.113281 -0.796875 -0.28125 C -0.835938 -0.351562 -0.863281 -0.445312 -0.875 -0.5625 C -0.90625 -0.707031 -0.894531 -0.820312 -0.84375 -0.90625 C -0.800781 -1 -0.726562 -1.128906 -0.625 -1.296875 C -0.476562 -1.523438 -0.378906 -1.742188 -0.328125 -1.953125 C -0.285156 -2.171875 -0.296875 -2.460938 -0.359375 -2.828125 L -2.40625 -12.671875 C -2.445312 -12.878906 -2.507812 -13.0625 -2.59375 -13.21875 C -2.664062 -13.363281 -2.75 -13.472656 -2.84375 -13.546875 C -2.945312 -13.617188 -3.078125 -13.703125 -3.234375 -13.796875 C -3.429688 -13.898438 -3.5625 -14.003906 -3.625 -14.109375 C -3.644531 -14.148438 -3.671875 -14.234375 -3.703125 -14.359375 C -3.734375 -14.554688 -3.679688 -14.738281 -3.546875 -14.90625 C -3.410156 -15.070312 -3.148438 -15.253906 -2.765625 -15.453125 Z M 6.578125 -11.9375 C 6.265625 -13.363281 5.921875 -14.4375 5.546875 -15.15625 C 5.171875 -15.851562 4.769531 -16.257812 4.34375 -16.375 C 3.914062 -16.488281 3.429688 -16.40625 2.890625 -16.125 L 2.4375 -15.890625 L 4.828125 -4.8125 L 5.296875 -5.0625 C 5.910156 -5.382812 6.359375 -5.78125 6.640625 -6.25 C 6.921875 -6.726562 7.054688 -7.410156 7.046875 -8.296875 C 7.046875 -9.191406 6.890625 -10.40625 6.578125 -11.9375 Z M 6.578125 -11.9375 "/></g></g></g><g fill="#1c5d72" fill-opacity="1"><g transform="translate(183.765533, 128.414784)"><g><path d="M 4.546875 -13.609375 C 6.203125 -14.066406 7.613281 -14.128906 8.78125 -13.796875 C 9.957031 -13.460938 10.71875 -12.664062 11.0625 -11.40625 C 11.195312 -10.925781 11.265625 -10.363281 11.265625 -9.71875 L 11.21875 -6.46875 C 11.207031 -6.40625 11.210938 -6.332031 11.234375 -6.25 C 11.296875 -6.019531 11.421875 -5.929688 11.609375 -5.984375 C 11.773438 -6.035156 11.898438 -6.15625 11.984375 -6.34375 C 12.078125 -6.53125 12.140625 -6.628906 12.171875 -6.640625 C 12.242188 -6.660156 12.320312 -6.625 12.40625 -6.53125 C 12.488281 -6.4375 12.546875 -6.328125 12.578125 -6.203125 C 12.710938 -5.816406 12.675781 -5.375 12.46875 -4.875 C 12.269531 -4.382812 11.945312 -3.9375 11.5 -3.53125 C 11.050781 -3.132812 10.515625 -2.851562 9.890625 -2.6875 C 9.140625 -2.476562 8.460938 -2.429688 7.859375 -2.546875 C 7.253906 -2.671875 6.769531 -2.976562 6.40625 -3.46875 C 6.125 -2.820312 5.722656 -2.273438 5.203125 -1.828125 C 4.691406 -1.390625 4.097656 -1.078125 3.421875 -0.890625 C 2.660156 -0.671875 1.972656 -0.632812 1.359375 -0.78125 C 0.753906 -0.9375 0.265625 -1.210938 -0.109375 -1.609375 C -0.492188 -2.015625 -0.757812 -2.476562 -0.90625 -3 C -0.96875 -3.226562 -1.007812 -3.457031 -1.03125 -3.6875 C -1.070312 -4.738281 -0.773438 -5.625 -0.140625 -6.34375 C 0.492188 -7.070312 1.34375 -7.585938 2.40625 -7.890625 C 3.601562 -8.222656 4.832031 -8.359375 6.09375 -8.296875 L 6.25 -9.875 C 6.257812 -10.53125 6.21875 -11.023438 6.125 -11.359375 C 6.007812 -11.703125 5.820312 -11.929688 5.5625 -12.046875 C 5.300781 -12.160156 4.945312 -12.160156 4.5 -12.046875 C 4.644531 -11.835938 4.753906 -11.601562 4.828125 -11.34375 C 4.972656 -10.8125 4.898438 -10.289062 4.609375 -9.78125 C 4.316406 -9.28125 3.796875 -8.925781 3.046875 -8.71875 C 2.328125 -8.519531 1.722656 -8.519531 1.234375 -8.71875 C 0.753906 -8.925781 0.453125 -9.257812 0.328125 -9.71875 C 0.128906 -10.445312 0.363281 -11.160156 1.03125 -11.859375 C 1.707031 -12.554688 2.878906 -13.140625 4.546875 -13.609375 Z M 5.15625 -6.703125 C 4.757812 -6.585938 4.476562 -6.335938 4.3125 -5.953125 C 4.144531 -5.578125 4.109375 -5.210938 4.203125 -4.859375 C 4.265625 -4.628906 4.367188 -4.457031 4.515625 -4.34375 C 4.671875 -4.226562 4.847656 -4.203125 5.046875 -4.265625 C 5.234375 -4.316406 5.421875 -4.445312 5.609375 -4.65625 C 5.796875 -4.863281 5.894531 -5.132812 5.90625 -5.46875 L 6 -6.875 C 5.738281 -6.84375 5.457031 -6.785156 5.15625 -6.703125 Z M 5.15625 -6.703125 "/></g></g></g><g fill="#1c5d72" fill-opacity="1"><g transform="translate(196.301293, 124.151961)"><g><path d="M 21.3125 -3.515625 C 21.289062 -3.453125 21.285156 -3.359375 21.296875 -3.234375 C 21.296875 -3.128906 21.320312 -3.050781 21.375 -3 C 21.425781 -2.945312 21.492188 -2.921875 21.578125 -2.921875 C 21.765625 -2.921875 21.914062 -3 22.03125 -3.15625 C 22.15625 -3.320312 22.238281 -3.40625 22.28125 -3.40625 C 22.363281 -3.40625 22.425781 -3.351562 22.46875 -3.25 C 22.519531 -3.15625 22.546875 -3.039062 22.546875 -2.90625 C 22.578125 -2.476562 22.441406 -2.050781 22.140625 -1.625 C 21.847656 -1.207031 21.414062 -0.863281 20.84375 -0.59375 C 20.269531 -0.320312 19.582031 -0.175781 18.78125 -0.15625 C 17.789062 -0.132812 17 -0.347656 16.40625 -0.796875 C 15.8125 -1.242188 15.5 -1.847656 15.46875 -2.609375 C 15.457031 -3.160156 15.582031 -3.789062 15.84375 -4.5 L 17.015625 -7.75 C 17.078125 -7.945312 17.109375 -8.101562 17.109375 -8.21875 C 17.109375 -8.414062 17.039062 -8.566406 16.90625 -8.671875 C 16.78125 -8.785156 16.625 -8.84375 16.4375 -8.84375 C 16.1875 -8.832031 15.925781 -8.710938 15.65625 -8.484375 C 15.394531 -8.253906 15.164062 -7.898438 14.96875 -7.421875 L 13.8125 -3.375 C 13.78125 -3.3125 13.769531 -3.21875 13.78125 -3.09375 C 13.78125 -2.988281 13.804688 -2.90625 13.859375 -2.84375 C 13.910156 -2.789062 13.984375 -2.765625 14.078125 -2.765625 C 14.253906 -2.773438 14.398438 -2.859375 14.515625 -3.015625 C 14.640625 -3.171875 14.726562 -3.25 14.78125 -3.25 C 14.851562 -3.25 14.914062 -3.203125 14.96875 -3.109375 C 15.019531 -3.015625 15.046875 -2.898438 15.046875 -2.765625 C 15.066406 -2.335938 14.925781 -1.910156 14.625 -1.484375 C 14.332031 -1.066406 13.898438 -0.71875 13.328125 -0.4375 C 12.765625 -0.164062 12.078125 -0.0234375 11.265625 -0.015625 C 10.273438 0.00390625 9.484375 -0.207031 8.890625 -0.65625 C 8.304688 -1.101562 7.992188 -1.707031 7.953125 -2.46875 C 7.941406 -3.019531 8.066406 -3.644531 8.328125 -4.34375 L 9.5 -7.609375 C 9.570312 -7.804688 9.609375 -7.960938 9.609375 -8.078125 C 9.609375 -8.273438 9.539062 -8.425781 9.40625 -8.53125 C 9.269531 -8.644531 9.113281 -8.695312 8.9375 -8.6875 C 8.675781 -8.6875 8.414062 -8.578125 8.15625 -8.359375 C 7.894531 -8.140625 7.675781 -7.785156 7.5 -7.296875 L 6.109375 -2.46875 C 6.054688 -2.300781 6.035156 -2.140625 6.046875 -1.984375 C 6.046875 -1.804688 6.082031 -1.660156 6.15625 -1.546875 C 6.226562 -1.441406 6.335938 -1.328125 6.484375 -1.203125 C 6.585938 -1.109375 6.660156 -1.023438 6.703125 -0.953125 C 6.753906 -0.878906 6.765625 -0.789062 6.734375 -0.6875 C 6.679688 -0.488281 6.539062 -0.34375 6.3125 -0.25 C 6.09375 -0.15625 5.742188 -0.109375 5.265625 -0.109375 L 0.140625 0 C -0.253906 0.0078125 -0.535156 -0.046875 -0.703125 -0.171875 C -0.878906 -0.296875 -0.953125 -0.46875 -0.921875 -0.6875 C -0.859375 -0.863281 -0.695312 -1.019531 -0.4375 -1.15625 C -0.226562 -1.28125 -0.0507812 -1.425781 0.09375 -1.59375 C 0.25 -1.757812 0.375 -2.03125 0.46875 -2.40625 L 2.34375 -8.921875 C 2.375 -9.003906 2.390625 -9.113281 2.390625 -9.25 C 2.378906 -9.40625 2.335938 -9.53125 2.265625 -9.625 C 2.203125 -9.71875 2.097656 -9.832031 1.953125 -9.96875 C 1.796875 -10.070312 1.6875 -10.164062 1.625 -10.25 C 1.5625 -10.34375 1.550781 -10.46875 1.59375 -10.625 C 1.675781 -10.96875 2.140625 -11.28125 2.984375 -11.5625 C 3.835938 -11.84375 4.726562 -11.988281 5.65625 -12 C 6.394531 -12.019531 6.984375 -11.832031 7.421875 -11.4375 C 7.859375 -11.039062 8.070312 -10.488281 8.0625 -9.78125 C 8.664062 -10.644531 9.300781 -11.25 9.96875 -11.59375 C 10.644531 -11.9375 11.378906 -12.113281 12.171875 -12.125 C 13.046875 -12.144531 13.757812 -11.910156 14.3125 -11.421875 C 14.875 -10.929688 15.195312 -10.28125 15.28125 -9.46875 C 15.894531 -10.5 16.5625 -11.21875 17.28125 -11.625 C 18.007812 -12.039062 18.8125 -12.257812 19.6875 -12.28125 C 20.601562 -12.289062 21.347656 -12.023438 21.921875 -11.484375 C 22.492188 -10.941406 22.789062 -10.226562 22.8125 -9.34375 C 22.820312 -8.875 22.753906 -8.414062 22.609375 -7.96875 Z M 21.3125 -3.515625 "/></g></g></g><g fill="#1c5d72" fill-opacity="1"><g transform="translate(218.242271, 124.08237)"><g><path d="M 10.546875 -9.734375 C 12.222656 -9.335938 13.488281 -8.707031 14.34375 -7.84375 C 15.207031 -6.988281 15.488281 -5.925781 15.1875 -4.65625 C 15.070312 -4.164062 14.863281 -3.640625 14.5625 -3.078125 L 12.9375 -0.25 C 12.894531 -0.207031 12.863281 -0.144531 12.84375 -0.0625 C 12.789062 0.175781 12.863281 0.320312 13.0625 0.375 C 13.226562 0.414062 13.394531 0.367188 13.5625 0.234375 C 13.726562 0.109375 13.832031 0.0507812 13.875 0.0625 C 13.945312 0.0820312 13.992188 0.148438 14.015625 0.265625 C 14.035156 0.378906 14.03125 0.5 14 0.625 C 13.925781 1.03125 13.6875 1.398438 13.28125 1.734375 C 12.875 2.066406 12.375 2.300781 11.78125 2.4375 C 11.195312 2.570312 10.585938 2.566406 9.953125 2.421875 C 9.191406 2.242188 8.578125 1.953125 8.109375 1.546875 C 7.640625 1.140625 7.367188 0.644531 7.296875 0.0625 C 6.734375 0.476562 6.117188 0.757812 5.453125 0.90625 C 4.785156 1.050781 4.109375 1.039062 3.421875 0.875 C 2.648438 0.695312 2.035156 0.394531 1.578125 -0.03125 C 1.128906 -0.457031 0.832031 -0.9375 0.6875 -1.46875 C 0.539062 -2 0.53125 -2.53125 0.65625 -3.0625 C 0.707031 -3.289062 0.78125 -3.507812 0.875 -3.71875 C 1.34375 -4.675781 2.03125 -5.316406 2.9375 -5.640625 C 3.84375 -5.960938 4.832031 -6 5.90625 -5.75 C 7.125 -5.457031 8.269531 -4.984375 9.34375 -4.328125 L 10.234375 -5.625 C 10.578125 -6.207031 10.785156 -6.664062 10.859375 -7 C 10.921875 -7.34375 10.863281 -7.628906 10.6875 -7.859375 C 10.507812 -8.085938 10.195312 -8.253906 9.75 -8.359375 C 9.78125 -8.117188 9.765625 -7.867188 9.703125 -7.609375 C 9.578125 -7.078125 9.265625 -6.660156 8.765625 -6.359375 C 8.265625 -6.054688 7.632812 -5.992188 6.875 -6.171875 C 6.15625 -6.347656 5.628906 -6.640625 5.296875 -7.046875 C 4.972656 -7.453125 4.867188 -7.890625 4.984375 -8.359375 C 5.148438 -9.085938 5.695312 -9.597656 6.625 -9.890625 C 7.5625 -10.179688 8.867188 -10.128906 10.546875 -9.734375 Z M 7.75 -3.375 C 7.34375 -3.46875 6.972656 -3.390625 6.640625 -3.140625 C 6.316406 -2.890625 6.109375 -2.582031 6.015625 -2.21875 C 5.960938 -1.988281 5.972656 -1.785156 6.046875 -1.609375 C 6.128906 -1.441406 6.273438 -1.335938 6.484375 -1.296875 C 6.671875 -1.242188 6.894531 -1.265625 7.15625 -1.359375 C 7.414062 -1.460938 7.632812 -1.65625 7.8125 -1.9375 L 8.578125 -3.125 C 8.335938 -3.21875 8.0625 -3.300781 7.75 -3.375 Z M 7.75 -3.375 "/></g></g></g><g fill="#1c5d72" fill-opacity="1"><g transform="translate(231.415922, 127.169714)"><g><path d="M 14.90625 -6.421875 C 15.664062 -6.085938 16.171875 -5.585938 16.421875 -4.921875 C 16.679688 -4.253906 16.660156 -3.578125 16.359375 -2.890625 C 16.242188 -2.628906 16.109375 -2.398438 15.953125 -2.203125 C 15.566406 -1.703125 15.117188 -1.382812 14.609375 -1.25 C 14.097656 -1.113281 13.570312 -1.164062 13.03125 -1.40625 C 12.507812 -1.632812 12.171875 -1.929688 12.015625 -2.296875 C 11.859375 -2.671875 11.765625 -3.109375 11.734375 -3.609375 C 11.734375 -3.878906 11.707031 -4.085938 11.65625 -4.234375 C 11.601562 -4.390625 11.515625 -4.492188 11.390625 -4.546875 C 11.253906 -4.609375 11.109375 -4.609375 10.953125 -4.546875 C 10.804688 -4.484375 10.628906 -4.332031 10.421875 -4.09375 L 6.578125 0.34375 C 6.515625 0.40625 6.457031 0.503906 6.40625 0.640625 C 6.320312 0.816406 6.304688 0.984375 6.359375 1.140625 C 6.410156 1.304688 6.5 1.484375 6.625 1.671875 C 6.75 1.847656 6.820312 1.984375 6.84375 2.078125 C 6.863281 2.171875 6.847656 2.269531 6.796875 2.375 C 6.679688 2.539062 6.519531 2.625 6.3125 2.625 C 6.101562 2.632812 5.796875 2.550781 5.390625 2.375 L 0.125 0.0625 C -0.238281 -0.101562 -0.472656 -0.273438 -0.578125 -0.453125 C -0.679688 -0.640625 -0.671875 -0.820312 -0.546875 -1 C -0.421875 -1.144531 -0.210938 -1.226562 0.078125 -1.25 C 0.335938 -1.257812 0.566406 -1.3125 0.765625 -1.40625 C 0.972656 -1.5 1.195312 -1.691406 1.4375 -1.984375 L 5.875 -7.109375 C 5.9375 -7.171875 5.992188 -7.265625 6.046875 -7.390625 C 6.117188 -7.535156 6.140625 -7.660156 6.109375 -7.765625 C 6.085938 -7.878906 6.035156 -8.03125 5.953125 -8.21875 C 5.859375 -8.382812 5.800781 -8.519531 5.78125 -8.625 C 5.769531 -8.726562 5.8125 -8.84375 5.90625 -8.96875 C 6.132812 -9.25 6.691406 -9.332031 7.578125 -9.21875 C 8.472656 -9.113281 9.34375 -8.875 10.1875 -8.5 C 10.75 -8.25 11.15625 -7.914062 11.40625 -7.5 C 11.664062 -7.09375 11.75 -6.628906 11.65625 -6.109375 C 12.75 -6.796875 13.832031 -6.898438 14.90625 -6.421875 Z M 14.90625 -6.421875 "/></g></g></g><g fill="#ff1616" fill-opacity="1"><g transform="translate(123.408365, 209.262555)"><g><path d="M 5.355469 -2.15625 L 1.453125 -0.296875 C 1.34375 -0.246094 1.269531 -0.15625 1.230469 -0.046875 L 0.789062 1.324219 C 0.757812 1.457031 0.746094 1.566406 0.8125 1.707031 L 2.277344 4.785156 C 2.34375 4.925781 2.445312 4.996094 2.5625 5.046875 L 3.902344 5.566406 C 4.015625 5.617188 4.128906 5.601562 4.238281 5.550781 L 8.140625 3.691406 C 8.226562 3.652344 8.265625 3.539062 8.226562 3.453125 L 7.882812 2.734375 C 7.84375 2.648438 7.730469 2.609375 7.648438 2.652344 L 4.09375 4.34375 C 4.019531 4.378906 3.960938 4.394531 3.875 4.355469 L 3.308594 4.125 C 3.269531 4.101562 3.246094 4.074219 3.222656 4.03125 L 1.992188 1.445312 C 1.964844 1.394531 1.960938 1.355469 1.972656 1.324219 L 2.15625 0.738281 C 2.183594 0.660156 2.226562 0.613281 2.300781 0.574219 L 5.851562 -1.117188 C 5.9375 -1.15625 5.976562 -1.265625 5.9375 -1.351562 L 5.59375 -2.070312 C 5.554688 -2.15625 5.441406 -2.195312 5.355469 -2.15625 Z M 5.355469 -2.15625 "/></g></g></g><g fill="#ff1616" fill-opacity="1"><g transform="translate(127.869484, 218.258792)"><g><path d="M 0.339844 0.207031 C 0.257812 0.257812 0.230469 0.375 0.28125 0.453125 L 0.703125 1.128906 C 0.753906 1.210938 0.867188 1.238281 0.949219 1.1875 L 4.84375 -1.234375 L 6.53125 1.480469 C 6.558594 1.519531 6.566406 1.554688 6.566406 1.597656 L 6.347656 2.644531 C 6.328125 2.726562 6.289062 2.777344 6.21875 2.820312 L 3.152344 4.730469 C 3.070312 4.78125 3.042969 4.894531 3.09375 4.976562 L 3.515625 5.652344 C 3.566406 5.730469 3.679688 5.757812 3.761719 5.707031 L 7.109375 3.625 C 7.210938 3.5625 7.277344 3.464844 7.304688 3.351562 L 7.753906 1.488281 C 7.785156 1.359375 7.769531 1.242188 7.6875 1.109375 L 5.429688 -2.523438 C 5.320312 -2.695312 5.101562 -2.753906 4.929688 -2.648438 Z M 0.339844 0.207031 "/></g></g></g><g fill="#ff1616" fill-opacity="1"><g transform="translate(133.28484, 226.553997)"><g><path d="M 0.320312 0.429688 L 0.847656 1.144531 C 0.90625 1.222656 1.023438 1.238281 1.097656 1.183594 L 5.585938 -2.140625 C 5.664062 -2.199219 5.679688 -2.316406 5.625 -2.390625 L 5.09375 -3.109375 C 5.035156 -3.183594 4.917969 -3.203125 4.84375 -3.144531 L 0.355469 0.179688 C 0.277344 0.238281 0.261719 0.351562 0.320312 0.429688 Z M 0.320312 0.429688 "/></g></g></g><g fill="#ff1616" fill-opacity="1"><g transform="translate(136.079428, 230.31901)"><g><path d="M 8.972656 1.21875 L 8.449219 0.621094 C 8.386719 0.546875 8.269531 0.539062 8.195312 0.601562 L 6.042969 2.492188 C 5.980469 2.546875 5.929688 2.5625 5.835938 2.5625 L 3.964844 2.59375 L 3.875 2.578125 C 3.832031 2.566406 3.800781 2.546875 3.769531 2.511719 L 2.859375 1.476562 C 2.820312 1.429688 2.804688 1.394531 2.808594 1.363281 L 2.804688 1.269531 L 3.078125 -0.582031 C 3.09375 -0.671875 3.113281 -0.722656 3.175781 -0.777344 L 5.328125 -2.667969 C 5.398438 -2.730469 5.40625 -2.847656 5.34375 -2.917969 L 4.820312 -3.515625 C 4.757812 -3.589844 4.640625 -3.597656 4.566406 -3.53125 L 2.136719 -1.402344 C 2.046875 -1.324219 2.007812 -1.222656 1.992188 -1.097656 L 1.628906 1.640625 C 1.617188 1.773438 1.652344 1.886719 1.753906 2 L 3.105469 3.539062 C 3.207031 3.652344 3.320312 3.710938 3.445312 3.710938 L 6.207031 3.707031 C 6.335938 3.707031 6.4375 3.679688 6.527344 3.601562 L 8.957031 1.46875 C 9.027344 1.40625 9.035156 1.289062 8.972656 1.21875 Z M 8.972656 1.21875 "/></g></g></g><g fill="#ff1616" fill-opacity="1"><g transform="translate(142.944816, 237.891486)"><g><path d="M 4.152344 -2.054688 L 4.671875 -2.0625 C 4.773438 -2.066406 4.824219 -2.050781 4.867188 -2.011719 L 8.042969 0.875 C 8.113281 0.941406 8.230469 0.933594 8.292969 0.863281 L 8.84375 0.257812 C 8.910156 0.1875 8.902344 0.0703125 8.832031 0.00390625 L 5.371094 -3.148438 C 5.265625 -3.242188 5.171875 -3.28125 5.019531 -3.273438 L 3.59375 -3.207031 C 3.492188 -3.203125 3.359375 -3.160156 3.28125 -3.074219 L 1.253906 -0.851562 C 1.152344 -0.734375 1.113281 -0.625 1.121094 -0.488281 L 1.203125 0.917969 C 1.210938 1.035156 1.257812 1.144531 1.34375 1.222656 L 4.832031 4.398438 C 4.902344 4.464844 5.023438 4.457031 5.085938 4.386719 L 5.621094 3.800781 C 5.6875 3.730469 5.679688 3.613281 5.609375 3.546875 L 2.445312 0.667969 C 2.382812 0.613281 2.355469 0.554688 2.351562 0.46875 L 2.347656 -0.144531 C 2.355469 -0.1875 2.371094 -0.222656 2.402344 -0.257812 L 2.820312 -0.714844 L 6.035156 2.214844 C 6.105469 2.277344 6.222656 2.273438 6.285156 2.203125 L 6.839844 1.597656 C 6.902344 1.527344 6.898438 1.410156 6.828125 1.34375 L 3.609375 -1.582031 L 3.953125 -1.960938 C 4.011719 -2.023438 4.066406 -2.050781 4.152344 -2.054688 Z M 4.152344 -2.054688 "/></g></g></g><g fill="#ff1616" fill-opacity="1"><g transform="translate(150.385778, 244.458536)"><g><path d="M 8.359375 0.164062 L 8.105469 -1.308594 C 8.085938 -1.425781 8.027344 -1.527344 7.929688 -1.597656 L 3.914062 -4.5 C 3.839844 -4.558594 3.722656 -4.539062 3.667969 -4.460938 L 0.394531 0.0664062 C 0.335938 0.140625 0.355469 0.257812 0.433594 0.3125 L 1.097656 0.792969 C 1.175781 0.851562 1.289062 0.832031 1.347656 0.753906 L 2.007812 -0.160156 L 4.617188 1.726562 L 4.511719 3.132812 C 4.507812 3.214844 4.535156 3.28125 4.59375 3.320312 L 5.316406 3.84375 C 5.429688 3.929688 5.566406 3.863281 5.578125 3.726562 L 5.683594 2.203125 L 7.042969 1.984375 C 7.140625 1.96875 7.269531 1.914062 7.339844 1.816406 L 8.265625 0.535156 C 8.355469 0.410156 8.378906 0.296875 8.359375 0.164062 Z M 4.050781 -2.980469 L 6.949219 -0.886719 C 7.015625 -0.835938 7.050781 -0.78125 7.0625 -0.699219 L 7.128906 -0.183594 L 7.136719 -0.0898438 C 7.132812 -0.046875 7.121094 -0.0117188 7.09375 0.0273438 L 6.507812 0.835938 C 6.460938 0.902344 6.40625 0.9375 6.324219 0.949219 L 5.804688 1.015625 C 5.707031 1.03125 5.652344 1.023438 5.605469 0.988281 L 2.699219 -1.113281 Z M 4.050781 -2.980469 "/></g></g></g><g fill="#ff1616" fill-opacity="1"><g transform="translate(158.765735, 250.317552)"><g><path d="M 2.132812 -3.054688 C 2.054688 -2.921875 2.042969 -2.804688 2.082031 -2.675781 L 2.410156 -1.5625 C 2.445312 -1.460938 2.507812 -1.355469 2.613281 -1.296875 L 5.6875 0.4375 C 5.761719 0.476562 5.800781 0.527344 5.824219 0.609375 L 5.875 0.882812 C 5.875 0.925781 5.871094 0.960938 5.847656 1.003906 L 5.707031 1.25 C 5.664062 1.324219 5.617188 1.363281 5.535156 1.386719 L 5.191406 1.464844 C 5.097656 1.480469 5.039062 1.488281 4.988281 1.460938 L 1.21875 -0.664062 C 1.136719 -0.710938 1.023438 -0.679688 0.976562 -0.59375 L 0.574219 0.117188 C 0.527344 0.203125 0.558594 0.316406 0.640625 0.363281 L 4.699219 2.648438 C 4.824219 2.71875 4.925781 2.734375 5.070312 2.695312 L 6.367188 2.332031 C 6.464844 2.304688 6.582031 2.238281 6.640625 2.132812 L 7.125 1.273438 C 7.203125 1.140625 7.21875 1.011719 7.175781 0.894531 L 6.894531 -0.0585938 C 6.855469 -0.160156 6.792969 -0.265625 6.6875 -0.324219 L 3.511719 -2.113281 C 3.4375 -2.15625 3.398438 -2.203125 3.375 -2.285156 L 3.324219 -2.558594 C 3.320312 -2.601562 3.328125 -2.640625 3.351562 -2.679688 L 3.476562 -2.898438 C 3.515625 -2.96875 3.566406 -3.011719 3.648438 -3.035156 L 3.992188 -3.113281 C 4.082031 -3.128906 4.140625 -3.136719 4.191406 -3.105469 L 7.859375 -1.042969 C 7.941406 -0.996094 8.054688 -1.027344 8.101562 -1.109375 L 8.503906 -1.824219 C 8.550781 -1.90625 8.519531 -2.019531 8.4375 -2.066406 L 4.480469 -4.296875 C 4.355469 -4.367188 4.257812 -4.382812 4.109375 -4.339844 L 2.816406 -3.980469 C 2.71875 -3.953125 2.597656 -3.882812 2.539062 -3.78125 Z M 2.132812 -3.054688 "/></g></g></g><g fill="#ff1616" fill-opacity="1"><g transform="translate(167.523063, 255.00933)"><g/></g></g><g fill="#ff1616" fill-opacity="1"><g transform="translate(172.857483, 257.392456)"><g><path d="M 7.890625 -2.28125 L 7.226562 -3.625 C 7.175781 -3.730469 7.089844 -3.808594 6.980469 -3.847656 L 2.472656 -5.429688 C 2.382812 -5.460938 2.277344 -5.410156 2.242188 -5.320312 L 0.394531 -0.0507812 C 0.363281 0.0390625 0.414062 0.144531 0.503906 0.175781 L 4.980469 1.746094 C 5.113281 1.792969 5.214844 1.792969 5.351562 1.726562 L 6.714844 1.070312 C 6.804688 1.027344 6.914062 0.9375 6.953125 0.824219 L 7.90625 -1.898438 C 7.957031 -2.046875 7.949219 -2.160156 7.890625 -2.28125 Z M 5.875 0.121094 C 5.847656 0.199219 5.808594 0.25 5.730469 0.285156 L 5.253906 0.496094 C 5.164062 0.539062 5.109375 0.546875 5.054688 0.527344 L 1.824219 -0.605469 L 3.019531 -4.015625 L 6.238281 -2.886719 C 6.316406 -2.859375 6.367188 -2.816406 6.402344 -2.742188 L 6.613281 -2.265625 L 6.644531 -2.179688 C 6.65625 -2.136719 6.65625 -2.097656 6.640625 -2.054688 Z M 5.875 0.121094 "/></g></g></g><g fill="#ff1616" fill-opacity="1"><g transform="translate(182.382681, 260.560567)"><g><path d="M 2.613281 -3.824219 L 3.0625 -4.089844 C 3.148438 -4.140625 3.199219 -4.152344 3.257812 -4.140625 L 7.4375 -3.179688 C 7.53125 -3.15625 7.628906 -3.21875 7.652344 -3.3125 L 7.835938 -4.113281 C 7.855469 -4.203125 7.792969 -4.304688 7.703125 -4.324219 L 3.140625 -5.375 C 3 -5.40625 2.898438 -5.394531 2.769531 -5.3125 L 1.558594 -4.554688 C 1.472656 -4.503906 1.378906 -4.402344 1.351562 -4.285156 L 0.679688 -1.355469 C 0.644531 -1.207031 0.664062 -1.089844 0.738281 -0.976562 L 1.5 0.210938 C 1.5625 0.3125 1.65625 0.382812 1.773438 0.40625 L 6.371094 1.464844 C 6.460938 1.488281 6.5625 1.425781 6.582031 1.332031 L 6.761719 0.554688 C 6.785156 0.460938 6.722656 0.363281 6.628906 0.339844 L 2.460938 -0.617188 C 2.378906 -0.636719 2.324219 -0.671875 2.28125 -0.742188 L 1.976562 -1.277344 C 1.960938 -1.316406 1.957031 -1.355469 1.96875 -1.402344 L 2.105469 -2.003906 L 6.347656 -1.027344 C 6.4375 -1.007812 6.539062 -1.070312 6.558594 -1.160156 L 6.742188 -1.960938 C 6.765625 -2.054688 6.703125 -2.152344 6.609375 -2.175781 L 2.371094 -3.148438 L 2.484375 -3.648438 C 2.503906 -3.730469 2.539062 -3.78125 2.613281 -3.824219 Z M 2.613281 -3.824219 "/></g></g></g><g fill="#ff1616" fill-opacity="1"><g transform="translate(191.990733, 262.559079)"><g/></g></g><g fill="#ff1616" fill-opacity="1"><g transform="translate(197.772565, 263.329426)"><g><path d="M 0.660156 -5.738281 L 0.4375 -1.5 C 0.429688 -1.382812 0.496094 -1.257812 0.5625 -1.183594 L 1.574219 -0.0585938 C 1.675781 0.0546875 1.769531 0.09375 1.910156 0.101562 L 6.289062 0.332031 C 6.386719 0.339844 6.472656 0.261719 6.476562 0.164062 L 6.519531 -0.652344 C 6.527344 -0.75 6.445312 -0.835938 6.351562 -0.839844 L 2.363281 -1.054688 C 2.304688 -1.054688 2.257812 -1.082031 2.191406 -1.15625 L 1.773438 -1.597656 C 1.71875 -1.660156 1.699219 -1.71875 1.703125 -1.800781 L 1.90625 -5.671875 C 1.914062 -5.765625 1.832031 -5.851562 1.738281 -5.859375 L 0.847656 -5.90625 C 0.753906 -5.910156 0.667969 -5.832031 0.660156 -5.738281 Z M 0.660156 -5.738281 "/></g></g></g><g fill="#ff1616" fill-opacity="1"><g transform="translate(207.309701, 263.630886)"><g><path d="M 0.394531 -5.359375 L 1.285156 -5.382812 C 1.378906 -5.386719 1.460938 -5.472656 1.457031 -5.566406 L 1.421875 -6.992188 C 1.417969 -7.085938 1.332031 -7.167969 1.238281 -7.164062 L 0.347656 -7.140625 C 0.253906 -7.140625 0.171875 -7.054688 0.171875 -6.960938 L 0.210938 -5.535156 C 0.214844 -5.4375 0.300781 -5.359375 0.394531 -5.359375 Z M 0.394531 -5.359375 "/></g></g></g><g fill="#ff1616" fill-opacity="1"><g transform="translate(211.993705, 263.503219)"><g><path d="M 6.15625 -5.421875 L 5 -6.375 C 4.898438 -6.457031 4.785156 -6.492188 4.632812 -6.476562 L 1.242188 -6.109375 C 1.085938 -6.09375 0.984375 -6.035156 0.902344 -5.929688 L -0.0234375 -4.753906 C -0.0976562 -4.664062 -0.132812 -4.550781 -0.121094 -4.433594 L 0.335938 -0.214844 C 0.34375 -0.121094 0.4375 -0.046875 0.53125 -0.0585938 L 1.324219 -0.144531 C 1.417969 -0.152344 1.492188 -0.246094 1.480469 -0.339844 L 1.292969 -2.101562 L 5.4375 -2.546875 L 5.628906 -0.789062 C 5.640625 -0.691406 5.730469 -0.621094 5.824219 -0.628906 L 6.617188 -0.714844 C 6.710938 -0.726562 6.785156 -0.816406 6.773438 -0.910156 L 6.320312 -5.128906 C 6.304688 -5.246094 6.246094 -5.347656 6.15625 -5.421875 Z M 1.179688 -3.128906 L 1.058594 -4.25 C 1.050781 -4.332031 1.066406 -4.394531 1.121094 -4.460938 L 1.460938 -4.855469 L 1.523438 -4.921875 C 1.546875 -4.949219 1.578125 -4.964844 1.636719 -4.96875 L 4.484375 -5.277344 C 4.535156 -5.285156 4.570312 -5.273438 4.609375 -5.253906 L 4.683594 -5.203125 L 5.101562 -4.890625 C 5.167969 -4.835938 5.199219 -4.78125 5.207031 -4.699219 L 5.328125 -3.574219 Z M 1.179688 -3.128906 "/></g></g></g><g fill="#ff1616" fill-opacity="1"><g transform="translate(221.958748, 262.26572)"><g><path d="M -0.90625 -5.703125 L 0.0351562 -1.480469 C 0.0625 -1.363281 0.128906 -1.269531 0.230469 -1.207031 L 1.464844 -0.472656 C 1.585938 -0.414062 1.695312 -0.378906 1.84375 -0.410156 L 5.171875 -1.15625 C 5.324219 -1.1875 5.414062 -1.269531 5.488281 -1.371094 L 6.296875 -2.5625 C 6.371094 -2.664062 6.382812 -2.777344 6.355469 -2.890625 L 5.414062 -7.113281 C 5.394531 -7.207031 5.292969 -7.269531 5.203125 -7.25 L 4.425781 -7.074219 C 4.332031 -7.054688 4.269531 -6.957031 4.289062 -6.863281 L 5.144531 -3.023438 C 5.164062 -2.941406 5.164062 -2.882812 5.109375 -2.808594 L 4.757812 -2.304688 C 4.730469 -2.273438 4.695312 -2.253906 4.648438 -2.242188 L 1.855469 -1.621094 C 1.796875 -1.605469 1.757812 -1.609375 1.730469 -1.628906 L 1.199219 -1.9375 C 1.128906 -1.980469 1.09375 -2.035156 1.074219 -2.113281 L 0.21875 -5.953125 C 0.195312 -6.046875 0.0976562 -6.109375 0.00390625 -6.089844 L -0.773438 -5.917969 C -0.863281 -5.894531 -0.929688 -5.796875 -0.90625 -5.703125 Z M -0.90625 -5.703125 "/></g></g></g><g fill="#ff1616" fill-opacity="1"><g transform="translate(231.761956, 259.940887)"><g><path d="M 5.480469 -8.230469 L -1.46875 -5.78125 C -1.558594 -5.75 -1.609375 -5.644531 -1.578125 -5.554688 L -1.28125 -4.714844 C -1.25 -4.625 -1.144531 -4.574219 -1.054688 -4.605469 L 1.835938 -5.625 L 3.335938 -1.363281 C 3.367188 -1.273438 3.476562 -1.222656 3.566406 -1.257812 L 4.40625 -1.550781 C 4.496094 -1.582031 4.546875 -1.691406 4.515625 -1.78125 L 3.011719 -6.039062 L 5.894531 -7.054688 C 5.984375 -7.085938 6.035156 -7.191406 6.003906 -7.28125 L 5.707031 -8.121094 C 5.675781 -8.210938 5.570312 -8.261719 5.480469 -8.230469 Z M 5.480469 -8.230469 "/></g></g></g><g fill="#ff1616" fill-opacity="1"><g transform="translate(242.366321, 255.98141)"><g><path d="M -0.351562 -1.523438 C -0.300781 -1.414062 -0.210938 -1.339844 -0.0976562 -1.304688 L 1.3125 -0.804688 C 1.4375 -0.761719 1.554688 -0.765625 1.695312 -0.835938 L 4.753906 -2.34375 C 4.894531 -2.410156 4.96875 -2.5 5.011719 -2.628906 L 5.476562 -4.050781 C 5.515625 -4.164062 5.507812 -4.28125 5.457031 -4.386719 L 4.175781 -6.988281 C 4.121094 -7.09375 4.03125 -7.167969 3.921875 -7.207031 L 2.507812 -7.703125 C 2.382812 -7.746094 2.265625 -7.742188 2.125 -7.671875 L -0.933594 -6.164062 C -1.070312 -6.097656 -1.144531 -6.007812 -1.1875 -5.878906 L -1.65625 -4.457031 C -1.691406 -4.347656 -1.6875 -4.230469 -1.636719 -4.125 Z M 0.542969 -2.308594 L -0.464844 -4.355469 C -0.5 -4.429688 -0.507812 -4.492188 -0.480469 -4.574219 L -0.296875 -5.0625 L -0.257812 -5.144531 C -0.246094 -5.179688 -0.21875 -5.203125 -0.167969 -5.230469 L 2.402344 -6.496094 C 2.445312 -6.519531 2.480469 -6.523438 2.523438 -6.519531 L 2.613281 -6.496094 L 3.113281 -6.34375 C 3.191406 -6.316406 3.242188 -6.273438 3.277344 -6.199219 L 4.285156 -4.152344 C 4.324219 -4.078125 4.328125 -4.015625 4.300781 -3.933594 L 4.117188 -3.449219 L 4.078125 -3.363281 C 4.058594 -3.324219 4.03125 -3.300781 3.988281 -3.277344 L 1.417969 -2.011719 C 1.367188 -1.984375 1.328125 -1.980469 1.296875 -1.992188 L 1.207031 -2.011719 L 0.707031 -2.164062 C 0.628906 -2.191406 0.582031 -2.234375 0.542969 -2.308594 Z M 0.542969 -2.308594 "/></g></g></g><g fill="#ff1616" fill-opacity="1"><g transform="translate(251.500894, 251.457117)"><g><path d="M 7.394531 -10.667969 L 5.761719 -10.992188 C 5.628906 -11.015625 5.511719 -10.992188 5.386719 -10.90625 L 2.847656 -9.164062 C 2.71875 -9.078125 2.648438 -8.96875 2.636719 -8.84375 L 2.464844 -7.832031 L 1.449219 -8.03125 C 1.328125 -8.0625 1.203125 -8.035156 1.074219 -7.945312 L -1.707031 -6.035156 C -1.835938 -5.949219 -1.894531 -5.847656 -1.921875 -5.714844 L -2.207031 -4.078125 C -2.21875 -3.96875 -2.207031 -3.847656 -2.140625 -3.75 L 0.191406 -0.347656 C 0.246094 -0.269531 0.363281 -0.25 0.441406 -0.300781 L 1.097656 -0.753906 C 1.175781 -0.808594 1.195312 -0.921875 1.144531 -1 L -0.980469 -4.097656 C -1.03125 -4.164062 -1.042969 -4.226562 -1.027344 -4.3125 L -0.863281 -5.144531 C -0.847656 -5.183594 -0.828125 -5.214844 -0.785156 -5.242188 L 1.515625 -6.820312 C 1.554688 -6.847656 1.589844 -6.859375 1.632812 -6.859375 L 2.40625 -6.742188 C 2.480469 -6.734375 2.542969 -6.691406 2.589844 -6.621094 L 4.75 -3.476562 C 4.800781 -3.398438 4.917969 -3.378906 4.996094 -3.429688 L 5.652344 -3.882812 C 5.730469 -3.933594 5.753906 -4.050781 5.699219 -4.128906 L 3.539062 -7.273438 C 3.492188 -7.34375 3.472656 -7.414062 3.492188 -7.488281 L 3.660156 -8.25 C 3.675781 -8.292969 3.699219 -8.320312 3.738281 -8.347656 L 5.804688 -9.769531 C 5.847656 -9.792969 5.882812 -9.804688 5.925781 -9.804688 L 6.746094 -9.660156 C 6.820312 -9.65625 6.878906 -9.609375 6.925781 -9.542969 L 9.058594 -6.4375 C 9.113281 -6.359375 9.230469 -6.335938 9.308594 -6.390625 L 9.964844 -6.839844 C 10.042969 -6.894531 10.0625 -7.011719 10.011719 -7.089844 L 7.675781 -10.488281 C 7.609375 -10.585938 7.5 -10.640625 7.394531 -10.667969 Z M 7.394531 -10.667969 "/></g></g></g><g fill="#ff1616" fill-opacity="1"><g transform="translate(264.124957, 242.289971)"><g><path d="M -0.769531 -1.359375 C -0.6875 -1.273438 -0.582031 -1.226562 -0.464844 -1.222656 L 1.03125 -1.144531 C 1.164062 -1.140625 1.273438 -1.175781 1.386719 -1.28125 L 3.894531 -3.59375 C 4.007812 -3.699219 4.054688 -3.808594 4.058594 -3.941406 L 4.101562 -5.4375 C 4.109375 -5.554688 4.070312 -5.664062 3.988281 -5.753906 L 2.023438 -7.882812 C 1.941406 -7.972656 1.835938 -8.015625 1.71875 -8.023438 L 0.222656 -8.097656 C 0.0898438 -8.105469 -0.0234375 -8.066406 -0.136719 -7.960938 L -2.640625 -5.648438 C -2.753906 -5.542969 -2.800781 -5.4375 -2.808594 -5.300781 L -2.851562 -3.804688 C -2.855469 -3.6875 -2.816406 -3.578125 -2.738281 -3.492188 Z M -0.132812 -2.367188 L -1.679688 -4.046875 C -1.738281 -4.105469 -1.757812 -4.167969 -1.753906 -4.25 L -1.71875 -4.769531 L -1.707031 -4.863281 C -1.703125 -4.894531 -1.6875 -4.929688 -1.644531 -4.96875 L 0.460938 -6.910156 C 0.496094 -6.945312 0.53125 -6.960938 0.574219 -6.964844 L 0.664062 -6.972656 L 1.1875 -6.964844 C 1.269531 -6.964844 1.328125 -6.9375 1.386719 -6.875 L 2.933594 -5.199219 C 2.988281 -5.136719 3.011719 -5.078125 3.007812 -4.992188 L 2.972656 -4.472656 L 2.960938 -4.382812 C 2.949219 -4.339844 2.929688 -4.304688 2.894531 -4.273438 L 0.792969 -2.332031 C 0.746094 -2.292969 0.714844 -2.277344 0.679688 -2.277344 L 0.585938 -2.273438 L 0.0664062 -2.277344 C -0.0195312 -2.28125 -0.0742188 -2.308594 -0.132812 -2.367188 Z M -0.132812 -2.367188 "/></g></g></g><g fill="#ff1616" fill-opacity="1"><g transform="translate(271.394472, 235.362694)"><g><path d="M 2.421875 -6.753906 L 1.609375 -6.6875 L 1.589844 -6.921875 C 1.582031 -7.054688 1.53125 -7.164062 1.414062 -7.261719 L 0.6875 -7.894531 C 0.570312 -7.996094 0.457031 -8.027344 0.324219 -8.019531 L -0.832031 -7.917969 C -0.941406 -7.902344 -1.054688 -7.859375 -1.132812 -7.769531 L -4.144531 -4.292969 C -4.203125 -4.222656 -4.195312 -4.105469 -4.125 -4.042969 L 0.0976562 -0.386719 C 0.171875 -0.324219 0.289062 -0.332031 0.351562 -0.40625 L 3.632812 -4.195312 C 3.710938 -4.285156 3.734375 -4.40625 3.734375 -4.515625 L 3.667969 -5.671875 C 3.660156 -5.808594 3.609375 -5.914062 3.492188 -6.015625 L 2.78125 -6.628906 C 2.667969 -6.730469 2.554688 -6.765625 2.421875 -6.753906 Z M -0.464844 -6.78125 C -0.410156 -6.84375 -0.34375 -6.882812 -0.269531 -6.882812 L 0.0117188 -6.875 C 0.0546875 -6.871094 0.0859375 -6.855469 0.125 -6.824219 L 0.4375 -6.554688 C 0.472656 -6.523438 0.492188 -6.488281 0.503906 -6.449219 L 0.550781 -6.171875 C 0.5625 -6.097656 0.535156 -6.027344 0.480469 -5.964844 L -1.683594 -3.46875 L -2.625 -4.285156 Z M 2.515625 -5.304688 C 2.550781 -5.273438 2.570312 -5.242188 2.582031 -5.199219 L 2.628906 -4.925781 C 2.640625 -4.847656 2.613281 -4.78125 2.558594 -4.71875 L 0.125 -1.90625 L -0.800781 -2.707031 L 1.632812 -5.519531 C 1.6875 -5.582031 1.753906 -5.621094 1.828125 -5.617188 L 2.105469 -5.613281 C 2.148438 -5.605469 2.183594 -5.589844 2.21875 -5.5625 Z M 2.515625 -5.304688 "/></g></g></g><g fill="#ff1616" fill-opacity="1"><g transform="translate(277.713275, 227.733141)"><g><path d="M 0.316406 -0.429688 L 0.84375 -1.152344 C 0.898438 -1.226562 0.882812 -1.34375 0.804688 -1.398438 L -3.703125 -4.699219 C -3.777344 -4.757812 -3.894531 -4.738281 -3.953125 -4.660156 L -4.476562 -3.941406 C -4.535156 -3.867188 -4.515625 -3.75 -4.441406 -3.695312 L 0.0664062 -0.394531 C 0.144531 -0.335938 0.261719 -0.355469 0.316406 -0.429688 Z M 0.316406 -0.429688 "/></g></g></g><g fill="#ff1616" fill-opacity="1"><g transform="translate(280.467285, 223.953474)"><g><path d="M -4.71875 -3.332031 L -1.105469 -1.101562 C -1.007812 -1.039062 -0.867188 -1.039062 -0.769531 -1.0625 L 0.703125 -1.410156 C 0.851562 -1.445312 0.929688 -1.507812 1.003906 -1.628906 L 3.308594 -5.359375 C 3.359375 -5.441406 3.332031 -5.554688 3.25 -5.605469 L 2.550781 -6.035156 C 2.472656 -6.085938 2.355469 -6.058594 2.304688 -5.976562 L 0.210938 -2.578125 C 0.179688 -2.53125 0.132812 -2.5 0.0351562 -2.476562 L -0.550781 -2.324219 C -0.632812 -2.304688 -0.695312 -2.3125 -0.765625 -2.359375 L -4.0625 -4.390625 C -4.144531 -4.441406 -4.257812 -4.414062 -4.308594 -4.335938 L -4.777344 -3.574219 C -4.824219 -3.496094 -4.800781 -3.378906 -4.71875 -3.332031 Z M -4.71875 -3.332031 "/></g></g></g><g fill="#ff1616" fill-opacity="1"><g transform="translate(285.42203, 215.647182)"><g><path d="M -3.171875 -3.375 L -3.332031 -3.871094 C -3.363281 -3.96875 -3.367188 -4.019531 -3.339844 -4.074219 L -1.496094 -7.949219 C -1.457031 -8.035156 -1.496094 -8.144531 -1.582031 -8.1875 L -2.324219 -8.539062 C -2.410156 -8.578125 -2.519531 -8.539062 -2.558594 -8.453125 L -4.570312 -4.226562 C -4.632812 -4.097656 -4.640625 -3.996094 -4.589844 -3.851562 L -4.109375 -2.507812 C -4.078125 -2.410156 -4 -2.296875 -3.894531 -2.246094 L -1.179688 -0.953125 C -1.039062 -0.886719 -0.921875 -0.886719 -0.792969 -0.929688 L 0.53125 -1.417969 C 0.640625 -1.457031 0.730469 -1.535156 0.78125 -1.640625 L 2.804688 -5.902344 C 2.847656 -5.988281 2.808594 -6.101562 2.722656 -6.140625 L 2.003906 -6.484375 C 1.917969 -6.523438 1.804688 -6.484375 1.765625 -6.398438 L -0.0703125 -2.535156 C -0.105469 -2.460938 -0.15625 -2.414062 -0.234375 -2.386719 L -0.820312 -2.207031 C -0.863281 -2.199219 -0.898438 -2.203125 -0.941406 -2.222656 L -1.5 -2.488281 L 0.367188 -6.417969 C 0.40625 -6.503906 0.367188 -6.613281 0.28125 -6.65625 L -0.457031 -7.007812 C -0.542969 -7.046875 -0.65625 -7.007812 -0.695312 -6.921875 L -2.5625 -2.996094 L -3.023438 -3.214844 C -3.101562 -3.25 -3.144531 -3.296875 -3.171875 -3.375 Z M -3.171875 -3.375 "/></g></g></g></svg>