<svg xmlns="http://www.w3.org/2000/svg" xmlns:xlink="http://www.w3.org/1999/xlink" width="500" zoomAndPan="magnify" viewBox="0 0 375 374.999991" height="500" preserveAspectRatio="xMidYMid meet" version="1.0"><defs><g/><clipPath id="83a408f59d"><path d="M 108.675781 93.910156 L 238 93.910156 L 238 270 L 108.675781 270 Z M 108.675781 93.910156 " clip-rule="nonzero"/></clipPath><clipPath id="1a3db2a68b"><path d="M 178.136719 94.382812 L 266.160156 94.382812 L 266.160156 270.160156 L 178.136719 270.160156 Z M 178.136719 94.382812 " clip-rule="nonzero"/></clipPath></defs><rect x="-37.5" width="450" fill="#ffffff" y="-37.499999" height="449.999989" fill-opacity="1"/><rect x="-37.5" width="450" fill="#efefef" y="-37.499999" height="449.999989" fill-opacity="1"/><g clip-path="url(#83a408f59d)"><path fill="#1c5d72" d="M 181.183594 252.175781 C 173.445312 239.289062 166.855469 225.238281 161.832031 210.683594 L 123.476562 210.683594 L 123.914062 211.796875 L 124.875 214.109375 L 147.78125 213.953125 L 126.957031 218.925781 L 127.289062 219.683594 L 129.0625 223.472656 L 130.882812 227.152344 L 132.753906 230.71875 L 134.664062 234.167969 L 134.832031 234.457031 L 156.878906 234.304688 L 137.507812 238.929688 L 138.597656 240.679688 L 140.613281 243.734375 L 142.65625 246.644531 L 144.722656 249.410156 L 145.238281 250.054688 L 166.933594 249.90625 L 148.722656 254.253906 L 148.914062 254.472656 L 151.03125 256.761719 L 153.152344 258.882812 L 155.285156 260.824219 L 157.414062 262.589844 L 159.542969 264.164062 L 161.664062 265.550781 L 163.777344 266.738281 L 165.875 267.722656 L 167.953125 268.5 L 170.015625 269.0625 L 172.046875 269.40625 L 181.183594 269.421875 Z M 181.183594 210.683594 L 181.183594 234.953125 C 176.878906 227.179688 172.992188 219.046875 169.605469 210.683594 Z M 181.183594 94.007812 L 129.300781 93.910156 L 127.433594 94.246094 L 125.648438 94.800781 L 123.941406 95.570312 L 122.324219 96.546875 L 120.789062 97.726562 L 119.339844 99.105469 L 117.976562 100.675781 L 116.703125 102.433594 L 116.042969 103.515625 L 135.011719 107.839844 L 114.03125 107.382812 L 113.421875 108.765625 L 112.511719 111.210938 L 111.695312 113.816406 L 110.976562 116.578125 L 110.832031 117.242188 L 132.148438 122.097656 L 109.980469 121.617188 L 109.820312 122.53125 L 109.386719 125.71875 L 109.054688 129.035156 L 108.824219 132.480469 L 108.691406 136.042969 L 108.6875 136.507812 L 131.554688 139.152344 L 108.695312 141.417969 L 108.738281 143.503906 L 108.914062 147.394531 L 109.199219 151.386719 L 109.328125 152.757812 L 151.101562 152.757812 C 150.871094 135.972656 153.558594 121.5 158.609375 109.96875 C 155.265625 122.066406 154.046875 136.492188 155.390625 152.757812 L 175.101562 152.757812 L 174.984375 151.511719 L 174.699219 147.523438 L 174.523438 143.632812 L 174.449219 139.847656 L 174.476562 136.167969 L 174.609375 132.605469 L 174.839844 129.164062 L 175.171875 125.847656 L 175.605469 122.660156 L 176.132812 119.609375 L 176.761719 116.703125 L 177.480469 113.945312 L 178.296875 111.339844 L 179.207031 108.894531 L 180.210938 106.609375 L 181.183594 104.734375 Z M 181.183594 234.953125 C 188.191406 247.613281 196.3125 259.3125 205.171875 269.46875 L 237.832031 269.535156 L 235.800781 269.1875 L 233.742188 268.628906 L 231.660156 267.851562 L 229.5625 266.867188 L 227.449219 265.679688 L 225.328125 264.292969 L 223.199219 262.714844 L 221.070312 260.953125 L 218.9375 259.011719 L 216.816406 256.890625 L 214.699219 254.601562 L 212.59375 252.148438 L 210.507812 249.539062 L 208.441406 246.773438 L 206.398438 243.859375 L 204.382812 240.808594 L 202.398438 237.617188 L 200.449219 234.292969 L 198.539062 230.847656 L 196.667969 227.28125 L 194.847656 223.601562 L 193.078125 219.808594 L 191.359375 215.917969 L 189.699219 211.925781 L 189.210938 210.683594 L 181.183594 210.683594 Z M 181.183594 269.421875 L 181.183594 252.175781 C 184.804688 258.210938 188.675781 263.988281 192.757812 269.445312 Z M 195.089844 94.039062 L 181.183594 94.007812 L 181.183594 104.734375 L 181.304688 104.496094 L 182.488281 102.558594 L 183.761719 100.804688 L 185.125 99.234375 L 186.574219 97.855469 L 188.109375 96.675781 L 189.730469 95.695312 L 191.433594 94.929688 L 193.21875 94.371094 L 195.089844 94.039062 " fill-opacity="1" fill-rule="evenodd"/></g><g clip-path="url(#1a3db2a68b)"><path fill="#1c5d72" d="M 192.730469 210.683594 C 206.320312 245.25 226.703125 270.132812 243.566406 270.164062 C 258.144531 270.191406 266.304688 251.652344 266.15625 224.316406 C 265.066406 243.882812 258.347656 256.71875 247.191406 256.699219 C 233.628906 256.671875 217.382812 237.664062 205.929688 210.683594 Z M 245.722656 140.417969 C 232.546875 113.054688 215.34375 94.46875 200.765625 94.4375 C 184.070312 94.40625 175.792969 118.746094 178.78125 152.757812 L 192.019531 152.757812 C 190.582031 126.367188 197.578125 107.90625 210.957031 107.933594 C 222.113281 107.953125 235.09375 120.824219 245.722656 140.417969 " fill-opacity="1" fill-rule="evenodd"/></g><path fill="#1c5d72" d="M 246.292969 152.757812 C 236.6875 130.289062 223.660156 115.152344 213.144531 116.171875 C 203.46875 117.109375 198.433594 131.472656 199.09375 151.847656 C 199.417969 137.183594 203.609375 127.171875 211.015625 126.453125 C 219.171875 125.664062 229.105469 136.34375 236.96875 152.757812 Z M 214.382812 213.074219 C 223.691406 232.613281 235.492188 245.34375 245.164062 244.410156 C 254.527344 243.5 259.542969 230.019531 259.257812 210.683594 L 250.015625 210.683594 C 249.515625 224.769531 245.347656 234.316406 238.125 235.015625 C 230.71875 235.734375 221.839844 226.984375 214.382812 213.074219 " fill-opacity="1" fill-rule="evenodd"/><g fill="#ff914d" fill-opacity="1"><g transform="translate(119.61459, 193.948775)"><g><path d="M 24.050781 -2.195312 C 23.890625 -3.039062 23.914062 -4.015625 24.125 -5.179688 C 24.332031 -6.34375 24.675781 -7.578125 25.132812 -8.878906 C 25.585938 -10.179688 26.148438 -11.523438 26.796875 -12.898438 C 27.445312 -14.273438 28.152344 -15.628906 28.890625 -16.953125 C 29.574219 -18.21875 30.269531 -19.398438 31 -20.496094 C 31.703125 -21.59375 32.417969 -22.546875 33.085938 -23.378906 C 33.753906 -24.183594 34.410156 -24.847656 35.023438 -25.359375 C 35.632812 -25.875 36.183594 -26.152344 36.664062 -26.195312 C 37.035156 -26.230469 37.359375 -26.117188 37.609375 -25.882812 C 37.863281 -25.621094 38.070312 -25.207031 38.238281 -24.621094 C 38.753906 -25.269531 39.070312 -25.871094 39.191406 -26.429688 C 39.3125 -26.984375 39.296875 -27.46875 39.171875 -27.886719 C 38.867188 -28.71875 38.398438 -29.160156 37.820312 -29.222656 C 37.214844 -29.28125 36.492188 -29.015625 35.65625 -28.453125 C 34.742188 -27.824219 33.769531 -26.878906 32.679688 -25.632812 C 31.59375 -24.359375 30.46875 -22.882812 29.359375 -21.234375 C 28.25 -19.558594 27.15625 -17.742188 26.101562 -15.8125 C 25.050781 -13.855469 24.140625 -11.882812 23.347656 -9.917969 C 23.164062 -10.359375 23.082031 -10.953125 23.070312 -11.699219 C 23.058594 -12.441406 23.101562 -13.21875 23.195312 -14.085938 C 23.289062 -14.953125 23.410156 -15.824219 23.585938 -16.726562 C 23.734375 -17.601562 23.914062 -18.445312 24.074219 -19.207031 C 24.359375 -20.492188 24.648438 -21.691406 24.941406 -22.863281 C 25.238281 -24.007812 25.542969 -25.066406 25.796875 -26.035156 L 26.398438 -28.265625 C 25.722656 -28.117188 25.117188 -27.863281 24.632812 -27.503906 C 24.152344 -27.144531 23.617188 -26.722656 23.035156 -26.210938 C 22.136719 -25.386719 21.222656 -24.414062 20.292969 -23.300781 C 19.367188 -22.15625 18.445312 -20.953125 17.5 -19.722656 C 16.527344 -18.460938 15.578125 -17.226562 14.660156 -16 C 13.714844 -14.765625 12.78125 -13.679688 11.867188 -12.707031 C 10.929688 -11.707031 10.027344 -10.9375 9.164062 -10.34375 C 8.300781 -9.75 7.46875 -9.445312 6.664062 -9.484375 C 6.035156 -9.484375 5.558594 -9.699219 5.179688 -10.066406 C 4.804688 -10.429688 4.503906 -10.890625 4.308594 -11.445312 C 4.089844 -11.96875 3.949219 -12.558594 3.894531 -13.183594 C 3.835938 -13.808594 3.8125 -14.378906 3.875 -14.957031 C 3.171875 -14.492188 2.53125 -14.003906 1.953125 -13.433594 C 1.375 -12.867188 0.855469 -12.277344 0.402344 -11.605469 C -0.0820312 -10.929688 -0.472656 -10.207031 -0.746094 -9.4375 C -1.050781 -8.667969 -1.238281 -7.90625 -1.277344 -7.097656 C -1.367188 -6.175781 -1.257812 -5.296875 -1.007812 -4.460938 C -0.761719 -3.625 -0.320312 -2.890625 0.246094 -2.3125 C 0.789062 -1.703125 1.488281 -1.253906 2.320312 -0.925781 C 3.152344 -0.601562 4.132812 -0.519531 5.269531 -0.625 C 6.175781 -0.707031 7.109375 -1.164062 8.058594 -2.054688 C 9.011719 -2.914062 9.96875 -4.03125 10.988281 -5.414062 C 11.980469 -6.761719 12.960938 -8.257812 13.953125 -9.949219 C 14.941406 -11.644531 15.929688 -13.367188 16.941406 -15.148438 C 17.929688 -16.898438 18.894531 -18.5625 19.859375 -20.195312 C 20.800781 -21.828125 21.757812 -23.261719 22.675781 -24.492188 C 21.859375 -22.753906 21.136719 -20.941406 20.535156 -19.082031 C 19.933594 -17.195312 19.507812 -15.296875 19.226562 -13.351562 C 19.113281 -12.683594 19.0625 -11.992188 19.015625 -11.242188 C 18.972656 -10.492188 19.011719 -9.753906 19.078125 -9.015625 C 19.144531 -8.277344 19.296875 -7.546875 19.507812 -6.820312 C 19.714844 -6.09375 20.003906 -5.433594 20.402344 -4.839844 C 20.804688 -4.21875 21.28125 -3.691406 21.894531 -3.230469 C 22.480469 -2.769531 23.203125 -2.40625 24.050781 -2.195312 Z M 24.050781 -2.195312 "/></g></g></g><g fill="#ff914d" fill-opacity="1"><g transform="translate(146.388879, 191.504311)"><g><path d="M 15.527344 -1.476562 C 16.746094 -1.300781 17.933594 -1.464844 19.09375 -1.914062 C 20.257812 -2.363281 21.339844 -3.066406 22.375 -3.960938 C 23.378906 -4.855469 24.285156 -5.910156 25.148438 -7.136719 C 25.980469 -8.355469 26.691406 -9.679688 27.277344 -11.109375 C 27.835938 -12.503906 28.246094 -13.945312 28.515625 -15.402344 C 28.785156 -16.859375 28.882812 -18.300781 28.78125 -19.695312 C 28.660156 -21.054688 28.34375 -22.316406 27.832031 -23.5 C 27.300781 -24.65625 26.519531 -25.671875 25.46875 -26.492188 C 24.421875 -27.3125 23.109375 -27.878906 21.5625 -28.226562 C 19.984375 -28.539062 18.121094 -28.570312 15.914062 -28.28125 L 16.027344 -28.292969 C 14.671875 -28.113281 13.300781 -27.730469 11.980469 -27.152344 C 10.632812 -26.570312 9.4375 -25.832031 8.378906 -24.875 C 7.324219 -23.917969 6.480469 -22.8125 5.847656 -21.550781 C 5.21875 -20.292969 4.972656 -18.921875 5.113281 -17.390625 C 5.203125 -16.394531 5.527344 -15.652344 6.113281 -15.191406 C 6.675781 -14.695312 7.355469 -14.445312 8.128906 -14.457031 C 8.875 -14.441406 9.625 -14.679688 10.386719 -15.152344 C 11.144531 -15.621094 11.738281 -16.332031 12.195312 -17.292969 C 11.679688 -17.300781 11.273438 -17.351562 10.945312 -17.492188 C 10.589844 -17.601562 10.316406 -17.777344 10.125 -17.988281 C 9.90625 -18.199219 9.742188 -18.441406 9.660156 -18.71875 C 9.546875 -18.996094 9.492188 -19.304688 9.460938 -19.648438 C 9.433594 -19.929688 9.433594 -20.246094 9.457031 -20.59375 C 9.484375 -20.9375 9.542969 -21.257812 9.625 -21.582031 C 9.710938 -21.902344 9.796875 -22.226562 9.882812 -22.519531 C 9.972656 -22.816406 10.089844 -23.082031 10.183594 -23.320312 C 10.433594 -24.03125 10.863281 -24.671875 11.441406 -25.238281 C 12.019531 -25.808594 12.6875 -26.328125 13.449219 -26.742188 C 14.21875 -27.125 15.023438 -27.398438 15.921875 -27.597656 C 16.820312 -27.792969 17.730469 -27.847656 18.65625 -27.757812 C 20.15625 -27.609375 21.433594 -27.125 22.421875 -26.328125 C 23.410156 -25.53125 24.160156 -24.539062 24.695312 -23.386719 C 25.203125 -22.203125 25.523438 -20.914062 25.621094 -19.492188 C 25.722656 -18.070312 25.652344 -16.660156 25.40625 -15.261719 C 25.171875 -14.066406 24.816406 -12.945312 24.308594 -11.925781 C 23.804688 -10.878906 23.195312 -9.992188 22.464844 -9.238281 C 21.734375 -8.457031 20.902344 -7.863281 20.019531 -7.46875 C 19.144531 -7.042969 18.210938 -6.902344 17.285156 -7.019531 C 16.59375 -7.070312 15.882812 -7.292969 15.160156 -7.683594 C 14.441406 -8.046875 13.757812 -8.613281 13.089844 -9.355469 L 13.335938 -9.808594 C 13.679688 -10.441406 14.046875 -11.105469 14.417969 -11.765625 C 14.757812 -12.429688 15.125 -13.121094 15.488281 -13.8125 C 15.832031 -14.472656 16.199219 -15.136719 16.597656 -15.773438 C 17 -16.414062 17.398438 -17.050781 17.859375 -17.664062 C 18.519531 -18.585938 19.242188 -19.453125 20.027344 -20.269531 C 20.8125 -21.054688 21.773438 -21.832031 22.875 -22.617188 C 22.035156 -22.398438 21.238281 -22.039062 20.507812 -21.570312 C 19.777344 -21.105469 19.058594 -20.523438 18.3125 -19.882812 C 17.574219 -19.214844 16.839844 -18.488281 16.160156 -17.738281 C 15.484375 -16.992188 14.8125 -16.214844 14.140625 -15.4375 C 13.46875 -14.628906 12.792969 -13.882812 12.109375 -13.1875 C 11.429688 -12.496094 10.742188 -11.863281 10.046875 -11.3125 C 9.328125 -10.730469 8.625 -10.292969 7.90625 -10 C 7.191406 -9.675781 6.433594 -9.519531 5.625 -9.5625 C 4.996094 -9.5625 4.5 -9.6875 4.132812 -9.941406 C 3.738281 -10.191406 3.421875 -10.507812 3.183594 -10.914062 C 2.714844 -11.671875 2.511719 -12.628906 2.632812 -13.8125 C 2.066406 -13.445312 1.5625 -13 1.125 -12.445312 C 0.660156 -11.886719 0.289062 -11.25 -0.0195312 -10.5625 C -0.355469 -9.847656 -0.578125 -9.140625 -0.738281 -8.378906 C -0.894531 -7.621094 -0.945312 -6.898438 -0.9375 -6.183594 C -0.921875 -5.414062 -0.832031 -4.707031 -0.597656 -4.039062 C -0.394531 -3.371094 -0.0507812 -2.773438 0.421875 -2.273438 C 0.871094 -1.742188 1.421875 -1.359375 2.132812 -1.082031 C 2.847656 -0.804688 3.6875 -0.679688 4.65625 -0.738281 C 5.398438 -0.777344 6.09375 -1.015625 6.800781 -1.421875 C 7.476562 -1.828125 8.148438 -2.347656 8.800781 -3.035156 C 9.425781 -3.695312 10.015625 -4.464844 10.621094 -5.351562 C 11.203125 -6.207031 11.773438 -7.144531 12.34375 -8.113281 C 12.039062 -7.054688 11.925781 -6.128906 11.996094 -5.363281 C 12.039062 -4.5625 12.210938 -3.921875 12.546875 -3.378906 C 12.859375 -2.804688 13.269531 -2.355469 13.785156 -2.058594 C 14.273438 -1.734375 14.863281 -1.527344 15.527344 -1.476562 Z M 15.527344 -1.476562 "/></g></g></g><g fill="#ff914d" fill-opacity="1"><g transform="translate(173.475495, 189.031333)"><g><path d="M 9.035156 -1.082031 L 8.929688 -0.988281 C 9.722656 -1.058594 10.5 -1.359375 11.277344 -1.917969 C 12.03125 -2.445312 12.773438 -3.113281 13.445312 -3.890625 C 14.09375 -4.636719 14.675781 -5.464844 15.230469 -6.316406 C 15.78125 -7.167969 16.222656 -7.980469 16.558594 -8.699219 C 16.507812 -8.636719 16.453125 -8.601562 16.371094 -8.539062 C 16.292969 -8.472656 16.214844 -8.382812 16.109375 -8.285156 C 15.875 -8.035156 15.609375 -7.78125 15.320312 -7.527344 C 15.03125 -7.242188 14.710938 -6.957031 14.367188 -6.667969 C 13.625 -5.996094 13.011719 -5.511719 12.464844 -5.234375 C 12.195312 -5.066406 11.96875 -5.015625 11.820312 -5.058594 C 11.675781 -5.101562 11.628906 -5.269531 11.691406 -5.5625 C 11.722656 -5.851562 11.933594 -6.328125 12.28125 -6.933594 L 17.71875 -16.679688 L 13.714844 -16.3125 L 12.136719 -13.535156 C 12.085938 -14.101562 11.957031 -14.550781 11.722656 -14.929688 C 11.488281 -15.28125 11.207031 -15.539062 10.847656 -15.738281 C 10.460938 -15.902344 10.023438 -15.976562 9.5625 -15.992188 C 9.105469 -15.980469 8.601562 -15.875 8.101562 -15.714844 C 7.714844 -15.566406 7.273438 -15.351562 6.816406 -15.023438 C 6.359375 -14.695312 5.90625 -14.339844 5.429688 -13.894531 C 4.957031 -13.453125 4.457031 -12.949219 3.964844 -12.386719 C 3.472656 -11.828125 3.007812 -11.269531 2.550781 -10.65625 C 1.988281 -9.917969 1.480469 -9.183594 1.035156 -8.425781 C 0.5625 -7.640625 0.171875 -6.886719 -0.160156 -6.140625 C -0.398438 -5.605469 -0.597656 -4.984375 -0.707031 -4.289062 C -0.816406 -3.589844 -0.84375 -2.957031 -0.730469 -2.367188 C -0.644531 -1.746094 -0.429688 -1.25 -0.105469 -0.847656 C 0.214844 -0.449219 0.71875 -0.265625 1.429688 -0.332031 C 2.394531 -0.417969 3.398438 -0.710938 4.378906 -1.257812 C 4.84375 -1.5 5.277344 -1.800781 5.675781 -2.121094 C 6.078125 -2.445312 6.414062 -2.820312 6.664062 -3.214844 C 6.667969 -2.554688 6.886719 -2.03125 7.324219 -1.613281 C 7.738281 -1.191406 8.296875 -1.015625 9.035156 -1.082031 Z M 3.964844 -4.257812 C 3.695312 -4.375 3.503906 -4.585938 3.386719 -4.917969 C 3.269531 -5.253906 3.289062 -5.683594 3.410156 -6.238281 C 3.503906 -6.761719 3.734375 -7.386719 4.121094 -8.164062 C 4.511719 -8.917969 5.0625 -9.796875 5.769531 -10.804688 C 6.074219 -11.234375 6.378906 -11.664062 6.742188 -12.097656 C 7.074219 -12.527344 7.441406 -12.90625 7.808594 -13.28125 C 8.148438 -13.628906 8.523438 -13.921875 8.933594 -14.128906 C 9.3125 -14.335938 9.734375 -14.433594 10.1875 -14.472656 C 10.449219 -14.46875 10.652344 -14.402344 10.808594 -14.273438 C 10.9375 -14.113281 11.042969 -13.921875 11.121094 -13.671875 C 11.171875 -13.417969 11.199219 -13.132812 11.171875 -12.789062 C 11.148438 -12.441406 11.121094 -12.097656 11.042969 -11.71875 L 11.070312 -11.71875 L 8.492188 -7.359375 C 8.292969 -7 8.015625 -6.601562 7.710938 -6.171875 C 7.378906 -5.742188 7.015625 -5.335938 6.617188 -4.984375 C 6.195312 -4.601562 5.761719 -4.335938 5.316406 -4.179688 C 4.847656 -3.992188 4.386719 -4.007812 3.964844 -4.257812 Z M 3.964844 -4.257812 "/></g></g></g><g fill="#ff914d" fill-opacity="1"><g transform="translate(188.154103, 187.691192)"><g><path d="M 11.707031 -12.265625 L 5.160156 -0.558594 L 8.839844 -1.007812 C 8.914062 -1.15625 9.011719 -1.339844 9.160156 -1.582031 C 9.285156 -1.792969 9.433594 -2.035156 9.609375 -2.335938 L 10.589844 -4.144531 C 10.929688 -4.777344 11.25 -5.378906 11.59375 -5.984375 C 11.941406 -6.585938 12.210938 -7.070312 12.457031 -7.492188 L 13.203125 -8.765625 C 13.324219 -9.003906 13.46875 -9.277344 13.617188 -9.546875 C 13.765625 -9.789062 13.941406 -10.0625 14.113281 -10.367188 C 14.4375 -10.910156 14.761719 -11.457031 15.109375 -12.003906 C 15.460938 -12.550781 15.8125 -13.097656 16.167969 -13.589844 C 16.347656 -13.832031 16.554688 -14.054688 16.765625 -14.273438 C 17.003906 -14.496094 17.242188 -14.6875 17.480469 -14.882812 C 17.726562 -15.046875 17.96875 -15.183594 18.21875 -15.292969 C 18.441406 -15.371094 18.664062 -15.417969 18.867188 -15.410156 C 19.066406 -15.398438 19.171875 -15.207031 19.148438 -14.832031 C 19.070312 -14.425781 18.789062 -13.742188 18.296875 -12.835938 L 16.351562 -9.710938 C 15.953125 -9.042969 15.527344 -8.375 15.074219 -7.703125 C 14.566406 -6.972656 14.175781 -6.246094 13.949219 -5.597656 C 13.757812 -5.179688 13.652344 -4.769531 13.574219 -4.359375 C 13.496094 -3.953125 13.535156 -3.554688 13.621094 -3.21875 C 13.710938 -2.855469 13.882812 -2.554688 14.164062 -2.296875 C 14.417969 -2.03125 14.832031 -1.871094 15.355469 -1.773438 C 15.796875 -1.671875 16.253906 -1.683594 16.730469 -1.785156 C 17.179688 -1.882812 17.621094 -2.066406 17.992188 -2.386719 C 18.371094 -2.652344 18.738281 -3 19.101562 -3.40625 C 19.464844 -3.808594 19.800781 -4.242188 20.15625 -4.730469 C 20.484375 -5.191406 20.816406 -5.652344 21.117188 -6.109375 C 21.417969 -6.566406 21.695312 -6.992188 21.945312 -7.414062 L 21.273438 -6.894531 C 20.957031 -6.636719 20.660156 -6.410156 20.390625 -6.214844 C 20.097656 -5.988281 19.828125 -5.820312 19.578125 -5.710938 C 19.304688 -5.570312 19.109375 -5.523438 18.960938 -5.597656 C 18.808594 -5.667969 18.761719 -5.863281 18.824219 -6.15625 C 18.855469 -6.445312 18.964844 -6.800781 19.152344 -7.246094 C 19.34375 -7.664062 19.558594 -8.140625 19.851562 -8.683594 L 20.683594 -10.25 C 20.949219 -10.761719 21.21875 -11.273438 21.488281 -11.753906 C 21.738281 -12.179688 21.960938 -12.570312 22.152344 -12.988281 C 22.464844 -13.617188 22.667969 -14.210938 22.734375 -14.761719 C 22.796875 -15.308594 22.726562 -15.789062 22.488281 -16.199219 C 22.121094 -16.765625 21.628906 -17.121094 21.042969 -17.269531 C 20.460938 -17.386719 19.832031 -17.386719 19.1875 -17.214844 C 18.515625 -17.039062 17.886719 -16.722656 17.296875 -16.296875 C 16.703125 -15.871094 16.234375 -15.398438 15.878906 -14.878906 C 15.777344 -14.726562 15.703125 -14.605469 15.628906 -14.484375 C 15.527344 -14.359375 15.449219 -14.238281 15.375 -14.144531 C 15.269531 -14.023438 15.195312 -13.898438 15.121094 -13.777344 C 15.019531 -13.625 14.949219 -13.476562 14.875 -13.328125 C 14.957031 -13.992188 14.933594 -14.59375 14.800781 -15.09375 C 14.640625 -15.597656 14.316406 -15.996094 13.832031 -16.265625 C 13.296875 -16.503906 12.75 -16.539062 12.136719 -16.339844 C 11.527344 -16.113281 10.957031 -15.777344 10.371094 -15.292969 C 9.761719 -14.777344 9.183594 -14.210938 8.636719 -13.585938 C 8.066406 -12.960938 7.574219 -12.375 7.109375 -11.816406 C 7.289062 -12.347656 7.390625 -12.84375 7.460938 -13.308594 C 7.53125 -13.773438 7.550781 -14.203125 7.515625 -14.601562 C 7.386719 -15.363281 7.058594 -15.820312 6.472656 -15.996094 C 6.121094 -16.050781 5.699219 -15.984375 5.199219 -15.792969 C 4.675781 -15.601562 4.050781 -15.230469 3.351562 -14.707031 L 3.300781 -14.648438 C 3.816406 -14.007812 4.074219 -13.398438 4.125 -12.859375 C 4.121094 -12.574219 4.0625 -12.253906 3.976562 -11.960938 C 3.863281 -11.632812 3.722656 -11.277344 3.554688 -10.917969 L -2.453125 0.109375 L 1.464844 -0.25 L 5.902344 -9.070312 C 6.058594 -9.230469 6.292969 -9.480469 6.546875 -9.816406 C 6.804688 -10.15625 7.082031 -10.554688 7.386719 -10.984375 L 8.386719 -12.277344 C 8.746094 -12.710938 9.109375 -13.117188 9.5 -13.550781 C 9.890625 -13.960938 10.292969 -14.28125 10.730469 -14.523438 C 11.578125 -14.945312 12.050781 -14.785156 12.121094 -14.019531 C 12.15625 -13.621094 12.011719 -13.035156 11.707031 -12.265625 Z M 11.707031 -12.265625 "/></g></g></g><g fill="#ff914d" fill-opacity="1"><g transform="translate(208.113926, 185.868881)"><g><path d="M 9.035156 -1.082031 L 8.929688 -0.988281 C 9.722656 -1.058594 10.5 -1.359375 11.277344 -1.917969 C 12.03125 -2.445312 12.773438 -3.113281 13.445312 -3.890625 C 14.09375 -4.636719 14.675781 -5.464844 15.230469 -6.316406 C 15.78125 -7.167969 16.222656 -7.980469 16.558594 -8.699219 C 16.507812 -8.636719 16.453125 -8.601562 16.371094 -8.539062 C 16.292969 -8.472656 16.214844 -8.382812 16.109375 -8.285156 C 15.875 -8.035156 15.609375 -7.78125 15.320312 -7.527344 C 15.03125 -7.242188 14.710938 -6.957031 14.367188 -6.667969 C 13.625 -5.996094 13.011719 -5.511719 12.464844 -5.234375 C 12.195312 -5.066406 11.96875 -5.015625 11.820312 -5.058594 C 11.675781 -5.101562 11.628906 -5.269531 11.691406 -5.5625 C 11.722656 -5.851562 11.933594 -6.328125 12.28125 -6.933594 L 17.71875 -16.679688 L 13.714844 -16.3125 L 12.136719 -13.535156 C 12.085938 -14.101562 11.957031 -14.550781 11.722656 -14.929688 C 11.488281 -15.28125 11.207031 -15.539062 10.847656 -15.738281 C 10.460938 -15.902344 10.023438 -15.976562 9.5625 -15.992188 C 9.105469 -15.980469 8.601562 -15.875 8.101562 -15.714844 C 7.714844 -15.566406 7.273438 -15.351562 6.816406 -15.023438 C 6.359375 -14.695312 5.90625 -14.339844 5.429688 -13.894531 C 4.957031 -13.453125 4.457031 -12.949219 3.964844 -12.386719 C 3.472656 -11.828125 3.007812 -11.269531 2.550781 -10.65625 C 1.988281 -9.917969 1.480469 -9.183594 1.035156 -8.425781 C 0.5625 -7.640625 0.171875 -6.886719 -0.160156 -6.140625 C -0.398438 -5.605469 -0.597656 -4.984375 -0.707031 -4.289062 C -0.816406 -3.589844 -0.84375 -2.957031 -0.730469 -2.367188 C -0.644531 -1.746094 -0.429688 -1.25 -0.105469 -0.847656 C 0.214844 -0.449219 0.71875 -0.265625 1.429688 -0.332031 C 2.394531 -0.417969 3.398438 -0.710938 4.378906 -1.257812 C 4.84375 -1.5 5.277344 -1.800781 5.675781 -2.121094 C 6.078125 -2.445312 6.414062 -2.820312 6.664062 -3.214844 C 6.667969 -2.554688 6.886719 -2.03125 7.324219 -1.613281 C 7.738281 -1.191406 8.296875 -1.015625 9.035156 -1.082031 Z M 3.964844 -4.257812 C 3.695312 -4.375 3.503906 -4.585938 3.386719 -4.917969 C 3.269531 -5.253906 3.289062 -5.683594 3.410156 -6.238281 C 3.503906 -6.761719 3.734375 -7.386719 4.121094 -8.164062 C 4.511719 -8.917969 5.0625 -9.796875 5.769531 -10.804688 C 6.074219 -11.234375 6.378906 -11.664062 6.742188 -12.097656 C 7.074219 -12.527344 7.441406 -12.90625 7.808594 -13.28125 C 8.148438 -13.628906 8.523438 -13.921875 8.933594 -14.128906 C 9.3125 -14.335938 9.734375 -14.433594 10.1875 -14.472656 C 10.449219 -14.46875 10.652344 -14.402344 10.808594 -14.273438 C 10.9375 -14.113281 11.042969 -13.921875 11.121094 -13.671875 C 11.171875 -13.417969 11.199219 -13.132812 11.171875 -12.789062 C 11.148438 -12.441406 11.121094 -12.097656 11.042969 -11.71875 L 11.070312 -11.71875 L 8.492188 -7.359375 C 8.292969 -7 8.015625 -6.601562 7.710938 -6.171875 C 7.378906 -5.742188 7.015625 -5.335938 6.617188 -4.984375 C 6.195312 -4.601562 5.761719 -4.335938 5.316406 -4.179688 C 4.847656 -3.992188 4.386719 -4.007812 3.964844 -4.257812 Z M 3.964844 -4.257812 "/></g></g></g><g fill="#ff914d" fill-opacity="1"><g transform="translate(222.792528, 184.528741)"><g><path d="M 3.542969 -10.746094 L -2.421875 0.136719 L 1.496094 -0.222656 L 6.371094 -9.859375 C 6.714844 -10.519531 7.199219 -11.164062 7.796875 -11.820312 C 7.953125 -11.980469 8.164062 -12.199219 8.453125 -12.484375 C 8.746094 -12.738281 9.0625 -13.023438 9.4375 -13.289062 C 9.785156 -13.550781 10.140625 -13.753906 10.492188 -13.957031 C 10.847656 -14.160156 11.179688 -14.277344 11.519531 -14.308594 C 11.835938 -14.308594 12.105469 -14.191406 12.296875 -13.980469 C 12.488281 -13.738281 12.609375 -13.347656 12.664062 -12.78125 C 12.6875 -12.496094 12.597656 -12.261719 12.417969 -12.015625 C 12.238281 -11.769531 12.027344 -11.605469 11.753906 -11.46875 C 11.480469 -11.328125 11.175781 -11.214844 10.832031 -11.183594 C 10.492188 -11.152344 10.171875 -11.207031 9.871094 -11.351562 C 9.742188 -10.882812 9.691406 -10.503906 9.71875 -10.222656 C 9.746094 -9.9375 9.851562 -9.691406 10.011719 -9.53125 C 10.140625 -9.34375 10.324219 -9.21875 10.53125 -9.152344 C 10.738281 -9.082031 10.941406 -9.046875 11.167969 -9.066406 C 11.6875 -9.054688 12.132812 -9.183594 12.5625 -9.507812 C 12.960938 -9.832031 13.296875 -10.234375 13.59375 -10.746094 C 13.863281 -11.230469 14.074219 -11.765625 14.191406 -12.347656 C 14.308594 -12.933594 14.347656 -13.480469 14.296875 -14.019531 C 14.222656 -14.527344 14.0625 -15 13.828125 -15.40625 C 13.558594 -15.8125 13.191406 -16.09375 12.722656 -16.222656 C 12.253906 -16.324219 11.742188 -16.277344 11.246094 -16.085938 C 10.75 -15.871094 10.257812 -15.625 9.800781 -15.296875 C 9.316406 -14.9375 8.863281 -14.554688 8.441406 -14.171875 C 8.019531 -13.761719 7.679688 -13.414062 7.390625 -13.128906 C 7.472656 -13.796875 7.421875 -14.363281 7.265625 -14.835938 C 7.109375 -15.28125 6.796875 -15.566406 6.359375 -15.671875 C 6.007812 -15.722656 5.585938 -15.65625 5.085938 -15.46875 C 4.589844 -15.28125 3.992188 -14.9375 3.320312 -14.449219 C 3.582031 -14.101562 3.75 -13.800781 3.890625 -13.527344 C 4.03125 -13.253906 4.085938 -12.972656 4.109375 -12.6875 C 4.109375 -12.402344 4.050781 -12.082031 3.964844 -11.785156 C 3.851562 -11.460938 3.710938 -11.105469 3.542969 -10.746094 Z M 3.289062 -14.472656 L 3.238281 -14.382812 L 3.320312 -14.449219 Z M 3.289062 -14.472656 "/></g></g></g><g fill="#000000" fill-opacity="1"><g transform="translate(120.263188, 193.50771)"><g><path d="M 24.050781 -2.195312 C 23.890625 -3.039062 23.914062 -4.015625 24.125 -5.179688 C 24.332031 -6.34375 24.675781 -7.578125 25.132812 -8.878906 C 25.585938 -10.179688 26.148438 -11.523438 26.796875 -12.898438 C 27.445312 -14.273438 28.152344 -15.628906 28.890625 -16.953125 C 29.574219 -18.21875 30.269531 -19.398438 31 -20.496094 C 31.703125 -21.59375 32.417969 -22.546875 33.085938 -23.378906 C 33.753906 -24.183594 34.410156 -24.847656 35.023438 -25.359375 C 35.632812 -25.875 36.183594 -26.152344 36.664062 -26.195312 C 37.035156 -26.230469 37.359375 -26.117188 37.609375 -25.882812 C 37.863281 -25.621094 38.070312 -25.207031 38.238281 -24.621094 C 38.753906 -25.269531 39.070312 -25.871094 39.191406 -26.429688 C 39.3125 -26.984375 39.296875 -27.46875 39.171875 -27.886719 C 38.867188 -28.71875 38.398438 -29.160156 37.820312 -29.222656 C 37.214844 -29.28125 36.492188 -29.015625 35.65625 -28.453125 C 34.742188 -27.824219 33.769531 -26.878906 32.679688 -25.632812 C 31.59375 -24.359375 30.46875 -22.882812 29.359375 -21.234375 C 28.25 -19.558594 27.15625 -17.742188 26.101562 -15.8125 C 25.050781 -13.855469 24.140625 -11.882812 23.347656 -9.917969 C 23.164062 -10.359375 23.082031 -10.953125 23.070312 -11.699219 C 23.058594 -12.441406 23.101562 -13.21875 23.195312 -14.085938 C 23.289062 -14.953125 23.410156 -15.824219 23.585938 -16.726562 C 23.734375 -17.601562 23.914062 -18.445312 24.074219 -19.207031 C 24.359375 -20.492188 24.648438 -21.691406 24.941406 -22.863281 C 25.238281 -24.007812 25.542969 -25.066406 25.796875 -26.035156 L 26.398438 -28.265625 C 25.722656 -28.117188 25.117188 -27.863281 24.632812 -27.503906 C 24.152344 -27.144531 23.617188 -26.722656 23.035156 -26.210938 C 22.136719 -25.386719 21.222656 -24.414062 20.292969 -23.300781 C 19.367188 -22.15625 18.445312 -20.953125 17.5 -19.722656 C 16.527344 -18.460938 15.578125 -17.226562 14.660156 -16 C 13.714844 -14.765625 12.78125 -13.679688 11.867188 -12.707031 C 10.929688 -11.707031 10.027344 -10.9375 9.164062 -10.34375 C 8.300781 -9.75 7.46875 -9.445312 6.664062 -9.484375 C 6.035156 -9.484375 5.558594 -9.699219 5.179688 -10.066406 C 4.804688 -10.429688 4.503906 -10.890625 4.308594 -11.445312 C 4.089844 -11.96875 3.949219 -12.558594 3.894531 -13.183594 C 3.835938 -13.808594 3.8125 -14.378906 3.875 -14.957031 C 3.171875 -14.492188 2.53125 -14.003906 1.953125 -13.433594 C 1.375 -12.867188 0.855469 -12.277344 0.402344 -11.605469 C -0.0820312 -10.929688 -0.472656 -10.207031 -0.746094 -9.4375 C -1.050781 -8.667969 -1.238281 -7.90625 -1.277344 -7.097656 C -1.367188 -6.175781 -1.257812 -5.296875 -1.007812 -4.460938 C -0.761719 -3.625 -0.320312 -2.890625 0.246094 -2.3125 C 0.789062 -1.703125 1.488281 -1.253906 2.320312 -0.925781 C 3.152344 -0.601562 4.132812 -0.519531 5.269531 -0.625 C 6.175781 -0.707031 7.109375 -1.164062 8.058594 -2.054688 C 9.011719 -2.914062 9.96875 -4.03125 10.988281 -5.414062 C 11.980469 -6.761719 12.960938 -8.257812 13.953125 -9.949219 C 14.941406 -11.644531 15.929688 -13.367188 16.941406 -15.148438 C 17.929688 -16.898438 18.894531 -18.5625 19.859375 -20.195312 C 20.800781 -21.828125 21.757812 -23.261719 22.675781 -24.492188 C 21.859375 -22.753906 21.136719 -20.941406 20.535156 -19.082031 C 19.933594 -17.195312 19.507812 -15.296875 19.226562 -13.351562 C 19.113281 -12.683594 19.0625 -11.992188 19.015625 -11.242188 C 18.972656 -10.492188 19.011719 -9.753906 19.078125 -9.015625 C 19.144531 -8.277344 19.296875 -7.546875 19.507812 -6.820312 C 19.714844 -6.09375 20.003906 -5.433594 20.402344 -4.839844 C 20.804688 -4.21875 21.28125 -3.691406 21.894531 -3.230469 C 22.480469 -2.769531 23.203125 -2.40625 24.050781 -2.195312 Z M 24.050781 -2.195312 "/></g></g></g><g fill="#000000" fill-opacity="1"><g transform="translate(147.037477, 191.063246)"><g><path d="M 15.527344 -1.476562 C 16.746094 -1.300781 17.933594 -1.464844 19.09375 -1.914062 C 20.257812 -2.363281 21.339844 -3.066406 22.375 -3.960938 C 23.378906 -4.855469 24.285156 -5.910156 25.148438 -7.136719 C 25.980469 -8.355469 26.691406 -9.679688 27.277344 -11.109375 C 27.835938 -12.503906 28.246094 -13.945312 28.515625 -15.402344 C 28.785156 -16.859375 28.882812 -18.300781 28.78125 -19.695312 C 28.660156 -21.054688 28.34375 -22.316406 27.832031 -23.5 C 27.300781 -24.65625 26.519531 -25.671875 25.46875 -26.492188 C 24.421875 -27.3125 23.109375 -27.878906 21.5625 -28.226562 C 19.984375 -28.539062 18.121094 -28.570312 15.914062 -28.28125 L 16.027344 -28.292969 C 14.671875 -28.113281 13.300781 -27.730469 11.980469 -27.152344 C 10.632812 -26.570312 9.4375 -25.832031 8.378906 -24.875 C 7.324219 -23.917969 6.480469 -22.8125 5.847656 -21.550781 C 5.21875 -20.292969 4.972656 -18.921875 5.113281 -17.390625 C 5.203125 -16.394531 5.527344 -15.652344 6.113281 -15.191406 C 6.675781 -14.695312 7.355469 -14.445312 8.128906 -14.457031 C 8.875 -14.441406 9.625 -14.679688 10.386719 -15.152344 C 11.144531 -15.621094 11.738281 -16.332031 12.195312 -17.292969 C 11.679688 -17.300781 11.273438 -17.351562 10.945312 -17.492188 C 10.589844 -17.601562 10.316406 -17.777344 10.125 -17.988281 C 9.90625 -18.199219 9.742188 -18.441406 9.660156 -18.71875 C 9.546875 -18.996094 9.492188 -19.304688 9.460938 -19.648438 C 9.433594 -19.929688 9.433594 -20.246094 9.457031 -20.59375 C 9.484375 -20.9375 9.542969 -21.257812 9.625 -21.582031 C 9.710938 -21.902344 9.796875 -22.226562 9.882812 -22.519531 C 9.972656 -22.816406 10.089844 -23.082031 10.183594 -23.320312 C 10.433594 -24.03125 10.863281 -24.671875 11.441406 -25.238281 C 12.019531 -25.808594 12.6875 -26.328125 13.449219 -26.742188 C 14.21875 -27.125 15.023438 -27.398438 15.921875 -27.597656 C 16.820312 -27.792969 17.730469 -27.847656 18.65625 -27.757812 C 20.15625 -27.609375 21.433594 -27.125 22.421875 -26.328125 C 23.410156 -25.53125 24.160156 -24.539062 24.695312 -23.386719 C 25.203125 -22.203125 25.523438 -20.914062 25.621094 -19.492188 C 25.722656 -18.070312 25.652344 -16.660156 25.40625 -15.261719 C 25.171875 -14.066406 24.816406 -12.945312 24.308594 -11.925781 C 23.804688 -10.878906 23.195312 -9.992188 22.464844 -9.238281 C 21.734375 -8.457031 20.902344 -7.863281 20.019531 -7.46875 C 19.144531 -7.042969 18.210938 -6.902344 17.285156 -7.019531 C 16.59375 -7.070312 15.882812 -7.292969 15.160156 -7.683594 C 14.441406 -8.046875 13.757812 -8.613281 13.089844 -9.355469 L 13.335938 -9.808594 C 13.679688 -10.441406 14.046875 -11.105469 14.417969 -11.765625 C 14.757812 -12.429688 15.125 -13.121094 15.488281 -13.8125 C 15.832031 -14.472656 16.199219 -15.136719 16.597656 -15.773438 C 17 -16.414062 17.398438 -17.050781 17.859375 -17.664062 C 18.519531 -18.585938 19.242188 -19.453125 20.027344 -20.269531 C 20.8125 -21.054688 21.773438 -21.832031 22.875 -22.617188 C 22.035156 -22.398438 21.238281 -22.039062 20.507812 -21.570312 C 19.777344 -21.105469 19.058594 -20.523438 18.3125 -19.882812 C 17.574219 -19.214844 16.839844 -18.488281 16.160156 -17.738281 C 15.484375 -16.992188 14.8125 -16.214844 14.140625 -15.4375 C 13.46875 -14.628906 12.792969 -13.882812 12.109375 -13.1875 C 11.429688 -12.496094 10.742188 -11.863281 10.046875 -11.3125 C 9.328125 -10.730469 8.625 -10.292969 7.90625 -10 C 7.191406 -9.675781 6.433594 -9.519531 5.625 -9.5625 C 4.996094 -9.5625 4.5 -9.6875 4.132812 -9.941406 C 3.738281 -10.191406 3.421875 -10.507812 3.183594 -10.914062 C 2.714844 -11.671875 2.511719 -12.628906 2.632812 -13.8125 C 2.066406 -13.445312 1.5625 -13 1.125 -12.445312 C 0.660156 -11.886719 0.289062 -11.25 -0.0195312 -10.5625 C -0.355469 -9.847656 -0.578125 -9.140625 -0.738281 -8.378906 C -0.894531 -7.621094 -0.945312 -6.898438 -0.9375 -6.183594 C -0.921875 -5.414062 -0.832031 -4.707031 -0.597656 -4.039062 C -0.394531 -3.371094 -0.0507812 -2.773438 0.421875 -2.273438 C 0.871094 -1.742188 1.421875 -1.359375 2.132812 -1.082031 C 2.847656 -0.804688 3.6875 -0.679688 4.65625 -0.738281 C 5.398438 -0.777344 6.09375 -1.015625 6.800781 -1.421875 C 7.476562 -1.828125 8.148438 -2.347656 8.800781 -3.035156 C 9.425781 -3.695312 10.015625 -4.464844 10.621094 -5.351562 C 11.203125 -6.207031 11.773438 -7.144531 12.34375 -8.113281 C 12.039062 -7.054688 11.925781 -6.128906 11.996094 -5.363281 C 12.039062 -4.5625 12.210938 -3.921875 12.546875 -3.378906 C 12.859375 -2.804688 13.269531 -2.355469 13.785156 -2.058594 C 14.273438 -1.734375 14.863281 -1.527344 15.527344 -1.476562 Z M 15.527344 -1.476562 "/></g></g></g><g fill="#000000" fill-opacity="1"><g transform="translate(174.124092, 188.590268)"><g><path d="M 9.035156 -1.082031 L 8.929688 -0.988281 C 9.722656 -1.058594 10.5 -1.359375 11.277344 -1.917969 C 12.03125 -2.445312 12.773438 -3.113281 13.445312 -3.890625 C 14.09375 -4.636719 14.675781 -5.464844 15.230469 -6.316406 C 15.78125 -7.167969 16.222656 -7.980469 16.558594 -8.699219 C 16.507812 -8.636719 16.453125 -8.601562 16.371094 -8.539062 C 16.292969 -8.472656 16.214844 -8.382812 16.109375 -8.285156 C 15.875 -8.035156 15.609375 -7.78125 15.320312 -7.527344 C 15.03125 -7.242188 14.710938 -6.957031 14.367188 -6.667969 C 13.625 -5.996094 13.011719 -5.511719 12.464844 -5.234375 C 12.195312 -5.066406 11.96875 -5.015625 11.820312 -5.058594 C 11.675781 -5.101562 11.628906 -5.269531 11.691406 -5.5625 C 11.722656 -5.851562 11.933594 -6.328125 12.28125 -6.933594 L 17.71875 -16.679688 L 13.714844 -16.3125 L 12.136719 -13.535156 C 12.085938 -14.101562 11.957031 -14.550781 11.722656 -14.929688 C 11.488281 -15.28125 11.207031 -15.539062 10.847656 -15.738281 C 10.460938 -15.902344 10.023438 -15.976562 9.5625 -15.992188 C 9.105469 -15.980469 8.601562 -15.875 8.101562 -15.714844 C 7.714844 -15.566406 7.273438 -15.351562 6.816406 -15.023438 C 6.359375 -14.695312 5.90625 -14.339844 5.429688 -13.894531 C 4.957031 -13.453125 4.457031 -12.949219 3.964844 -12.386719 C 3.472656 -11.828125 3.007812 -11.269531 2.550781 -10.65625 C 1.988281 -9.917969 1.480469 -9.183594 1.035156 -8.425781 C 0.5625 -7.640625 0.171875 -6.886719 -0.160156 -6.140625 C -0.398438 -5.605469 -0.597656 -4.984375 -0.707031 -4.289062 C -0.816406 -3.589844 -0.84375 -2.957031 -0.730469 -2.367188 C -0.644531 -1.746094 -0.429688 -1.25 -0.105469 -0.847656 C 0.214844 -0.449219 0.71875 -0.265625 1.429688 -0.332031 C 2.394531 -0.417969 3.398438 -0.710938 4.378906 -1.257812 C 4.84375 -1.5 5.277344 -1.800781 5.675781 -2.121094 C 6.078125 -2.445312 6.414062 -2.820312 6.664062 -3.214844 C 6.667969 -2.554688 6.886719 -2.03125 7.324219 -1.613281 C 7.738281 -1.191406 8.296875 -1.015625 9.035156 -1.082031 Z M 3.964844 -4.257812 C 3.695312 -4.375 3.503906 -4.585938 3.386719 -4.917969 C 3.269531 -5.253906 3.289062 -5.683594 3.410156 -6.238281 C 3.503906 -6.761719 3.734375 -7.386719 4.121094 -8.164062 C 4.511719 -8.917969 5.0625 -9.796875 5.769531 -10.804688 C 6.074219 -11.234375 6.378906 -11.664062 6.742188 -12.097656 C 7.074219 -12.527344 7.441406 -12.90625 7.808594 -13.28125 C 8.148438 -13.628906 8.523438 -13.921875 8.933594 -14.128906 C 9.3125 -14.335938 9.734375 -14.433594 10.1875 -14.472656 C 10.449219 -14.46875 10.652344 -14.402344 10.808594 -14.273438 C 10.9375 -14.113281 11.042969 -13.921875 11.121094 -13.671875 C 11.171875 -13.417969 11.199219 -13.132812 11.171875 -12.789062 C 11.148438 -12.441406 11.121094 -12.097656 11.042969 -11.71875 L 11.070312 -11.71875 L 8.492188 -7.359375 C 8.292969 -7 8.015625 -6.601562 7.710938 -6.171875 C 7.378906 -5.742188 7.015625 -5.335938 6.617188 -4.984375 C 6.195312 -4.601562 5.761719 -4.335938 5.316406 -4.179688 C 4.847656 -3.992188 4.386719 -4.007812 3.964844 -4.257812 Z M 3.964844 -4.257812 "/></g></g></g><g fill="#000000" fill-opacity="1"><g transform="translate(188.8027, 187.250127)"><g><path d="M 11.707031 -12.265625 L 5.160156 -0.558594 L 8.839844 -1.007812 C 8.914062 -1.15625 9.011719 -1.339844 9.160156 -1.582031 C 9.285156 -1.792969 9.433594 -2.035156 9.609375 -2.335938 L 10.589844 -4.144531 C 10.929688 -4.777344 11.25 -5.378906 11.59375 -5.984375 C 11.941406 -6.585938 12.210938 -7.070312 12.457031 -7.492188 L 13.203125 -8.765625 C 13.324219 -9.003906 13.46875 -9.277344 13.617188 -9.546875 C 13.765625 -9.789062 13.941406 -10.0625 14.113281 -10.367188 C 14.4375 -10.910156 14.761719 -11.457031 15.109375 -12.003906 C 15.460938 -12.550781 15.8125 -13.097656 16.167969 -13.589844 C 16.347656 -13.832031 16.554688 -14.054688 16.765625 -14.273438 C 17.003906 -14.496094 17.242188 -14.6875 17.480469 -14.882812 C 17.726562 -15.046875 17.96875 -15.183594 18.21875 -15.292969 C 18.441406 -15.371094 18.664062 -15.417969 18.867188 -15.410156 C 19.066406 -15.398438 19.171875 -15.207031 19.148438 -14.832031 C 19.070312 -14.425781 18.789062 -13.742188 18.296875 -12.835938 L 16.351562 -9.710938 C 15.953125 -9.042969 15.527344 -8.375 15.074219 -7.703125 C 14.566406 -6.972656 14.175781 -6.246094 13.949219 -5.597656 C 13.757812 -5.179688 13.652344 -4.769531 13.574219 -4.359375 C 13.496094 -3.953125 13.535156 -3.554688 13.621094 -3.21875 C 13.710938 -2.855469 13.882812 -2.554688 14.164062 -2.296875 C 14.417969 -2.03125 14.832031 -1.871094 15.355469 -1.773438 C 15.796875 -1.671875 16.253906 -1.683594 16.730469 -1.785156 C 17.179688 -1.882812 17.621094 -2.066406 17.992188 -2.386719 C 18.371094 -2.652344 18.738281 -3 19.101562 -3.40625 C 19.464844 -3.808594 19.800781 -4.242188 20.15625 -4.730469 C 20.484375 -5.191406 20.816406 -5.652344 21.117188 -6.109375 C 21.417969 -6.566406 21.695312 -6.992188 21.945312 -7.414062 L 21.273438 -6.894531 C 20.957031 -6.636719 20.660156 -6.410156 20.390625 -6.214844 C 20.097656 -5.988281 19.828125 -5.820312 19.578125 -5.710938 C 19.304688 -5.570312 19.109375 -5.523438 18.960938 -5.597656 C 18.808594 -5.667969 18.761719 -5.863281 18.824219 -6.15625 C 18.855469 -6.445312 18.964844 -6.800781 19.152344 -7.246094 C 19.34375 -7.664062 19.558594 -8.140625 19.851562 -8.683594 L 20.683594 -10.25 C 20.949219 -10.761719 21.21875 -11.273438 21.488281 -11.753906 C 21.738281 -12.179688 21.960938 -12.570312 22.152344 -12.988281 C 22.464844 -13.617188 22.667969 -14.210938 22.734375 -14.761719 C 22.796875 -15.308594 22.726562 -15.789062 22.488281 -16.199219 C 22.121094 -16.765625 21.628906 -17.121094 21.042969 -17.269531 C 20.460938 -17.386719 19.832031 -17.386719 19.1875 -17.214844 C 18.515625 -17.039062 17.886719 -16.722656 17.296875 -16.296875 C 16.703125 -15.871094 16.234375 -15.398438 15.878906 -14.878906 C 15.777344 -14.726562 15.703125 -14.605469 15.628906 -14.484375 C 15.527344 -14.359375 15.449219 -14.238281 15.375 -14.144531 C 15.269531 -14.023438 15.195312 -13.898438 15.121094 -13.777344 C 15.019531 -13.625 14.949219 -13.476562 14.875 -13.328125 C 14.957031 -13.992188 14.933594 -14.59375 14.800781 -15.09375 C 14.640625 -15.597656 14.316406 -15.996094 13.832031 -16.265625 C 13.296875 -16.503906 12.75 -16.539062 12.136719 -16.339844 C 11.527344 -16.113281 10.957031 -15.777344 10.371094 -15.292969 C 9.761719 -14.777344 9.183594 -14.210938 8.636719 -13.585938 C 8.066406 -12.960938 7.574219 -12.375 7.109375 -11.816406 C 7.289062 -12.347656 7.390625 -12.84375 7.460938 -13.308594 C 7.53125 -13.773438 7.550781 -14.203125 7.515625 -14.601562 C 7.386719 -15.363281 7.058594 -15.820312 6.472656 -15.996094 C 6.121094 -16.050781 5.699219 -15.984375 5.199219 -15.792969 C 4.675781 -15.601562 4.050781 -15.230469 3.351562 -14.707031 L 3.300781 -14.648438 C 3.816406 -14.007812 4.074219 -13.398438 4.125 -12.859375 C 4.121094 -12.574219 4.0625 -12.253906 3.976562 -11.960938 C 3.863281 -11.632812 3.722656 -11.277344 3.554688 -10.917969 L -2.453125 0.109375 L 1.464844 -0.25 L 5.902344 -9.070312 C 6.058594 -9.230469 6.292969 -9.480469 6.546875 -9.816406 C 6.804688 -10.15625 7.082031 -10.554688 7.386719 -10.984375 L 8.386719 -12.277344 C 8.746094 -12.710938 9.109375 -13.117188 9.5 -13.550781 C 9.890625 -13.960938 10.292969 -14.28125 10.730469 -14.523438 C 11.578125 -14.945312 12.050781 -14.785156 12.121094 -14.019531 C 12.15625 -13.621094 12.011719 -13.035156 11.707031 -12.265625 Z M 11.707031 -12.265625 "/></g></g></g><g fill="#000000" fill-opacity="1"><g transform="translate(208.762523, 185.427817)"><g><path d="M 9.035156 -1.082031 L 8.929688 -0.988281 C 9.722656 -1.058594 10.5 -1.359375 11.277344 -1.917969 C 12.03125 -2.445312 12.773438 -3.113281 13.445312 -3.890625 C 14.09375 -4.636719 14.675781 -5.464844 15.230469 -6.316406 C 15.78125 -7.167969 16.222656 -7.980469 16.558594 -8.699219 C 16.507812 -8.636719 16.453125 -8.601562 16.371094 -8.539062 C 16.292969 -8.472656 16.214844 -8.382812 16.109375 -8.285156 C 15.875 -8.035156 15.609375 -7.78125 15.320312 -7.527344 C 15.03125 -7.242188 14.710938 -6.957031 14.367188 -6.667969 C 13.625 -5.996094 13.011719 -5.511719 12.464844 -5.234375 C 12.195312 -5.066406 11.96875 -5.015625 11.820312 -5.058594 C 11.675781 -5.101562 11.628906 -5.269531 11.691406 -5.5625 C 11.722656 -5.851562 11.933594 -6.328125 12.28125 -6.933594 L 17.71875 -16.679688 L 13.714844 -16.3125 L 12.136719 -13.535156 C 12.085938 -14.101562 11.957031 -14.550781 11.722656 -14.929688 C 11.488281 -15.28125 11.207031 -15.539062 10.847656 -15.738281 C 10.460938 -15.902344 10.023438 -15.976562 9.5625 -15.992188 C 9.105469 -15.980469 8.601562 -15.875 8.101562 -15.714844 C 7.714844 -15.566406 7.273438 -15.351562 6.816406 -15.023438 C 6.359375 -14.695312 5.90625 -14.339844 5.429688 -13.894531 C 4.957031 -13.453125 4.457031 -12.949219 3.964844 -12.386719 C 3.472656 -11.828125 3.007812 -11.269531 2.550781 -10.65625 C 1.988281 -9.917969 1.480469 -9.183594 1.035156 -8.425781 C 0.5625 -7.640625 0.171875 -6.886719 -0.160156 -6.140625 C -0.398438 -5.605469 -0.597656 -4.984375 -0.707031 -4.289062 C -0.816406 -3.589844 -0.84375 -2.957031 -0.730469 -2.367188 C -0.644531 -1.746094 -0.429688 -1.25 -0.105469 -0.847656 C 0.214844 -0.449219 0.71875 -0.265625 1.429688 -0.332031 C 2.394531 -0.417969 3.398438 -0.710938 4.378906 -1.257812 C 4.84375 -1.5 5.277344 -1.800781 5.675781 -2.121094 C 6.078125 -2.445312 6.414062 -2.820312 6.664062 -3.214844 C 6.667969 -2.554688 6.886719 -2.03125 7.324219 -1.613281 C 7.738281 -1.191406 8.296875 -1.015625 9.035156 -1.082031 Z M 3.964844 -4.257812 C 3.695312 -4.375 3.503906 -4.585938 3.386719 -4.917969 C 3.269531 -5.253906 3.289062 -5.683594 3.410156 -6.238281 C 3.503906 -6.761719 3.734375 -7.386719 4.121094 -8.164062 C 4.511719 -8.917969 5.0625 -9.796875 5.769531 -10.804688 C 6.074219 -11.234375 6.378906 -11.664062 6.742188 -12.097656 C 7.074219 -12.527344 7.441406 -12.90625 7.808594 -13.28125 C 8.148438 -13.628906 8.523438 -13.921875 8.933594 -14.128906 C 9.3125 -14.335938 9.734375 -14.433594 10.1875 -14.472656 C 10.449219 -14.46875 10.652344 -14.402344 10.808594 -14.273438 C 10.9375 -14.113281 11.042969 -13.921875 11.121094 -13.671875 C 11.171875 -13.417969 11.199219 -13.132812 11.171875 -12.789062 C 11.148438 -12.441406 11.121094 -12.097656 11.042969 -11.71875 L 11.070312 -11.71875 L 8.492188 -7.359375 C 8.292969 -7 8.015625 -6.601562 7.710938 -6.171875 C 7.378906 -5.742188 7.015625 -5.335938 6.617188 -4.984375 C 6.195312 -4.601562 5.761719 -4.335938 5.316406 -4.179688 C 4.847656 -3.992188 4.386719 -4.007812 3.964844 -4.257812 Z M 3.964844 -4.257812 "/></g></g></g><g fill="#000000" fill-opacity="1"><g transform="translate(223.441125, 184.087676)"><g><path d="M 3.542969 -10.746094 L -2.421875 0.136719 L 1.496094 -0.222656 L 6.371094 -9.859375 C 6.714844 -10.519531 7.199219 -11.164062 7.796875 -11.820312 C 7.953125 -11.980469 8.164062 -12.199219 8.453125 -12.484375 C 8.746094 -12.738281 9.0625 -13.023438 9.4375 -13.289062 C 9.785156 -13.550781 10.140625 -13.753906 10.492188 -13.957031 C 10.847656 -14.160156 11.179688 -14.277344 11.519531 -14.308594 C 11.835938 -14.308594 12.105469 -14.191406 12.296875 -13.980469 C 12.488281 -13.738281 12.609375 -13.347656 12.664062 -12.78125 C 12.6875 -12.496094 12.597656 -12.261719 12.417969 -12.015625 C 12.238281 -11.769531 12.027344 -11.605469 11.753906 -11.46875 C 11.480469 -11.328125 11.175781 -11.214844 10.832031 -11.183594 C 10.492188 -11.152344 10.171875 -11.207031 9.871094 -11.351562 C 9.742188 -10.882812 9.691406 -10.503906 9.71875 -10.222656 C 9.746094 -9.9375 9.851562 -9.691406 10.011719 -9.53125 C 10.140625 -9.34375 10.324219 -9.21875 10.53125 -9.152344 C 10.738281 -9.082031 10.941406 -9.046875 11.167969 -9.066406 C 11.6875 -9.054688 12.132812 -9.183594 12.5625 -9.507812 C 12.960938 -9.832031 13.296875 -10.234375 13.59375 -10.746094 C 13.863281 -11.230469 14.074219 -11.765625 14.191406 -12.347656 C 14.308594 -12.933594 14.347656 -13.480469 14.296875 -14.019531 C 14.222656 -14.527344 14.0625 -15 13.828125 -15.40625 C 13.558594 -15.8125 13.191406 -16.09375 12.722656 -16.222656 C 12.253906 -16.324219 11.742188 -16.277344 11.246094 -16.085938 C 10.75 -15.871094 10.257812 -15.625 9.800781 -15.296875 C 9.316406 -14.9375 8.863281 -14.554688 8.441406 -14.171875 C 8.019531 -13.761719 7.679688 -13.414062 7.390625 -13.128906 C 7.472656 -13.796875 7.421875 -14.363281 7.265625 -14.835938 C 7.109375 -15.28125 6.796875 -15.566406 6.359375 -15.671875 C 6.007812 -15.722656 5.585938 -15.65625 5.085938 -15.46875 C 4.589844 -15.28125 3.992188 -14.9375 3.320312 -14.449219 C 3.582031 -14.101562 3.75 -13.800781 3.890625 -13.527344 C 4.03125 -13.253906 4.085938 -12.972656 4.109375 -12.6875 C 4.109375 -12.402344 4.050781 -12.082031 3.964844 -11.785156 C 3.851562 -11.460938 3.710938 -11.105469 3.542969 -10.746094 Z M 3.289062 -14.472656 L 3.238281 -14.382812 L 3.320312 -14.449219 Z M 3.289062 -14.472656 "/></g></g></g></svg>