<svg xmlns="http://www.w3.org/2000/svg" xmlns:xlink="http://www.w3.org/1999/xlink" width="500" zoomAndPan="magnify" viewBox="0 0 375 374.999991" height="500" preserveAspectRatio="xMidYMid meet" version="1.0"><defs><g/><clipPath id="66c6d9f732"><path d="M 144 113.25 L 249 113.25 L 249 170 L 144 170 Z M 144 113.25 " clip-rule="nonzero"/></clipPath><clipPath id="fea6e8f09a"><path d="M 121.394531 163.628906 L 271.394531 163.628906 L 271.394531 187.5 L 121.394531 187.5 Z M 121.394531 163.628906 " clip-rule="nonzero"/></clipPath></defs><rect x="-37.5" width="450" fill="#ffffff" y="-37.499999" height="449.999989" fill-opacity="1"/><rect x="-37.5" width="450" fill="#ffffff" y="-37.499999" height="449.999989" fill-opacity="1"/><rect x="-37.5" width="450" fill="#efefef" y="-37.499999" height="449.999989" fill-opacity="1"/><g clip-path="url(#66c6d9f732)"><path fill="#231f20" d="M 200.128906 114.320312 C 200.988281 114.382812 201.84375 114.464844 202.691406 114.570312 L 202.898438 113.523438 L 210.222656 114.980469 L 210.019531 116.019531 C 210.847656 116.25 211.667969 116.496094 212.480469 116.765625 L 212.886719 115.789062 L 219.789062 118.648438 L 219.382812 119.628906 C 220.148438 120.015625 220.90625 120.417969 221.652344 120.84375 L 222.242188 119.957031 L 228.453125 124.109375 L 227.859375 125 C 228.535156 125.527344 229.199219 126.070312 229.847656 126.628906 L 230.601562 125.875 L 235.886719 131.15625 L 235.128906 131.910156 C 235.6875 132.5625 236.230469 133.222656 236.761719 133.898438 L 237.648438 133.304688 L 241.800781 139.515625 L 240.914062 140.109375 C 241.339844 140.851562 241.742188 141.609375 242.128906 142.375 L 243.113281 141.96875 L 245.96875 148.871094 L 244.992188 149.277344 C 245.261719 150.089844 245.507812 150.910156 245.738281 151.738281 L 246.777344 151.535156 L 248.234375 158.859375 L 247.191406 159.066406 C 247.292969 159.914062 247.375 160.769531 247.4375 161.628906 L 248.507812 161.628906 L 248.507812 169.097656 L 247.4375 169.097656 C 247.429688 169.230469 247.417969 169.363281 247.410156 169.496094 C 233.167969 163.804688 215.511719 160.433594 196.394531 160.433594 C 177.277344 160.433594 159.621094 163.804688 145.378906 169.496094 C 145.371094 169.363281 145.359375 169.230469 145.351562 169.097656 L 144.28125 169.097656 L 144.28125 161.628906 L 145.351562 161.628906 C 145.414062 160.769531 145.496094 159.914062 145.601562 159.066406 L 144.554688 158.859375 L 146.011719 151.535156 L 147.050781 151.738281 C 147.28125 150.910156 147.527344 150.089844 147.796875 149.277344 L 146.820312 148.871094 L 149.679688 141.96875 L 150.660156 142.375 C 151.046875 141.609375 151.449219 140.851562 151.875 140.109375 L 150.988281 139.515625 L 155.140625 133.304688 L 156.03125 133.898438 C 156.558594 133.222656 157.101562 132.5625 157.660156 131.914062 L 156.902344 131.15625 L 162.1875 125.875 L 162.945312 126.628906 C 163.59375 126.070312 164.253906 125.527344 164.929688 125 L 164.335938 124.109375 L 170.546875 119.957031 L 171.140625 120.84375 C 171.882812 120.417969 172.640625 120.015625 173.40625 119.628906 L 173 118.648438 L 179.902344 115.789062 L 180.308594 116.765625 C 181.121094 116.496094 181.941406 116.25 182.769531 116.019531 L 182.5625 114.980469 L 189.890625 113.523438 L 190.097656 114.570312 C 190.945312 114.464844 191.800781 114.382812 192.660156 114.320312 L 192.660156 113.25 L 200.128906 113.25 L 200.128906 114.320312 " fill-opacity="1" fill-rule="evenodd"/></g><path fill="#ffffff" d="M 196.394531 132.378906 C 205.5 132.378906 213.746094 136.074219 219.714844 142.042969 C 225.378906 147.707031 228.992188 155.417969 229.347656 163.96875 C 228.398438 163.757812 227.441406 163.554688 226.476562 163.359375 C 225.980469 155.835938 222.726562 149.0625 217.710938 144.046875 C 212.253906 138.589844 204.71875 135.214844 196.394531 135.214844 C 188.070312 135.214844 180.535156 138.589844 175.078125 144.046875 C 170.0625 149.0625 166.808594 155.835938 166.3125 163.359375 C 165.347656 163.554688 164.390625 163.757812 163.441406 163.96875 C 163.796875 155.417969 167.410156 147.707031 173.074219 142.042969 C 179.042969 136.074219 187.289062 132.378906 196.394531 132.378906 " fill-opacity="1" fill-rule="nonzero"/><path fill="#ffffff" d="M 165.40625 154.601562 C 166.839844 150.195312 171.570312 147.785156 175.976562 149.214844 C 180.378906 150.648438 182.792969 155.378906 181.359375 159.785156 C 181.199219 160.285156 180.992188 160.757812 180.75 161.203125 C 176.183594 161.65625 171.742188 162.304688 167.460938 163.132812 C 165.300781 160.972656 164.398438 157.707031 165.40625 154.601562 Z M 196.394531 132.8125 C 201.027344 132.8125 204.78125 136.566406 204.78125 141.199219 C 204.78125 145.828125 201.027344 149.585938 196.394531 149.585938 C 191.761719 149.585938 188.007812 145.828125 188.007812 141.199219 C 188.007812 136.566406 191.761719 132.8125 196.394531 132.8125 Z M 226.695312 155.546875 C 227.566406 158.234375 227.007812 161.046875 225.441406 163.152344 C 220.757812 162.246094 215.886719 161.554688 210.867188 161.09375 C 210.824219 160.972656 210.78125 160.855469 210.738281 160.730469 C 209.308594 156.328125 211.71875 151.59375 216.125 150.164062 C 220.53125 148.730469 225.261719 151.144531 226.695312 155.546875 " fill-opacity="1" fill-rule="evenodd"/><g clip-path="url(#fea6e8f09a)"><path fill="#1c5d72" d="M 196.394531 163.65625 C 228.722656 163.65625 256.867188 173.292969 271.394531 187.5 C 253.054688 177.996094 226.253906 171.996094 196.394531 171.996094 C 166.539062 171.996094 139.734375 177.996094 121.394531 187.5 C 135.921875 173.292969 164.066406 163.65625 196.394531 163.65625 " fill-opacity="1" fill-rule="evenodd"/></g><g fill="#ff914d" fill-opacity="1"><g transform="translate(142.346863, 218.38375)"><g><path d="M 21.441406 -11.113281 C 20.972656 -11.835938 20.628906 -12.75 20.382812 -13.90625 C 20.136719 -15.0625 19.988281 -16.335938 19.917969 -17.710938 C 19.847656 -19.089844 19.863281 -20.542969 19.945312 -22.0625 C 20.023438 -23.578125 20.167969 -25.101562 20.351562 -26.605469 C 20.507812 -28.039062 20.703125 -29.394531 20.964844 -30.683594 C 21.203125 -31.964844 21.503906 -33.117188 21.808594 -34.140625 C 22.125 -35.140625 22.484375 -36 22.855469 -36.707031 C 23.226562 -37.414062 23.628906 -37.878906 24.058594 -38.101562 C 24.386719 -38.273438 24.734375 -38.289062 25.054688 -38.167969 C 25.386719 -38.019531 25.734375 -37.71875 26.113281 -37.238281 C 26.34375 -38.03125 26.410156 -38.710938 26.3125 -39.269531 C 26.214844 -39.828125 26.015625 -40.273438 25.746094 -40.613281 C 25.148438 -41.265625 24.546875 -41.5 23.988281 -41.339844 C 23.402344 -41.164062 22.835938 -40.648438 22.273438 -39.808594 C 21.664062 -38.882812 21.121094 -37.636719 20.582031 -36.074219 C 20.054688 -34.484375 19.574219 -32.691406 19.167969 -30.746094 C 18.773438 -28.777344 18.449219 -26.679688 18.199219 -24.496094 C 17.964844 -22.289062 17.867188 -20.117188 17.875 -18 C 17.535156 -18.339844 17.234375 -18.859375 16.945312 -19.542969 C 16.65625 -20.226562 16.402344 -20.964844 16.160156 -21.800781 C 15.917969 -22.640625 15.703125 -23.492188 15.523438 -24.394531 C 15.332031 -25.257812 15.179688 -26.109375 15.039062 -26.875 C 14.816406 -28.171875 14.632812 -29.394531 14.464844 -30.589844 C 14.304688 -31.761719 14.1875 -32.855469 14.058594 -33.847656 L 13.769531 -36.140625 C 13.203125 -35.75 12.738281 -35.285156 12.425781 -34.769531 C 12.113281 -34.253906 11.777344 -33.664062 11.429688 -32.96875 C 10.910156 -31.863281 10.433594 -30.621094 9.992188 -29.238281 C 9.566406 -27.828125 9.167969 -26.367188 8.757812 -24.871094 C 8.332031 -23.332031 7.921875 -21.835938 7.535156 -20.351562 C 7.121094 -18.851562 6.671875 -17.492188 6.191406 -16.25 C 5.699219 -14.964844 5.152344 -13.914062 4.578125 -13.039062 C 4.007812 -12.160156 3.351562 -11.566406 2.589844 -11.300781 C 2.007812 -11.0625 1.484375 -11.078125 0.996094 -11.277344 C 0.507812 -11.472656 0.0585938 -11.785156 -0.332031 -12.226562 C -0.730469 -12.628906 -1.082031 -13.121094 -1.371094 -13.675781 C -1.660156 -14.234375 -1.898438 -14.753906 -2.058594 -15.3125 C -2.535156 -14.617188 -2.945312 -13.921875 -3.265625 -13.179688 C -3.585938 -12.433594 -3.84375 -11.691406 -4.011719 -10.898438 C -4.203125 -10.089844 -4.292969 -9.273438 -4.253906 -8.457031 C -4.242188 -7.628906 -4.128906 -6.851562 -3.863281 -6.089844 C -3.597656 -5.203125 -3.164062 -4.429688 -2.617188 -3.75 C -2.074219 -3.070312 -1.390625 -2.554688 -0.644531 -2.234375 C 0.0859375 -1.875 0.90625 -1.722656 1.796875 -1.734375 C 2.691406 -1.75 3.628906 -2.042969 4.644531 -2.566406 C 5.453125 -2.988281 6.144531 -3.761719 6.6875 -4.945312 C 7.246094 -6.101562 7.707031 -7.496094 8.132812 -9.160156 C 8.539062 -10.785156 8.886719 -12.539062 9.164062 -14.480469 C 9.441406 -16.425781 9.707031 -18.390625 9.96875 -20.421875 C 10.21875 -22.417969 10.484375 -24.320312 10.765625 -26.199219 C 11.019531 -28.066406 11.363281 -29.753906 11.75 -31.238281 C 11.652344 -29.324219 11.667969 -27.375 11.808594 -25.425781 C 11.964844 -23.449219 12.285156 -21.527344 12.761719 -19.621094 C 12.910156 -18.960938 13.125 -18.300781 13.363281 -17.589844 C 13.605469 -16.878906 13.921875 -16.207031 14.261719 -15.550781 C 14.601562 -14.890625 15.019531 -14.273438 15.488281 -13.679688 C 15.957031 -13.089844 16.472656 -12.585938 17.066406 -12.1875 C 17.671875 -11.761719 18.3125 -11.453125 19.054688 -11.257812 C 19.773438 -11.050781 20.578125 -10.988281 21.441406 -11.113281 Z M 21.441406 -11.113281 "/></g></g></g><g fill="#ff914d" fill-opacity="1"><g transform="translate(164.91581, 206.191434)"><g><path d="M 15.097656 -3.921875 C 16.328125 -3.945312 17.472656 -4.296875 18.550781 -4.925781 C 19.625 -5.550781 20.582031 -6.414062 21.460938 -7.464844 C 22.3125 -8.507812 23.039062 -9.695312 23.695312 -11.039062 C 24.324219 -12.378906 24.8125 -13.796875 25.164062 -15.300781 C 25.496094 -16.769531 25.675781 -18.257812 25.707031 -19.738281 C 25.742188 -21.21875 25.609375 -22.65625 25.289062 -24.015625 C 24.949219 -25.339844 24.4375 -26.535156 23.746094 -27.625 C 23.035156 -28.679688 22.105469 -29.558594 20.9375 -30.203125 C 19.773438 -30.84375 18.386719 -31.195312 16.804688 -31.292969 C 15.199219 -31.351562 13.355469 -31.085938 11.21875 -30.453125 L 11.332031 -30.480469 C 10.019531 -30.085938 8.730469 -29.488281 7.515625 -28.707031 C 6.277344 -27.921875 5.214844 -27 4.324219 -25.890625 C 3.429688 -24.777344 2.773438 -23.550781 2.351562 -22.207031 C 1.929688 -20.863281 1.902344 -19.472656 2.285156 -17.980469 C 2.53125 -17.015625 2.972656 -16.332031 3.625 -15.96875 C 4.257812 -15.570312 4.96875 -15.429688 5.730469 -15.566406 C 6.46875 -15.667969 7.171875 -16.023438 7.847656 -16.609375 C 8.519531 -17.191406 8.992188 -17.992188 9.292969 -19.007812 C 8.78125 -18.9375 8.375 -18.921875 8.027344 -19.007812 C 7.660156 -19.0625 7.363281 -19.191406 7.140625 -19.371094 C 6.890625 -19.542969 6.6875 -19.753906 6.5625 -20.015625 C 6.410156 -20.273438 6.304688 -20.570312 6.21875 -20.898438 C 6.148438 -21.175781 6.097656 -21.488281 6.066406 -21.832031 C 6.039062 -22.179688 6.042969 -22.503906 6.074219 -22.835938 C 6.109375 -23.167969 6.140625 -23.5 6.179688 -23.804688 C 6.222656 -24.109375 6.296875 -24.394531 6.351562 -24.644531 C 6.484375 -25.382812 6.804688 -26.082031 7.285156 -26.738281 C 7.765625 -27.390625 8.34375 -28.007812 9.03125 -28.539062 C 9.726562 -29.039062 10.480469 -29.4375 11.335938 -29.773438 C 12.191406 -30.109375 13.082031 -30.308594 14.007812 -30.371094 C 15.515625 -30.460938 16.851562 -30.1875 17.953125 -29.554688 C 19.058594 -28.925781 19.953125 -28.066406 20.667969 -27.011719 C 21.355469 -25.921875 21.875 -24.703125 22.203125 -23.3125 C 22.527344 -21.925781 22.679688 -20.523438 22.660156 -19.105469 C 22.621094 -17.886719 22.445312 -16.722656 22.105469 -15.636719 C 21.773438 -14.519531 21.316406 -13.550781 20.710938 -12.6875 C 20.113281 -11.800781 19.386719 -11.082031 18.578125 -10.554688 C 17.78125 -9.996094 16.882812 -9.707031 15.949219 -9.675781 C 15.257812 -9.617188 14.523438 -9.722656 13.75 -9.996094 C 12.980469 -10.238281 12.214844 -10.691406 11.4375 -11.316406 L 11.609375 -11.800781 C 11.847656 -12.480469 12.105469 -13.195312 12.363281 -13.90625 C 12.59375 -14.613281 12.847656 -15.355469 13.097656 -16.097656 C 13.332031 -16.804688 13.589844 -17.519531 13.882812 -18.210938 C 14.175781 -18.90625 14.46875 -19.597656 14.824219 -20.277344 C 15.332031 -21.289062 15.90625 -22.261719 16.550781 -23.191406 C 17.203125 -24.09375 18.027344 -25.011719 18.992188 -25.964844 C 18.199219 -25.613281 17.46875 -25.132812 16.820312 -24.554688 C 16.175781 -23.976562 15.554688 -23.289062 14.921875 -22.539062 C 14.296875 -21.761719 13.6875 -20.929688 13.140625 -20.082031 C 12.589844 -19.234375 12.050781 -18.359375 11.507812 -17.484375 C 10.972656 -16.582031 10.425781 -15.738281 9.863281 -14.945312 C 9.300781 -14.152344 8.722656 -13.417969 8.125 -12.765625 C 7.503906 -12.074219 6.878906 -11.53125 6.21875 -11.128906 C 5.5625 -10.695312 4.839844 -10.421875 4.035156 -10.335938 C 3.414062 -10.234375 2.902344 -10.28125 2.5 -10.472656 C 2.070312 -10.65625 1.710938 -10.917969 1.410156 -11.28125 C 0.824219 -11.957031 0.472656 -12.867188 0.40625 -14.054688 C -0.0976562 -13.601562 -0.523438 -13.082031 -0.863281 -12.464844 C -1.234375 -11.839844 -1.5 -11.152344 -1.699219 -10.425781 C -1.914062 -9.664062 -2.019531 -8.929688 -2.058594 -8.15625 C -2.09375 -7.382812 -2.027344 -6.664062 -1.90625 -5.957031 C -1.773438 -5.199219 -1.566406 -4.515625 -1.230469 -3.894531 C -0.925781 -3.265625 -0.492188 -2.730469 0.0546875 -2.308594 C 0.585938 -1.855469 1.1875 -1.570312 1.933594 -1.40625 C 2.683594 -1.246094 3.535156 -1.257812 4.480469 -1.46875 C 5.207031 -1.625 5.855469 -1.96875 6.488281 -2.484375 C 7.09375 -2.992188 7.671875 -3.613281 8.207031 -4.394531 C 8.71875 -5.144531 9.179688 -6 9.636719 -6.96875 C 10.074219 -7.90625 10.488281 -8.925781 10.898438 -9.972656 C 10.765625 -8.878906 10.800781 -7.945312 10.992188 -7.199219 C 11.160156 -6.417969 11.433594 -5.8125 11.851562 -5.328125 C 12.25 -4.8125 12.726562 -4.433594 13.28125 -4.222656 C 13.816406 -3.976562 14.433594 -3.871094 15.097656 -3.921875 Z M 15.097656 -3.921875 "/></g></g></g><g fill="#ff914d" fill-opacity="1"><g transform="translate(190.304233, 199.944616)"><g><path d="M 9.050781 -0.929688 L 8.945312 -0.835938 C 9.742188 -0.894531 10.519531 -1.179688 11.308594 -1.726562 C 12.070312 -2.238281 12.824219 -2.894531 13.511719 -3.660156 C 14.171875 -4.394531 14.769531 -5.210938 15.335938 -6.054688 C 15.902344 -6.898438 16.355469 -7.703125 16.703125 -8.414062 C 16.652344 -8.355469 16.597656 -8.320312 16.515625 -8.257812 C 16.433594 -8.195312 16.355469 -8.105469 16.246094 -8.011719 C 16.007812 -7.765625 15.742188 -7.515625 15.445312 -7.265625 C 15.152344 -6.984375 14.828125 -6.703125 14.476562 -6.421875 C 13.726562 -5.765625 13.105469 -5.289062 12.550781 -5.019531 C 12.277344 -4.855469 12.050781 -4.8125 11.90625 -4.859375 C 11.761719 -4.902344 11.71875 -5.074219 11.78125 -5.363281 C 11.820312 -5.652344 12.039062 -6.125 12.398438 -6.722656 L 18 -16.375 L 13.992188 -16.078125 L 12.363281 -13.328125 C 12.324219 -13.894531 12.203125 -14.34375 11.976562 -14.726562 C 11.75 -15.082031 11.472656 -15.347656 11.113281 -15.550781 C 10.730469 -15.722656 10.292969 -15.804688 9.835938 -15.828125 C 9.378906 -15.820312 8.871094 -15.726562 8.367188 -15.574219 C 7.976562 -15.429688 7.535156 -15.226562 7.070312 -14.90625 C 6.609375 -14.585938 6.148438 -14.238281 5.667969 -13.800781 C 5.183594 -13.367188 4.679688 -12.871094 4.175781 -12.320312 C 3.671875 -11.765625 3.199219 -11.21875 2.730469 -10.609375 C 2.15625 -9.882812 1.636719 -9.15625 1.179688 -8.40625 C 0.691406 -7.628906 0.289062 -6.882812 -0.0546875 -6.144531 C -0.300781 -5.609375 -0.511719 -4.996094 -0.632812 -4.300781 C -0.753906 -3.605469 -0.792969 -2.972656 -0.691406 -2.378906 C -0.617188 -1.753906 -0.40625 -1.257812 -0.0898438 -0.851562 C 0.222656 -0.445312 0.722656 -0.253906 1.433594 -0.304688 C 2.402344 -0.378906 3.410156 -0.652344 4.402344 -1.183594 C 4.871094 -1.417969 5.304688 -1.707031 5.710938 -2.023438 C 6.117188 -2.339844 6.460938 -2.710938 6.71875 -3.101562 C 6.710938 -2.441406 6.921875 -1.914062 7.351562 -1.488281 C 7.753906 -1.0625 8.3125 -0.875 9.050781 -0.929688 Z M 4.035156 -4.1875 C 3.769531 -4.3125 3.582031 -4.527344 3.472656 -4.859375 C 3.359375 -5.195312 3.386719 -5.625 3.515625 -6.179688 C 3.621094 -6.703125 3.859375 -7.320312 4.261719 -8.09375 C 4.664062 -8.839844 5.226562 -9.710938 5.953125 -10.707031 C 6.265625 -11.128906 6.578125 -11.554688 6.945312 -11.980469 C 7.285156 -12.40625 7.660156 -12.777344 8.03125 -13.148438 C 8.378906 -13.488281 8.757812 -13.773438 9.171875 -13.976562 C 9.558594 -14.175781 9.980469 -14.265625 10.433594 -14.296875 C 10.691406 -14.289062 10.898438 -14.21875 11.050781 -14.085938 C 11.175781 -13.925781 11.277344 -13.730469 11.351562 -13.480469 C 11.398438 -13.226562 11.421875 -12.941406 11.390625 -12.597656 C 11.359375 -12.25 11.328125 -11.90625 11.238281 -11.527344 L 11.269531 -11.53125 L 8.613281 -7.214844 C 8.414062 -6.855469 8.128906 -6.464844 7.816406 -6.039062 C 7.476562 -5.617188 7.105469 -5.214844 6.703125 -4.871094 C 6.273438 -4.496094 5.832031 -4.234375 5.386719 -4.089844 C 4.914062 -3.910156 4.453125 -3.933594 4.035156 -4.1875 Z M 4.035156 -4.1875 "/></g></g></g><g fill="#ff914d" fill-opacity="1"><g transform="translate(204.135166, 198.483093)"><g><path d="M 13.546875 -10.195312 L 5.183594 0.289062 L 8.886719 0.445312 C 8.984375 0.308594 9.109375 0.144531 9.296875 -0.0703125 C 9.453125 -0.257812 9.640625 -0.472656 9.859375 -0.742188 L 11.121094 -2.367188 C 11.5625 -2.933594 11.972656 -3.476562 12.414062 -4.015625 C 12.851562 -4.558594 13.199219 -4.988281 13.511719 -5.367188 L 14.453125 -6.5 C 14.609375 -6.71875 14.800781 -6.960938 14.988281 -7.203125 C 15.175781 -7.417969 15.394531 -7.660156 15.613281 -7.929688 C 16.019531 -8.417969 16.425781 -8.902344 16.863281 -9.382812 C 17.296875 -9.867188 17.734375 -10.351562 18.164062 -10.777344 C 18.378906 -10.988281 18.621094 -11.171875 18.863281 -11.355469 C 19.132812 -11.535156 19.402344 -11.6875 19.671875 -11.839844 C 19.9375 -11.964844 20.199219 -12.058594 20.464844 -12.125 C 20.695312 -12.164062 20.925781 -12.175781 21.121094 -12.132812 C 21.320312 -12.089844 21.390625 -11.886719 21.304688 -11.519531 C 21.164062 -11.132812 20.773438 -10.5 20.144531 -9.691406 L 17.710938 -6.921875 C 17.210938 -6.328125 16.683594 -5.738281 16.125 -5.148438 C 15.507812 -4.507812 15.003906 -3.859375 14.671875 -3.253906 C 14.417969 -2.871094 14.246094 -2.484375 14.105469 -2.09375 C 13.960938 -1.703125 13.933594 -1.304688 13.964844 -0.960938 C 13.996094 -0.585938 14.113281 -0.261719 14.347656 0.0390625 C 14.554688 0.339844 14.941406 0.570312 15.441406 0.746094 C 15.859375 0.921875 16.3125 0.980469 16.796875 0.960938 C 17.257812 0.9375 17.722656 0.828125 18.140625 0.570312 C 18.554688 0.375 18.976562 0.0898438 19.402344 -0.25 C 19.828125 -0.59375 20.226562 -0.964844 20.65625 -1.390625 C 21.058594 -1.789062 21.457031 -2.191406 21.832031 -2.589844 C 22.203125 -2.992188 22.542969 -3.367188 22.859375 -3.746094 L 22.113281 -3.34375 C 21.753906 -3.140625 21.429688 -2.964844 21.132812 -2.8125 C 20.804688 -2.636719 20.507812 -2.515625 20.246094 -2.449219 C 19.953125 -2.355469 19.753906 -2.339844 19.617188 -2.4375 C 19.480469 -2.53125 19.46875 -2.734375 19.574219 -3.011719 C 19.652344 -3.292969 19.816406 -3.625 20.078125 -4.035156 C 20.332031 -4.414062 20.621094 -4.851562 21 -5.339844 L 22.074219 -6.746094 C 22.421875 -7.207031 22.769531 -7.667969 23.117188 -8.101562 C 23.429688 -8.480469 23.710938 -8.832031 23.96875 -9.210938 C 24.382812 -9.78125 24.679688 -10.332031 24.832031 -10.863281 C 24.984375 -11.398438 24.992188 -11.882812 24.824219 -12.324219 C 24.554688 -12.945312 24.128906 -13.375 23.574219 -13.613281 C 23.015625 -13.828125 22.394531 -13.929688 21.734375 -13.863281 C 21.042969 -13.796875 20.371094 -13.589844 19.714844 -13.265625 C 19.0625 -12.941406 18.519531 -12.550781 18.089844 -12.097656 C 17.964844 -11.964844 17.871094 -11.855469 17.777344 -11.75 C 17.65625 -11.644531 17.5625 -11.535156 17.46875 -11.457031 C 17.347656 -11.351562 17.253906 -11.242188 17.160156 -11.136719 C 17.035156 -11 16.941406 -10.867188 16.84375 -10.730469 C 17.035156 -11.375 17.105469 -11.96875 17.058594 -12.488281 C 16.980469 -13.007812 16.726562 -13.453125 16.296875 -13.800781 C 15.804688 -14.121094 15.269531 -14.246094 14.632812 -14.148438 C 13.996094 -14.023438 13.378906 -13.78125 12.722656 -13.402344 C 12.035156 -12.992188 11.371094 -12.527344 10.734375 -12 C 10.066406 -11.476562 9.488281 -10.976562 8.9375 -10.503906 C 9.203125 -10.996094 9.378906 -11.46875 9.527344 -11.917969 C 9.671875 -12.363281 9.761719 -12.785156 9.789062 -13.183594 C 9.789062 -13.957031 9.539062 -14.460938 8.988281 -14.730469 C 8.652344 -14.839844 8.222656 -14.84375 7.703125 -14.738281 C 7.152344 -14.632812 6.472656 -14.367188 5.703125 -13.96875 L 5.640625 -13.914062 C 6.046875 -13.199219 6.199219 -12.558594 6.160156 -12.019531 C 6.113281 -11.734375 6.003906 -11.429688 5.867188 -11.152344 C 5.703125 -10.851562 5.507812 -10.523438 5.285156 -10.195312 L -2.4375 -0.292969 L 1.488281 -0.0078125 L 7.296875 -7.992188 C 7.480469 -8.121094 7.75 -8.328125 8.058594 -8.621094 C 8.367188 -8.914062 8.707031 -9.261719 9.074219 -9.632812 L 10.269531 -10.75 C 10.699219 -11.117188 11.125 -11.457031 11.578125 -11.824219 C 12.03125 -12.164062 12.480469 -12.417969 12.949219 -12.585938 C 13.855469 -12.863281 14.296875 -12.628906 14.238281 -11.863281 C 14.210938 -11.464844 13.972656 -10.910156 13.546875 -10.195312 Z M 13.546875 -10.195312 "/></g></g></g><g fill="#ff914d" fill-opacity="1"><g transform="translate(223.264315, 199.823105)"><g><path d="M 8.933594 1.722656 L 8.804688 1.78125 C 9.585938 1.957031 10.414062 1.90625 11.324219 1.613281 C 12.203125 1.339844 13.113281 0.929688 13.992188 0.394531 C 14.835938 -0.117188 15.644531 -0.726562 16.429688 -1.371094 C 17.214844 -2.015625 17.882812 -2.65625 18.421875 -3.234375 C 18.355469 -3.191406 18.292969 -3.175781 18.195312 -3.140625 C 18.101562 -3.101562 17.996094 -3.039062 17.867188 -2.980469 C 17.566406 -2.8125 17.238281 -2.652344 16.882812 -2.496094 C 16.523438 -2.316406 16.132812 -2.136719 15.714844 -1.96875 C 14.804688 -1.558594 14.074219 -1.28125 13.464844 -1.183594 C 13.15625 -1.105469 12.929688 -1.128906 12.800781 -1.214844 C 12.675781 -1.300781 12.683594 -1.472656 12.828125 -1.734375 C 12.945312 -2 13.296875 -2.390625 13.808594 -2.859375 L 21.960938 -10.484375 L 18.035156 -11.355469 L 15.683594 -9.191406 C 15.808594 -9.746094 15.824219 -10.210938 15.714844 -10.644531 C 15.601562 -11.050781 15.414062 -11.382812 15.128906 -11.679688 C 14.808594 -11.957031 14.417969 -12.160156 13.984375 -12.3125 C 13.546875 -12.441406 13.03125 -12.496094 12.507812 -12.496094 C 12.089844 -12.472656 11.609375 -12.402344 11.074219 -12.230469 C 10.539062 -12.058594 9.996094 -11.855469 9.410156 -11.578125 C 8.820312 -11.300781 8.195312 -10.972656 7.554688 -10.589844 C 6.914062 -10.207031 6.300781 -9.816406 5.675781 -9.371094 C 4.914062 -8.839844 4.210938 -8.292969 3.554688 -7.710938 C 2.863281 -7.105469 2.265625 -6.507812 1.71875 -5.898438 C 1.332031 -5.457031 0.949219 -4.929688 0.632812 -4.300781 C 0.320312 -3.667969 0.0976562 -3.074219 0.0234375 -2.476562 C -0.0820312 -1.859375 -0.0273438 -1.320312 0.15625 -0.839844 C 0.34375 -0.363281 0.765625 -0.0351562 1.464844 0.121094 C 2.410156 0.332031 3.453125 0.359375 4.554688 0.136719 C 5.074219 0.046875 5.574219 -0.105469 6.054688 -0.289062 C 6.53125 -0.476562 6.96875 -0.730469 7.328125 -1.027344 C 7.128906 -0.402344 7.179688 0.164062 7.46875 0.695312 C 7.730469 1.222656 8.210938 1.5625 8.933594 1.722656 Z M 5.074219 -2.84375 C 4.851562 -3.039062 4.734375 -3.300781 4.726562 -3.652344 C 4.71875 -4.003906 4.867188 -4.410156 5.148438 -4.902344 C 5.402344 -5.371094 5.808594 -5.894531 6.414062 -6.519531 C 7.015625 -7.117188 7.808594 -7.785156 8.789062 -8.53125 C 9.210938 -8.847656 9.632812 -9.164062 10.109375 -9.464844 C 10.558594 -9.777344 11.019531 -10.023438 11.484375 -10.269531 C 11.914062 -10.496094 12.359375 -10.660156 12.816406 -10.734375 C 13.242188 -10.8125 13.671875 -10.777344 14.117188 -10.679688 C 14.363281 -10.59375 14.539062 -10.46875 14.644531 -10.296875 C 14.71875 -10.105469 14.761719 -9.890625 14.761719 -9.628906 C 14.734375 -9.371094 14.671875 -9.09375 14.539062 -8.773438 C 14.410156 -8.453125 14.28125 -8.128906 14.089844 -7.792969 L 14.117188 -7.785156 L 10.332031 -4.421875 C 10.035156 -4.136719 9.648438 -3.84375 9.226562 -3.527344 C 8.777344 -3.21875 8.308594 -2.945312 7.820312 -2.730469 C 7.300781 -2.496094 6.808594 -2.371094 6.335938 -2.359375 C 5.832031 -2.324219 5.402344 -2.480469 5.074219 -2.84375 Z M 5.074219 -2.84375 "/></g></g></g><g fill="#ff914d" fill-opacity="1"><g transform="translate(237.010523, 202.762042)"><g><path d="M 7.652344 -8.335938 L -2.261719 -0.875 L 1.457031 0.414062 L 9.867188 -6.359375 C 10.449219 -6.824219 11.15625 -7.210938 11.972656 -7.5625 C 12.179688 -7.640625 12.460938 -7.757812 12.84375 -7.894531 C 13.214844 -8.007812 13.621094 -8.140625 14.074219 -8.222656 C 14.496094 -8.320312 14.902344 -8.359375 15.308594 -8.398438 C 15.714844 -8.441406 16.066406 -8.410156 16.390625 -8.296875 C 16.679688 -8.167969 16.875 -7.949219 16.960938 -7.675781 C 17.039062 -7.378906 16.988281 -6.972656 16.800781 -6.433594 C 16.707031 -6.164062 16.527344 -5.988281 16.261719 -5.835938 C 16 -5.6875 15.738281 -5.625 15.429688 -5.613281 C 15.125 -5.597656 14.800781 -5.617188 14.476562 -5.730469 C 14.152344 -5.84375 13.882812 -6.027344 13.671875 -6.28125 C 13.359375 -5.90625 13.15625 -5.582031 13.066406 -5.3125 C 12.972656 -5.046875 12.96875 -4.773438 13.046875 -4.566406 C 13.089844 -4.339844 13.203125 -4.148438 13.367188 -4.003906 C 13.527344 -3.855469 13.695312 -3.738281 13.910156 -3.664062 C 14.378906 -3.441406 14.835938 -3.375 15.363281 -3.492188 C 15.859375 -3.621094 16.332031 -3.851562 16.8125 -4.199219 C 17.257812 -4.527344 17.667969 -4.929688 18.015625 -5.410156 C 18.363281 -5.894531 18.625 -6.378906 18.800781 -6.890625 C 18.941406 -7.382812 18.992188 -7.878906 18.945312 -8.347656 C 18.867188 -8.828125 18.648438 -9.234375 18.273438 -9.546875 C 17.886719 -9.832031 17.402344 -10 16.871094 -10.03125 C 16.328125 -10.039062 15.78125 -10.015625 15.226562 -9.90625 C 14.640625 -9.777344 14.070312 -9.613281 13.527344 -9.4375 C 12.976562 -9.238281 12.523438 -9.0625 12.140625 -8.921875 C 12.492188 -9.496094 12.675781 -10.035156 12.726562 -10.53125 C 12.769531 -11 12.601562 -11.390625 12.246094 -11.664062 C 11.949219 -11.855469 11.535156 -11.96875 11.003906 -12.003906 C 10.472656 -12.035156 9.785156 -11.972656 8.972656 -11.800781 C 9.066406 -11.375 9.101562 -11.03125 9.113281 -10.726562 C 9.128906 -10.417969 9.0625 -10.140625 8.96875 -9.871094 C 8.847656 -9.609375 8.664062 -9.34375 8.464844 -9.109375 C 8.226562 -8.859375 7.953125 -8.59375 7.652344 -8.335938 Z M 8.957031 -11.835938 L 8.875 -11.773438 L 8.972656 -11.800781 Z M 8.957031 -11.835938 "/></g></g></g><g fill="#000000" fill-opacity="1"><g transform="translate(142.990222, 217.935068)"><g><path d="M 21.441406 -11.113281 C 20.972656 -11.835938 20.628906 -12.75 20.382812 -13.90625 C 20.136719 -15.0625 19.988281 -16.335938 19.917969 -17.710938 C 19.847656 -19.089844 19.863281 -20.542969 19.945312 -22.0625 C 20.023438 -23.578125 20.167969 -25.101562 20.351562 -26.605469 C 20.507812 -28.039062 20.703125 -29.394531 20.964844 -30.683594 C 21.203125 -31.964844 21.503906 -33.117188 21.808594 -34.140625 C 22.125 -35.140625 22.484375 -36 22.855469 -36.707031 C 23.226562 -37.414062 23.628906 -37.878906 24.058594 -38.101562 C 24.386719 -38.273438 24.734375 -38.289062 25.054688 -38.167969 C 25.386719 -38.019531 25.734375 -37.71875 26.113281 -37.238281 C 26.34375 -38.03125 26.410156 -38.710938 26.3125 -39.269531 C 26.214844 -39.828125 26.015625 -40.273438 25.746094 -40.613281 C 25.148438 -41.265625 24.546875 -41.5 23.988281 -41.339844 C 23.402344 -41.164062 22.835938 -40.648438 22.273438 -39.808594 C 21.664062 -38.882812 21.121094 -37.636719 20.582031 -36.074219 C 20.054688 -34.484375 19.574219 -32.691406 19.167969 -30.746094 C 18.773438 -28.777344 18.449219 -26.679688 18.199219 -24.496094 C 17.964844 -22.289062 17.867188 -20.117188 17.875 -18 C 17.535156 -18.339844 17.234375 -18.859375 16.945312 -19.542969 C 16.65625 -20.226562 16.402344 -20.964844 16.160156 -21.800781 C 15.917969 -22.640625 15.703125 -23.492188 15.523438 -24.394531 C 15.332031 -25.257812 15.179688 -26.109375 15.039062 -26.875 C 14.816406 -28.171875 14.632812 -29.394531 14.464844 -30.589844 C 14.304688 -31.761719 14.1875 -32.855469 14.058594 -33.847656 L 13.769531 -36.140625 C 13.203125 -35.75 12.738281 -35.285156 12.425781 -34.769531 C 12.113281 -34.253906 11.777344 -33.664062 11.429688 -32.96875 C 10.910156 -31.863281 10.433594 -30.621094 9.992188 -29.238281 C 9.566406 -27.828125 9.167969 -26.367188 8.757812 -24.871094 C 8.332031 -23.332031 7.921875 -21.835938 7.535156 -20.351562 C 7.121094 -18.851562 6.671875 -17.492188 6.191406 -16.25 C 5.699219 -14.964844 5.152344 -13.914062 4.578125 -13.039062 C 4.007812 -12.160156 3.351562 -11.566406 2.589844 -11.300781 C 2.007812 -11.0625 1.484375 -11.078125 0.996094 -11.277344 C 0.507812 -11.472656 0.0585938 -11.785156 -0.332031 -12.226562 C -0.730469 -12.628906 -1.082031 -13.121094 -1.371094 -13.675781 C -1.660156 -14.234375 -1.898438 -14.753906 -2.058594 -15.3125 C -2.535156 -14.617188 -2.945312 -13.921875 -3.265625 -13.179688 C -3.585938 -12.433594 -3.84375 -11.691406 -4.011719 -10.898438 C -4.203125 -10.089844 -4.292969 -9.273438 -4.253906 -8.457031 C -4.242188 -7.628906 -4.128906 -6.851562 -3.863281 -6.089844 C -3.597656 -5.203125 -3.164062 -4.429688 -2.617188 -3.75 C -2.074219 -3.070312 -1.390625 -2.554688 -0.644531 -2.234375 C 0.0859375 -1.875 0.90625 -1.722656 1.796875 -1.734375 C 2.691406 -1.75 3.628906 -2.042969 4.644531 -2.566406 C 5.453125 -2.988281 6.144531 -3.761719 6.6875 -4.945312 C 7.246094 -6.101562 7.707031 -7.496094 8.132812 -9.160156 C 8.539062 -10.785156 8.886719 -12.539062 9.164062 -14.480469 C 9.441406 -16.425781 9.707031 -18.390625 9.96875 -20.421875 C 10.21875 -22.417969 10.484375 -24.320312 10.765625 -26.199219 C 11.019531 -28.066406 11.363281 -29.753906 11.75 -31.238281 C 11.652344 -29.324219 11.667969 -27.375 11.808594 -25.425781 C 11.964844 -23.449219 12.285156 -21.527344 12.761719 -19.621094 C 12.910156 -18.960938 13.125 -18.300781 13.363281 -17.589844 C 13.605469 -16.878906 13.921875 -16.207031 14.261719 -15.550781 C 14.601562 -14.890625 15.019531 -14.273438 15.488281 -13.679688 C 15.957031 -13.089844 16.472656 -12.585938 17.066406 -12.1875 C 17.671875 -11.761719 18.3125 -11.453125 19.054688 -11.257812 C 19.773438 -11.050781 20.578125 -10.988281 21.441406 -11.113281 Z M 21.441406 -11.113281 "/></g></g></g><g fill="#000000" fill-opacity="1"><g transform="translate(165.559171, 205.742766)"><g><path d="M 15.097656 -3.921875 C 16.328125 -3.945312 17.472656 -4.296875 18.550781 -4.925781 C 19.625 -5.550781 20.582031 -6.414062 21.460938 -7.464844 C 22.3125 -8.507812 23.039062 -9.695312 23.695312 -11.039062 C 24.324219 -12.378906 24.8125 -13.796875 25.164062 -15.300781 C 25.496094 -16.769531 25.675781 -18.257812 25.707031 -19.738281 C 25.742188 -21.21875 25.609375 -22.65625 25.289062 -24.015625 C 24.949219 -25.339844 24.4375 -26.535156 23.746094 -27.625 C 23.035156 -28.679688 22.105469 -29.558594 20.9375 -30.203125 C 19.773438 -30.84375 18.386719 -31.195312 16.804688 -31.292969 C 15.199219 -31.351562 13.355469 -31.085938 11.21875 -30.453125 L 11.332031 -30.480469 C 10.019531 -30.085938 8.730469 -29.488281 7.515625 -28.707031 C 6.277344 -27.921875 5.214844 -27 4.324219 -25.890625 C 3.429688 -24.777344 2.773438 -23.550781 2.351562 -22.207031 C 1.929688 -20.863281 1.902344 -19.472656 2.285156 -17.980469 C 2.53125 -17.015625 2.972656 -16.332031 3.625 -15.96875 C 4.257812 -15.570312 4.96875 -15.429688 5.730469 -15.566406 C 6.46875 -15.667969 7.171875 -16.023438 7.847656 -16.609375 C 8.519531 -17.191406 8.992188 -17.992188 9.292969 -19.007812 C 8.78125 -18.9375 8.375 -18.921875 8.027344 -19.007812 C 7.660156 -19.0625 7.363281 -19.191406 7.140625 -19.371094 C 6.890625 -19.542969 6.6875 -19.753906 6.5625 -20.015625 C 6.410156 -20.273438 6.304688 -20.570312 6.21875 -20.898438 C 6.148438 -21.175781 6.097656 -21.488281 6.066406 -21.832031 C 6.039062 -22.179688 6.042969 -22.503906 6.074219 -22.835938 C 6.109375 -23.167969 6.140625 -23.5 6.179688 -23.804688 C 6.222656 -24.109375 6.296875 -24.394531 6.351562 -24.644531 C 6.484375 -25.382812 6.804688 -26.082031 7.285156 -26.738281 C 7.765625 -27.390625 8.34375 -28.007812 9.03125 -28.539062 C 9.726562 -29.039062 10.480469 -29.4375 11.335938 -29.773438 C 12.191406 -30.109375 13.082031 -30.308594 14.007812 -30.371094 C 15.515625 -30.460938 16.851562 -30.1875 17.953125 -29.554688 C 19.058594 -28.925781 19.953125 -28.066406 20.667969 -27.011719 C 21.355469 -25.921875 21.875 -24.703125 22.203125 -23.3125 C 22.527344 -21.925781 22.679688 -20.523438 22.660156 -19.105469 C 22.621094 -17.886719 22.445312 -16.722656 22.105469 -15.636719 C 21.773438 -14.519531 21.316406 -13.550781 20.710938 -12.6875 C 20.113281 -11.800781 19.386719 -11.082031 18.578125 -10.554688 C 17.78125 -9.996094 16.882812 -9.707031 15.949219 -9.675781 C 15.257812 -9.617188 14.523438 -9.722656 13.75 -9.996094 C 12.980469 -10.238281 12.214844 -10.691406 11.4375 -11.316406 L 11.609375 -11.800781 C 11.847656 -12.480469 12.105469 -13.195312 12.363281 -13.90625 C 12.59375 -14.613281 12.847656 -15.355469 13.097656 -16.097656 C 13.332031 -16.804688 13.589844 -17.519531 13.882812 -18.210938 C 14.175781 -18.90625 14.46875 -19.597656 14.824219 -20.277344 C 15.332031 -21.289062 15.90625 -22.261719 16.550781 -23.191406 C 17.203125 -24.09375 18.027344 -25.011719 18.992188 -25.964844 C 18.199219 -25.613281 17.46875 -25.132812 16.820312 -24.554688 C 16.175781 -23.976562 15.554688 -23.289062 14.921875 -22.539062 C 14.296875 -21.761719 13.6875 -20.929688 13.140625 -20.082031 C 12.589844 -19.234375 12.050781 -18.359375 11.507812 -17.484375 C 10.972656 -16.582031 10.425781 -15.738281 9.863281 -14.945312 C 9.300781 -14.152344 8.722656 -13.417969 8.125 -12.765625 C 7.503906 -12.074219 6.878906 -11.53125 6.21875 -11.128906 C 5.5625 -10.695312 4.839844 -10.421875 4.035156 -10.335938 C 3.414062 -10.234375 2.902344 -10.28125 2.5 -10.472656 C 2.070312 -10.65625 1.710938 -10.917969 1.410156 -11.28125 C 0.824219 -11.957031 0.472656 -12.867188 0.40625 -14.054688 C -0.0976562 -13.601562 -0.523438 -13.082031 -0.863281 -12.464844 C -1.234375 -11.839844 -1.5 -11.152344 -1.699219 -10.425781 C -1.914062 -9.664062 -2.019531 -8.929688 -2.058594 -8.15625 C -2.09375 -7.382812 -2.027344 -6.664062 -1.90625 -5.957031 C -1.773438 -5.199219 -1.566406 -4.515625 -1.230469 -3.894531 C -0.925781 -3.265625 -0.492188 -2.730469 0.0546875 -2.308594 C 0.585938 -1.855469 1.1875 -1.570312 1.933594 -1.40625 C 2.683594 -1.246094 3.535156 -1.257812 4.480469 -1.46875 C 5.207031 -1.625 5.855469 -1.96875 6.488281 -2.484375 C 7.09375 -2.992188 7.671875 -3.613281 8.207031 -4.394531 C 8.71875 -5.144531 9.179688 -6 9.636719 -6.96875 C 10.074219 -7.90625 10.488281 -8.925781 10.898438 -9.972656 C 10.765625 -8.878906 10.800781 -7.945312 10.992188 -7.199219 C 11.160156 -6.417969 11.433594 -5.8125 11.851562 -5.328125 C 12.25 -4.8125 12.726562 -4.433594 13.28125 -4.222656 C 13.816406 -3.976562 14.433594 -3.871094 15.097656 -3.921875 Z M 15.097656 -3.921875 "/></g></g></g><g fill="#000000" fill-opacity="1"><g transform="translate(190.947577, 199.49592)"><g><path d="M 9.050781 -0.929688 L 8.945312 -0.835938 C 9.742188 -0.894531 10.519531 -1.179688 11.308594 -1.726562 C 12.070312 -2.238281 12.824219 -2.894531 13.511719 -3.660156 C 14.171875 -4.394531 14.769531 -5.210938 15.335938 -6.054688 C 15.902344 -6.898438 16.355469 -7.703125 16.703125 -8.414062 C 16.652344 -8.355469 16.597656 -8.320312 16.515625 -8.257812 C 16.433594 -8.195312 16.355469 -8.105469 16.246094 -8.011719 C 16.007812 -7.765625 15.742188 -7.515625 15.445312 -7.265625 C 15.152344 -6.984375 14.828125 -6.703125 14.476562 -6.421875 C 13.726562 -5.765625 13.105469 -5.289062 12.550781 -5.019531 C 12.277344 -4.855469 12.050781 -4.8125 11.90625 -4.859375 C 11.761719 -4.902344 11.71875 -5.074219 11.78125 -5.363281 C 11.820312 -5.652344 12.039062 -6.125 12.398438 -6.722656 L 18 -16.375 L 13.992188 -16.078125 L 12.363281 -13.328125 C 12.324219 -13.894531 12.203125 -14.34375 11.976562 -14.726562 C 11.75 -15.082031 11.472656 -15.347656 11.113281 -15.550781 C 10.730469 -15.722656 10.292969 -15.804688 9.835938 -15.828125 C 9.378906 -15.820312 8.871094 -15.726562 8.367188 -15.574219 C 7.976562 -15.429688 7.535156 -15.226562 7.070312 -14.90625 C 6.609375 -14.585938 6.148438 -14.238281 5.667969 -13.800781 C 5.183594 -13.367188 4.679688 -12.871094 4.175781 -12.320312 C 3.671875 -11.765625 3.199219 -11.21875 2.730469 -10.609375 C 2.15625 -9.882812 1.636719 -9.15625 1.179688 -8.40625 C 0.691406 -7.628906 0.289062 -6.882812 -0.0546875 -6.144531 C -0.300781 -5.609375 -0.511719 -4.996094 -0.632812 -4.300781 C -0.753906 -3.605469 -0.792969 -2.972656 -0.691406 -2.378906 C -0.617188 -1.753906 -0.40625 -1.257812 -0.0898438 -0.851562 C 0.222656 -0.445312 0.722656 -0.253906 1.433594 -0.304688 C 2.402344 -0.378906 3.410156 -0.652344 4.402344 -1.183594 C 4.871094 -1.417969 5.304688 -1.707031 5.710938 -2.023438 C 6.117188 -2.339844 6.460938 -2.710938 6.71875 -3.101562 C 6.710938 -2.441406 6.921875 -1.914062 7.351562 -1.488281 C 7.753906 -1.0625 8.3125 -0.875 9.050781 -0.929688 Z M 4.035156 -4.1875 C 3.769531 -4.3125 3.582031 -4.527344 3.472656 -4.859375 C 3.359375 -5.195312 3.386719 -5.625 3.515625 -6.179688 C 3.621094 -6.703125 3.859375 -7.320312 4.261719 -8.09375 C 4.664062 -8.839844 5.226562 -9.710938 5.953125 -10.707031 C 6.265625 -11.128906 6.578125 -11.554688 6.945312 -11.980469 C 7.285156 -12.40625 7.660156 -12.777344 8.03125 -13.148438 C 8.378906 -13.488281 8.757812 -13.773438 9.171875 -13.976562 C 9.558594 -14.175781 9.980469 -14.265625 10.433594 -14.296875 C 10.691406 -14.289062 10.898438 -14.21875 11.050781 -14.085938 C 11.175781 -13.925781 11.277344 -13.730469 11.351562 -13.480469 C 11.398438 -13.226562 11.421875 -12.941406 11.390625 -12.597656 C 11.359375 -12.25 11.328125 -11.90625 11.238281 -11.527344 L 11.269531 -11.53125 L 8.613281 -7.214844 C 8.414062 -6.855469 8.128906 -6.464844 7.816406 -6.039062 C 7.476562 -5.617188 7.105469 -5.214844 6.703125 -4.871094 C 6.273438 -4.496094 5.832031 -4.234375 5.386719 -4.089844 C 4.914062 -3.910156 4.453125 -3.933594 4.035156 -4.1875 Z M 4.035156 -4.1875 "/></g></g></g><g fill="#000000" fill-opacity="1"><g transform="translate(204.77851, 198.034411)"><g><path d="M 13.546875 -10.195312 L 5.183594 0.289062 L 8.886719 0.445312 C 8.984375 0.308594 9.109375 0.144531 9.296875 -0.0703125 C 9.453125 -0.257812 9.640625 -0.472656 9.859375 -0.742188 L 11.121094 -2.367188 C 11.5625 -2.933594 11.972656 -3.476562 12.414062 -4.015625 C 12.851562 -4.558594 13.199219 -4.988281 13.511719 -5.367188 L 14.453125 -6.5 C 14.609375 -6.71875 14.800781 -6.960938 14.988281 -7.203125 C 15.175781 -7.417969 15.394531 -7.660156 15.613281 -7.929688 C 16.019531 -8.417969 16.425781 -8.902344 16.863281 -9.382812 C 17.296875 -9.867188 17.734375 -10.351562 18.164062 -10.777344 C 18.378906 -10.988281 18.621094 -11.171875 18.863281 -11.355469 C 19.132812 -11.535156 19.402344 -11.6875 19.671875 -11.839844 C 19.9375 -11.964844 20.199219 -12.058594 20.464844 -12.125 C 20.695312 -12.164062 20.925781 -12.175781 21.121094 -12.132812 C 21.320312 -12.089844 21.390625 -11.886719 21.304688 -11.519531 C 21.164062 -11.132812 20.773438 -10.5 20.144531 -9.691406 L 17.710938 -6.921875 C 17.210938 -6.328125 16.683594 -5.738281 16.125 -5.148438 C 15.507812 -4.507812 15.003906 -3.859375 14.671875 -3.253906 C 14.417969 -2.871094 14.246094 -2.484375 14.105469 -2.09375 C 13.960938 -1.703125 13.933594 -1.304688 13.964844 -0.960938 C 13.996094 -0.585938 14.113281 -0.261719 14.347656 0.0390625 C 14.554688 0.339844 14.941406 0.570312 15.441406 0.746094 C 15.859375 0.921875 16.3125 0.980469 16.796875 0.960938 C 17.257812 0.9375 17.722656 0.828125 18.140625 0.570312 C 18.554688 0.375 18.976562 0.0898438 19.402344 -0.25 C 19.828125 -0.59375 20.226562 -0.964844 20.65625 -1.390625 C 21.058594 -1.789062 21.457031 -2.191406 21.832031 -2.589844 C 22.203125 -2.992188 22.542969 -3.367188 22.859375 -3.746094 L 22.113281 -3.34375 C 21.753906 -3.140625 21.429688 -2.964844 21.132812 -2.8125 C 20.804688 -2.636719 20.507812 -2.515625 20.246094 -2.449219 C 19.953125 -2.355469 19.753906 -2.339844 19.617188 -2.4375 C 19.480469 -2.53125 19.46875 -2.734375 19.574219 -3.011719 C 19.652344 -3.292969 19.816406 -3.625 20.078125 -4.035156 C 20.332031 -4.414062 20.621094 -4.851562 21 -5.339844 L 22.074219 -6.746094 C 22.421875 -7.207031 22.769531 -7.667969 23.117188 -8.101562 C 23.429688 -8.480469 23.710938 -8.832031 23.96875 -9.210938 C 24.382812 -9.78125 24.679688 -10.332031 24.832031 -10.863281 C 24.984375 -11.398438 24.992188 -11.882812 24.824219 -12.324219 C 24.554688 -12.945312 24.128906 -13.375 23.574219 -13.613281 C 23.015625 -13.828125 22.394531 -13.929688 21.734375 -13.863281 C 21.042969 -13.796875 20.371094 -13.589844 19.714844 -13.265625 C 19.0625 -12.941406 18.519531 -12.550781 18.089844 -12.097656 C 17.964844 -11.964844 17.871094 -11.855469 17.777344 -11.75 C 17.65625 -11.644531 17.5625 -11.535156 17.46875 -11.457031 C 17.347656 -11.351562 17.253906 -11.242188 17.160156 -11.136719 C 17.035156 -11 16.941406 -10.867188 16.84375 -10.730469 C 17.035156 -11.375 17.105469 -11.96875 17.058594 -12.488281 C 16.980469 -13.007812 16.726562 -13.453125 16.296875 -13.800781 C 15.804688 -14.121094 15.269531 -14.246094 14.632812 -14.148438 C 13.996094 -14.023438 13.378906 -13.78125 12.722656 -13.402344 C 12.035156 -12.992188 11.371094 -12.527344 10.734375 -12 C 10.066406 -11.476562 9.488281 -10.976562 8.9375 -10.503906 C 9.203125 -10.996094 9.378906 -11.46875 9.527344 -11.917969 C 9.671875 -12.363281 9.761719 -12.785156 9.789062 -13.183594 C 9.789062 -13.957031 9.539062 -14.460938 8.988281 -14.730469 C 8.652344 -14.839844 8.222656 -14.84375 7.703125 -14.738281 C 7.152344 -14.632812 6.472656 -14.367188 5.703125 -13.96875 L 5.640625 -13.914062 C 6.046875 -13.199219 6.199219 -12.558594 6.160156 -12.019531 C 6.113281 -11.734375 6.003906 -11.429688 5.867188 -11.152344 C 5.703125 -10.851562 5.507812 -10.523438 5.285156 -10.195312 L -2.4375 -0.292969 L 1.488281 -0.0078125 L 7.296875 -7.992188 C 7.480469 -8.121094 7.75 -8.328125 8.058594 -8.621094 C 8.367188 -8.914062 8.707031 -9.261719 9.074219 -9.632812 L 10.269531 -10.75 C 10.699219 -11.117188 11.125 -11.457031 11.578125 -11.824219 C 12.03125 -12.164062 12.480469 -12.417969 12.949219 -12.585938 C 13.855469 -12.863281 14.296875 -12.628906 14.238281 -11.863281 C 14.210938 -11.464844 13.972656 -10.910156 13.546875 -10.195312 Z M 13.546875 -10.195312 "/></g></g></g><g fill="#000000" fill-opacity="1"><g transform="translate(223.907673, 199.374423)"><g><path d="M 8.933594 1.722656 L 8.804688 1.78125 C 9.585938 1.957031 10.414062 1.90625 11.324219 1.613281 C 12.203125 1.339844 13.113281 0.929688 13.992188 0.394531 C 14.835938 -0.117188 15.644531 -0.726562 16.429688 -1.371094 C 17.214844 -2.015625 17.882812 -2.65625 18.421875 -3.234375 C 18.355469 -3.191406 18.292969 -3.175781 18.195312 -3.140625 C 18.101562 -3.101562 17.996094 -3.039062 17.867188 -2.980469 C 17.566406 -2.8125 17.238281 -2.652344 16.882812 -2.496094 C 16.523438 -2.316406 16.132812 -2.136719 15.714844 -1.96875 C 14.804688 -1.558594 14.074219 -1.28125 13.464844 -1.183594 C 13.15625 -1.105469 12.929688 -1.128906 12.800781 -1.214844 C 12.675781 -1.300781 12.683594 -1.472656 12.828125 -1.734375 C 12.945312 -2 13.296875 -2.390625 13.808594 -2.859375 L 21.960938 -10.484375 L 18.035156 -11.355469 L 15.683594 -9.191406 C 15.808594 -9.746094 15.824219 -10.210938 15.714844 -10.644531 C 15.601562 -11.050781 15.414062 -11.382812 15.128906 -11.679688 C 14.808594 -11.957031 14.417969 -12.160156 13.984375 -12.3125 C 13.546875 -12.441406 13.03125 -12.496094 12.507812 -12.496094 C 12.089844 -12.472656 11.609375 -12.402344 11.074219 -12.230469 C 10.539062 -12.058594 9.996094 -11.855469 9.410156 -11.578125 C 8.820312 -11.300781 8.195312 -10.972656 7.554688 -10.589844 C 6.914062 -10.207031 6.300781 -9.816406 5.675781 -9.371094 C 4.914062 -8.839844 4.210938 -8.292969 3.554688 -7.710938 C 2.863281 -7.105469 2.265625 -6.507812 1.71875 -5.898438 C 1.332031 -5.457031 0.949219 -4.929688 0.632812 -4.300781 C 0.320312 -3.667969 0.0976562 -3.074219 0.0234375 -2.476562 C -0.0820312 -1.859375 -0.0273438 -1.320312 0.15625 -0.839844 C 0.34375 -0.363281 0.765625 -0.0351562 1.464844 0.121094 C 2.410156 0.332031 3.453125 0.359375 4.554688 0.136719 C 5.074219 0.046875 5.574219 -0.105469 6.054688 -0.289062 C 6.53125 -0.476562 6.96875 -0.730469 7.328125 -1.027344 C 7.128906 -0.402344 7.179688 0.164062 7.46875 0.695312 C 7.730469 1.222656 8.210938 1.5625 8.933594 1.722656 Z M 5.074219 -2.84375 C 4.851562 -3.039062 4.734375 -3.300781 4.726562 -3.652344 C 4.71875 -4.003906 4.867188 -4.410156 5.148438 -4.902344 C 5.402344 -5.371094 5.808594 -5.894531 6.414062 -6.519531 C 7.015625 -7.117188 7.808594 -7.785156 8.789062 -8.53125 C 9.210938 -8.847656 9.632812 -9.164062 10.109375 -9.464844 C 10.558594 -9.777344 11.019531 -10.023438 11.484375 -10.269531 C 11.914062 -10.496094 12.359375 -10.660156 12.816406 -10.734375 C 13.242188 -10.8125 13.671875 -10.777344 14.117188 -10.679688 C 14.363281 -10.59375 14.539062 -10.46875 14.644531 -10.296875 C 14.71875 -10.105469 14.761719 -9.890625 14.761719 -9.628906 C 14.734375 -9.371094 14.671875 -9.09375 14.539062 -8.773438 C 14.410156 -8.453125 14.28125 -8.128906 14.089844 -7.792969 L 14.117188 -7.785156 L 10.332031 -4.421875 C 10.035156 -4.136719 9.648438 -3.84375 9.226562 -3.527344 C 8.777344 -3.21875 8.308594 -2.945312 7.820312 -2.730469 C 7.300781 -2.496094 6.808594 -2.371094 6.335938 -2.359375 C 5.832031 -2.324219 5.402344 -2.480469 5.074219 -2.84375 Z M 5.074219 -2.84375 "/></g></g></g><g fill="#000000" fill-opacity="1"><g transform="translate(237.653867, 202.313375)"><g><path d="M 7.652344 -8.335938 L -2.261719 -0.875 L 1.457031 0.414062 L 9.867188 -6.359375 C 10.449219 -6.824219 11.15625 -7.210938 11.972656 -7.5625 C 12.179688 -7.640625 12.460938 -7.757812 12.84375 -7.894531 C 13.214844 -8.007812 13.621094 -8.140625 14.074219 -8.222656 C 14.496094 -8.320312 14.902344 -8.359375 15.308594 -8.398438 C 15.714844 -8.441406 16.066406 -8.410156 16.390625 -8.296875 C 16.679688 -8.167969 16.875 -7.949219 16.960938 -7.675781 C 17.039062 -7.378906 16.988281 -6.972656 16.800781 -6.433594 C 16.707031 -6.164062 16.527344 -5.988281 16.261719 -5.835938 C 16 -5.6875 15.738281 -5.625 15.429688 -5.613281 C 15.125 -5.597656 14.800781 -5.617188 14.476562 -5.730469 C 14.152344 -5.84375 13.882812 -6.027344 13.671875 -6.28125 C 13.359375 -5.90625 13.15625 -5.582031 13.066406 -5.3125 C 12.972656 -5.046875 12.96875 -4.773438 13.046875 -4.566406 C 13.089844 -4.339844 13.203125 -4.148438 13.367188 -4.003906 C 13.527344 -3.855469 13.695312 -3.738281 13.910156 -3.664062 C 14.378906 -3.441406 14.835938 -3.375 15.363281 -3.492188 C 15.859375 -3.621094 16.332031 -3.851562 16.8125 -4.199219 C 17.257812 -4.527344 17.667969 -4.929688 18.015625 -5.410156 C 18.363281 -5.894531 18.625 -6.378906 18.800781 -6.890625 C 18.941406 -7.382812 18.992188 -7.878906 18.945312 -8.347656 C 18.867188 -8.828125 18.648438 -9.234375 18.273438 -9.546875 C 17.886719 -9.832031 17.402344 -10 16.871094 -10.03125 C 16.328125 -10.039062 15.78125 -10.015625 15.226562 -9.90625 C 14.640625 -9.777344 14.070312 -9.613281 13.527344 -9.4375 C 12.976562 -9.238281 12.523438 -9.0625 12.140625 -8.921875 C 12.492188 -9.496094 12.675781 -10.035156 12.726562 -10.53125 C 12.769531 -11 12.601562 -11.390625 12.246094 -11.664062 C 11.949219 -11.855469 11.535156 -11.96875 11.003906 -12.003906 C 10.472656 -12.035156 9.785156 -11.972656 8.972656 -11.800781 C 9.066406 -11.375 9.101562 -11.03125 9.113281 -10.726562 C 9.128906 -10.417969 9.0625 -10.140625 8.96875 -9.871094 C 8.847656 -9.609375 8.664062 -9.34375 8.464844 -9.109375 C 8.226562 -8.859375 7.953125 -8.59375 7.652344 -8.335938 Z M 8.957031 -11.835938 L 8.875 -11.773438 L 8.972656 -11.800781 Z M 8.957031 -11.835938 "/></g></g></g></svg>